<svg width="18" height="24" viewBox="0 0 18 24" fill="none" xmlns="http://www.w3.org/2000/svg">
<path fill-rule="evenodd" clip-rule="evenodd" d="M17.5 1.70682C17.4999 1.30242 17.2563 0.937884 16.8827 0.78314C16.509 0.628396 16.079 0.71391 15.793 0.999818L15.177 1.61582C15.0789 1.71265 14.9211 1.71265 14.823 1.61582L13.707 0.499818C13.3165 0.109436 12.6835 0.109436 12.293 0.499818L11.177 1.61582C11.0789 1.71265 10.9211 1.71265 10.823 1.61582L9.707 0.499818C9.3165 0.109436 8.6835 0.109436 8.293 0.499818L7.177 1.61582C7.07887 1.71265 6.92113 1.71265 6.823 1.61582L5.707 0.499818C5.3165 0.109436 4.6835 0.109436 4.293 0.499818L3.177 1.61582C3.07887 1.71265 2.92113 1.71265 2.823 1.61582L2.207 0.999818C1.92101 0.71391 1.49096 0.628396 1.11735 0.78314C0.743728 0.937884 0.500086 1.30242 0.5 1.70682V22.2928C0.500086 22.6972 0.743728 23.0618 1.11735 23.2165C1.49096 23.3712 1.92101 23.2857 2.207 22.9998L2.823 22.3828C2.92113 22.286 3.07887 22.286 3.177 22.3828L4.293 23.4998C4.6835 23.8902 5.3165 23.8902 5.707 23.4998L6.823 22.3828C6.92113 22.286 7.07887 22.286 7.177 22.3828L8.293 23.4998C8.6835 23.8902 9.3165 23.8902 9.707 23.4998L10.823 22.3828C10.9211 22.286 11.0789 22.286 11.177 22.3828L12.293 23.4998C12.6835 23.8902 13.3165 23.8902 13.707 23.4998L14.823 22.3838C14.8698 22.3365 14.9335 22.31 15 22.31C15.0665 22.31 15.1302 22.3365 15.177 22.3838L15.792 22.9998C16.0779 23.2864 16.5084 23.3724 16.8825 23.2176C17.2565 23.0627 17.5003 22.6977 17.5 22.2928V1.70682ZM10.431 16.4768C10.2868 16.2512 10.274 15.9658 10.3973 15.7282C10.5206 15.4905 10.7613 15.3367 11.0288 15.3247C11.2963 15.3126 11.5498 15.4442 11.694 15.6698C12.0156 16.1763 12.6516 16.3829 13.2094 16.1621C13.7672 15.9413 14.0894 15.3553 13.9772 14.766C13.865 14.1767 13.3499 13.7502 12.75 13.7498C11.2916 13.747 10.089 12.6063 10.0094 11.1501C9.92969 9.69386 11.0006 8.4287 12.45 8.26682C12.5765 8.25302 12.6722 8.14607 12.672 8.01882V7.66682C12.672 7.2526 13.0078 6.91682 13.422 6.91682C13.8362 6.91682 14.172 7.2526 14.172 7.66682V8.49982C14.1725 8.58321 14.214 8.66101 14.283 8.70782C14.6099 8.92715 14.8861 9.21391 15.093 9.54882C15.2341 9.77675 15.2429 10.0627 15.1161 10.2988C14.9892 10.535 14.746 10.6856 14.4781 10.6938C14.2101 10.7021 13.9581 10.5668 13.817 10.3388C13.4994 9.82909 12.8642 9.61726 12.3042 9.83435C11.7443 10.0514 11.4178 10.6361 11.5268 11.2267C11.6358 11.8173 12.1494 12.2469 12.75 12.2498C14.2114 12.2478 15.4189 13.3894 15.4988 14.8486C15.5786 16.3078 14.5029 17.5744 13.05 17.7318C12.9231 17.7457 12.8272 17.8532 12.828 17.9808V18.3338C12.828 18.748 12.4922 19.0838 12.078 19.0838C11.6638 19.0838 11.328 18.748 11.328 18.3338V17.4998C11.3281 17.4163 11.2864 17.3383 11.217 17.2918C10.9012 17.0778 10.6334 16.8002 10.431 16.4768ZM4 13.7498H7.5C7.91421 13.7498 8.25 13.414 8.25 12.9998C8.25 12.5856 7.91421 12.2498 7.5 12.2498H4C3.58579 12.2498 3.25 12.5856 3.25 12.9998C3.25 13.414 3.58579 13.7498 4 13.7498ZM7.75 16.9998C7.75 17.414 7.41421 17.7498 7 17.7498H4C3.58579 17.7498 3.25 17.414 3.25 16.9998C3.25 16.5856 3.58579 16.2498 4 16.2498H7C7.41421 16.2498 7.75 16.5856 7.75 16.9998ZM4 9.74982H7.5C7.91421 9.74982 8.25 9.41403 8.25 8.99982C8.25 8.5856 7.91421 8.24982 7.5 8.24982H4C3.58579 8.24982 3.25 8.5856 3.25 8.99982C3.25 9.41403 3.58579 9.74982 4 9.74982Z" fill="#000C40"/>
</svg>
