<svg width="24" height="24" viewBox="0 0 24 24" fill="none" xmlns="http://www.w3.org/2000/svg">
<path d="M22.812 7.88374L19.78 4.85074C19.7301 4.80167 19.6915 4.74228 19.667 4.67674L18.127 0.676736C17.9468 0.210344 17.4514 -0.0529049 16.964 0.0587359C15.4426 0.402879 14.0425 1.15198 12.912 2.22674C11.8879 3.24751 11.228 4.57683 11.034 6.00974C10.9757 6.46669 11.237 6.90438 11.667 7.06974L15.716 8.62774C15.7817 8.65251 15.8414 8.69103 15.891 8.74074L18.922 11.7727C19.2033 12.0542 19.585 12.2124 19.983 12.2124C20.381 12.2124 20.7627 12.0542 21.044 11.7727L22.812 10.0047C23.3976 9.41899 23.3976 8.46949 22.812 7.88374Z" fill="#000C40"/>
<path d="M5.654 17.9367C5.44333 18.1479 5.15729 18.2666 4.859 18.2666C4.56071 18.2666 4.27468 18.1479 4.064 17.9367L3.124 17.0067C2.91284 16.7961 2.79416 16.51 2.79416 16.2117C2.79416 15.9134 2.91284 15.6274 3.124 15.4167C3.33438 15.2021 3.62345 15.0828 3.924 15.0867C4.22172 15.0824 4.50786 15.2019 4.714 15.4167L5.654 16.3467C5.86517 16.5574 5.98384 16.8434 5.98384 17.1417C5.98384 17.44 5.86517 17.7261 5.654 17.9367Z" fill="#000C40"/>
<path d="M4.544 14.1767C4.10494 13.7377 4.10494 13.0258 4.544 12.5867C4.98307 12.1477 5.69494 12.1477 6.134 12.5867L7.774 14.2267C7.98503 14.4355 8.10385 14.7199 8.104 15.0167C8.10386 15.3165 7.98524 15.6041 7.774 15.8167C7.32715 16.2366 6.63085 16.2366 6.184 15.8167L4.544 14.1767Z" fill="#000C40"/>
<path d="M9.894 13.6997C9.68332 13.9109 9.39729 14.0296 9.099 14.0296C8.80071 14.0296 8.51468 13.9109 8.304 13.6997L6.664 12.0597C6.45284 11.8491 6.33416 11.563 6.33416 11.2647C6.33416 10.9664 6.45284 10.6804 6.664 10.4697C6.87229 10.258 7.15702 10.1391 7.454 10.1397C7.75394 10.139 8.04182 10.2578 8.254 10.4697L9.894 12.1097C10.1052 12.3204 10.2238 12.6064 10.2238 12.9047C10.2238 13.203 10.1052 13.4891 9.894 13.6997Z" fill="#000C40"/>
<path d="M11.984 11.1997C11.984 11.2387 11.984 11.2787 11.984 11.3177C11.9946 11.5258 11.8751 11.7187 11.684 11.8017C11.2575 11.9844 10.7633 11.8972 10.425 11.5797L9.495 10.6397C9.28016 10.4336 9.16063 10.1474 9.165 9.84974C9.16108 9.54918 9.28032 9.26012 9.495 9.04974C9.94185 8.62988 10.6382 8.62988 11.085 9.04974L11.976 9.94974C12.1074 10.0823 12.1541 10.277 12.097 10.4547C12.021 10.6957 11.9828 10.947 11.984 11.1997Z" fill="#000C40"/>
<path d="M13.769 14.7497C13.8628 14.6562 13.9157 14.5292 13.916 14.3967C13.9162 14.264 13.8637 14.1367 13.77 14.0427L12.714 12.9867C12.6272 12.8996 12.5476 12.8057 12.476 12.7057C12.3431 12.5216 12.1029 12.4502 11.891 12.5317C11.7354 12.5912 11.5727 12.6299 11.407 12.6467C11.2912 12.658 11.183 12.7093 11.101 12.7917L11.093 12.7997C11.0129 12.8807 10.9628 12.9865 10.951 13.0997C10.9105 13.5249 10.7244 13.9231 10.424 14.2267C10.1206 14.5235 9.72746 14.7112 9.306 14.7607C9.19249 14.7731 9.08663 14.8239 9.006 14.9047L8.977 14.9347C8.8979 15.0143 8.84789 15.1183 8.835 15.2297C8.78826 15.6519 8.59964 16.0457 8.3 16.3467C8.00129 16.6391 7.61483 16.8253 7.2 16.8767C7.08862 16.8904 6.98507 16.9411 6.906 17.0207L6.844 17.0827C6.76643 17.1616 6.7172 17.2639 6.704 17.3737C6.60859 18.2183 5.94736 18.8878 5.104 18.9937C4.99368 19.008 4.89128 19.0587 4.813 19.1377L0.894003 23.0997C0.755786 23.2432 0.712923 23.4536 0.784003 23.6397C0.860704 23.8264 1.04215 23.9487 1.244 23.9497L4.304 23.9697C4.43447 23.9705 4.56007 23.9203 4.654 23.8297L13.769 14.7497Z" fill="#000C40"/>
<path d="M17.313 22.5257L18.603 23.9657H9.76C9.6273 23.966 9.49995 23.9135 9.406 23.8197L8.116 22.5297C8.02196 22.4359 7.96911 22.3086 7.96911 22.1757C7.96911 22.0429 8.02196 21.9155 8.116 21.8217L14.836 15.1027C15.2264 14.7122 15.2264 14.0792 14.836 13.6887L13.423 12.2757C12.8723 11.6847 12.8885 10.7637 13.4598 10.1925C14.031 9.62127 14.952 9.60502 15.543 10.1557L17.663 12.2757C18.4144 13.026 18.8367 14.0444 18.8367 15.1062C18.8367 16.1681 18.4144 17.1864 17.663 17.9367L17.315 18.2847C16.144 19.4556 16.1431 21.3538 17.313 22.5257Z" fill="#000C40"/>
</svg>
