<svg width="20" height="20" viewBox="0 0 20 20" fill="none" xmlns="http://www.w3.org/2000/svg">
<path d="M19.01 6.56945L16.4833 4.04195C16.4417 4.00106 16.4096 3.95157 16.3892 3.89695L15.1058 0.563621C14.9556 0.174961 14.5428 -0.0444129 14.1367 0.0486211C12.8688 0.335407 11.7021 0.959656 10.76 1.85529C9.90655 2.70593 9.35662 3.8137 9.195 5.00779C9.14638 5.38859 9.36419 5.75332 9.7225 5.89112L13.0967 7.18945C13.1514 7.2101 13.2011 7.2422 13.2425 7.28362L15.7683 9.81029C16.0028 10.0449 16.3208 10.1767 16.6525 10.1767C16.9842 10.1767 17.3022 10.0449 17.5367 9.81029L19.01 8.33695C19.498 7.84883 19.498 7.05758 19.01 6.56945Z" fill="#2066DA"/>
<path d="M4.71166 14.947C4.5361 15.1229 4.29774 15.2218 4.04916 15.2218C3.80059 15.2218 3.56223 15.1229 3.38667 14.947L2.60333 14.172C2.42736 13.9964 2.32847 13.758 2.32847 13.5095C2.32847 13.2609 2.42736 13.0225 2.60333 12.847C2.77865 12.6681 3.01954 12.5687 3.27 12.572C3.51809 12.5683 3.75655 12.6679 3.92833 12.847L4.71166 13.622C4.88764 13.7975 4.98653 14.0359 4.98653 14.2845C4.98653 14.533 4.88764 14.7714 4.71166 14.947Z" fill="#2066DA"/>
<path d="M3.78666 11.8136C3.42078 11.4477 3.42078 10.8545 3.78666 10.4886C4.15255 10.1227 4.74578 10.1227 5.11166 10.4886L6.47833 11.8553C6.65419 12.0292 6.7532 12.2663 6.75333 12.5136C6.75321 12.7634 6.65437 13.0031 6.47833 13.1803C6.10596 13.5302 5.5257 13.5302 5.15333 13.1803L3.78666 11.8136Z" fill="#2066DA"/>
<path d="M8.245 11.4161C8.06943 11.5921 7.83107 11.691 7.5825 11.691C7.33392 11.691 7.09556 11.5921 6.92 11.4161L5.55333 10.0495C5.37736 9.87389 5.27847 9.63553 5.27847 9.38695C5.27847 9.13838 5.37736 8.90002 5.55333 8.72445C5.72691 8.54805 5.96418 8.44893 6.21166 8.44945C6.46161 8.44884 6.70151 8.5478 6.87833 8.72445L8.245 10.0911C8.42097 10.2667 8.51986 10.505 8.51986 10.7536C8.51986 11.0022 8.42097 11.2406 8.245 11.4161Z" fill="#2066DA"/>
<path d="M9.98666 9.33279C9.98666 9.36529 9.98666 9.39862 9.98666 9.43112C9.99551 9.60452 9.89589 9.76523 9.73666 9.83445C9.38124 9.98664 8.96944 9.91403 8.6875 9.64945L7.9125 8.86612C7.73346 8.69434 7.63385 8.45588 7.6375 8.20779C7.63423 7.95733 7.7336 7.71644 7.9125 7.54112C8.28487 7.19124 8.86512 7.19124 9.2375 7.54112L9.98 8.29112C10.0895 8.40158 10.1284 8.56385 10.0808 8.71195C10.0175 8.91277 9.98569 9.12221 9.98666 9.33279Z" fill="#2066DA"/>
<path d="M11.4742 12.2911C11.5524 12.2132 11.5964 12.1074 11.5967 11.997C11.5969 11.8864 11.5531 11.7802 11.475 11.702L10.595 10.822C10.5227 10.7494 10.4564 10.6711 10.3967 10.5878C10.2859 10.4344 10.0857 10.3748 9.90916 10.4428C9.77953 10.4924 9.64391 10.5246 9.50583 10.5386C9.40936 10.548 9.31919 10.5907 9.25083 10.6595L9.24416 10.6661C9.1774 10.7335 9.13566 10.8217 9.12583 10.9161C9.09212 11.2705 8.93697 11.6022 8.68666 11.8553C8.43385 12.1026 8.10621 12.259 7.755 12.3003C7.66041 12.3106 7.57219 12.3529 7.505 12.4203L7.48083 12.4453C7.41492 12.5116 7.37324 12.5982 7.3625 12.6911C7.32355 13.0429 7.16636 13.3711 6.91666 13.622C6.66774 13.8656 6.34568 14.0208 6 14.0636C5.90718 14.075 5.82088 14.1173 5.755 14.1836L5.70333 14.2353C5.63869 14.301 5.59766 14.3863 5.58666 14.4778C5.50715 15.1816 4.95613 15.7395 4.25333 15.8278C4.1614 15.8397 4.07607 15.8819 4.01083 15.9478L0.744998 19.2495C0.629818 19.369 0.594099 19.5444 0.653332 19.6995C0.71725 19.855 0.868456 19.9569 1.03667 19.9578L3.58666 19.9745C3.69538 19.9751 3.80005 19.9332 3.87833 19.8578L11.4742 12.2911Z" fill="#2066DA"/>
<path d="M14.4275 18.7711L15.5025 19.9711H8.13333C8.02275 19.9713 7.91662 19.9275 7.83833 19.8495L6.76333 18.7745C6.68496 18.6963 6.64092 18.5901 6.64092 18.4795C6.64092 18.3688 6.68496 18.2626 6.76333 18.1845L12.3633 12.5853C12.6886 12.2599 12.6886 11.7324 12.3633 11.407L11.1858 10.2295C10.7269 9.73694 10.7404 8.96944 11.2165 8.49342C11.6925 8.0174 12.46 8.00386 12.9525 8.46279L14.7192 10.2295C15.3453 10.8547 15.6972 11.7033 15.6972 12.5882C15.6972 13.4731 15.3453 14.3217 14.7192 14.947L14.4292 15.237C13.4533 16.2126 13.4526 17.7945 14.4275 18.7711Z" fill="#2066DA"/>
</svg>
