<svg width="18" height="20" viewBox="0 0 18 20" fill="none" xmlns="http://www.w3.org/2000/svg">
<path fill-rule="evenodd" clip-rule="evenodd" d="M3 2C2.44772 2 2 2.44772 2 3V17C2 17.5523 2.44772 18 3 18H15C15.5523 18 16 17.5523 16 17V10C16 9.44771 16.4477 9 17 9C17.5523 9 18 9.44771 18 10V17C18 18.6569 16.6569 20 15 20H3C1.34315 20 0 18.6569 0 17V3C0 1.34315 1.34315 0 3 0H9C9.55229 0 10 0.447715 10 1C10 1.55228 9.55229 2 9 2H3Z" fill="#67758C"/>
<path fill-rule="evenodd" clip-rule="evenodd" d="M5.06411 9.66379C4.91112 9.81679 4.81187 10.0153 4.78127 10.2295L4.30987 13.5293C4.21558 14.1893 4.78127 14.755 5.44124 14.6607L8.74107 14.1893C8.95526 14.1587 9.15376 14.0594 9.30675 13.9064L16.8492 6.36396C18.0208 5.19239 18.0208 3.29289 16.8492 2.12132C15.6777 0.949747 13.7782 0.949748 12.6066 2.12132L5.06411 9.66379ZM13.3137 7.07107L8.12824 12.2565L6.47833 12.4922L6.71403 10.8423L11.8995 5.65686L13.3137 7.07107ZM14.7279 5.65686L13.3137 4.24264L14.0208 3.53553C14.4113 3.14501 15.0445 3.14501 15.435 3.53553C15.8255 3.92606 15.8255 4.55922 15.435 4.94975L14.7279 5.65686Z" fill="#67758C"/>
</svg>
