<svg width="24" height="22" viewBox="0 0 24 22" fill="none" xmlns="http://www.w3.org/2000/svg">
<path d="M8.89364 14.4648C8.89364 14.7409 9.1175 14.9648 9.39364 14.9648H15.1076C15.3838 14.9648 15.6076 14.7409 15.6076 14.4648V11.4648C15.6076 11.1886 15.8315 10.9648 16.1076 10.9648H16.2506C16.46 10.9648 16.6472 10.8344 16.7197 10.638C16.7922 10.4416 16.7347 10.2208 16.5756 10.0848L12.5756 6.65677C12.3885 6.49673 12.1128 6.49673 11.9256 6.65677L7.92564 10.0848C7.76654 10.2208 7.70904 10.4416 7.78157 10.638C7.8541 10.8344 8.04129 10.9648 8.25064 10.9648H8.39364C8.66979 10.9648 8.89364 11.1886 8.89364 11.4648V14.4648Z" fill="#000C40"/>
<path d="M5.38764 11.6478C5.53178 11.4167 5.53938 11.1257 5.40749 10.8875C5.2756 10.6493 5.02495 10.5013 4.75264 10.5008H4.32564C4.18096 10.502 4.04285 10.4405 3.94696 10.3322C3.85108 10.2238 3.80683 10.0792 3.82564 9.93577C4.24921 6.64529 6.6044 3.92953 9.80186 3.04463C12.9993 2.15974 16.4156 3.27824 18.4706 5.88277C18.8136 6.31577 19.4427 6.38874 19.8756 6.04577C20.3086 5.70281 20.3816 5.07377 20.0386 4.64077C17.4424 1.35601 13.1079 -0.0172875 9.09376 1.17308C5.07962 2.36345 2.19452 5.87767 1.80864 10.0468C1.7848 10.3048 1.56778 10.5019 1.30864 10.5008H0.751643C0.47916 10.5009 0.228174 10.6488 0.096039 10.8871C-0.0360964 11.1254 -0.0285913 11.4166 0.115643 11.6478L2.11564 14.8478C2.25304 15.0666 2.49327 15.1994 2.75164 15.1994C3.01001 15.1994 3.25024 15.0666 3.38764 14.8478L5.38764 11.6478Z" fill="#000C40"/>
<path d="M23.2496 11.5008C23.5221 11.5007 23.7731 11.3528 23.9052 11.1145C24.0374 10.8762 24.0299 10.585 23.8856 10.3538L21.8856 7.15377C21.7396 6.94733 21.5025 6.8246 21.2496 6.8246C20.9968 6.8246 20.7597 6.94733 20.6136 7.15377L18.6136 10.3538C18.4695 10.5848 18.4619 10.8758 18.5938 11.114C18.7257 11.3523 18.9763 11.5003 19.2486 11.5008H19.6756C19.8203 11.4995 19.9584 11.561 20.0543 11.6694C20.1502 11.7777 20.1945 11.9223 20.1756 12.0658C19.7521 15.3563 17.3969 18.072 14.1994 18.9569C11.002 19.8418 7.58566 18.7233 5.53064 16.1188C5.30878 15.8387 4.95434 15.6982 4.60084 15.7503C4.24734 15.8024 3.94848 16.0391 3.81684 16.3713C3.6852 16.7035 3.74078 17.0807 3.96264 17.3608C6.55892 20.6455 10.8934 22.0188 14.9075 20.8285C18.9217 19.6381 21.8068 16.1239 22.1926 11.9548C22.2165 11.6967 22.4335 11.4997 22.6926 11.5008H23.2496Z" fill="#000C40"/>
</svg>
