<svg width="26" height="20" viewBox="0 0 26 20" fill="none" xmlns="http://www.w3.org/2000/svg">
<path d="M24.0974 11.9296H22.0798C21.5226 11.9296 21.071 12.3813 21.071 12.9384V18.9914C21.071 19.5485 20.6193 20.0002 20.0621 20.0002H16.0269C15.4697 20.0002 15.018 19.5485 15.018 18.9914V15.9649C15.018 14.8506 14.1147 13.9472 13.0004 13.9472C11.8861 13.9472 10.9828 14.8506 10.9828 15.9649V18.9914C10.9828 19.5485 10.5311 20.0002 9.97393 20.0002H5.93865C5.38149 20.0002 4.92982 19.5485 4.92982 18.9914V12.9384C4.92982 12.3813 4.47816 11.9296 3.921 11.9296H1.90336C1.48667 11.9293 1.11302 11.6729 0.962897 11.2842C0.812776 10.8955 0.917085 10.4545 1.22543 10.1743L11.6425 0.703439C12.4101 -0.00270879 13.5907 -0.00270879 14.3583 0.703439L24.7754 10.1743C25.0837 10.4545 25.188 10.8955 25.0379 11.2842C24.8878 11.6729 24.5141 11.9293 24.0974 11.9296Z" fill="#000C40"/>
</svg>
