<svg width="40" height="40" viewBox="0 0 40 40" fill="none" xmlns="http://www.w3.org/2000/svg">
<rect width="40" height="40" rx="20" fill="white"/>
<path d="M29.2493 20.775H27.568C27.1037 20.775 26.7273 21.1514 26.7273 21.6157V26.6598C26.7273 27.1241 26.3509 27.5005 25.8866 27.5005H22.5239C22.0596 27.5005 21.6832 27.1241 21.6832 26.6598V24.1377C21.6832 23.2091 20.9304 22.4564 20.0018 22.4564C19.0732 22.4564 18.3204 23.2091 18.3204 24.1377V26.6598C18.3204 27.1241 17.944 27.5005 17.4797 27.5005H14.117C13.6527 27.5005 13.2763 27.1241 13.2763 26.6598V21.6157C13.2763 21.1514 12.8999 20.775 12.4356 20.775H10.7543C10.407 20.7748 10.0957 20.5611 9.97055 20.2372C9.84545 19.9133 9.93237 19.5458 10.1893 19.3122L18.8702 11.4199C19.5099 10.8314 20.4937 10.8314 21.1334 11.4199L29.8143 19.3122C30.0712 19.5458 30.1581 19.9133 30.033 20.2372C29.9079 20.5611 29.5966 20.7748 29.2493 20.775Z" fill="#000C40"/>
</svg>
