<svg width="24" height="20" viewBox="0 0 24 20" fill="none" xmlns="http://www.w3.org/2000/svg">
<path fill-rule="evenodd" clip-rule="evenodd" d="M1.2 7.60039C0.537258 7.60039 0 8.13765 0 8.80039V16.0004C0 17.9886 1.61177 19.6004 3.6 19.6004H20.4C22.3882 19.6004 24 17.9886 24 16.0004V8.80039C24 8.13765 23.4627 7.60039 22.8 7.60039H1.2ZM3.6 12.4004C2.93726 12.4004 2.4 12.9376 2.4 13.6004C2.4 14.2631 2.93726 14.8004 3.6 14.8004H10.8C11.4627 14.8004 12 14.2631 12 13.6004C12 12.9376 11.4627 12.4004 10.8 12.4004H3.6Z" fill="#000C40"/>
<path d="M0 4.00039C0 2.01217 1.61178 0.400391 3.6 0.400391H20.4C22.3882 0.400391 24 2.01217 24 4.00039C24 4.66313 23.4627 5.20039 22.8 5.20039H1.2C0.537259 5.20039 0 4.66313 0 4.00039Z" fill="#000C40"/>
</svg>
