<svg width="24" height="24" viewBox="0 0 24 24" fill="none" xmlns="http://www.w3.org/2000/svg">
<path fill-rule="evenodd" clip-rule="evenodd" d="M12.7231 0.293389L23.7219 11.8005C23.9991 12.0899 24.077 12.5169 23.9197 12.8856C23.7625 13.2543 23.4005 13.4936 22.9998 13.4935H21.4997C21.2235 13.4935 20.9997 13.7175 20.9997 13.9938V22.4991C20.9997 23.328 20.328 24 19.4995 24H4.49846C3.66997 24 2.99835 23.328 2.99835 22.4991V13.9938C2.99835 13.7175 2.77447 13.4935 2.49831 13.4935H0.998201C0.5979 13.4928 0.236616 13.2532 0.0798759 12.8847C-0.0768646 12.5162 0.00113913 12.0896 0.278149 11.8005L11.2769 0.293389C11.6797 -0.0977963 12.3203 -0.0977963 12.7231 0.293389ZM11.9989 8.99874C8.68497 8.99874 5.99848 11.6867 5.99848 15.0024C5.99848 18.3182 8.68497 21.0061 11.9989 21.0061C15.3129 21.0061 17.9994 18.3182 17.9994 15.0024C17.9956 11.6882 15.3113 9.00248 11.9989 8.99874ZM12.9555 16.9168C12.9553 16.5295 13.1883 16.1802 13.5459 16.0319C13.9035 15.8835 14.3152 15.9653 14.5889 16.2391C14.8627 16.5129 14.9447 16.9248 14.7966 17.2826C14.6485 17.6404 14.2996 17.8738 13.9125 17.8738C13.3843 17.8735 12.9561 17.4453 12.9555 16.9168ZM9.8171 17.926L14.9211 12.8192C15.0533 12.6869 15.1049 12.4942 15.0565 12.3136C15.0082 12.1329 14.8671 11.9918 14.6866 11.9434C14.506 11.895 14.3134 11.9467 14.1812 12.0789L9.07722 17.1857C8.87291 17.3901 8.87291 17.7215 9.07722 17.926C9.28153 18.1304 9.61279 18.1304 9.8171 17.926ZM11.0444 13.088C11.0447 13.6166 10.6168 14.0454 10.0885 14.046C9.56023 14.0466 9.13141 13.6187 9.13055 13.0901C9.12968 12.5615 9.5571 12.1323 10.0854 12.1311C10.6137 12.1311 11.042 12.5595 11.0423 13.088H11.0444Z" fill="#000C40"/>
</svg>
