<svg width="19" height="22" viewBox="0 0 19 22" fill="none" xmlns="http://www.w3.org/2000/svg">
<path fill-rule="evenodd" clip-rule="evenodd" d="M18.5 8.80647C18.5 10.8891 17.7612 12.8028 16.526 14.3105H16.5312C16.5312 14.3105 13.4033 18.4062 10.9802 21.3063C10.2072 22.2315 8.79311 22.2312 8.02051 21.3056C5.60512 18.4118 2.48124 14.3194 2.48124 14.3194L2.47396 14.3105C1.23881 12.8028 0.5 10.8891 0.5 8.80647C0.5 3.94279 4.52944 0 9.5 0C14.4706 0 18.5 3.94279 18.5 8.80647ZM12.8605 8.76834C12.8605 10.5843 11.356 12.0565 9.50015 12.0565C7.64425 12.0565 6.13976 10.5843 6.13976 8.76834C6.13976 6.95236 7.64425 5.48021 9.50015 5.48021C11.356 5.48021 12.8605 6.95236 12.8605 8.76834Z" fill="#67758C"/>
</svg>
