<svg width="16" height="20" viewBox="0 0 16 20" fill="none" xmlns="http://www.w3.org/2000/svg">
<path fill-rule="evenodd" clip-rule="evenodd" d="M15.5 8.17271C15.5 9.90822 14.8843 11.503 13.855 12.7594H13.8594C13.8594 12.7594 11.2528 16.1725 9.23353 18.5892C8.58931 19.3603 7.41092 19.36 6.76709 18.5886C4.75427 16.1772 2.15104 12.7668 2.15104 12.7668L2.14496 12.7594C1.11567 11.503 0.5 9.90822 0.5 8.17271C0.5 4.11964 3.85786 0.833984 8 0.833984C12.1421 0.833984 15.5 4.11964 15.5 8.17271ZM10.8004 8.14094C10.8004 9.65426 9.5467 10.881 8.00012 10.881C6.45354 10.881 5.1998 9.65426 5.1998 8.14094C5.1998 6.62762 6.45354 5.40083 8.00012 5.40083C9.5467 5.40083 10.8004 6.62762 10.8004 8.14094Z" fill="#2066DA"/>
</svg>
