<svg width="267" height="221" viewBox="0 0 267 221" fill="none" xmlns="http://www.w3.org/2000/svg">
<g clip-path="url(#clip0_1_4)">
<path d="M64.9326 89.2684L0 57.9041V0L124.536 60.3172L64.9326 89.2684Z" fill="white"/>
<path d="M202.067 89.2684L267 57.9041V0L142.464 60.3172L202.067 89.2684Z" fill="white"/>
<path d="M0.605804 66.711V124.855L60.5721 154.17V96.3865L0.605804 66.711Z" fill="white"/>
<path d="M266.394 66.711V124.855L206.428 154.17V96.3865L266.394 66.711Z" fill="white"/>
<path d="M137.013 66.711V188.007L197.342 158.512V96.447L137.013 66.711Z" fill="white"/>
<path d="M129.987 66.711V188.007L69.6575 158.512V96.447L129.987 66.711Z" fill="white"/>
<path d="M197.342 167.65V221L142.889 194.325L197.342 167.65Z" fill="white"/>
<path d="M69.6575 167.65V221L124.111 194.325L69.6575 167.65Z" fill="white"/>
</g>
<defs>
<clipPath id="clip0_1_4">
<rect width="267" height="221" fill="white"/>
</clipPath>
</defs>
</svg>
