<svg width="16" height="14" viewBox="0 0 16 14" fill="none" xmlns="http://www.w3.org/2000/svg">
<path d="M0.366068 1.50626C0.259964 1.68226 0.329235 1.90751 0.498872 2.0169L7.57883 6.58235C7.83684 6.74873 8.16299 6.74873 8.421 6.58235L15.5011 2.01682C15.6707 1.90743 15.74 1.68217 15.6339 1.50617C15.2093 0.802039 14.4571 0.333984 13.6 0.333984H2.4C1.54282 0.333984 0.790603 0.80208 0.366068 1.50626Z" fill="#67758C"/>
<path d="M16 4.40325C16 4.07679 15.6559 3.87714 15.3895 4.04898L9.26317 7.99946C8.48915 8.49858 7.51068 8.49858 6.73666 7.99946L0.610541 4.04909C0.344065 3.87725 0 4.0769 0 4.40336V11.1673C0 12.548 1.07452 13.6673 2.4 13.6673H13.6C14.9255 13.6673 16 12.548 16 11.1673V4.40325Z" fill="#67758C"/>
</svg>
