<svg width="40" height="40" viewBox="0 0 40 40" fill="none" xmlns="http://www.w3.org/2000/svg">
<rect width="40" height="40" rx="20" fill="white"/>
<path d="M10.4576 13.1314C10.325 13.3514 10.4115 13.6329 10.6236 13.7697L19.4735 19.4765C19.796 19.6844 20.2037 19.6844 20.5262 19.4765L29.3764 13.7696C29.5884 13.6328 29.675 13.3512 29.5423 13.1312C29.0117 12.2511 28.0714 11.666 27 11.666H13C11.9285 11.666 10.9883 12.2511 10.4576 13.1314Z" fill="#000C40"/>
<path d="M30 16.7526C30 16.3445 29.5699 16.095 29.2368 16.3098L21.579 21.2479C20.6114 21.8718 19.3883 21.8718 18.4208 21.2479L10.7632 16.3099C10.4301 16.0951 10 16.3447 10 16.7527V25.2077C10 26.9336 11.3431 28.3327 13 28.3327H27C28.6569 28.3327 30 26.9336 30 25.2077V16.7526Z" fill="#000C40"/>
</svg>
