<svg width="40" height="40" viewBox="0 0 40 40" fill="none" xmlns="http://www.w3.org/2000/svg">
<rect width="40" height="40" rx="20" fill="#E7F8EE"/>
<path fill-rule="evenodd" clip-rule="evenodd" d="M23.3346 15C22.8744 15 22.5013 15.3731 22.5013 15.8333C22.5013 16.2936 22.8744 16.6667 23.3346 16.6667H25.4895L20.8346 21.3215L18.6798 19.1667C18.0289 18.5158 16.9737 18.5158 16.3228 19.1667L11.912 23.5774C11.5866 23.9028 11.5866 24.4305 11.912 24.7559C12.2375 25.0814 12.7651 25.0814 13.0906 24.7559L17.5013 20.3452L19.6561 22.5C20.307 23.1509 21.3623 23.1509 22.0131 22.5L26.668 17.8452V20C26.668 20.4602 27.0411 20.8333 27.5013 20.8333C27.9615 20.8333 28.3346 20.4602 28.3346 20V15.8333C28.3346 15.3731 27.9615 15 27.5013 15H23.3346Z" fill="#05BF90"/>
</svg>
