<svg width="24" height="24" viewBox="0 0 24 24" fill="none" xmlns="http://www.w3.org/2000/svg">
<path d="M22.5 0H1.5C0.671573 0 0 0.671573 0 1.5V13.75C0 13.8881 0.111929 14 0.25 14H23.75C23.8881 14 24 13.8881 24 13.75V1.5C24 0.671573 23.3284 0 22.5 0Z" fill="#000C40"/>
<path d="M23.75 15.5H0.25C0.111929 15.5 0 15.6119 0 15.75V17C0 17.8284 0.671573 18.5 1.5 18.5H9.75C9.88807 18.5 10 18.6119 10 18.75V20.933C9.9999 21.0594 9.90548 21.1658 9.78 21.181C8.52482 21.3163 7.2929 21.6162 6.116 22.073C5.67215 22.2526 5.41787 22.7216 5.50957 23.1915C5.60126 23.6614 6.0132 24.0005 6.492 24H17.5C17.978 23.9998 18.389 23.6612 18.4809 23.1921C18.5727 22.723 18.3197 22.2545 17.877 22.074C16.7024 21.6176 15.4728 21.3177 14.22 21.182C14.0945 21.1668 14.0001 21.0604 14 20.934V18.751C14 18.6129 14.1119 18.501 14.25 18.501H22.5C22.898 18.501 23.2797 18.3428 23.561 18.0613C23.8423 17.7798 24.0003 17.398 24 17V15.75C24 15.6119 23.8881 15.5 23.75 15.5Z" fill="#000C40"/>
</svg>
