<svg width="20" height="22" viewBox="0 0 20 22" fill="none" xmlns="http://www.w3.org/2000/svg">
<path fill-rule="evenodd" clip-rule="evenodd" d="M5.16947 2.16745C6.45097 0.885954 8.18905 0.166016 10.0014 0.166016C11.8137 0.166016 13.5518 0.885954 14.8333 2.16745C16.1148 3.44895 16.8347 5.18704 16.8347 6.99935C16.8347 10.3766 17.5573 12.4865 18.2329 13.7253C18.5719 14.3468 18.9037 14.7575 19.1376 15.0044C19.2547 15.128 19.3479 15.2112 19.4059 15.2596C19.435 15.2837 19.4552 15.2992 19.4653 15.3067C19.4698 15.3101 19.4726 15.3121 19.4726 15.3121L19.4702 15.3104L19.4675 15.3085L19.4653 15.3067C19.4653 15.3067 19.4636 15.306 19.0014 15.9993L19.4636 15.306C19.7692 15.5097 19.9054 15.8894 19.7989 16.2408C19.6925 16.5923 19.3686 16.8327 19.0014 16.8327H1.00137C0.634144 16.8327 0.310206 16.5923 0.20379 16.2408C0.0973749 15.8894 0.233569 15.5097 0.539117 15.306L1.00137 15.9993C0.539117 15.306 0.538057 15.3067 0.538057 15.3067L0.537064 15.3073L0.535281 15.3085L0.532515 15.3104L0.530123 15.3121C0.530123 15.3121 0.533017 15.3104 0.538057 15.3067C0.548135 15.2992 0.567766 15.2837 0.596786 15.2596C0.654805 15.2112 0.747989 15.128 0.865156 15.0044C1.09905 14.7575 1.43079 14.3468 1.76979 13.7253C2.44548 12.4865 3.16803 10.3766 3.16803 6.99935C3.16803 5.18704 3.88797 3.44895 5.16947 2.16745Z" fill="#000C40"/>
<path fill-rule="evenodd" clip-rule="evenodd" d="M7.85332 19.2785C8.25142 19.0476 8.76136 19.1831 8.99229 19.5812C9.09485 19.758 9.24205 19.9048 9.41916 20.0068C9.59627 20.1088 9.79707 20.1625 10.0015 20.1625C10.2058 20.1625 10.4066 20.1088 10.5838 20.0068C10.7609 19.9048 10.9081 19.758 11.0106 19.5812C11.2416 19.1831 11.7515 19.0476 12.1496 19.2785C12.5477 19.5095 12.6832 20.0194 12.4523 20.4175C12.2032 20.8469 11.8457 21.2032 11.4156 21.451C10.9855 21.6987 10.4978 21.8291 10.0015 21.8291C9.50509 21.8291 9.01743 21.6987 8.58731 21.451C8.15718 21.2032 7.79969 20.8469 7.55063 20.4175C7.31969 20.0194 7.45521 19.5095 7.85332 19.2785Z" fill="#000C40"/>
</svg>
