<svg width="20" height="24" viewBox="0 0 20 24" fill="none" xmlns="http://www.w3.org/2000/svg">
<path fill-rule="evenodd" clip-rule="evenodd" d="M9.72375 0C9.76877 0 9.81379 0 9.8588 0C12.4458 1.68964 12.2747 6.13882 14.1804 8.50821C14.8512 7.4173 12.5508 2.89009 14.5856 2.56597C15.3299 2.44742 15.8596 3.58335 15.9361 3.78143C16.6189 5.51008 17.0465 8.18409 17.5567 9.72517C18.457 12.4457 20.1617 15.0687 19.9876 18.0968C19.773 21.8077 16.8334 22.7786 13.7738 23.769C13.4587 23.769 13.1435 23.769 12.8284 23.769C9.38012 22.9317 5.85979 20.9839 2.7011 19.5824C1.96733 19.2568 -0.0149209 18.8066 8.47277e-05 17.5566C0.030096 15.1092 3.36435 16.8799 4.59332 17.285C5.68123 17.6452 6.85617 18.0113 7.83454 18.3669C10.1619 19.2102 12.1232 20.3162 14.3155 20.3927C14.1654 19.0122 12.3527 19.2958 11.8846 18.2334C13.5277 18.3909 15.1813 19.827 16.7464 19.1787C16.3503 17.4591 13.7453 17.9483 12.6949 16.8829C13.5847 16.6563 17.7068 18.478 17.8268 17.153C17.9484 15.8115 12.9875 16.2046 12.6949 15.2623C14.0109 15.1542 16.5723 16.0365 17.0165 14.7221C15.6 13.4826 11.9161 14.509 10.399 13.37C10.7741 11.964 13.3551 12.1261 12.9665 10.3989C10.3825 10.5655 8.46928 12.5612 6.21393 13.5051C5.54468 12.5267 4.73137 11.4118 3.78151 9.99377C2.84366 8.59374 0.141138 4.95787 2.97121 4.99688C4.21067 5.01489 5.02248 6.93862 5.67222 7.83446C6.58607 9.09193 7.25982 10.1078 8.23819 10.9391C7.76101 9.45957 7.11277 8.00102 6.21243 6.21384C5.48015 4.75829 2.58556 0.430662 5.53567 0.540204C6.80215 0.586721 7.84654 3.40628 8.37324 4.45818C9.25558 6.21084 9.66223 7.6754 10.8042 8.77831C10.8792 6.3744 6.77064 1.08041 9.72375 0Z" fill="#000C40"/>
</svg>
