<svg width="18" height="20" viewBox="0 0 18 20" fill="none" xmlns="http://www.w3.org/2000/svg">
<path fill-rule="evenodd" clip-rule="evenodd" d="M8.7698 0C8.80731 0 8.84483 0 8.88234 0C11.0382 1.40803 10.8956 5.11568 12.4837 7.09017C13.0427 6.18108 11.1257 2.40841 12.8213 2.13831C13.4416 2.03952 13.883 2.98613 13.9468 3.15119C14.5157 4.59173 14.8721 6.82007 15.2973 8.10431C16.0475 10.3714 17.4681 12.5572 17.323 15.0807C17.1442 18.1731 14.6945 18.9822 12.1448 19.8075C11.8822 19.8075 11.6196 19.8075 11.357 19.8075C8.48344 19.1097 5.54983 17.4866 2.91759 16.3187C2.30611 16.0473 0.654238 15.6722 0.666742 14.6305C0.691752 12.591 3.4703 14.0666 4.49444 14.4042C5.40103 14.7043 6.38015 15.0094 7.19546 15.3058C9.13494 16.0085 10.7693 16.9301 12.5962 16.9939C12.4712 15.8435 10.9606 16.0798 10.5705 15.1945C11.9397 15.3258 13.3178 16.5225 14.622 15.9823C14.2919 14.5492 12.1211 14.9569 11.2457 14.0691C11.9873 13.8802 15.4223 15.3983 15.5223 14.2941C15.6236 13.1762 11.4896 13.5038 11.2457 12.7185C12.3424 12.6285 14.477 13.3638 14.8471 12.2684C13.6666 11.2355 10.5967 12.0908 9.33251 11.1417C9.64513 9.97001 11.7959 10.1051 11.4721 8.66577C9.31876 8.80457 7.7244 10.4677 5.84494 11.2542C5.28723 10.4389 4.60948 9.50984 3.81793 8.32814C3.03639 7.16145 0.784287 4.13156 3.14268 4.16407C4.17557 4.17908 4.85207 5.78218 5.39353 6.52871C6.15506 7.57661 6.71652 8.42318 7.53183 9.11594C7.13418 7.88297 6.59398 6.66751 5.8437 5.1782C5.23346 3.96525 2.82131 0.358885 5.27973 0.45017C6.33513 0.488934 7.20546 2.83857 7.64437 3.71515C8.37965 5.1757 8.71853 6.39616 9.67014 7.31526C9.73266 5.312 6.30887 0.90034 8.7698 0Z" fill="#2066DA"/>
</svg>
