<svg width="22" height="20" viewBox="0 0 22 20" fill="none" xmlns="http://www.w3.org/2000/svg">
<path d="M22 18C22 16.8954 21.1046 16 20 16H2C0.895431 16 0 16.8954 0 18C0 19.1046 0.895431 20 2 20H20C21.1046 20 22 19.1046 22 18Z" fill="#000C40"/>
<path d="M0 10C0 8.89543 0.895431 8 2 8H20C21.1046 8 22 8.89543 22 10C22 11.1046 21.1046 12 20 12H2C0.895431 12 0 11.1046 0 10Z" fill="#000C40"/>
<path d="M2 4H20C21.1046 4 22 3.10457 22 2C22 0.895431 21.1046 0 20 0H2C0.895431 0 0 0.895431 0 2C0 3.10457 0.895431 4 2 4Z" fill="#000C40"/>
</svg>
