<svg width="24" height="24" viewBox="0 0 24 24" fill="none" xmlns="http://www.w3.org/2000/svg">
<path d="M0.5 17.8723H2.31C2.43989 17.8724 2.54809 17.974 2.559 18.1062L3 23.5323C3.02188 23.7974 3.23946 24.0009 3.5 24H7.5C7.76054 24.0009 7.97812 23.7974 8 23.5323L8.443 18.1062C8.45391 17.974 8.56212 17.8724 8.692 17.8723H9.252C9.39007 17.8723 9.502 17.758 9.502 17.617V12.2553C9.50185 11.711 9.64483 11.1767 9.916 10.7081C9.96684 10.6192 9.96094 10.5079 9.901 10.4252C8.48171 8.49132 6.01027 7.7014 3.7647 8.46392C1.51912 9.22645 0.00286593 11.3704 0 13.7872V17.3617C0 17.6437 0.223858 17.8723 0.5 17.8723Z" fill="#000C40"/>
<path d="M5.5 7.14893C7.433 7.14893 9 5.54859 9 3.57447C9 1.60034 7.433 0 5.5 0C3.567 0 2 1.60034 2 3.57447C2 5.54859 3.567 7.14893 5.5 7.14893Z" fill="#000C40"/>
<path fill-rule="evenodd" clip-rule="evenodd" d="M13 24C11.8954 24 11 23.0855 11 21.9574V12.766C11 11.6379 11.8954 10.7234 13 10.7234H22C23.1046 10.7234 24 11.6379 24 12.766V21.9574C24 23.0855 23.1046 24 22 24H13ZM12.9998 21.7021C12.9998 21.8431 13.1118 21.9574 13.2498 21.9574H21.7498C21.8162 21.9577 21.88 21.9309 21.9269 21.883C21.9738 21.835 22.0001 21.7699 21.9998 21.7021V13.0213C21.9998 12.8803 21.8879 12.766 21.7498 12.766H13.2498C13.1118 12.766 12.9998 12.8803 12.9998 13.0213V21.7021Z" fill="#000C40"/>
<path d="M20 14.8085H15.25C14.8358 14.8085 14.5 15.1514 14.5 15.5745C14.5 15.9975 14.8358 16.3404 15.25 16.3404H20C20.4142 16.3404 20.75 15.9975 20.75 15.5745C20.75 15.1514 20.4142 14.8085 20 14.8085Z" fill="#000C40"/>
<path d="M17.5 19.4042C17.9142 19.4042 18.25 19.0613 18.25 18.6383C18.25 18.2153 17.9142 17.8723 17.5 17.8723H15.25C14.8358 17.8723 14.5 18.2153 14.5 18.6383C14.5 19.0613 14.8358 19.4042 15.25 19.4042H17.5Z" fill="#000C40"/>
<path d="M0.5 17.8723H2.31C2.43989 17.8724 2.54809 17.974 2.559 18.1062L3 23.5323C3.02188 23.7974 3.23946 24.0009 3.5 24H7.5C7.76054 24.0009 7.97812 23.7974 8 23.5323L8.443 18.1062C8.45391 17.974 8.56212 17.8724 8.692 17.8723H9.252C9.39007 17.8723 9.502 17.758 9.502 17.617V12.2553C9.50185 11.711 9.64483 11.1767 9.916 10.7081C9.96684 10.6192 9.96094 10.5079 9.901 10.4252C8.48171 8.49132 6.01027 7.7014 3.7647 8.46392C1.51912 9.22645 0.00286593 11.3704 0 13.7872V17.3617C0 17.6437 0.223858 17.8723 0.5 17.8723Z" fill="#000C40"/>
<path d="M5.5 7.14893C7.433 7.14893 9 5.54859 9 3.57447C9 1.60034 7.433 0 5.5 0C3.567 0 2 1.60034 2 3.57447C2 5.54859 3.567 7.14893 5.5 7.14893Z" fill="#000C40"/>
<path fill-rule="evenodd" clip-rule="evenodd" d="M13 24C11.8954 24 11 23.0855 11 21.9574V12.766C11 11.6379 11.8954 10.7234 13 10.7234H22C23.1046 10.7234 24 11.6379 24 12.766V21.9574C24 23.0855 23.1046 24 22 24H13ZM12.9998 21.7021C12.9998 21.8431 13.1118 21.9574 13.2498 21.9574H21.7498C21.8162 21.9577 21.88 21.9309 21.9269 21.883C21.9738 21.835 22.0001 21.7699 21.9998 21.7021V13.0213C21.9998 12.8803 21.8879 12.766 21.7498 12.766H13.2498C13.1118 12.766 12.9998 12.8803 12.9998 13.0213V21.7021Z" fill="#000C40"/>
<path d="M20 14.8085H15.25C14.8358 14.8085 14.5 15.1514 14.5 15.5745C14.5 15.9975 14.8358 16.3404 15.25 16.3404H20C20.4142 16.3404 20.75 15.9975 20.75 15.5745C20.75 15.1514 20.4142 14.8085 20 14.8085Z" fill="#000C40"/>
<path d="M17.5 19.4042C17.9142 19.4042 18.25 19.0613 18.25 18.6383C18.25 18.2153 17.9142 17.8723 17.5 17.8723H15.25C14.8358 17.8723 14.5 18.2153 14.5 18.6383C14.5 19.0613 14.8358 19.4042 15.25 19.4042H17.5Z" fill="#000C40"/>
</svg>
