<svg width="40" height="40" viewBox="0 0 40 40" fill="none" xmlns="http://www.w3.org/2000/svg">
<rect width="40" height="40" rx="20" fill="#38A3A5"/>
<path d="M18.9583 12.0833H21.0417C21.2718 12.0833 21.4583 11.8968 21.4583 11.6667V10.8333C21.4583 10.3731 21.0852 10 20.625 10H19.375C18.9148 10 18.5417 10.3731 18.5417 10.8333V11.6667C18.5417 11.8968 18.7282 12.0833 18.9583 12.0833Z" fill="white"/>
<path fill-rule="evenodd" clip-rule="evenodd" d="M29.1667 28.3333C29.0516 28.3333 28.9583 28.2401 28.9583 28.125V21.4583C28.9583 20.9981 28.5852 20.625 28.125 20.625H26.875V20C26.875 19.6548 26.5952 19.375 26.25 19.375C25.9048 19.375 25.625 19.6548 25.625 20V20.625C25.1648 20.625 24.7917 20.9981 24.7917 21.4583V27.9167C24.7917 28.1468 24.6051 28.3333 24.375 28.3333H23.9583C23.7282 28.3333 23.5417 28.1468 23.5417 27.9167V14.1667C23.5417 13.7064 23.1686 13.3333 22.7083 13.3333H17.2917C16.8314 13.3333 16.4583 13.7064 16.4583 14.1667V27.9167C16.4583 28.1468 16.2718 28.3333 16.0417 28.3333H15.625C15.3949 28.3333 15.2083 28.1468 15.2083 27.9167V21.4583C15.2083 20.9981 14.8352 20.625 14.375 20.625V20C14.375 19.6548 14.0952 19.375 13.75 19.375C13.4048 19.375 13.125 19.6548 13.125 20V20.625H11.875C11.4148 20.625 11.0417 20.9981 11.0417 21.4583V28.125C11.0417 28.2401 10.9484 28.3333 10.8333 28.3333C10.3731 28.3333 10 28.7064 10 29.1667C10 29.6269 10.3731 30 10.8333 30H29.1667C29.6269 30 30 29.6269 30 29.1667C30 28.7064 29.6269 28.3333 29.1667 28.3333ZM18.3333 15.4167H21.6667C22.0118 15.4167 22.2917 15.6965 22.2917 16.0417C22.2917 16.3868 22.0118 16.6667 21.6667 16.6667H18.3333C17.9882 16.6667 17.7083 16.3868 17.7083 16.0417C17.7083 15.6965 17.9882 15.4167 18.3333 15.4167ZM21.6667 18.75H18.3333C17.9882 18.75 17.7083 19.0298 17.7083 19.375C17.7083 19.7202 17.9882 20 18.3333 20H21.6667C22.0118 20 22.2917 19.7202 22.2917 19.375C22.2917 19.0298 22.0118 18.75 21.6667 18.75ZM18.3333 22.0833H21.6667C22.0118 22.0833 22.2917 22.3632 22.2917 22.7083C22.2917 23.0535 22.0118 23.3333 21.6667 23.3333H18.3333C17.9882 23.3333 17.7083 23.0535 17.7083 22.7083C17.7083 22.3632 17.9882 22.0833 18.3333 22.0833ZM18.125 26.6667H21.875C22.2202 26.6667 22.5 26.3868 22.5 26.0417C22.5 25.6965 22.2202 25.4167 21.875 25.4167H18.125C17.7798 25.4167 17.5 25.6965 17.5 26.0417C17.5 26.3868 17.7798 26.6667 18.125 26.6667Z" fill="white"/>
</svg>
