<svg width="20" height="20" viewBox="0 0 20 20" fill="none" xmlns="http://www.w3.org/2000/svg">
<path fill-rule="evenodd" clip-rule="evenodd" d="M0 6.70577C0 5.64762 0.814027 4.78983 1.81818 4.78983H18.1818C19.186 4.78983 20 5.64762 20 6.70577V17.2434C20 18.3016 19.186 19.1593 18.1818 19.1593H1.81818C0.814027 19.1593 0 18.3016 0 17.2434V6.70577ZM17.2727 3.35288C17.2727 3.88195 16.8438 4.31085 16.3148 4.31085H3.68524C3.15617 4.31085 2.72727 3.88195 2.72727 3.35288C2.72727 2.82381 3.15617 2.39492 3.68524 2.39492H16.3148C16.8438 2.39492 17.2727 2.82381 17.2727 3.35288ZM15.4545 0.957967C15.4545 1.48704 15.0256 1.91593 14.4966 1.91593H5.50342C4.97435 1.91593 4.54545 1.48704 4.54545 0.957967C4.54545 0.428896 4.97435 0 5.50342 0H14.4966C15.0256 0 15.4545 0.428896 15.4545 0.957967Z" fill="#000C40"/>
</svg>
