<svg width="19" height="19" viewBox="0 0 19 19" fill="none" xmlns="http://www.w3.org/2000/svg">
<path d="M0.491322 6.70865C-0.612002 4.49444 0.501239 2.05079 2.62256 0.777994C3.64389 0.165197 4.96387 0.431141 5.66822 1.39162L7.23089 3.52253C7.896 4.42949 7.99793 5.63229 7.49495 6.63826L7.08522 7.45771C6.96661 7.69493 6.94786 7.96933 7.06919 8.20517C7.29024 8.63484 7.76095 9.39627 8.66775 10.3031C9.57454 11.2099 10.336 11.6806 10.7656 11.9016C11.0015 12.023 11.2759 12.0042 11.5131 11.8856L12.3326 11.4759C13.3385 10.9729 14.5413 11.0748 15.4483 11.7399L17.5792 13.3026C18.5397 14.0069 18.8056 15.3269 18.1928 16.3483C16.92 18.4696 14.4764 19.5828 12.2622 18.4795C10.396 17.5496 8.01138 16.0107 5.48577 13.485C2.96016 10.9594 1.4212 8.57477 0.491322 6.70865Z" fill="#000C40"/>
</svg>
