<svg width="40" height="40" viewBox="0 0 40 40" fill="none" xmlns="http://www.w3.org/2000/svg">
<rect width="40" height="40" rx="20" fill="white"/>
<path fill-rule="evenodd" clip-rule="evenodd" d="M24.5833 20.8333H29.1667C29.6269 20.8333 30 21.2064 30 21.6667V29.1667C30.0025 29.3884 29.9155 29.6018 29.7587 29.7587C29.6018 29.9155 29.3884 30.0025 29.1667 30H21.25C21.0199 30 20.8333 29.8135 20.8333 29.5833V25.8333C20.8333 25.3731 20.4602 25 20 25C19.5398 25 19.1667 25.3731 19.1667 25.8333V29.5833C19.1667 29.8135 18.9801 30 18.75 30H10.8333C10.3731 30 10 29.6269 10 29.1667V21.6667C10.0058 21.2089 10.3755 20.8392 10.8333 20.8333H15.4167C15.6468 20.8333 15.8333 20.6468 15.8333 20.4167V19.1667C15.8357 17.3037 17.0724 15.6678 18.8642 15.1575C19.0432 15.1065 19.1667 14.9429 19.1667 14.7567V10.625C19.1667 10.4588 19.2329 10.2995 19.3506 10.1822C19.4684 10.0649 19.628 9.99934 19.7942 10H23.1275C23.7014 10.0023 24.1658 10.4677 24.1667 11.0417V12.7083C24.1658 13.2823 23.7014 13.7477 23.1275 13.75H21.25C21.0199 13.75 20.8333 13.9366 20.8333 14.1667V14.7567C20.8334 14.9431 20.9573 15.1068 21.1367 15.1575C22.9279 15.6683 24.1641 17.304 24.1667 19.1667V20.4167C24.1667 20.6468 24.3532 20.8333 24.5833 20.8333ZM14.3775 27.9167C14.6076 27.9167 14.7942 27.7301 14.7942 27.5V26.6667C14.7942 26.4366 14.6076 26.25 14.3775 26.25H12.7108C12.4807 26.25 12.2942 26.4366 12.2942 26.6667V27.5C12.2942 27.7301 12.4807 27.9167 12.7108 27.9167H14.3775ZM14.7942 24.1667C14.7942 24.3968 14.6076 24.5833 14.3775 24.5833H12.7108C12.4807 24.5833 12.2942 24.3968 12.2942 24.1667V23.3333C12.2942 23.1032 12.4807 22.9167 12.7108 22.9167H14.3775C14.6076 22.9167 14.7942 23.1032 14.7942 23.3333V24.1667ZM18.8452 19.645C19.0386 20.1121 19.4944 20.4167 20 20.4167C20.6904 20.4167 21.25 19.857 21.25 19.1667C21.25 18.6611 20.9454 18.2053 20.4784 18.0118C20.0113 17.8183 19.4736 17.9253 19.1161 18.2828C18.7586 18.6403 18.6517 19.1779 18.8452 19.645ZM28.125 27.5C28.125 27.7301 27.9385 27.9167 27.7083 27.9167H26.0417C25.8115 27.9167 25.625 27.7301 25.625 27.5V26.6667C25.625 26.4366 25.8115 26.25 26.0417 26.25H27.7083C27.9385 26.25 28.125 26.4366 28.125 26.6667V27.5ZM27.7083 24.5833C27.9385 24.5833 28.125 24.3968 28.125 24.1667V23.3333C28.125 23.1032 27.9385 22.9167 27.7083 22.9167H26.0417C25.8115 22.9167 25.625 23.1032 25.625 23.3333V24.1667C25.625 24.3968 25.8115 24.5833 26.0417 24.5833H27.7083Z" fill="#000C40"/>
</svg>
