<svg width="20" height="24" viewBox="0 0 20 24" fill="none" xmlns="http://www.w3.org/2000/svg">
<path fill-rule="evenodd" clip-rule="evenodd" d="M17.5 9.5H16.75V6.75C16.75 3.02208 13.7279 0 10 0C6.27208 0 3.25 3.02208 3.25 6.75V9.5H2.5C1.39543 9.5 0.5 10.3954 0.5 11.5V22C0.5 23.1046 1.39543 24 2.5 24H17.5C18.6046 24 19.5 23.1046 19.5 22V11.5C19.5 10.3954 18.6046 9.5 17.5 9.5ZM8 15.5C7.99561 14.5283 8.6903 13.694 9.64674 13.5224C10.6032 13.3508 11.5446 13.8915 11.8783 14.8041C12.2121 15.7167 11.8415 16.7371 11 17.223V19.5C11 20.0523 10.5523 20.5 10 20.5C9.44772 20.5 9 20.0523 9 19.5V17.223C8.38309 16.8683 8.00199 16.2116 8 15.5ZM10 2.5C7.65279 2.5 5.75 4.40279 5.75 6.75V9C5.75 9.27614 5.97386 9.5 6.25 9.5H13.75C14.0261 9.5 14.25 9.27614 14.25 9V6.75C14.25 4.40279 12.3472 2.5 10 2.5Z" fill="#000C40"/>
</svg>
