<svg width="22" height="23" viewBox="0 0 22 23" fill="none" xmlns="http://www.w3.org/2000/svg">
<path fill-rule="evenodd" clip-rule="evenodd" d="M8.09401 2.53997C7.91177 3.0867 7.49579 3.51649 6.99228 3.79685C6.91396 3.84046 6.83643 3.8853 6.75971 3.93136C6.26502 4.22834 5.68416 4.37415 5.11888 4.25848L3.91711 4.01255C3.07372 3.83996 2.21453 4.22642 1.7841 4.97195L1.16311 6.04752C0.732684 6.79305 0.827604 7.73036 1.39876 8.37446L2.21379 9.29357C2.5957 9.72426 2.76076 10.2986 2.75164 10.8742C2.75021 10.9645 2.75021 11.055 2.75164 11.1453C2.76075 11.7208 2.5957 12.2952 2.21379 12.7259L1.39876 13.645C0.827605 14.2891 0.732684 15.2264 1.16311 15.9719L1.7841 17.0475C2.21453 17.793 3.07372 18.1795 3.91711 18.0069L5.1188 17.761C5.68409 17.6453 6.26495 17.7911 6.75965 18.0881C6.83639 18.1342 6.91394 18.1791 6.99228 18.2227C7.49579 18.503 7.91177 18.9328 8.09401 19.4796L8.48156 20.6422C8.75379 21.4589 9.51807 22.0098 10.3789 22.0098H11.6209C12.4818 22.0098 13.246 21.4589 13.5183 20.6422L13.9058 19.4796C14.0881 18.9328 14.504 18.503 15.0075 18.2227C15.0859 18.1791 15.1634 18.1342 15.2402 18.0881C15.7349 17.7912 16.3157 17.6453 16.881 17.761L18.0827 18.0069C18.926 18.1795 19.7852 17.793 20.2157 17.0475L20.8367 15.9719C21.2671 15.2264 21.1722 14.2891 20.601 13.645L19.786 12.7259C19.4041 12.2953 19.2391 11.7209 19.2482 11.1453C19.2496 11.055 19.2496 10.9645 19.2482 10.8741C19.2391 10.2986 19.4041 9.72421 19.786 9.29352L20.601 8.37446C21.1722 7.73036 21.2671 6.79305 20.8367 6.04752L20.2157 4.97195C19.7852 4.22642 18.926 3.83997 18.0827 4.01255L16.8809 4.25847C16.3157 4.37414 15.7348 4.22833 15.2401 3.93136C15.1634 3.8853 15.0859 3.84046 15.0075 3.79685C14.504 3.51649 14.0881 3.0867 13.9058 2.53997L13.5183 1.37731C13.246 0.560625 12.4818 0.00976562 11.6209 0.00976562H10.3789C9.51807 0.00976562 8.75379 0.560626 8.48156 1.37731L8.09401 2.53997ZM14 11.0098C14 12.6666 12.6568 14.0098 11 14.0098C9.34312 14.0098 7.99997 12.6666 7.99997 11.0098C7.99997 9.35291 9.34312 8.00977 11 8.00977C12.6568 8.00977 14 9.35291 14 11.0098Z" fill="#67758C"/>
</svg>
