<svg width="18" height="16" viewBox="0 0 18 16" fill="none" xmlns="http://www.w3.org/2000/svg">
<path fill-rule="evenodd" clip-rule="evenodd" d="M4.24407 0.744078C4.5695 0.418641 5.09714 0.418641 5.42258 0.744078L8.75591 4.07741C9.08135 4.40285 9.08135 4.93049 8.75591 5.25592C8.43048 5.58136 7.90284 5.58136 7.5774 5.25592L5.66666 3.34518V14.6667C5.66666 15.1269 5.29356 15.5 4.83332 15.5C4.37309 15.5 3.99999 15.1269 3.99999 14.6667V3.34518L2.08925 5.25592C1.76381 5.58136 1.23617 5.58136 0.910734 5.25592C0.585297 4.93049 0.585297 4.40285 0.910734 4.07741L4.24407 0.744078ZM13.3335 0.500654C13.7937 0.500654 14.1668 0.87375 14.1668 1.33399L14.1668 12.6555L16.0776 10.7447C16.403 10.4193 16.9306 10.4193 17.2561 10.7447C17.5815 11.0702 17.5815 11.5978 17.2561 11.9232L13.9227 15.2566C13.7665 15.4129 13.5545 15.5007 13.3335 15.5007C13.1125 15.5007 12.9005 15.4129 12.7442 15.2566L9.4109 11.9232C9.08546 11.5978 9.08546 11.0702 9.4109 10.7447C9.73633 10.4193 10.264 10.4193 10.5894 10.7447L12.5002 12.6555L12.5002 1.33399C12.5002 0.87375 12.8733 0.500654 13.3335 0.500654Z" fill="#000C40"/>
</svg>
