<svg width="1272" height="321" viewBox="0 0 1272 321" fill="none" xmlns="http://www.w3.org/2000/svg">
<path d="M3.87784 26.1193C3.29261 26.1193 2.76989 26.0185 2.30966 25.8168C1.85227 25.6151 1.49006 25.3352 1.22301 24.9773C0.958807 24.6165 0.816761 24.1989 0.796875 23.7244H2.13494C2.15199 23.983 2.23864 24.2074 2.39489 24.3977C2.55398 24.5852 2.76136 24.7301 3.01705 24.8324C3.27273 24.9347 3.55682 24.9858 3.86932 24.9858C4.21307 24.9858 4.51705 24.9261 4.78125 24.8068C5.0483 24.6875 5.2571 24.5213 5.40767 24.3082C5.55824 24.0923 5.63352 23.8438 5.63352 23.5625C5.63352 23.2699 5.55824 23.0128 5.40767 22.7912C5.25994 22.5668 5.04261 22.3906 4.75568 22.2628C4.47159 22.1349 4.12784 22.071 3.72443 22.071H2.98722V20.9972H3.72443C4.0483 20.9972 4.33239 20.9389 4.5767 20.8224C4.82386 20.706 5.01705 20.544 5.15625 20.3366C5.29545 20.1264 5.36506 19.8807 5.36506 19.5994C5.36506 19.3295 5.30398 19.0952 5.18182 18.8963C5.0625 18.6946 4.89205 18.5369 4.67045 18.4233C4.4517 18.3097 4.19318 18.2528 3.89489 18.2528C3.6108 18.2528 3.34517 18.3054 3.09801 18.4105C2.85369 18.5128 2.65483 18.6605 2.50142 18.8537C2.34801 19.044 2.26563 19.2727 2.25426 19.5398H0.980114C0.994318 19.0682 1.13352 18.6534 1.39773 18.2955C1.66477 17.9375 2.01705 17.6577 2.45455 17.456C2.89205 17.2543 3.37784 17.1534 3.91193 17.1534C4.47159 17.1534 4.95455 17.2628 5.3608 17.4815C5.76989 17.6974 6.08523 17.9858 6.30682 18.3466C6.53125 18.7074 6.64205 19.1023 6.6392 19.5312C6.64205 20.0199 6.50568 20.4347 6.23011 20.7756C5.95739 21.1165 5.59375 21.3452 5.1392 21.4616V21.5298C5.71875 21.6179 6.16761 21.848 6.4858 22.2202C6.80682 22.5923 6.96591 23.054 6.96307 23.6051C6.96591 24.0852 6.83239 24.5156 6.5625 24.8963C6.29545 25.277 5.9304 25.5767 5.46733 25.7955C5.00426 26.0114 4.47443 26.1193 3.87784 26.1193ZM11.4922 26.1449C10.8189 26.142 10.2436 25.9645 9.76636 25.6122C9.28909 25.2599 8.92403 24.7472 8.67119 24.0739C8.41835 23.4006 8.29193 22.5895 8.29193 21.6406C8.29193 20.6946 8.41835 19.8864 8.67119 19.2159C8.92688 18.5455 9.29335 18.0341 9.77063 17.6818C10.2507 17.3295 10.8246 17.1534 11.4922 17.1534C12.1598 17.1534 12.7323 17.331 13.2095 17.6861C13.6868 18.0384 14.0519 18.5497 14.3047 19.2202C14.5604 19.8878 14.6882 20.6946 14.6882 21.6406C14.6882 22.5923 14.5618 23.4048 14.309 24.0781C14.0561 24.7486 13.6911 25.2614 13.2138 25.6165C12.7365 25.9688 12.1627 26.1449 11.4922 26.1449ZM11.4922 25.0071C12.0831 25.0071 12.5448 24.7188 12.8772 24.142C13.2124 23.5653 13.38 22.7315 13.38 21.6406C13.38 20.9162 13.3033 20.304 13.1499 19.804C12.9993 19.3011 12.782 18.9205 12.4979 18.6619C12.2166 18.4006 11.8814 18.2699 11.4922 18.2699C10.9041 18.2699 10.4425 18.5597 10.1073 19.1392C9.77205 19.7187 9.60301 20.5526 9.60017 21.6406C9.60017 22.3679 9.67545 22.983 9.82602 23.4858C9.97943 23.9858 10.1968 24.3651 10.478 24.6236C10.7593 24.8793 11.0973 25.0071 11.4922 25.0071Z" fill="#6F767E"/>
<path d="M0.839489 78V77.0455L3.79261 73.9858C4.10795 73.6534 4.3679 73.3622 4.57244 73.1122C4.77983 72.8594 4.93466 72.6193 5.03693 72.392C5.1392 72.1648 5.19034 71.9233 5.19034 71.6676C5.19034 71.3778 5.12216 71.1278 4.9858 70.9176C4.84943 70.7045 4.66335 70.5412 4.42756 70.4276C4.19176 70.3111 3.92614 70.2528 3.63068 70.2528C3.31818 70.2528 3.04545 70.3168 2.8125 70.4446C2.57955 70.5724 2.40057 70.7528 2.27557 70.9858C2.15057 71.2187 2.08807 71.4915 2.08807 71.804H0.830966C0.830966 71.2727 0.953125 70.8082 1.19744 70.4105C1.44176 70.0128 1.77699 69.7045 2.20312 69.4858C2.62926 69.2642 3.11364 69.1534 3.65625 69.1534C4.20455 69.1534 4.6875 69.2628 5.10511 69.4815C5.52557 69.6974 5.85369 69.9929 6.08949 70.3679C6.32528 70.7401 6.44318 71.1605 6.44318 71.6293C6.44318 71.9531 6.3821 72.2699 6.25994 72.5795C6.14063 72.8892 5.93182 73.2344 5.63352 73.6151C5.33523 73.9929 4.92045 74.4517 4.3892 74.9915L2.65483 76.8068V76.8707H6.58381V78H0.839489ZM10.9595 78.1193C10.4255 78.1193 9.94534 78.017 9.5192 77.8125C9.09591 77.6051 8.75784 77.321 8.505 76.9602C8.25216 76.5994 8.11722 76.1875 8.10017 75.7244H9.37858C9.40983 76.0994 9.57602 76.4077 9.87716 76.6491C10.1783 76.8906 10.5391 77.0114 10.9595 77.0114C11.2948 77.0114 11.5916 76.9347 11.8502 76.7812C12.1115 76.625 12.3161 76.4105 12.4638 76.1378C12.6144 75.8651 12.6897 75.554 12.6897 75.2045C12.6897 74.8494 12.613 74.5327 12.4595 74.2543C12.3061 73.9759 12.0945 73.7571 11.8246 73.598C11.5576 73.4389 11.2507 73.358 10.9041 73.3551C10.6399 73.3551 10.3743 73.4006 10.1073 73.4915C9.84023 73.5824 9.62432 73.7017 9.45955 73.8494L8.25358 73.6705L8.74364 69.2727H13.5419V70.402H9.83881L9.56182 72.8438H9.61295C9.78341 72.679 10.0093 72.5412 10.2905 72.4304C10.5746 72.3196 10.8786 72.2642 11.2024 72.2642C11.7337 72.2642 12.2067 72.3906 12.6215 72.6435C13.0391 72.8963 13.3672 73.2415 13.6059 73.679C13.8473 74.1136 13.9666 74.6136 13.9638 75.179C13.9666 75.7443 13.8388 76.2486 13.5803 76.6918C13.3246 77.1349 12.9695 77.4844 12.5149 77.7401C12.0632 77.9929 11.5448 78.1193 10.9595 78.1193Z" fill="#6F767E"/>
<path d="M0.839489 130V129.045L3.79261 125.986C4.10795 125.653 4.3679 125.362 4.57244 125.112C4.77983 124.859 4.93466 124.619 5.03693 124.392C5.1392 124.165 5.19034 123.923 5.19034 123.668C5.19034 123.378 5.12216 123.128 4.9858 122.918C4.84943 122.705 4.66335 122.541 4.42756 122.428C4.19176 122.311 3.92614 122.253 3.63068 122.253C3.31818 122.253 3.04545 122.317 2.8125 122.445C2.57955 122.572 2.40057 122.753 2.27557 122.986C2.15057 123.219 2.08807 123.491 2.08807 123.804H0.830966C0.830966 123.273 0.953125 122.808 1.19744 122.411C1.44176 122.013 1.77699 121.705 2.20312 121.486C2.62926 121.264 3.11364 121.153 3.65625 121.153C4.20455 121.153 4.6875 121.263 5.10511 121.482C5.52557 121.697 5.85369 121.993 6.08949 122.368C6.32528 122.74 6.44318 123.161 6.44318 123.629C6.44318 123.953 6.3821 124.27 6.25994 124.58C6.14063 124.889 5.93182 125.234 5.63352 125.615C5.33523 125.993 4.92045 126.452 4.3892 126.991L2.65483 128.807V128.871H6.58381V130H0.839489ZM11.1172 130.145C10.4439 130.142 9.86864 129.964 9.39136 129.612C8.91409 129.26 8.54903 128.747 8.29619 128.074C8.04335 127.401 7.91693 126.589 7.91693 125.641C7.91693 124.695 8.04335 123.886 8.29619 123.216C8.55188 122.545 8.91835 122.034 9.39563 121.682C9.87574 121.33 10.4496 121.153 11.1172 121.153C11.7848 121.153 12.3573 121.331 12.8345 121.686C13.3118 122.038 13.6769 122.55 13.9297 123.22C14.1854 123.888 14.3132 124.695 14.3132 125.641C14.3132 126.592 14.1868 127.405 13.934 128.078C13.6811 128.749 13.3161 129.261 12.8388 129.616C12.3615 129.969 11.7877 130.145 11.1172 130.145ZM11.1172 129.007C11.7081 129.007 12.1698 128.719 12.5022 128.142C12.8374 127.565 13.005 126.732 13.005 125.641C13.005 124.916 12.9283 124.304 12.7749 123.804C12.6243 123.301 12.407 122.92 12.1229 122.662C11.8416 122.401 11.5064 122.27 11.1172 122.27C10.5291 122.27 10.0675 122.56 9.73227 123.139C9.39705 123.719 9.22801 124.553 9.22517 125.641C9.22517 126.368 9.30045 126.983 9.45102 127.486C9.60443 127.986 9.82176 128.365 10.103 128.624C10.3843 128.879 10.7223 129.007 11.1172 129.007Z" fill="#6F767E"/>
<path d="M4.15057 173.273V182H2.82955V174.594H2.77841L0.690341 175.957V174.696L2.8679 173.273H4.15057ZM9.27205 182.119C8.73795 182.119 8.25784 182.017 7.8317 181.812C7.40841 181.605 7.07034 181.321 6.8175 180.96C6.56466 180.599 6.42972 180.188 6.41267 179.724H7.69108C7.72233 180.099 7.88852 180.408 8.18966 180.649C8.4908 180.891 8.85159 181.011 9.27205 181.011C9.60727 181.011 9.90415 180.935 10.1627 180.781C10.424 180.625 10.6286 180.411 10.7763 180.138C10.9269 179.865 11.0022 179.554 11.0022 179.205C11.0022 178.849 10.9255 178.533 10.772 178.254C10.6186 177.976 10.407 177.757 10.1371 177.598C9.87006 177.439 9.56324 177.358 9.21665 177.355C8.95244 177.355 8.68682 177.401 8.41977 177.491C8.15273 177.582 7.93682 177.702 7.77205 177.849L6.56608 177.67L7.05614 173.273H11.8544V174.402H8.15131L7.87432 176.844H7.92545C8.09591 176.679 8.32176 176.541 8.60301 176.43C8.8871 176.32 9.19108 176.264 9.51494 176.264C10.0462 176.264 10.5192 176.391 10.934 176.643C11.3516 176.896 11.6797 177.241 11.9184 177.679C12.1598 178.114 12.2791 178.614 12.2763 179.179C12.2791 179.744 12.1513 180.249 11.8928 180.692C11.6371 181.135 11.282 181.484 10.8274 181.74C10.3757 181.993 9.85727 182.119 9.27205 182.119Z" fill="#6F767E"/>
<path d="M4.15057 225.273V234H2.82955V226.594H2.77841L0.690341 227.957V226.696L2.8679 225.273H4.15057ZM9.42972 234.145C8.75642 234.142 8.18114 233.964 7.70386 233.612C7.22659 233.26 6.86153 232.747 6.60869 232.074C6.35585 231.401 6.22943 230.589 6.22943 229.641C6.22943 228.695 6.35585 227.886 6.60869 227.216C6.86438 226.545 7.23085 226.034 7.70813 225.682C8.18824 225.33 8.7621 225.153 9.42972 225.153C10.0973 225.153 10.6698 225.331 11.147 225.686C11.6243 226.038 11.9894 226.55 12.2422 227.22C12.4979 227.888 12.6257 228.695 12.6257 229.641C12.6257 230.592 12.4993 231.405 12.2465 232.078C11.9936 232.749 11.6286 233.261 11.1513 233.616C10.674 233.969 10.1002 234.145 9.42972 234.145ZM9.42972 233.007C10.0206 233.007 10.4823 232.719 10.8147 232.142C11.1499 231.565 11.3175 230.732 11.3175 229.641C11.3175 228.916 11.2408 228.304 11.0874 227.804C10.9368 227.301 10.7195 226.92 10.4354 226.662C10.1541 226.401 9.81892 226.27 9.42972 226.27C8.84165 226.27 8.38 226.56 8.04477 227.139C7.70955 227.719 7.54051 228.553 7.53767 229.641C7.53767 230.368 7.61295 230.983 7.76352 231.486C7.91693 231.986 8.13426 232.365 8.41551 232.624C8.69676 232.879 9.03483 233.007 9.42972 233.007Z" fill="#6F767E"/>
<path d="M3.72017 286.119C3.18608 286.119 2.70597 286.017 2.27983 285.812C1.85653 285.605 1.51847 285.321 1.26562 284.96C1.01278 284.599 0.877841 284.188 0.860795 283.724H2.1392C2.17045 284.099 2.33665 284.408 2.63778 284.649C2.93892 284.891 3.29972 285.011 3.72017 285.011C4.0554 285.011 4.35227 284.935 4.6108 284.781C4.87216 284.625 5.0767 284.411 5.22443 284.138C5.375 283.865 5.45028 283.554 5.45028 283.205C5.45028 282.849 5.37358 282.533 5.22017 282.254C5.06676 281.976 4.85511 281.757 4.58523 281.598C4.31818 281.439 4.01136 281.358 3.66477 281.355C3.40057 281.355 3.13494 281.401 2.8679 281.491C2.60085 281.582 2.38494 281.702 2.22017 281.849L1.0142 281.67L1.50426 277.273H6.30256V278.402H2.59943L2.32244 280.844H2.37358C2.54403 280.679 2.76989 280.541 3.05114 280.43C3.33523 280.32 3.6392 280.264 3.96307 280.264C4.49432 280.264 4.96733 280.391 5.3821 280.643C5.79972 280.896 6.12784 281.241 6.36648 281.679C6.60795 282.114 6.72727 282.614 6.72443 283.179C6.72727 283.744 6.59943 284.249 6.34091 284.692C6.08523 285.135 5.73011 285.484 5.27557 285.74C4.82386 285.993 4.3054 286.119 3.72017 286.119Z" fill="#6F767E"/>
<path d="M57.7826 70C57.7826 68.8954 58.678 68 59.7826 68H95.7826C96.8872 68 97.7826 68.8954 97.7826 70V76H57.7826V70Z" fill="#B6DCFF"/>
<rect x="57.7826" y="76" width="40" height="12" fill="#38A3A5"/>
<rect x="57.7826" y="88" width="40" height="4" fill="#FFD670"/>
<path d="M57.7826 92H97.7826V282C97.7826 283.105 96.8872 284 95.7826 284H59.7826C58.678 284 57.7826 283.105 57.7826 282V92Z" fill="#2A85FF"/>
<path d="M71.6335 309.273H72.946V315.46C72.946 316.02 72.8352 316.499 72.6136 316.896C72.3948 317.294 72.0866 317.598 71.6889 317.808C71.2911 318.016 70.8252 318.119 70.2911 318.119C69.7997 318.119 69.3579 318.03 68.9658 317.851C68.5766 317.672 68.2684 317.412 68.0411 317.071C67.8167 316.727 67.7045 316.31 67.7045 315.818H69.0127C69.0127 316.06 69.0681 316.268 69.1789 316.445C69.2926 316.621 69.4474 316.759 69.6434 316.858C69.8423 316.955 70.0695 317.003 70.3252 317.003C70.6036 317.003 70.8394 316.945 71.0326 316.828C71.2286 316.709 71.3778 316.534 71.4801 316.304C71.5823 316.074 71.6335 315.793 71.6335 315.46V309.273ZM76.5451 318.145C76.1303 318.145 75.7553 318.068 75.4201 317.915C75.0848 317.759 74.8192 317.533 74.6232 317.237C74.43 316.942 74.3334 316.58 74.3334 316.151C74.3334 315.781 74.4044 315.477 74.5465 315.239C74.6885 315 74.8803 314.811 75.1218 314.672C75.3632 314.533 75.6331 314.428 75.9314 314.357C76.2297 314.286 76.5337 314.232 76.8434 314.195C77.2354 314.149 77.5536 314.112 77.7979 314.084C78.0422 314.053 78.2198 314.003 78.3306 313.935C78.4414 313.866 78.4968 313.756 78.4968 313.602V313.572C78.4968 313.2 78.3917 312.912 78.1814 312.707C77.974 312.503 77.6644 312.401 77.2525 312.401C76.8235 312.401 76.4854 312.496 76.2382 312.686C75.9939 312.874 75.8249 313.082 75.7311 313.312L74.5337 313.04C74.6757 312.642 74.8831 312.321 75.1559 312.077C75.4314 311.83 75.7482 311.651 76.1061 311.54C76.4641 311.426 76.8405 311.369 77.2354 311.369C77.4968 311.369 77.7738 311.401 78.0664 311.463C78.3618 311.523 78.6374 311.634 78.8931 311.795C79.1516 311.957 79.3632 312.189 79.528 312.49C79.6928 312.788 79.7752 313.176 79.7752 313.653V318H78.5309V317.105H78.4797C78.3973 317.27 78.2738 317.432 78.109 317.591C77.9442 317.75 77.7326 317.882 77.474 317.987C77.2155 318.092 76.9059 318.145 76.5451 318.145ZM76.8221 317.122C77.1743 317.122 77.4755 317.053 77.7255 316.913C77.9783 316.774 78.1701 316.592 78.3007 316.368C78.4343 316.141 78.501 315.898 78.501 315.639V314.795C78.4556 314.841 78.3675 314.884 78.2368 314.923C78.109 314.96 77.9627 314.993 77.7979 315.021C77.6331 315.047 77.4726 315.071 77.3164 315.094C77.1601 315.114 77.0294 315.131 76.9243 315.145C76.6772 315.176 76.4513 315.229 76.2468 315.303C76.0451 315.376 75.8831 315.483 75.761 315.622C75.6417 315.759 75.582 315.94 75.582 316.168C75.582 316.483 75.6985 316.722 75.9314 316.884C76.1644 317.043 76.4613 317.122 76.8221 317.122ZM82.6264 314.114V318H81.3523V311.455H82.5753V312.52H82.6562C82.8068 312.173 83.0426 311.895 83.3636 311.685C83.6875 311.474 84.0952 311.369 84.5866 311.369C85.0327 311.369 85.4233 311.463 85.7585 311.651C86.0937 311.835 86.3537 312.111 86.5383 312.477C86.723 312.844 86.8153 313.297 86.8153 313.837V318H85.5412V313.99C85.5412 313.516 85.4176 313.145 85.1704 312.878C84.9233 312.608 84.5838 312.473 84.152 312.473C83.8565 312.473 83.5937 312.537 83.3636 312.665C83.1364 312.793 82.956 312.98 82.8224 313.227C82.6918 313.472 82.6264 313.767 82.6264 314.114Z" fill="#6F767E"/>
<rect x="129.565" width="1" height="296" rx="0.5" fill="#EFEFEF"/>
<path d="M162.348 118C162.348 116.895 163.243 116 164.348 116H200.348C201.452 116 202.348 116.895 202.348 118V124H162.348V118Z" fill="#B6DCFF"/>
<rect x="162.348" y="124" width="40" height="12" fill="#38A3A5"/>
<rect x="162.348" y="136" width="40" height="36" fill="#FFD670"/>
<path d="M162.348 172H202.348V282C202.348 283.105 201.452 284 200.348 284H164.348C163.243 284 162.348 283.105 162.348 282V172Z" fill="#2A85FF"/>
<path d="M172.807 318V309.273H178.219V310.406H174.123V313.065H177.831V314.195H174.123V318H172.807ZM181.956 318.132C181.311 318.132 180.756 317.994 180.29 317.719C179.827 317.44 179.469 317.05 179.216 316.547C178.966 316.041 178.841 315.449 178.841 314.77C178.841 314.099 178.966 313.509 179.216 312.997C179.469 312.486 179.821 312.087 180.273 311.8C180.727 311.513 181.259 311.369 181.867 311.369C182.236 311.369 182.594 311.43 182.941 311.553C183.287 311.675 183.598 311.866 183.874 312.128C184.149 312.389 184.367 312.729 184.526 313.146C184.685 313.561 184.764 314.065 184.764 314.659V315.111H179.561V314.156H183.516C183.516 313.821 183.448 313.524 183.311 313.266C183.175 313.004 182.983 312.798 182.736 312.648C182.492 312.497 182.205 312.422 181.875 312.422C181.517 312.422 181.205 312.51 180.938 312.686C180.673 312.859 180.469 313.087 180.324 313.368C180.182 313.646 180.111 313.949 180.111 314.276V315.021C180.111 315.459 180.188 315.831 180.341 316.138C180.497 316.445 180.715 316.679 180.993 316.841C181.272 317 181.597 317.08 181.969 317.08C182.21 317.08 182.431 317.045 182.629 316.977C182.828 316.906 183 316.801 183.145 316.662C183.29 316.523 183.401 316.351 183.477 316.146L184.683 316.364C184.587 316.719 184.414 317.03 184.164 317.297C183.916 317.561 183.605 317.767 183.23 317.915C182.858 318.06 182.433 318.132 181.956 318.132ZM186.16 318V309.273H187.435V312.516H187.511C187.585 312.379 187.692 312.222 187.831 312.043C187.97 311.864 188.163 311.707 188.41 311.574C188.658 311.438 188.984 311.369 189.39 311.369C189.919 311.369 190.39 311.503 190.805 311.77C191.22 312.037 191.545 312.422 191.781 312.925C192.02 313.428 192.139 314.033 192.139 314.74C192.139 315.447 192.021 316.054 191.785 316.56C191.55 317.062 191.226 317.45 190.814 317.723C190.402 317.993 189.932 318.128 189.403 318.128C189.006 318.128 188.68 318.061 188.427 317.928C188.177 317.794 187.981 317.638 187.839 317.459C187.697 317.28 187.588 317.121 187.511 316.982H187.405V318H186.16ZM187.409 314.727C187.409 315.187 187.476 315.591 187.609 315.938C187.743 316.284 187.936 316.555 188.189 316.751C188.442 316.945 188.751 317.041 189.118 317.041C189.498 317.041 189.817 316.94 190.072 316.739C190.328 316.534 190.521 316.257 190.652 315.908C190.785 315.558 190.852 315.165 190.852 314.727C190.852 314.295 190.787 313.908 190.656 313.564C190.528 313.22 190.335 312.949 190.077 312.75C189.821 312.551 189.501 312.452 189.118 312.452C188.748 312.452 188.436 312.547 188.18 312.737C187.927 312.928 187.736 313.193 187.605 313.534C187.474 313.875 187.409 314.273 187.409 314.727Z" fill="#6F767E"/>
<rect x="234.13" width="1" height="296" rx="0.5" fill="#EFEFEF"/>
<path d="M266.913 190C266.913 188.895 267.808 188 268.913 188H304.913C306.018 188 306.913 188.895 306.913 190V196H266.913V190Z" fill="#B6DCFF"/>
<rect x="266.913" y="196" width="40" height="28" fill="#38A3A5"/>
<rect x="266.913" y="224" width="40" height="4" fill="#FFD670"/>
<path d="M266.913 228H306.913V282C306.913 283.105 306.018 284 304.913 284H268.913C267.808 284 266.913 283.105 266.913 282V228Z" fill="#2A85FF"/>
<path d="M276.872 309.273H278.47L281.248 316.057H281.351L284.129 309.273H285.727V318H284.474V311.685H284.393L281.819 317.987H280.78L278.206 311.68H278.125V318H276.872V309.273ZM289.324 318.145C288.909 318.145 288.534 318.068 288.199 317.915C287.864 317.759 287.598 317.533 287.402 317.237C287.209 316.942 287.112 316.58 287.112 316.151C287.112 315.781 287.183 315.477 287.325 315.239C287.467 315 287.659 314.811 287.901 314.672C288.142 314.533 288.412 314.428 288.71 314.357C289.009 314.286 289.313 314.232 289.622 314.195C290.014 314.149 290.332 314.112 290.577 314.084C290.821 314.053 290.999 314.003 291.109 313.935C291.22 313.866 291.276 313.756 291.276 313.602V313.572C291.276 313.2 291.171 312.912 290.96 312.707C290.753 312.503 290.443 312.401 290.031 312.401C289.602 312.401 289.264 312.496 289.017 312.686C288.773 312.874 288.604 313.082 288.51 313.312L287.313 313.04C287.455 312.642 287.662 312.321 287.935 312.077C288.21 311.83 288.527 311.651 288.885 311.54C289.243 311.426 289.619 311.369 290.014 311.369C290.276 311.369 290.553 311.401 290.845 311.463C291.141 311.523 291.416 311.634 291.672 311.795C291.93 311.957 292.142 312.189 292.307 312.49C292.472 312.788 292.554 313.176 292.554 313.653V318H291.31V317.105H291.259C291.176 317.27 291.053 317.432 290.888 317.591C290.723 317.75 290.511 317.882 290.253 317.987C289.994 318.092 289.685 318.145 289.324 318.145ZM289.601 317.122C289.953 317.122 290.254 317.053 290.504 316.913C290.757 316.774 290.949 316.592 291.08 316.368C291.213 316.141 291.28 315.898 291.28 315.639V314.795C291.234 314.841 291.146 314.884 291.016 314.923C290.888 314.96 290.742 314.993 290.577 315.021C290.412 315.047 290.251 315.071 290.095 315.094C289.939 315.114 289.808 315.131 289.703 315.145C289.456 315.176 289.23 315.229 289.026 315.303C288.824 315.376 288.662 315.483 288.54 315.622C288.421 315.759 288.361 315.94 288.361 316.168C288.361 316.483 288.477 316.722 288.71 316.884C288.943 317.043 289.24 317.122 289.601 317.122ZM294.131 318V311.455H295.363V312.494H295.431C295.55 312.142 295.76 311.865 296.062 311.663C296.366 311.459 296.709 311.357 297.093 311.357C297.172 311.357 297.266 311.359 297.374 311.365C297.485 311.371 297.571 311.378 297.634 311.386V312.605C297.583 312.591 297.492 312.575 297.361 312.558C297.231 312.538 297.1 312.528 296.969 312.528C296.668 312.528 296.4 312.592 296.164 312.72C295.931 312.845 295.746 313.02 295.61 313.244C295.473 313.466 295.405 313.719 295.405 314.003V318H294.131Z" fill="#6F767E"/>
<rect x="338.696" width="1" height="296" rx="0.5" fill="#EFEFEF"/>
<path d="M371.478 142C371.478 140.895 372.374 140 373.478 140H409.478C410.583 140 411.478 140.895 411.478 142V172H371.478V142Z" fill="#B6DCFF"/>
<rect x="371.478" y="172" width="40" height="4" fill="#38A3A5"/>
<rect x="371.478" y="176" width="40" height="4" fill="#FFD670"/>
<path d="M371.478 180H411.478V282C411.478 283.105 410.583 284 409.478 284H373.478C372.374 284 371.478 283.105 371.478 282V180Z" fill="#2A85FF"/>
<path d="M382.674 318H381.277L384.417 309.273H385.938L389.079 318H387.681L385.214 310.858H385.146L382.674 318ZM382.909 314.582H387.443V315.69H382.909V314.582ZM390.117 320.455V311.455H391.361V312.516H391.468C391.542 312.379 391.648 312.222 391.788 312.043C391.927 311.864 392.12 311.707 392.367 311.574C392.614 311.438 392.941 311.369 393.347 311.369C393.876 311.369 394.347 311.503 394.762 311.77C395.177 312.037 395.502 312.422 395.738 312.925C395.977 313.428 396.096 314.033 396.096 314.74C396.096 315.447 395.978 316.054 395.742 316.56C395.506 317.062 395.182 317.45 394.771 317.723C394.359 317.993 393.888 318.128 393.36 318.128C392.962 318.128 392.637 318.061 392.384 317.928C392.134 317.794 391.938 317.638 391.796 317.459C391.654 317.28 391.545 317.121 391.468 316.982H391.391V320.455H390.117ZM391.366 314.727C391.366 315.187 391.432 315.591 391.566 315.938C391.7 316.284 391.893 316.555 392.146 316.751C392.398 316.945 392.708 317.041 393.075 317.041C393.455 317.041 393.773 316.94 394.029 316.739C394.285 316.534 394.478 316.257 394.609 315.908C394.742 315.558 394.809 315.165 394.809 314.727C394.809 314.295 394.744 313.908 394.613 313.564C394.485 313.22 394.292 312.949 394.033 312.75C393.778 312.551 393.458 312.452 393.075 312.452C392.705 312.452 392.393 312.547 392.137 312.737C391.884 312.928 391.692 313.193 391.562 313.534C391.431 313.875 391.366 314.273 391.366 314.727ZM397.403 318V311.455H398.635V312.494H398.703C398.822 312.142 399.033 311.865 399.334 311.663C399.638 311.459 399.982 311.357 400.365 311.357C400.445 311.357 400.538 311.359 400.646 311.365C400.757 311.371 400.844 311.378 400.906 311.386V312.605C400.855 312.591 400.764 312.575 400.634 312.558C400.503 312.538 400.372 312.528 400.241 312.528C399.94 312.528 399.672 312.592 399.436 312.72C399.203 312.845 399.018 313.02 398.882 313.244C398.746 313.466 398.678 313.719 398.678 314.003V318H397.403Z" fill="#6F767E"/>
<rect x="443.261" width="1" height="296" rx="0.5" fill="#EFEFEF"/>
<path d="M476.043 122C476.043 120.895 476.939 120 478.043 120H514.043C515.148 120 516.043 120.895 516.043 122V124H476.043V122Z" fill="#B6DCFF"/>
<rect x="476.043" y="124" width="40" height="4" fill="#38A3A5"/>
<rect x="476.043" y="128" width="40" height="4" fill="#FFD670"/>
<path d="M476.043 132H516.043V282C516.043 283.105 515.148 284 514.043 284H478.043C476.939 284 476.043 283.105 476.043 282V132Z" fill="#2A85FF"/>
<path d="M485.002 309.273H486.6L489.379 316.057H489.481L492.259 309.273H493.857V318H492.605V311.685H492.524L489.95 317.987H488.91L486.336 311.68H486.255V318H485.002V309.273ZM497.454 318.145C497.04 318.145 496.665 318.068 496.329 317.915C495.994 317.759 495.728 317.533 495.532 317.237C495.339 316.942 495.243 316.58 495.243 316.151C495.243 315.781 495.314 315.477 495.456 315.239C495.598 315 495.79 314.811 496.031 314.672C496.273 314.533 496.542 314.428 496.841 314.357C497.139 314.286 497.443 314.232 497.753 314.195C498.145 314.149 498.463 314.112 498.707 314.084C498.952 314.053 499.129 314.003 499.24 313.935C499.351 313.866 499.406 313.756 499.406 313.602V313.572C499.406 313.2 499.301 312.912 499.091 312.707C498.883 312.503 498.574 312.401 498.162 312.401C497.733 312.401 497.395 312.496 497.148 312.686C496.903 312.874 496.734 313.082 496.64 313.312L495.443 313.04C495.585 312.642 495.792 312.321 496.065 312.077C496.341 311.83 496.657 311.651 497.015 311.54C497.373 311.426 497.75 311.369 498.145 311.369C498.406 311.369 498.683 311.401 498.976 311.463C499.271 311.523 499.547 311.634 499.802 311.795C500.061 311.957 500.273 312.189 500.437 312.49C500.602 312.788 500.684 313.176 500.684 313.653V318H499.44V317.105H499.389C499.307 317.27 499.183 317.432 499.018 317.591C498.853 317.75 498.642 317.882 498.383 317.987C498.125 318.092 497.815 318.145 497.454 318.145ZM497.731 317.122C498.084 317.122 498.385 317.053 498.635 316.913C498.888 316.774 499.079 316.592 499.21 316.368C499.344 316.141 499.41 315.898 499.41 315.639V314.795C499.365 314.841 499.277 314.884 499.146 314.923C499.018 314.96 498.872 314.993 498.707 315.021C498.542 315.047 498.382 315.071 498.226 315.094C498.069 315.114 497.939 315.131 497.834 315.145C497.586 315.176 497.361 315.229 497.156 315.303C496.954 315.376 496.792 315.483 496.67 315.622C496.551 315.759 496.491 315.94 496.491 316.168C496.491 316.483 496.608 316.722 496.841 316.884C497.074 317.043 497.371 317.122 497.731 317.122ZM502.833 320.455C502.642 320.455 502.469 320.439 502.313 320.408C502.156 320.379 502.04 320.348 501.963 320.314L502.27 319.27C502.503 319.332 502.71 319.359 502.892 319.351C503.074 319.342 503.235 319.274 503.374 319.146C503.516 319.018 503.641 318.81 503.749 318.52L503.906 318.085L501.512 311.455H502.875L504.533 316.534H504.601L506.259 311.455H507.627L504.929 318.874C504.804 319.214 504.645 319.503 504.452 319.739C504.259 319.977 504.029 320.156 503.762 320.276C503.495 320.395 503.185 320.455 502.833 320.455Z" fill="#6F767E"/>
<rect x="547.826" width="1" height="296" rx="0.5" fill="#EFEFEF"/>
<path d="M580.609 145C580.609 143.895 581.504 143 582.609 143H618.609C619.713 143 620.609 143.895 620.609 145H580.609Z" fill="#B6DCFF"/>
<rect x="580.609" y="145" width="40" height="2" fill="#38A3A5"/>
<rect x="580.609" y="147" width="40" height="25" fill="#FFD670"/>
<path d="M580.609 172H620.609V282C620.609 283.105 619.713 284 618.609 284H582.609C581.504 284 580.609 283.105 580.609 282V172Z" fill="#2A85FF"/>
<path d="M594.459 309.273H595.772V315.46C595.772 316.02 595.661 316.499 595.44 316.896C595.221 317.294 594.913 317.598 594.515 317.808C594.117 318.016 593.651 318.119 593.117 318.119C592.626 318.119 592.184 318.03 591.792 317.851C591.403 317.672 591.094 317.412 590.867 317.071C590.643 316.727 590.531 316.31 590.531 315.818H591.839C591.839 316.06 591.894 316.268 592.005 316.445C592.119 316.621 592.273 316.759 592.469 316.858C592.668 316.955 592.896 317.003 593.151 317.003C593.43 317.003 593.665 316.945 593.859 316.828C594.055 316.709 594.204 316.534 594.306 316.304C594.408 316.074 594.459 315.793 594.459 315.46V309.273ZM601.613 315.286V311.455H602.891V318H601.638V316.866H601.57C601.419 317.216 601.178 317.507 600.846 317.74C600.516 317.97 600.105 318.085 599.614 318.085C599.194 318.085 598.821 317.993 598.498 317.808C598.176 317.621 597.924 317.344 597.739 316.977C597.557 316.611 597.466 316.158 597.466 315.618V311.455H598.74V315.464C598.74 315.911 598.864 316.266 599.111 316.53C599.358 316.794 599.679 316.926 600.074 316.926C600.313 316.926 600.55 316.866 600.786 316.747C601.025 316.628 601.222 316.447 601.378 316.206C601.537 315.964 601.615 315.658 601.613 315.286ZM605.757 314.114V318H604.483V311.455H605.706V312.52H605.787C605.938 312.173 606.173 311.895 606.494 311.685C606.818 311.474 607.226 311.369 607.717 311.369C608.163 311.369 608.554 311.463 608.889 311.651C609.224 311.835 609.484 312.111 609.669 312.477C609.854 312.844 609.946 313.297 609.946 313.837V318H608.672V313.99C608.672 313.516 608.548 313.145 608.301 312.878C608.054 312.608 607.715 312.473 607.283 312.473C606.987 312.473 606.724 312.537 606.494 312.665C606.267 312.793 606.087 312.98 605.953 313.227C605.822 313.472 605.757 313.767 605.757 314.114Z" fill="#6F767E"/>
<rect x="652.391" width="1" height="296" rx="0.5" fill="#EFEFEF"/>
<path d="M685.174 122C685.174 120.895 686.069 120 687.174 120H723.174C724.278 120 725.174 120.895 725.174 122V124H685.174V122Z" fill="#B6DCFF"/>
<rect x="685.174" y="124" width="40" height="4" fill="#38A3A5"/>
<rect x="685.174" y="128" width="40" height="4" fill="#FFD670"/>
<path d="M685.174 132H725.174V282C725.174 283.105 724.278 284 723.174 284H687.174C686.069 284 685.174 283.105 685.174 282V132Z" fill="#2A85FF"/>
<path d="M701.025 309.273H702.337V315.46C702.337 316.02 702.226 316.499 702.005 316.896C701.786 317.294 701.478 317.598 701.08 317.808C700.682 318.016 700.216 318.119 699.682 318.119C699.191 318.119 698.749 318.03 698.357 317.851C697.968 317.672 697.66 317.412 697.432 317.071C697.208 316.727 697.096 316.31 697.096 315.818H698.404C698.404 316.06 698.459 316.268 698.57 316.445C698.684 316.621 698.839 316.759 699.035 316.858C699.233 316.955 699.461 317.003 699.716 317.003C699.995 317.003 700.231 316.945 700.424 316.828C700.62 316.709 700.769 316.534 700.871 316.304C700.974 316.074 701.025 315.793 701.025 315.46V309.273ZM708.178 315.286V311.455H709.456V318H708.203V316.866H708.135C707.985 317.216 707.743 317.507 707.411 317.74C707.081 317.97 706.671 318.085 706.179 318.085C705.759 318.085 705.387 317.993 705.063 317.808C704.742 317.621 704.489 317.344 704.304 316.977C704.122 316.611 704.031 316.158 704.031 315.618V311.455H705.306V315.464C705.306 315.911 705.429 316.266 705.676 316.53C705.924 316.794 706.245 316.926 706.639 316.926C706.878 316.926 707.115 316.866 707.351 316.747C707.59 316.628 707.787 316.447 707.943 316.206C708.102 315.964 708.181 315.658 708.178 315.286ZM712.322 309.273V318H711.048V309.273H712.322Z" fill="#6F767E"/>
<rect x="756.956" width="1" height="296" rx="0.5" fill="#EFEFEF"/>
<path d="M789.739 145C789.739 143.895 790.634 143 791.739 143H827.739C828.844 143 829.739 143.895 829.739 145H789.739Z" fill="#B6DCFF"/>
<rect x="789.739" y="145" width="40" height="2" fill="#38A3A5"/>
<rect x="789.739" y="147" width="40" height="25" fill="#FFD670"/>
<path d="M789.739 172H829.739V282C829.739 283.105 828.844 284 827.739 284H791.739C790.634 284 789.739 283.105 789.739 282V172Z" fill="#2A85FF"/>
<path d="M799.935 318H798.537L801.678 309.273H803.199L806.34 318H804.942L802.475 310.858H802.407L799.935 318ZM800.169 314.582H804.704V315.69H800.169V314.582ZM811.524 315.286V311.455H812.803V318H811.55V316.866H811.482C811.331 317.216 811.09 317.507 810.757 317.74C810.428 317.97 810.017 318.085 809.526 318.085C809.105 318.085 808.733 317.993 808.409 317.808C808.088 317.621 807.835 317.344 807.651 316.977C807.469 316.611 807.378 316.158 807.378 315.618V311.455H808.652V315.464C808.652 315.911 808.776 316.266 809.023 316.53C809.27 316.794 809.591 316.926 809.986 316.926C810.224 316.926 810.462 316.866 810.697 316.747C810.936 316.628 811.134 316.447 811.29 316.206C811.449 315.964 811.527 315.658 811.524 315.286ZM817.139 320.591C816.619 320.591 816.172 320.523 815.797 320.386C815.424 320.25 815.12 320.07 814.885 319.845C814.649 319.621 814.473 319.375 814.356 319.108L815.451 318.656C815.528 318.781 815.63 318.913 815.758 319.053C815.889 319.195 816.065 319.315 816.287 319.415C816.511 319.514 816.799 319.564 817.152 319.564C817.635 319.564 818.034 319.446 818.349 319.21C818.664 318.977 818.822 318.605 818.822 318.094V316.807H818.741C818.664 316.946 818.554 317.101 818.409 317.271C818.267 317.442 818.071 317.589 817.821 317.714C817.571 317.839 817.245 317.902 816.845 317.902C816.328 317.902 815.862 317.781 815.447 317.54C815.035 317.295 814.709 316.936 814.467 316.462C814.228 315.984 814.109 315.398 814.109 314.702C814.109 314.006 814.227 313.409 814.463 312.912C814.701 312.415 815.028 312.034 815.443 311.77C815.858 311.503 816.328 311.369 816.853 311.369C817.26 311.369 817.588 311.438 817.838 311.574C818.088 311.707 818.282 311.864 818.422 312.043C818.564 312.222 818.673 312.379 818.75 312.516H818.843V311.455H820.092V318.145C820.092 318.707 819.961 319.169 819.7 319.53C819.439 319.891 819.085 320.158 818.639 320.331C818.196 320.504 817.696 320.591 817.139 320.591ZM817.126 316.845C817.493 316.845 817.802 316.76 818.055 316.589C818.311 316.416 818.504 316.169 818.635 315.848C818.768 315.524 818.835 315.136 818.835 314.685C818.835 314.244 818.77 313.857 818.639 313.521C818.508 313.186 818.316 312.925 818.064 312.737C817.811 312.547 817.498 312.452 817.126 312.452C816.743 312.452 816.423 312.551 816.167 312.75C815.912 312.946 815.718 313.213 815.588 313.551C815.46 313.889 815.396 314.267 815.396 314.685C815.396 315.114 815.461 315.49 815.592 315.814C815.723 316.138 815.916 316.391 816.172 316.572C816.43 316.754 816.748 316.845 817.126 316.845Z" fill="#6F767E"/>
<rect x="861.522" width="1" height="296" rx="0.5" fill="#EFEFEF"/>
<path d="M894.304 122C894.304 120.895 895.2 120 896.304 120H932.304C933.409 120 934.304 120.895 934.304 122V124H894.304V122Z" fill="#B6DCFF"/>
<rect x="894.304" y="124" width="40" height="4" fill="#38A3A5"/>
<rect x="894.304" y="128" width="40" height="4" fill="#FFD670"/>
<path d="M894.304 132H934.304V282C934.304 283.105 933.409 284 932.304 284H896.304C895.2 284 894.304 283.105 894.304 282V132Z" fill="#2A85FF"/>
<path d="M909.023 311.565C908.977 311.162 908.79 310.849 908.46 310.628C908.131 310.403 907.716 310.291 907.216 310.291C906.858 310.291 906.549 310.348 906.287 310.462C906.026 310.572 905.823 310.726 905.678 310.922C905.536 311.115 905.465 311.335 905.465 311.582C905.465 311.79 905.513 311.969 905.61 312.119C905.709 312.27 905.838 312.396 905.997 312.499C906.159 312.598 906.333 312.682 906.517 312.75C906.702 312.815 906.879 312.869 907.05 312.912L907.902 313.134C908.181 313.202 908.466 313.294 908.759 313.411C909.051 313.527 909.323 313.68 909.573 313.871C909.823 314.061 910.024 314.297 910.178 314.578C910.334 314.859 910.412 315.196 910.412 315.588C910.412 316.082 910.284 316.521 910.029 316.905C909.776 317.288 909.408 317.591 908.925 317.812C908.445 318.034 907.864 318.145 907.182 318.145C906.529 318.145 905.963 318.041 905.486 317.834C905.009 317.626 904.635 317.332 904.365 316.952C904.095 316.568 903.946 316.114 903.918 315.588H905.239C905.264 315.903 905.367 316.166 905.546 316.376C905.727 316.584 905.959 316.739 906.24 316.841C906.524 316.94 906.835 316.99 907.174 316.99C907.546 316.99 907.877 316.932 908.166 316.815C908.459 316.696 908.689 316.531 908.857 316.321C909.024 316.108 909.108 315.859 909.108 315.575C909.108 315.317 909.034 315.105 908.887 314.94C908.742 314.776 908.544 314.639 908.294 314.531C908.047 314.423 907.767 314.328 907.455 314.246L906.424 313.964C905.725 313.774 905.171 313.494 904.762 313.125C904.355 312.756 904.152 312.267 904.152 311.659C904.152 311.156 904.289 310.717 904.561 310.342C904.834 309.967 905.203 309.676 905.669 309.469C906.135 309.259 906.661 309.153 907.246 309.153C907.837 309.153 908.358 309.257 908.81 309.464C909.264 309.672 909.622 309.957 909.884 310.321C910.145 310.682 910.281 311.097 910.293 311.565H909.023ZM914.584 318.132C913.94 318.132 913.384 317.994 912.918 317.719C912.455 317.44 912.097 317.05 911.844 316.547C911.594 316.041 911.469 315.449 911.469 314.77C911.469 314.099 911.594 313.509 911.844 312.997C912.097 312.486 912.449 312.087 912.901 311.8C913.356 311.513 913.887 311.369 914.495 311.369C914.864 311.369 915.222 311.43 915.569 311.553C915.915 311.675 916.226 311.866 916.502 312.128C916.778 312.389 916.995 312.729 917.154 313.146C917.313 313.561 917.393 314.065 917.393 314.659V315.111H912.19V314.156H916.144C916.144 313.821 916.076 313.524 915.94 313.266C915.803 313.004 915.611 312.798 915.364 312.648C915.12 312.497 914.833 312.422 914.503 312.422C914.145 312.422 913.833 312.51 913.566 312.686C913.302 312.859 913.097 313.087 912.952 313.368C912.81 313.646 912.739 313.949 912.739 314.276V315.021C912.739 315.459 912.816 315.831 912.969 316.138C913.126 316.445 913.343 316.679 913.621 316.841C913.9 317 914.225 317.08 914.597 317.08C914.839 317.08 915.059 317.045 915.258 316.977C915.457 316.906 915.628 316.801 915.773 316.662C915.918 316.523 916.029 316.351 916.106 316.146L917.312 316.364C917.215 316.719 917.042 317.03 916.792 317.297C916.545 317.561 916.234 317.767 915.859 317.915C915.486 318.06 915.062 318.132 914.584 318.132ZM918.686 320.455V311.455H919.931V312.516H920.037C920.111 312.379 920.218 312.222 920.357 312.043C920.496 311.864 920.689 311.707 920.936 311.574C921.184 311.438 921.51 311.369 921.916 311.369C922.445 311.369 922.916 311.503 923.331 311.77C923.746 312.037 924.071 312.422 924.307 312.925C924.546 313.428 924.665 314.033 924.665 314.74C924.665 315.447 924.547 316.054 924.311 316.56C924.076 317.062 923.752 317.45 923.34 317.723C922.928 317.993 922.458 318.128 921.929 318.128C921.532 318.128 921.206 318.061 920.953 317.928C920.703 317.794 920.507 317.638 920.365 317.459C920.223 317.28 920.114 317.121 920.037 316.982H919.961V320.455H918.686ZM919.935 314.727C919.935 315.187 920.002 315.591 920.135 315.938C920.269 316.284 920.462 316.555 920.715 316.751C920.968 316.945 921.277 317.041 921.644 317.041C922.024 317.041 922.343 316.94 922.598 316.739C922.854 316.534 923.047 316.257 923.178 315.908C923.311 315.558 923.378 315.165 923.378 314.727C923.378 314.295 923.313 313.908 923.182 313.564C923.054 313.22 922.861 312.949 922.603 312.75C922.347 312.551 922.027 312.452 921.644 312.452C921.274 312.452 920.962 312.547 920.706 312.737C920.453 312.928 920.262 313.193 920.131 313.534C920 313.875 919.935 314.273 919.935 314.727Z" fill="#6F767E"/>
<rect x="966.087" width="1" height="296" rx="0.5" fill="#EFEFEF"/>
<path d="M998.869 142C998.869 140.895 999.765 140 1000.87 140H1036.87C1037.97 140 1038.87 140.895 1038.87 142H998.869Z" fill="#B6DCFF"/>
<rect x="998.869" y="142" width="40" height="2" fill="#38A3A5"/>
<rect x="998.869" y="144" width="40" height="4" fill="#FFD670"/>
<path d="M998.869 148H1038.87V282C1038.87 283.105 1037.97 284 1036.87 284H1000.87C999.765 284 998.869 283.105 998.869 282V148Z" fill="#2A85FF"/>
<path d="M1016.91 313.636C1016.91 314.568 1016.74 315.369 1016.4 316.04C1016.06 316.707 1015.59 317.222 1015 317.582C1014.4 317.94 1013.73 318.119 1012.98 318.119C1012.22 318.119 1011.55 317.94 1010.96 317.582C1010.37 317.222 1009.9 316.706 1009.56 316.036C1009.22 315.365 1009.05 314.565 1009.05 313.636C1009.05 312.705 1009.22 311.905 1009.56 311.237C1009.9 310.567 1010.37 310.053 1010.96 309.695C1011.55 309.334 1012.22 309.153 1012.98 309.153C1013.73 309.153 1014.4 309.334 1015 309.695C1015.59 310.053 1016.06 310.567 1016.4 311.237C1016.74 311.905 1016.91 312.705 1016.91 313.636ZM1015.61 313.636C1015.61 312.926 1015.49 312.328 1015.26 311.842C1015.03 311.354 1014.72 310.984 1014.32 310.734C1013.93 310.482 1013.48 310.355 1012.98 310.355C1012.48 310.355 1012.03 310.482 1011.63 310.734C1011.24 310.984 1010.93 311.354 1010.7 311.842C1010.47 312.328 1010.36 312.926 1010.36 313.636C1010.36 314.347 1010.47 314.946 1010.7 315.435C1010.93 315.92 1011.24 316.29 1011.63 316.543C1012.03 316.793 1012.48 316.918 1012.98 316.918C1013.48 316.918 1013.93 316.793 1014.32 316.543C1014.72 316.29 1015.03 315.92 1015.26 315.435C1015.49 314.946 1015.61 314.347 1015.61 313.636ZM1021.09 318.132C1020.45 318.132 1019.91 317.989 1019.45 317.702C1018.99 317.412 1018.65 317.013 1018.4 316.504C1018.16 315.996 1018.03 315.413 1018.03 314.757C1018.03 314.092 1018.16 313.506 1018.41 312.997C1018.66 312.486 1019.01 312.087 1019.47 311.8C1019.92 311.513 1020.46 311.369 1021.07 311.369C1021.57 311.369 1022.01 311.462 1022.4 311.646C1022.79 311.828 1023.11 312.084 1023.34 312.413C1023.59 312.743 1023.73 313.128 1023.77 313.568H1022.53C1022.47 313.261 1022.31 312.997 1022.07 312.776C1021.82 312.554 1021.5 312.443 1021.09 312.443C1020.74 312.443 1020.43 312.537 1020.16 312.724C1019.9 312.909 1019.69 313.173 1019.54 313.517C1019.4 313.858 1019.32 314.261 1019.32 314.727C1019.32 315.205 1019.39 315.616 1019.54 315.963C1019.68 316.31 1019.89 316.578 1020.15 316.768C1020.42 316.959 1020.73 317.054 1021.09 317.054C1021.34 317.054 1021.55 317.01 1021.75 316.922C1021.95 316.831 1022.12 316.702 1022.25 316.534C1022.39 316.366 1022.48 316.165 1022.53 315.929H1023.77C1023.73 316.352 1023.59 316.73 1023.36 317.062C1023.13 317.395 1022.82 317.656 1022.44 317.847C1022.05 318.037 1021.6 318.132 1021.09 318.132ZM1028.07 311.455V312.477H1024.5V311.455H1028.07ZM1025.46 309.886H1026.73V316.078C1026.73 316.325 1026.77 316.511 1026.84 316.636C1026.91 316.759 1027.01 316.842 1027.13 316.888C1027.25 316.93 1027.38 316.952 1027.51 316.952C1027.62 316.952 1027.71 316.945 1027.78 316.93C1027.86 316.916 1027.92 316.905 1027.96 316.896L1028.19 317.949C1028.12 317.977 1028.01 318.006 1027.88 318.034C1027.74 318.065 1027.57 318.082 1027.37 318.085C1027.03 318.091 1026.72 318.031 1026.43 317.906C1026.14 317.781 1025.9 317.588 1025.72 317.327C1025.55 317.065 1025.46 316.737 1025.46 316.342V309.886Z" fill="#6F767E"/>
<rect x="1070.65" width="1" height="296" rx="0.5" fill="#EFEFEF"/>
<path d="M1103.43 142C1103.43 140.895 1104.33 140 1105.43 140H1141.43C1142.54 140 1143.43 140.895 1143.43 142V172H1103.43V142Z" fill="#B6DCFF"/>
<rect x="1103.43" y="172" width="40" height="4" fill="#38A3A5"/>
<rect x="1103.43" y="176" width="40" height="4" fill="#FFD670"/>
<path d="M1103.43 180H1143.43V282C1143.43 283.105 1142.54 284 1141.43 284H1105.43C1104.33 284 1103.43 283.105 1103.43 282V180Z" fill="#2A85FF"/>
<path d="M1119.94 309.273V318H1118.73L1114.29 311.599H1114.21V318H1112.89V309.273H1114.11L1118.55 315.682H1118.63V309.273H1119.94ZM1124.39 318.132C1123.78 318.132 1123.24 317.991 1122.79 317.71C1122.33 317.429 1121.97 317.036 1121.72 316.53C1121.47 316.024 1121.34 315.433 1121.34 314.757C1121.34 314.078 1121.47 313.484 1121.72 312.976C1121.97 312.467 1122.33 312.072 1122.79 311.791C1123.24 311.51 1123.78 311.369 1124.39 311.369C1125.01 311.369 1125.54 311.51 1126 311.791C1126.46 312.072 1126.81 312.467 1127.06 312.976C1127.32 313.484 1127.44 314.078 1127.44 314.757C1127.44 315.433 1127.32 316.024 1127.06 316.53C1126.81 317.036 1126.46 317.429 1126 317.71C1125.54 317.991 1125.01 318.132 1124.39 318.132ZM1124.4 317.062C1124.8 317.062 1125.12 316.957 1125.39 316.747C1125.65 316.537 1125.84 316.257 1125.97 315.908C1126.09 315.558 1126.16 315.173 1126.16 314.753C1126.16 314.335 1126.09 313.952 1125.97 313.602C1125.84 313.25 1125.65 312.967 1125.39 312.754C1125.12 312.541 1124.8 312.435 1124.4 312.435C1124 312.435 1123.66 312.541 1123.4 312.754C1123.14 312.967 1122.94 313.25 1122.82 313.602C1122.69 313.952 1122.63 314.335 1122.63 314.753C1122.63 315.173 1122.69 315.558 1122.82 315.908C1122.94 316.257 1123.14 316.537 1123.4 316.747C1123.66 316.957 1124 317.062 1124.4 317.062ZM1134.12 311.455L1131.75 318H1130.39L1128.01 311.455H1129.38L1131.03 316.491H1131.1L1132.76 311.455H1134.12Z" fill="#6F767E"/>
<rect x="1175.22" width="1" height="296" rx="0.5" fill="#EFEFEF"/>
<path d="M1208 140C1208 138.895 1208.9 138 1210 138H1246C1247.1 138 1248 138.895 1248 140H1208Z" fill="#B6DCFF"/>
<rect x="1208" y="140" width="40" height="2" fill="#38A3A5"/>
<rect x="1208" y="142" width="40" height="4" fill="#FFD670"/>
<rect x="1208" y="146" width="40" height="2" fill="#DEF1A8"/>
<path d="M1208 148H1248V282C1248 283.105 1247.1 284 1246 284H1210C1208.9 284 1208 283.105 1208 282V148Z" fill="#2A85FF"/>
<path d="M1220.28 318H1217.46V309.273H1220.37C1221.23 309.273 1221.96 309.447 1222.58 309.797C1223.19 310.143 1223.66 310.642 1223.99 311.293C1224.32 311.94 1224.48 312.717 1224.48 313.624C1224.48 314.533 1224.32 315.314 1223.98 315.967C1223.65 316.621 1223.18 317.124 1222.55 317.476C1221.93 317.825 1221.17 318 1220.28 318ZM1218.78 316.849H1220.21C1220.88 316.849 1221.43 316.724 1221.87 316.474C1222.31 316.222 1222.64 315.857 1222.86 315.379C1223.08 314.899 1223.19 314.314 1223.19 313.624C1223.19 312.939 1223.08 312.358 1222.86 311.881C1222.64 311.403 1222.32 311.041 1221.89 310.794C1221.46 310.547 1220.93 310.423 1220.29 310.423H1218.78V316.849ZM1228.72 318.132C1228.07 318.132 1227.52 317.994 1227.05 317.719C1226.59 317.44 1226.23 317.05 1225.98 316.547C1225.73 316.041 1225.6 315.449 1225.6 314.77C1225.6 314.099 1225.73 313.509 1225.98 312.997C1226.23 312.486 1226.58 312.087 1227.03 311.8C1227.49 311.513 1228.02 311.369 1228.63 311.369C1229 311.369 1229.36 311.43 1229.7 311.553C1230.05 311.675 1230.36 311.866 1230.64 312.128C1230.91 312.389 1231.13 312.729 1231.29 313.146C1231.45 313.561 1231.53 314.065 1231.53 314.659V315.111H1226.32V314.156H1230.28C1230.28 313.821 1230.21 313.524 1230.07 313.266C1229.94 313.004 1229.74 312.798 1229.5 312.648C1229.25 312.497 1228.97 312.422 1228.64 312.422C1228.28 312.422 1227.97 312.51 1227.7 312.686C1227.43 312.859 1227.23 313.087 1227.09 313.368C1226.94 313.646 1226.87 313.949 1226.87 314.276V315.021C1226.87 315.459 1226.95 315.831 1227.1 316.138C1227.26 316.445 1227.48 316.679 1227.75 316.841C1228.03 317 1228.36 317.08 1228.73 317.08C1228.97 317.08 1229.19 317.045 1229.39 316.977C1229.59 316.906 1229.76 316.801 1229.91 316.662C1230.05 316.523 1230.16 316.351 1230.24 316.146L1231.44 316.364C1231.35 316.719 1231.17 317.03 1230.92 317.297C1230.68 317.561 1230.37 317.767 1229.99 317.915C1229.62 318.06 1229.19 318.132 1228.72 318.132ZM1235.58 318.132C1234.94 318.132 1234.4 317.989 1233.94 317.702C1233.49 317.412 1233.14 317.013 1232.89 316.504C1232.65 315.996 1232.53 315.413 1232.53 314.757C1232.53 314.092 1232.65 313.506 1232.9 312.997C1233.15 312.486 1233.5 312.087 1233.96 311.8C1234.41 311.513 1234.95 311.369 1235.56 311.369C1236.06 311.369 1236.5 311.462 1236.89 311.646C1237.28 311.828 1237.6 312.084 1237.84 312.413C1238.08 312.743 1238.22 313.128 1238.27 313.568H1237.03C1236.96 313.261 1236.8 312.997 1236.56 312.776C1236.32 312.554 1235.99 312.443 1235.59 312.443C1235.23 312.443 1234.92 312.537 1234.65 312.724C1234.39 312.909 1234.18 313.173 1234.03 313.517C1233.89 313.858 1233.81 314.261 1233.81 314.727C1233.81 315.205 1233.88 315.616 1234.03 315.963C1234.17 316.31 1234.38 316.578 1234.64 316.768C1234.91 316.959 1235.22 317.054 1235.59 317.054C1235.83 317.054 1236.05 317.01 1236.24 316.922C1236.44 316.831 1236.61 316.702 1236.74 316.534C1236.88 316.366 1236.97 316.165 1237.03 315.929H1238.27C1238.22 316.352 1238.08 316.73 1237.85 317.062C1237.62 317.395 1237.31 317.656 1236.93 317.847C1236.54 318.037 1236.09 318.132 1235.58 318.132Z" fill="#6F767E"/>
<g filter="url(#filter0_d_1370_22432)">
<path d="M382.714 181.546C382.714 181.695 382.788 181.132 383.022 180.76C383.112 180.492 383.305 180.272 383.558 180.146C383.683 180.084 383.819 180.047 383.959 180.037C384.098 180.028 384.238 180.046 384.371 180.091C384.504 180.135 384.626 180.206 384.731 180.298C384.837 180.39 384.923 180.502 384.985 180.627C385.047 180.752 385.084 180.888 385.094 181.028C385.103 181.168 385.085 181.308 385.04 181.44C385.04 182.141 385.04 182.11 385.04 182.577C385.04 183.045 385.04 183.448 385.04 183.852C385 184.474 384.914 185.091 384.785 185.701C384.615 186.217 384.379 186.71 384.084 187.167C383.568 187.744 383.141 188.396 382.82 189.101C382.736 189.448 382.7 189.806 382.714 190.163C382.714 190.493 382.757 190.822 382.841 191.141C382.407 191.189 381.968 191.189 381.534 191.141C381.12 191.077 380.599 190.248 380.472 189.993C380.439 189.923 380.388 189.864 380.323 189.822C380.258 189.781 380.182 189.759 380.105 189.759C380.028 189.759 379.952 189.781 379.888 189.822C379.823 189.864 379.771 189.923 379.739 189.993C379.505 190.397 378.995 191.13 378.623 191.173C377.922 191.258 376.445 191.173 375.297 191.173C375.297 191.173 375.489 190.11 375.053 189.728C374.617 189.345 374.171 188.899 373.831 188.601L372.949 187.624C372.328 187.046 371.874 186.312 371.632 185.499C371.409 184.5 371.43 184.011 371.632 183.618C371.855 183.292 372.192 183.06 372.577 182.97C372.886 182.916 373.203 182.938 373.502 183.034C373.71 183.121 373.89 183.265 374.022 183.448C374.267 183.778 374.341 183.937 374.256 183.576C374.171 183.215 374.044 182.683 373.82 181.929C373.64 181.345 373.459 181.015 373.321 180.622C373.183 180.229 373.002 179.857 372.79 179.368C372.597 178.869 372.438 178.358 372.312 177.838C372.264 177.624 372.262 177.402 372.308 177.188C372.354 176.973 372.446 176.771 372.577 176.595C372.764 176.411 372.996 176.28 373.25 176.215C373.504 176.15 373.77 176.152 374.022 176.223C374.423 176.397 374.761 176.69 374.989 177.063C375.307 177.576 375.564 178.126 375.754 178.699C376.104 179.611 376.354 180.559 376.498 181.525C376.472 180.955 376.518 180.384 376.636 179.825C376.695 179.656 376.792 179.501 376.919 179.375C377.046 179.248 377.2 179.151 377.369 179.092C377.685 178.991 378.021 178.969 378.347 179.028C378.672 179.1 378.959 179.29 379.154 179.56C379.398 180.18 379.538 180.837 379.569 181.504C379.599 180.934 379.699 180.371 379.866 179.825C380.044 179.576 380.303 179.395 380.599 179.315C380.95 179.252 381.31 179.252 381.662 179.315C381.949 179.413 382.201 179.594 382.384 179.836C382.609 180.399 382.745 180.994 382.788 181.6" fill="white"/>
<path d="M382.714 181.546C382.714 181.695 382.788 181.132 383.022 180.76C383.112 180.492 383.305 180.272 383.558 180.146C383.683 180.084 383.819 180.047 383.959 180.037C384.098 180.028 384.238 180.046 384.371 180.091C384.504 180.135 384.626 180.206 384.731 180.298C384.837 180.39 384.923 180.502 384.985 180.627C385.047 180.752 385.084 180.888 385.094 181.028C385.103 181.168 385.085 181.308 385.04 181.44C385.04 182.141 385.04 182.11 385.04 182.577C385.04 183.045 385.04 183.448 385.04 183.852C385 184.474 384.914 185.091 384.785 185.701C384.615 186.217 384.379 186.71 384.084 187.167C383.568 187.744 383.141 188.396 382.82 189.101C382.736 189.448 382.7 189.806 382.714 190.163C382.714 190.493 382.757 190.822 382.841 191.141C382.407 191.189 381.968 191.189 381.534 191.141C381.12 191.077 380.599 190.248 380.472 189.993C380.439 189.923 380.388 189.864 380.323 189.822C380.258 189.781 380.182 189.759 380.105 189.759C380.028 189.759 379.952 189.781 379.888 189.822C379.823 189.864 379.771 189.923 379.739 189.993C379.505 190.397 378.995 191.13 378.623 191.173C377.922 191.258 376.445 191.173 375.297 191.173C375.297 191.173 375.489 190.11 375.053 189.728C374.617 189.345 374.171 188.899 373.831 188.601L372.949 187.624C372.328 187.046 371.874 186.312 371.632 185.499C371.409 184.5 371.43 184.011 371.632 183.618C371.855 183.292 372.192 183.06 372.577 182.97C372.886 182.916 373.203 182.938 373.502 183.034C373.71 183.121 373.89 183.265 374.022 183.448C374.267 183.778 374.341 183.937 374.256 183.576C374.171 183.215 374.044 182.683 373.82 181.929C373.64 181.345 373.459 181.015 373.321 180.622C373.183 180.229 373.002 179.857 372.79 179.368C372.597 178.869 372.438 178.358 372.312 177.838C372.264 177.624 372.262 177.402 372.308 177.188C372.354 176.973 372.446 176.771 372.577 176.595C372.764 176.411 372.996 176.28 373.25 176.215C373.504 176.15 373.77 176.152 374.022 176.223C374.423 176.397 374.761 176.69 374.989 177.063C375.307 177.576 375.564 178.126 375.754 178.699C376.104 179.611 376.354 180.559 376.498 181.525C376.472 180.955 376.518 180.384 376.636 179.825C376.695 179.656 376.792 179.501 376.919 179.375C377.046 179.248 377.2 179.151 377.369 179.092C377.685 178.991 378.021 178.969 378.347 179.028C378.672 179.1 378.959 179.29 379.154 179.56C379.398 180.18 379.538 180.837 379.569 181.504C379.599 180.934 379.699 180.371 379.866 179.825C380.044 179.576 380.303 179.395 380.599 179.315C380.95 179.252 381.31 179.252 381.662 179.315C381.949 179.413 382.201 179.594 382.384 179.836C382.578 180.386 382.689 180.963 382.714 181.546V181.546Z" stroke="black" stroke-width="0.75" stroke-linejoin="round"/>
<path d="M381.683 188.006V184.33" stroke="black" stroke-width="0.75" stroke-linecap="round"/>
<path d="M379.537 188.017L379.526 184.33" stroke="black" stroke-width="0.75" stroke-linecap="round"/>
<path d="M377.422 184.361L377.444 187.995" stroke="black" stroke-width="0.75" stroke-linecap="round"/>
</g>
<g filter="url(#filter1_ddi_1370_22432)">
<rect x="276" y="5" width="197" height="128" rx="8" fill="#272B30" shape-rendering="crispEdges"/>
<path d="M286.263 25H284.286L287.298 16.2727H289.676L292.685 25H290.707L288.521 18.267H288.453L286.263 25ZM286.139 21.5696H290.81V23.0099H286.139V21.5696ZM293.581 27.4545V18.4545H295.371V19.554H295.452C295.531 19.3778 295.646 19.1989 295.797 19.017C295.95 18.8324 296.149 18.679 296.393 18.5568C296.641 18.4318 296.947 18.3693 297.314 18.3693C297.791 18.3693 298.232 18.4943 298.635 18.7443C299.038 18.9915 299.361 19.3651 299.602 19.8651C299.844 20.3622 299.965 20.9858 299.965 21.7358C299.965 22.4659 299.847 23.0824 299.611 23.5852C299.378 24.0852 299.06 24.4645 298.656 24.723C298.256 24.9787 297.807 25.1065 297.31 25.1065C296.957 25.1065 296.658 25.0483 296.411 24.9318C296.166 24.8153 295.966 24.669 295.81 24.4929C295.653 24.3139 295.534 24.1335 295.452 23.9517H295.396V27.4545H293.581ZM295.358 21.7273C295.358 22.1165 295.412 22.456 295.52 22.7457C295.628 23.0355 295.784 23.2614 295.989 23.4233C296.193 23.5824 296.442 23.6619 296.734 23.6619C297.03 23.6619 297.28 23.581 297.484 23.419C297.689 23.2543 297.844 23.027 297.949 22.7372C298.057 22.4446 298.111 22.108 298.111 21.7273C298.111 21.3494 298.058 21.017 297.953 20.7301C297.848 20.4432 297.693 20.2187 297.489 20.0568C297.284 19.8949 297.033 19.8139 296.734 19.8139C296.439 19.8139 296.189 19.892 295.984 20.0483C295.783 20.2045 295.628 20.4261 295.52 20.7131C295.412 21 295.358 21.3381 295.358 21.7273ZM301.055 25V18.4545H302.815V19.5966H302.883C303.002 19.1903 303.202 18.8835 303.484 18.6761C303.765 18.4659 304.089 18.3608 304.455 18.3608C304.546 18.3608 304.644 18.3665 304.749 18.3778C304.854 18.3892 304.947 18.4048 305.026 18.4247V20.0355C304.941 20.0099 304.823 19.9872 304.673 19.9673C304.522 19.9474 304.384 19.9375 304.259 19.9375C303.992 19.9375 303.754 19.9957 303.543 20.1122C303.336 20.2259 303.171 20.3849 303.049 20.5895C302.93 20.794 302.87 21.0298 302.87 21.2969V25H301.055ZM305.845 25V18.4545H307.66V25H305.845ZM306.757 17.6108C306.487 17.6108 306.255 17.5213 306.062 17.3423C305.872 17.1605 305.777 16.9432 305.777 16.6903C305.777 16.4403 305.872 16.2259 306.062 16.0469C306.255 15.8651 306.487 15.7741 306.757 15.7741C307.027 15.7741 307.257 15.8651 307.447 16.0469C307.64 16.2259 307.737 16.4403 307.737 16.6903C307.737 16.9432 307.64 17.1605 307.447 17.3423C307.257 17.5213 307.027 17.6108 306.757 17.6108ZM310.81 16.2727V25H308.994V16.2727H310.81ZM314.784 25V23.6705L317.891 20.794C318.155 20.5384 318.377 20.3082 318.556 20.1037C318.737 19.8991 318.875 19.6989 318.969 19.5028C319.063 19.304 319.11 19.0895 319.11 18.8594C319.11 18.6037 319.051 18.3835 318.935 18.1989C318.818 18.0114 318.659 17.8679 318.458 17.7685C318.256 17.6662 318.027 17.6151 317.771 17.6151C317.504 17.6151 317.271 17.669 317.073 17.777C316.874 17.8849 316.72 18.0398 316.612 18.2415C316.504 18.4432 316.45 18.6832 316.45 18.9616H314.699C314.699 18.3906 314.828 17.8949 315.087 17.4744C315.345 17.054 315.708 16.7287 316.173 16.4986C316.639 16.2685 317.176 16.1534 317.784 16.1534C318.409 16.1534 318.953 16.2642 319.416 16.4858C319.882 16.7045 320.244 17.0085 320.503 17.3977C320.762 17.7869 320.891 18.233 320.891 18.7358C320.891 19.0653 320.825 19.3906 320.695 19.7116C320.567 20.0327 320.338 20.3892 320.009 20.7812C319.679 21.1705 319.215 21.6378 318.615 22.1832L317.341 23.4318V23.4915H321.006V25H314.784ZM325.645 25.1918C324.912 25.1889 324.281 25.0085 323.753 24.6506C323.227 24.2926 322.822 23.7741 322.538 23.0952C322.257 22.4162 322.118 21.5994 322.121 20.6449C322.121 19.6932 322.261 18.8821 322.542 18.2116C322.827 17.5412 323.231 17.0312 323.757 16.6818C324.285 16.3295 324.915 16.1534 325.645 16.1534C326.375 16.1534 327.003 16.3295 327.528 16.6818C328.057 17.0341 328.463 17.5455 328.747 18.2159C329.031 18.8835 329.172 19.6932 329.169 20.6449C329.169 21.6023 329.027 22.4205 328.743 23.0994C328.461 23.7784 328.058 24.2969 327.533 24.6548C327.007 25.0128 326.378 25.1918 325.645 25.1918ZM325.645 23.6619C326.145 23.6619 326.544 23.4105 326.842 22.9077C327.14 22.4048 327.288 21.6506 327.285 20.6449C327.285 19.983 327.217 19.4318 327.081 18.9915C326.947 18.5511 326.757 18.2202 326.51 17.9986C326.265 17.777 325.977 17.6662 325.645 17.6662C325.148 17.6662 324.75 17.9148 324.452 18.4119C324.153 18.9091 324.003 19.6534 324 20.6449C324 21.3153 324.067 21.875 324.2 22.3239C324.336 22.7699 324.528 23.1051 324.775 23.3295C325.023 23.5511 325.312 23.6619 325.645 23.6619ZM330.365 25V23.6705L333.471 20.794C333.735 20.5384 333.957 20.3082 334.136 20.1037C334.318 19.8991 334.455 19.6989 334.549 19.5028C334.643 19.304 334.69 19.0895 334.69 18.8594C334.69 18.6037 334.632 18.3835 334.515 18.1989C334.399 18.0114 334.24 17.8679 334.038 17.7685C333.836 17.6662 333.607 17.6151 333.352 17.6151C333.085 17.6151 332.852 17.669 332.653 17.777C332.454 17.8849 332.301 18.0398 332.193 18.2415C332.085 18.4432 332.031 18.6832 332.031 18.9616H330.279C330.279 18.3906 330.409 17.8949 330.667 17.4744C330.926 17.054 331.288 16.7287 331.754 16.4986C332.22 16.2685 332.757 16.1534 333.365 16.1534C333.99 16.1534 334.534 16.2642 334.997 16.4858C335.463 16.7045 335.825 17.0085 336.083 17.3977C336.342 17.7869 336.471 18.233 336.471 18.7358C336.471 19.0653 336.406 19.3906 336.275 19.7116C336.147 20.0327 335.919 20.3892 335.589 20.7812C335.259 21.1705 334.795 21.6378 334.196 22.1832L332.921 23.4318V23.4915H336.586V25H330.365ZM341.029 25.1193C340.393 25.1193 339.826 25.0099 339.329 24.7912C338.834 24.5696 338.444 24.2656 338.157 23.8793C337.873 23.4901 337.726 23.0412 337.718 22.5327H339.576C339.587 22.7457 339.657 22.9332 339.785 23.0952C339.915 23.2543 340.089 23.3778 340.305 23.4659C340.52 23.554 340.763 23.598 341.033 23.598C341.315 23.598 341.563 23.5483 341.779 23.4489C341.995 23.3494 342.164 23.2116 342.286 23.0355C342.408 22.8594 342.469 22.6562 342.469 22.4261C342.469 22.1932 342.404 21.9872 342.273 21.8082C342.145 21.6264 341.961 21.4844 341.719 21.3821C341.481 21.2798 341.197 21.2287 340.867 21.2287H340.053V19.8736H340.867C341.145 19.8736 341.391 19.8253 341.604 19.7287C341.82 19.6321 341.988 19.4986 342.107 19.3281C342.226 19.1548 342.286 18.9531 342.286 18.723C342.286 18.5043 342.234 18.3125 342.128 18.1477C342.026 17.9801 341.881 17.8494 341.694 17.7557C341.509 17.6619 341.293 17.6151 341.046 17.6151C340.796 17.6151 340.567 17.6605 340.36 17.7514C340.153 17.8395 339.986 17.9659 339.861 18.1307C339.736 18.2955 339.67 18.4886 339.661 18.7102H337.893C337.901 18.2074 338.045 17.7642 338.323 17.3807C338.601 16.9972 338.976 16.6974 339.448 16.4815C339.922 16.2628 340.458 16.1534 341.055 16.1534C341.657 16.1534 342.184 16.2628 342.636 16.4815C343.087 16.7003 343.438 16.9957 343.688 17.3679C343.941 17.7372 344.066 18.152 344.063 18.6122C344.066 19.1009 343.914 19.5085 343.607 19.8352C343.303 20.1619 342.907 20.3693 342.418 20.4574V20.5256C343.06 20.608 343.549 20.831 343.884 21.1946C344.222 21.5554 344.39 22.0071 344.387 22.5497C344.39 23.0469 344.246 23.4886 343.957 23.875C343.67 24.2614 343.273 24.5653 342.768 24.7869C342.262 25.0085 341.682 25.1193 341.029 25.1193Z" fill="white"/>
<rect x="284" y="39" width="12" height="12" rx="4" fill="#2A85FF"/>
<path d="M300.959 49V40.2727H304.07C304.749 40.2727 305.311 40.3963 305.757 40.6435C306.203 40.8906 306.537 41.2287 306.759 41.6577C306.98 42.0838 307.091 42.5639 307.091 43.098C307.091 43.6349 306.979 44.1179 306.754 44.5469C306.533 44.973 306.197 45.3111 305.749 45.5611C305.303 45.8082 304.741 45.9318 304.065 45.9318H301.926V44.8153H303.946C304.375 44.8153 304.723 44.7415 304.99 44.5938C305.257 44.4432 305.453 44.2386 305.578 43.9801C305.703 43.7216 305.766 43.4276 305.766 43.098C305.766 42.7685 305.703 42.4759 305.578 42.2202C305.453 41.9645 305.256 41.7642 304.986 41.6193C304.719 41.4744 304.366 41.402 303.929 41.402H302.276V49H300.959ZM308.412 49V42.4545H309.644V43.4943H309.712C309.831 43.142 310.042 42.8651 310.343 42.6634C310.647 42.4588 310.99 42.3565 311.374 42.3565C311.454 42.3565 311.547 42.3594 311.655 42.3651C311.766 42.3707 311.853 42.3778 311.915 42.3864V43.6051C311.864 43.5909 311.773 43.5753 311.642 43.5582C311.512 43.5384 311.381 43.5284 311.25 43.5284C310.949 43.5284 310.681 43.5923 310.445 43.7202C310.212 43.8452 310.027 44.0199 309.891 44.2443C309.755 44.4659 309.686 44.7187 309.686 45.0028V49H308.412ZM315.421 49.1321C314.807 49.1321 314.271 48.9915 313.814 48.7102C313.357 48.429 313.001 48.0355 312.749 47.5298C312.496 47.0241 312.369 46.4332 312.369 45.7571C312.369 45.0781 312.496 44.4844 312.749 43.9759C313.001 43.4673 313.357 43.0724 313.814 42.7912C314.271 42.5099 314.807 42.3693 315.421 42.3693C316.034 42.3693 316.57 42.5099 317.027 42.7912C317.484 43.0724 317.84 43.4673 318.092 43.9759C318.345 44.4844 318.472 45.0781 318.472 45.7571C318.472 46.4332 318.345 47.0241 318.092 47.5298C317.84 48.0355 317.484 48.429 317.027 48.7102C316.57 48.9915 316.034 49.1321 315.421 49.1321ZM315.425 48.0625C315.823 48.0625 316.152 47.9574 316.413 47.7472C316.675 47.5369 316.868 47.2571 316.993 46.9077C317.121 46.5582 317.185 46.1733 317.185 45.7528C317.185 45.3352 317.121 44.9517 316.993 44.6023C316.868 44.25 316.675 43.9673 316.413 43.7543C316.152 43.5412 315.823 43.4347 315.425 43.4347C315.024 43.4347 314.692 43.5412 314.428 43.7543C314.166 43.9673 313.972 44.25 313.844 44.6023C313.719 44.9517 313.656 45.3352 313.656 45.7528C313.656 46.1733 313.719 46.5582 313.844 46.9077C313.972 47.2571 314.166 47.5369 314.428 47.7472C314.692 47.9574 315.024 48.0625 315.425 48.0625ZM319.774 51.4545V42.4545H321.018V43.5156H321.125C321.199 43.3793 321.305 43.2216 321.444 43.0426C321.584 42.8636 321.777 42.7074 322.024 42.5739C322.271 42.4375 322.598 42.3693 323.004 42.3693C323.532 42.3693 324.004 42.5028 324.419 42.7699C324.834 43.0369 325.159 43.4219 325.395 43.9247C325.633 44.4276 325.753 45.0327 325.753 45.7401C325.753 46.4474 325.635 47.054 325.399 47.5597C325.163 48.0625 324.839 48.4503 324.427 48.723C324.015 48.9929 323.545 49.1278 323.017 49.1278C322.619 49.1278 322.294 49.0611 322.041 48.9276C321.791 48.794 321.595 48.6378 321.453 48.4588C321.311 48.2798 321.201 48.1207 321.125 47.9815H321.048V51.4545H319.774ZM321.022 45.7273C321.022 46.1875 321.089 46.5909 321.223 46.9375C321.356 47.2841 321.549 47.5554 321.802 47.7514C322.055 47.9446 322.365 48.0412 322.731 48.0412C323.112 48.0412 323.43 47.9403 323.686 47.7386C323.941 47.5341 324.135 47.2571 324.265 46.9077C324.399 46.5582 324.466 46.1648 324.466 45.7273C324.466 45.2955 324.4 44.9077 324.27 44.5639C324.142 44.2202 323.949 43.9489 323.69 43.75C323.434 43.5511 323.115 43.4517 322.731 43.4517C322.362 43.4517 322.049 43.5469 321.794 43.7372C321.541 43.9276 321.349 44.1932 321.218 44.5341C321.088 44.875 321.022 45.2727 321.022 45.7273ZM329.881 49.1321C329.236 49.1321 328.681 48.9943 328.215 48.7188C327.752 48.4403 327.394 48.0497 327.141 47.5469C326.891 47.0412 326.766 46.4489 326.766 45.7699C326.766 45.0994 326.891 44.5085 327.141 43.9972C327.394 43.4858 327.746 43.0866 328.198 42.7997C328.652 42.5128 329.184 42.3693 329.792 42.3693C330.161 42.3693 330.519 42.4304 330.866 42.5526C331.212 42.6747 331.523 42.8665 331.799 43.1278C332.074 43.3892 332.292 43.7287 332.451 44.1463C332.61 44.5611 332.689 45.0653 332.689 45.6591V46.1108H327.486V45.1562H331.441C331.441 44.821 331.373 44.5241 331.236 44.2656C331.1 44.0043 330.908 43.7983 330.661 43.6477C330.417 43.4972 330.13 43.4219 329.8 43.4219C329.442 43.4219 329.13 43.5099 328.863 43.6861C328.598 43.8594 328.394 44.0866 328.249 44.3679C328.107 44.6463 328.036 44.9489 328.036 45.2756V46.0213C328.036 46.4588 328.113 46.831 328.266 47.1378C328.422 47.4446 328.64 47.679 328.918 47.8409C329.196 48 329.522 48.0795 329.894 48.0795C330.135 48.0795 330.356 48.0455 330.554 47.9773C330.753 47.9062 330.925 47.8011 331.07 47.6619C331.215 47.5227 331.326 47.3509 331.402 47.1463L332.608 47.3636C332.512 47.7187 332.339 48.0298 332.089 48.2969C331.841 48.5611 331.53 48.767 331.155 48.9148C330.783 49.0597 330.358 49.1321 329.881 49.1321ZM333.983 49V42.4545H335.215V43.4943H335.283C335.402 43.142 335.612 42.8651 335.913 42.6634C336.217 42.4588 336.561 42.3565 336.945 42.3565C337.024 42.3565 337.118 42.3594 337.226 42.3651C337.337 42.3707 337.423 42.3778 337.486 42.3864V43.6051C337.435 43.5909 337.344 43.5753 337.213 43.5582C337.083 43.5384 336.952 43.5284 336.821 43.5284C336.52 43.5284 336.252 43.5923 336.016 43.7202C335.783 43.8452 335.598 44.0199 335.462 44.2443C335.325 44.4659 335.257 44.7187 335.257 45.0028V49H333.983ZM341.911 42.4545V43.4773H338.335V42.4545H341.911ZM339.294 40.8864H340.568V47.0781C340.568 47.3253 340.605 47.5114 340.679 47.6364C340.753 47.7585 340.848 47.8423 340.965 47.8878C341.084 47.9304 341.213 47.9517 341.352 47.9517C341.455 47.9517 341.544 47.9446 341.621 47.9304C341.698 47.9162 341.757 47.9048 341.8 47.8963L342.03 48.9489C341.956 48.9773 341.851 49.0057 341.715 49.0341C341.578 49.0653 341.408 49.0824 341.203 49.0852C340.868 49.0909 340.556 49.0312 340.266 48.9062C339.976 48.7812 339.742 48.5881 339.563 48.3267C339.384 48.0653 339.294 47.7372 339.294 47.3423V40.8864ZM344.006 51.4545C343.815 51.4545 343.642 51.4389 343.486 51.4077C343.329 51.3793 343.213 51.348 343.136 51.3139L343.443 50.2699C343.676 50.3324 343.883 50.3594 344.065 50.3509C344.247 50.3423 344.408 50.2741 344.547 50.1463C344.689 50.0185 344.814 49.8097 344.922 49.5199L345.079 49.0852L342.685 42.4545H344.048L345.706 47.5341H345.774L347.432 42.4545H348.8L346.102 49.8736C345.977 50.2145 345.818 50.5028 345.625 50.7386C345.432 50.9773 345.202 51.1563 344.935 51.2756C344.667 51.3949 344.358 51.4545 344.006 51.4545Z" fill="#EFEFEF"/>
<path d="M447.792 40.2727V49H446.211V41.8111H446.16L444.119 43.1151V41.6662L446.288 40.2727H447.792ZM453.114 49.1662C452.412 49.1662 451.81 48.9886 451.307 48.6335C450.807 48.2756 450.422 47.7599 450.152 47.0866C449.885 46.4105 449.751 45.5966 449.751 44.6449C449.754 43.6932 449.889 42.8835 450.156 42.2159C450.426 41.5455 450.811 41.0341 451.311 40.6818C451.814 40.3295 452.415 40.1534 453.114 40.1534C453.812 40.1534 454.413 40.3295 454.916 40.6818C455.419 41.0341 455.804 41.5455 456.071 42.2159C456.341 42.8864 456.476 43.696 456.476 44.6449C456.476 45.5994 456.341 46.4148 456.071 47.0909C455.804 47.7642 455.419 48.2784 454.916 48.6335C454.416 48.9886 453.815 49.1662 453.114 49.1662ZM453.114 47.8324C453.659 47.8324 454.089 47.5639 454.405 47.027C454.723 46.4872 454.882 45.6932 454.882 44.6449C454.882 43.9517 454.81 43.3693 454.665 42.8977C454.52 42.4261 454.315 42.071 454.051 41.8324C453.787 41.5909 453.474 41.4702 453.114 41.4702C452.571 41.4702 452.142 41.7401 451.827 42.2798C451.511 42.8168 451.352 43.6051 451.349 44.6449C451.347 45.3409 451.416 45.9261 451.558 46.4006C451.703 46.875 451.908 47.233 452.172 47.4744C452.436 47.7131 452.75 47.8324 453.114 47.8324ZM460.998 49.1662C460.296 49.1662 459.694 48.9886 459.191 48.6335C458.691 48.2756 458.306 47.7599 458.036 47.0866C457.769 46.4105 457.635 45.5966 457.635 44.6449C457.638 43.6932 457.773 42.8835 458.04 42.2159C458.31 41.5455 458.695 41.0341 459.195 40.6818C459.698 40.3295 460.299 40.1534 460.998 40.1534C461.696 40.1534 462.297 40.3295 462.8 40.6818C463.303 41.0341 463.688 41.5455 463.955 42.2159C464.225 42.8864 464.36 43.696 464.36 44.6449C464.36 45.5994 464.225 46.4148 463.955 47.0909C463.688 47.7642 463.303 48.2784 462.8 48.6335C462.3 48.9886 461.699 49.1662 460.998 49.1662ZM460.998 47.8324C461.543 47.8324 461.973 47.5639 462.289 47.027C462.607 46.4872 462.766 45.6932 462.766 44.6449C462.766 43.9517 462.694 43.3693 462.549 42.8977C462.404 42.4261 462.199 42.071 461.935 41.8324C461.671 41.5909 461.358 41.4702 460.998 41.4702C460.455 41.4702 460.026 41.7401 459.711 42.2798C459.395 42.8168 459.236 43.6051 459.233 44.6449C459.23 45.3409 459.3 45.9261 459.442 46.4006C459.587 46.875 459.792 47.233 460.056 47.4744C460.32 47.7131 460.634 47.8324 460.998 47.8324Z" fill="white"/>
<rect x="284" y="63" width="12" height="12" rx="4" fill="#FFD670"/>
<path d="M302.276 64.2727V73H300.959V64.2727H302.276ZM306.421 73.1278C305.893 73.1278 305.421 72.9929 305.006 72.723C304.594 72.4503 304.271 72.0625 304.035 71.5597C303.802 71.054 303.685 70.4474 303.685 69.7401C303.685 69.0327 303.803 68.4276 304.039 67.9247C304.278 67.4219 304.604 67.0369 305.019 66.7699C305.434 66.5028 305.904 66.3693 306.43 66.3693C306.836 66.3693 307.163 66.4375 307.41 66.5739C307.66 66.7074 307.853 66.8636 307.989 67.0426C308.129 67.2216 308.237 67.3793 308.313 67.5156H308.39V64.2727H309.664V73H308.42V71.9815H308.313C308.237 72.1207 308.126 72.2798 307.981 72.4588C307.839 72.6378 307.643 72.794 307.393 72.9276C307.143 73.0611 306.819 73.1278 306.421 73.1278ZM306.702 72.0412C307.069 72.0412 307.379 71.9446 307.631 71.7514C307.887 71.5554 308.08 71.2841 308.211 70.9375C308.344 70.5909 308.411 70.1875 308.411 69.7273C308.411 69.2727 308.346 68.875 308.215 68.5341C308.085 68.1932 307.893 67.9276 307.64 67.7372C307.387 67.5469 307.075 67.4517 306.702 67.4517C306.319 67.4517 305.999 67.5511 305.744 67.75C305.488 67.9489 305.295 68.2202 305.164 68.5639C305.036 68.9077 304.972 69.2955 304.972 69.7273C304.972 70.1648 305.038 70.5582 305.168 70.9077C305.299 71.2571 305.492 71.5341 305.748 71.7386C306.006 71.9403 306.325 72.0412 306.702 72.0412ZM314.184 73.1321C313.539 73.1321 312.983 72.9943 312.517 72.7188C312.054 72.4403 311.696 72.0497 311.444 71.5469C311.194 71.0412 311.069 70.4489 311.069 69.7699C311.069 69.0994 311.194 68.5085 311.444 67.9972C311.696 67.4858 312.049 67.0866 312.5 66.7997C312.955 66.5128 313.486 66.3693 314.094 66.3693C314.463 66.3693 314.821 66.4304 315.168 66.5526C315.515 66.6747 315.826 66.8665 316.101 67.1278C316.377 67.3892 316.594 67.7287 316.753 68.1463C316.912 68.5611 316.992 69.0653 316.992 69.6591V70.1108H311.789V69.1562H315.743C315.743 68.821 315.675 68.5241 315.539 68.2656C315.402 68.0043 315.211 67.7983 314.963 67.6477C314.719 67.4972 314.432 67.4219 314.103 67.4219C313.745 67.4219 313.432 67.5099 313.165 67.6861C312.901 67.8594 312.696 68.0866 312.552 68.3679C312.41 68.6463 312.338 68.9489 312.338 69.2756V70.0213C312.338 70.4588 312.415 70.831 312.569 71.1378C312.725 71.4446 312.942 71.679 313.221 71.8409C313.499 72 313.824 72.0795 314.196 72.0795C314.438 72.0795 314.658 72.0455 314.857 71.9773C315.056 71.9062 315.228 71.8011 315.373 71.6619C315.517 71.5227 315.628 71.3509 315.705 71.1463L316.911 71.3636C316.814 71.7187 316.641 72.0298 316.391 72.2969C316.144 72.5611 315.833 72.767 315.458 72.9148C315.086 73.0597 314.661 73.1321 314.184 73.1321ZM319.56 69.1136V73H318.286V66.4545H319.509V67.5199H319.59C319.74 67.1733 319.976 66.8949 320.297 66.6847C320.621 66.4744 321.028 66.3693 321.52 66.3693C321.966 66.3693 322.357 66.4631 322.692 66.6506C323.027 66.8352 323.287 67.1108 323.472 67.4773C323.656 67.8437 323.749 68.2969 323.749 68.8366V73H322.475V68.9901C322.475 68.5156 322.351 68.1449 322.104 67.8778C321.857 67.608 321.517 67.473 321.085 67.473C320.79 67.473 320.527 67.5369 320.297 67.6648C320.07 67.7926 319.889 67.9801 319.756 68.2273C319.625 68.4716 319.56 68.767 319.56 69.1136ZM328.393 66.4545V67.4773H324.818V66.4545H328.393ZM325.776 64.8864H327.051V71.0781C327.051 71.3253 327.087 71.5114 327.161 71.6364C327.235 71.7585 327.33 71.8423 327.447 71.8878C327.566 71.9304 327.695 71.9517 327.835 71.9517C327.937 71.9517 328.026 71.9446 328.103 71.9304C328.18 71.9162 328.239 71.9048 328.282 71.8963L328.512 72.9489C328.438 72.9773 328.333 73.0057 328.197 73.0341C328.06 73.0653 327.89 73.0824 327.685 73.0852C327.35 73.0909 327.038 73.0312 326.748 72.9062C326.458 72.7812 326.224 72.5881 326.045 72.3267C325.866 72.0653 325.776 71.7372 325.776 71.3423V64.8864ZM329.682 73V66.4545H330.956V73H329.682ZM330.326 65.4446C330.104 65.4446 329.914 65.3707 329.755 65.223C329.599 65.0724 329.52 64.8935 329.52 64.6861C329.52 64.4759 329.599 64.2969 329.755 64.1491C329.914 63.9986 330.104 63.9233 330.326 63.9233C330.547 63.9233 330.736 63.9986 330.893 64.1491C331.052 64.2969 331.131 64.4759 331.131 64.6861C331.131 64.8935 331.052 65.0724 330.893 65.223C330.736 65.3707 330.547 65.4446 330.326 65.4446ZM335.606 66.4545V67.4773H332.031V66.4545H335.606ZM332.99 64.8864H334.264V71.0781C334.264 71.3253 334.301 71.5114 334.374 71.6364C334.448 71.7585 334.543 71.8423 334.66 71.8878C334.779 71.9304 334.909 71.9517 335.048 71.9517C335.15 71.9517 335.24 71.9446 335.316 71.9304C335.393 71.9162 335.453 71.9048 335.495 71.8963L335.725 72.9489C335.651 72.9773 335.546 73.0057 335.41 73.0341C335.274 73.0653 335.103 73.0824 334.899 73.0852C334.563 73.0909 334.251 73.0312 333.961 72.9062C333.671 72.7812 333.437 72.5881 333.258 72.3267C333.079 72.0653 332.99 71.7372 332.99 71.3423V64.8864ZM337.701 75.4545C337.51 75.4545 337.337 75.4389 337.181 75.4077C337.025 75.3793 336.908 75.348 336.832 75.3139L337.138 74.2699C337.371 74.3324 337.579 74.3594 337.76 74.3509C337.942 74.3423 338.103 74.2741 338.242 74.1463C338.384 74.0185 338.509 73.8097 338.617 73.5199L338.775 73.0852L336.38 66.4545H337.743L339.401 71.5341H339.469L341.127 66.4545H342.495L339.797 73.8736C339.672 74.2145 339.513 74.5028 339.32 74.7386C339.127 74.9773 338.897 75.1563 338.63 75.2756C338.363 75.3949 338.053 75.4545 337.701 75.4545Z" fill="#EFEFEF"/>
<path d="M447.792 64.2727V73H446.211V65.8111H446.16L444.119 67.1151V65.6662L446.288 64.2727H447.792ZM453.114 73.1662C452.412 73.1662 451.81 72.9886 451.307 72.6335C450.807 72.2756 450.422 71.7599 450.152 71.0866C449.885 70.4105 449.751 69.5966 449.751 68.6449C449.754 67.6932 449.889 66.8835 450.156 66.2159C450.426 65.5455 450.811 65.0341 451.311 64.6818C451.814 64.3295 452.415 64.1534 453.114 64.1534C453.812 64.1534 454.413 64.3295 454.916 64.6818C455.419 65.0341 455.804 65.5455 456.071 66.2159C456.341 66.8864 456.476 67.696 456.476 68.6449C456.476 69.5994 456.341 70.4148 456.071 71.0909C455.804 71.7642 455.419 72.2784 454.916 72.6335C454.416 72.9886 453.815 73.1662 453.114 73.1662ZM453.114 71.8324C453.659 71.8324 454.089 71.5639 454.405 71.027C454.723 70.4872 454.882 69.6932 454.882 68.6449C454.882 67.9517 454.81 67.3693 454.665 66.8977C454.52 66.4261 454.315 66.071 454.051 65.8324C453.787 65.5909 453.474 65.4702 453.114 65.4702C452.571 65.4702 452.142 65.7401 451.827 66.2798C451.511 66.8168 451.352 67.6051 451.349 68.6449C451.347 69.3409 451.416 69.9261 451.558 70.4006C451.703 70.875 451.908 71.233 452.172 71.4744C452.436 71.7131 452.75 71.8324 453.114 71.8324ZM460.998 73.1662C460.296 73.1662 459.694 72.9886 459.191 72.6335C458.691 72.2756 458.306 71.7599 458.036 71.0866C457.769 70.4105 457.635 69.5966 457.635 68.6449C457.638 67.6932 457.773 66.8835 458.04 66.2159C458.31 65.5455 458.695 65.0341 459.195 64.6818C459.698 64.3295 460.299 64.1534 460.998 64.1534C461.696 64.1534 462.297 64.3295 462.8 64.6818C463.303 65.0341 463.688 65.5455 463.955 66.2159C464.225 66.8864 464.36 67.696 464.36 68.6449C464.36 69.5994 464.225 70.4148 463.955 71.0909C463.688 71.7642 463.303 72.2784 462.8 72.6335C462.3 72.9886 461.699 73.1662 460.998 73.1662ZM460.998 71.8324C461.543 71.8324 461.973 71.5639 462.289 71.027C462.607 70.4872 462.766 69.6932 462.766 68.6449C462.766 67.9517 462.694 67.3693 462.549 66.8977C462.404 66.4261 462.199 66.071 461.935 65.8324C461.671 65.5909 461.358 65.4702 460.998 65.4702C460.455 65.4702 460.026 65.7401 459.711 66.2798C459.395 66.8168 459.236 67.6051 459.233 68.6449C459.23 69.3409 459.3 69.9261 459.442 70.4006C459.587 70.875 459.792 71.233 460.056 71.4744C460.32 71.7131 460.634 71.8324 460.998 71.8324Z" fill="white"/>
<rect x="284" y="87" width="12" height="12" rx="4" fill="#B6DCFF"/>
<path d="M305.719 90.5653C305.673 90.1619 305.486 89.8494 305.156 89.6278C304.827 89.4034 304.412 89.2912 303.912 89.2912C303.554 89.2912 303.244 89.348 302.983 89.4616C302.722 89.5724 302.518 89.7259 302.374 89.9219C302.232 90.1151 302.161 90.3352 302.161 90.5824C302.161 90.7898 302.209 90.9687 302.305 91.1193C302.405 91.2699 302.534 91.3963 302.693 91.4986C302.855 91.598 303.028 91.6818 303.213 91.75C303.398 91.8153 303.575 91.8693 303.746 91.9119L304.598 92.1335C304.876 92.2017 305.162 92.294 305.455 92.4105C305.747 92.527 306.018 92.6804 306.268 92.8707C306.518 93.0611 306.72 93.2969 306.874 93.5781C307.03 93.8594 307.108 94.196 307.108 94.5881C307.108 95.0824 306.98 95.5213 306.724 95.9048C306.472 96.2884 306.104 96.5909 305.621 96.8125C305.141 97.0341 304.56 97.1449 303.878 97.1449C303.224 97.1449 302.659 97.0412 302.182 96.8338C301.705 96.6264 301.331 96.3324 301.061 95.9517C300.791 95.5682 300.642 95.1136 300.614 94.5881H301.935C301.96 94.9034 302.063 95.1662 302.241 95.3764C302.423 95.5838 302.655 95.7386 302.936 95.8409C303.22 95.9403 303.531 95.9901 303.869 95.9901C304.241 95.9901 304.572 95.9318 304.862 95.8153C305.155 95.696 305.385 95.5312 305.553 95.321C305.72 95.108 305.804 94.8594 305.804 94.5753C305.804 94.3168 305.73 94.1051 305.582 93.9403C305.438 93.7756 305.24 93.6392 304.99 93.5312C304.743 93.4233 304.463 93.3281 304.151 93.2457L303.119 92.9645C302.42 92.7741 301.866 92.4943 301.457 92.125C301.051 91.7557 300.848 91.267 300.848 90.6591C300.848 90.1562 300.984 89.7173 301.257 89.3423C301.53 88.9673 301.899 88.6761 302.365 88.4688C302.831 88.2585 303.357 88.1534 303.942 88.1534C304.533 88.1534 305.054 88.2571 305.506 88.4645C305.96 88.6719 306.318 88.9574 306.58 89.321C306.841 89.6818 306.977 90.0966 306.989 90.5653H305.719ZM311.28 97.1321C310.635 97.1321 310.08 96.9943 309.614 96.7188C309.151 96.4403 308.793 96.0497 308.54 95.5469C308.29 95.0412 308.165 94.4489 308.165 93.7699C308.165 93.0994 308.29 92.5085 308.54 91.9972C308.793 91.4858 309.145 91.0866 309.597 90.7997C310.052 90.5128 310.583 90.3693 311.191 90.3693C311.56 90.3693 311.918 90.4304 312.265 90.5526C312.611 90.6747 312.922 90.8665 313.198 91.1278C313.473 91.3892 313.691 91.7287 313.85 92.1463C314.009 92.5611 314.088 93.0653 314.088 93.6591V94.1108H308.885V93.1562H312.84C312.84 92.821 312.772 92.5241 312.635 92.2656C312.499 92.0043 312.307 91.7983 312.06 91.6477C311.816 91.4972 311.529 91.4219 311.199 91.4219C310.841 91.4219 310.529 91.5099 310.262 91.6861C309.998 91.8594 309.793 92.0866 309.648 92.3679C309.506 92.6463 309.435 92.9489 309.435 93.2756V94.0213C309.435 94.4588 309.512 94.831 309.665 95.1378C309.821 95.4446 310.039 95.679 310.317 95.8409C310.596 96 310.921 96.0795 311.293 96.0795C311.534 96.0795 311.755 96.0455 311.954 95.9773C312.152 95.9062 312.324 95.8011 312.469 95.6619C312.614 95.5227 312.725 95.3509 312.802 95.1463L314.007 95.3636C313.911 95.7187 313.738 96.0298 313.488 96.2969C313.24 96.5611 312.929 96.767 312.554 96.9148C312.182 97.0597 311.757 97.1321 311.28 97.1321ZM316.235 90.4545L317.68 93.0028L319.137 90.4545H320.531L318.49 93.7273L320.548 97H319.155L317.68 94.554L316.21 97H314.812L316.849 93.7273L314.838 90.4545H316.235ZM332.458 92.6364C332.458 93.5682 332.288 94.3693 331.947 95.0398C331.606 95.7074 331.139 96.2216 330.545 96.5824C329.954 96.9403 329.282 97.1193 328.529 97.1193C327.774 97.1193 327.099 96.9403 326.505 96.5824C325.914 96.2216 325.448 95.706 325.107 95.0355C324.766 94.3651 324.596 93.5653 324.596 92.6364C324.596 91.7045 324.766 90.9048 325.107 90.2372C325.448 89.5668 325.914 89.0526 326.505 88.6946C327.099 88.3338 327.774 88.1534 328.529 88.1534C329.282 88.1534 329.954 88.3338 330.545 88.6946C331.139 89.0526 331.606 89.5668 331.947 90.2372C332.288 90.9048 332.458 91.7045 332.458 92.6364ZM331.154 92.6364C331.154 91.9261 331.039 91.3281 330.809 90.8423C330.582 90.3537 330.269 89.9844 329.872 89.7344C329.477 89.4815 329.029 89.3551 328.529 89.3551C328.026 89.3551 327.578 89.4815 327.183 89.7344C326.788 89.9844 326.475 90.3537 326.245 90.8423C326.018 91.3281 325.904 91.9261 325.904 92.6364C325.904 93.3466 326.018 93.946 326.245 94.4347C326.475 94.9205 326.788 95.2898 327.183 95.5426C327.578 95.7926 328.026 95.9176 328.529 95.9176C329.029 95.9176 329.477 95.7926 329.872 95.5426C330.269 95.2898 330.582 94.9205 330.809 94.4347C331.039 93.946 331.154 93.3466 331.154 92.6364ZM336.993 90.4545V91.4773H333.294V90.4545H336.993ZM334.308 97V89.696C334.308 89.2869 334.398 88.9474 334.576 88.6776C334.755 88.4048 334.993 88.2017 335.288 88.0682C335.584 87.9318 335.905 87.8636 336.251 87.8636C336.507 87.8636 336.726 87.8849 336.907 87.9276C337.089 87.9673 337.224 88.0043 337.312 88.0384L337.014 89.0696C336.954 89.0526 336.878 89.0327 336.784 89.0099C336.69 88.9844 336.576 88.9716 336.443 88.9716C336.133 88.9716 335.912 89.0483 335.778 89.2017C335.648 89.3551 335.582 89.5767 335.582 89.8665V97H334.308ZM341.302 90.4545V91.4773H337.604V90.4545H341.302ZM338.618 97V89.696C338.618 89.2869 338.707 88.9474 338.886 88.6776C339.065 88.4048 339.302 88.2017 339.598 88.0682C339.893 87.9318 340.214 87.8636 340.561 87.8636C340.817 87.8636 341.035 87.8849 341.217 87.9276C341.399 87.9673 341.534 88.0043 341.622 88.0384L341.324 89.0696C341.264 89.0526 341.187 89.0327 341.094 89.0099C341 88.9844 340.886 88.9716 340.753 88.9716C340.443 88.9716 340.221 89.0483 340.088 89.2017C339.957 89.3551 339.892 89.5767 339.892 89.8665V97H338.618ZM345.06 97.1321C344.415 97.1321 343.86 96.9943 343.394 96.7188C342.931 96.4403 342.573 96.0497 342.32 95.5469C342.07 95.0412 341.945 94.4489 341.945 93.7699C341.945 93.0994 342.07 92.5085 342.32 91.9972C342.573 91.4858 342.925 91.0866 343.377 90.7997C343.832 90.5128 344.363 90.3693 344.971 90.3693C345.34 90.3693 345.698 90.4304 346.045 90.5526C346.391 90.6747 346.702 90.8665 346.978 91.1278C347.253 91.3892 347.471 91.7287 347.63 92.1463C347.789 92.5611 347.868 93.0653 347.868 93.6591V94.1108H342.665V93.1562H346.62C346.62 92.821 346.552 92.5241 346.415 92.2656C346.279 92.0043 346.087 91.7983 345.84 91.6477C345.596 91.4972 345.309 91.4219 344.979 91.4219C344.621 91.4219 344.309 91.5099 344.042 91.6861C343.778 91.8594 343.573 92.0866 343.428 92.3679C343.286 92.6463 343.215 92.9489 343.215 93.2756V94.0213C343.215 94.4588 343.292 94.831 343.445 95.1378C343.601 95.4446 343.819 95.679 344.097 95.8409C344.376 96 344.701 96.0795 345.073 96.0795C345.314 96.0795 345.535 96.0455 345.734 95.9773C345.932 95.9062 346.104 95.8011 346.249 95.6619C346.394 95.5227 346.505 95.3509 346.582 95.1463L347.787 95.3636C347.691 95.7187 347.518 96.0298 347.268 96.2969C347.02 96.5611 346.709 96.767 346.334 96.9148C345.962 97.0597 345.537 97.1321 345.06 97.1321ZM350.436 93.1136V97H349.162V90.4545H350.385V91.5199H350.466C350.617 91.1733 350.853 90.8949 351.174 90.6847C351.497 90.4744 351.905 90.3693 352.397 90.3693C352.843 90.3693 353.233 90.4631 353.568 90.6506C353.904 90.8352 354.164 91.1108 354.348 91.4773C354.533 91.8437 354.625 92.2969 354.625 92.8366V97H353.351V92.9901C353.351 92.5156 353.228 92.1449 352.98 91.8778C352.733 91.608 352.394 91.473 351.962 91.473C351.666 91.473 351.404 91.5369 351.174 91.6648C350.946 91.7926 350.766 91.9801 350.632 92.2273C350.502 92.4716 350.436 92.767 350.436 93.1136ZM358.664 97.1278C358.136 97.1278 357.664 96.9929 357.25 96.723C356.838 96.4503 356.514 96.0625 356.278 95.5597C356.045 95.054 355.929 94.4474 355.929 93.7401C355.929 93.0327 356.046 92.4276 356.282 91.9247C356.521 91.4219 356.848 91.0369 357.262 90.7699C357.677 90.5028 358.147 90.3693 358.673 90.3693C359.079 90.3693 359.406 90.4375 359.653 90.5739C359.903 90.7074 360.096 90.8636 360.232 91.0426C360.372 91.2216 360.48 91.3793 360.556 91.5156H360.633V88.2727H361.907V97H360.663V95.9815H360.556C360.48 96.1207 360.369 96.2798 360.224 96.4588C360.082 96.6378 359.886 96.794 359.636 96.9276C359.386 97.0611 359.062 97.1278 358.664 97.1278ZM358.946 96.0412C359.312 96.0412 359.622 95.9446 359.875 95.7514C360.13 95.5554 360.323 95.2841 360.454 94.9375C360.588 94.5909 360.654 94.1875 360.654 93.7273C360.654 93.2727 360.589 92.875 360.458 92.5341C360.328 92.1932 360.136 91.9276 359.883 91.7372C359.63 91.5469 359.318 91.4517 358.946 91.4517C358.562 91.4517 358.242 91.5511 357.987 91.75C357.731 91.9489 357.538 92.2202 357.407 92.5639C357.279 92.9077 357.215 93.2955 357.215 93.7273C357.215 94.1648 357.281 94.5582 357.411 94.9077C357.542 95.2571 357.735 95.5341 357.991 95.7386C358.25 95.9403 358.568 96.0412 358.946 96.0412ZM366.427 97.1321C365.782 97.1321 365.226 96.9943 364.761 96.7188C364.298 96.4403 363.94 96.0497 363.687 95.5469C363.437 95.0412 363.312 94.4489 363.312 93.7699C363.312 93.0994 363.437 92.5085 363.687 91.9972C363.94 91.4858 364.292 91.0866 364.744 90.7997C365.198 90.5128 365.729 90.3693 366.337 90.3693C366.707 90.3693 367.065 90.4304 367.411 90.5526C367.758 90.6747 368.069 90.8665 368.344 91.1278C368.62 91.3892 368.837 91.7287 368.996 92.1463C369.155 92.5611 369.235 93.0653 369.235 93.6591V94.1108H364.032V93.1562H367.986C367.986 92.821 367.918 92.5241 367.782 92.2656C367.646 92.0043 367.454 91.7983 367.207 91.6477C366.962 91.4972 366.675 91.4219 366.346 91.4219C365.988 91.4219 365.675 91.5099 365.408 91.6861C365.144 91.8594 364.94 92.0866 364.795 92.3679C364.653 92.6463 364.582 92.9489 364.582 93.2756V94.0213C364.582 94.4588 364.658 94.831 364.812 95.1378C364.968 95.4446 365.185 95.679 365.464 95.8409C365.742 96 366.067 96.0795 366.44 96.0795C366.681 96.0795 366.901 96.0455 367.1 95.9773C367.299 95.9062 367.471 95.8011 367.616 95.6619C367.761 95.5227 367.871 95.3509 367.948 95.1463L369.154 95.3636C369.057 95.7187 368.884 96.0298 368.634 96.2969C368.387 96.5611 368.076 96.767 367.701 96.9148C367.329 97.0597 366.904 97.1321 366.427 97.1321ZM370.529 97V90.4545H371.76V91.4943H371.828C371.948 91.142 372.158 90.8651 372.459 90.6634C372.763 90.4588 373.107 90.3565 373.49 90.3565C373.57 90.3565 373.664 90.3594 373.772 90.3651C373.882 90.3707 373.969 90.3778 374.032 90.3864V91.6051C373.98 91.5909 373.89 91.5753 373.759 91.5582C373.628 91.5384 373.497 91.5284 373.367 91.5284C373.066 91.5284 372.797 91.5923 372.561 91.7202C372.328 91.8452 372.144 92.0199 372.007 92.2443C371.871 92.4659 371.803 92.7187 371.803 93.0028V97H370.529ZM379.919 92.0526L378.764 92.2571C378.716 92.1094 378.639 91.9687 378.534 91.8352C378.432 91.7017 378.293 91.5923 378.116 91.5071C377.94 91.4219 377.72 91.3793 377.456 91.3793C377.095 91.3793 376.794 91.4602 376.553 91.6222C376.311 91.7812 376.19 91.9872 376.19 92.2401C376.19 92.4588 376.271 92.6349 376.433 92.7685C376.595 92.902 376.857 93.0114 377.217 93.0966L378.257 93.3352C378.859 93.4744 379.308 93.6889 379.604 93.9787C379.899 94.2685 380.047 94.6449 380.047 95.108C380.047 95.5 379.933 95.8494 379.706 96.1562C379.482 96.4602 379.168 96.6989 378.764 96.8722C378.364 97.0455 377.899 97.1321 377.371 97.1321C376.638 97.1321 376.04 96.9759 375.577 96.6634C375.114 96.348 374.83 95.9006 374.724 95.321L375.956 95.1335C376.033 95.4545 376.19 95.6974 376.429 95.8622C376.668 96.0241 376.979 96.1051 377.362 96.1051C377.78 96.1051 378.114 96.0185 378.364 95.8452C378.614 95.669 378.739 95.4545 378.739 95.2017C378.739 94.9972 378.662 94.8253 378.509 94.6861C378.358 94.5469 378.126 94.4418 377.814 94.3707L376.706 94.1278C376.095 93.9886 375.643 93.767 375.351 93.4631C375.061 93.1591 374.916 92.7741 374.916 92.3082C374.916 91.9219 375.024 91.5838 375.24 91.294C375.456 91.0043 375.754 90.7784 376.135 90.6165C376.516 90.4517 376.952 90.3693 377.443 90.3693C378.151 90.3693 378.707 90.5227 379.114 90.8295C379.52 91.1335 379.788 91.5412 379.919 92.0526Z" fill="#EFEFEF"/>
<path d="M447.792 88.2727V97H446.211V89.8111H446.16L444.119 91.1151V89.6662L446.288 88.2727H447.792ZM453.114 97.1662C452.412 97.1662 451.81 96.9886 451.307 96.6335C450.807 96.2756 450.422 95.7599 450.152 95.0866C449.885 94.4105 449.751 93.5966 449.751 92.6449C449.754 91.6932 449.889 90.8835 450.156 90.2159C450.426 89.5455 450.811 89.0341 451.311 88.6818C451.814 88.3295 452.415 88.1534 453.114 88.1534C453.812 88.1534 454.413 88.3295 454.916 88.6818C455.419 89.0341 455.804 89.5455 456.071 90.2159C456.341 90.8864 456.476 91.696 456.476 92.6449C456.476 93.5994 456.341 94.4148 456.071 95.0909C455.804 95.7642 455.419 96.2784 454.916 96.6335C454.416 96.9886 453.815 97.1662 453.114 97.1662ZM453.114 95.8324C453.659 95.8324 454.089 95.5639 454.405 95.027C454.723 94.4872 454.882 93.6932 454.882 92.6449C454.882 91.9517 454.81 91.3693 454.665 90.8977C454.52 90.4261 454.315 90.071 454.051 89.8324C453.787 89.5909 453.474 89.4702 453.114 89.4702C452.571 89.4702 452.142 89.7401 451.827 90.2798C451.511 90.8168 451.352 91.6051 451.349 92.6449C451.347 93.3409 451.416 93.9261 451.558 94.4006C451.703 94.875 451.908 95.233 452.172 95.4744C452.436 95.7131 452.75 95.8324 453.114 95.8324ZM460.998 97.1662C460.296 97.1662 459.694 96.9886 459.191 96.6335C458.691 96.2756 458.306 95.7599 458.036 95.0866C457.769 94.4105 457.635 93.5966 457.635 92.6449C457.638 91.6932 457.773 90.8835 458.04 90.2159C458.31 89.5455 458.695 89.0341 459.195 88.6818C459.698 88.3295 460.299 88.1534 460.998 88.1534C461.696 88.1534 462.297 88.3295 462.8 88.6818C463.303 89.0341 463.688 89.5455 463.955 90.2159C464.225 90.8864 464.36 91.696 464.36 92.6449C464.36 93.5994 464.225 94.4148 463.955 95.0909C463.688 95.7642 463.303 96.2784 462.8 96.6335C462.3 96.9886 461.699 97.1662 460.998 97.1662ZM460.998 95.8324C461.543 95.8324 461.973 95.5639 462.289 95.027C462.607 94.4872 462.766 93.6932 462.766 92.6449C462.766 91.9517 462.694 91.3693 462.549 90.8977C462.404 90.4261 462.199 90.071 461.935 89.8324C461.671 89.5909 461.358 89.4702 460.998 89.4702C460.455 89.4702 460.026 89.7401 459.711 90.2798C459.395 90.8168 459.236 91.6051 459.233 92.6449C459.23 93.3409 459.3 93.9261 459.442 94.4006C459.587 94.875 459.792 95.233 460.056 95.4744C460.32 95.7131 460.634 95.8324 460.998 95.8324Z" fill="white"/>
<rect x="284" y="111" width="12" height="12" rx="4" fill="#38A3A5"/>
<path d="M308.207 115.111H306.878C306.827 114.827 306.732 114.577 306.592 114.361C306.453 114.145 306.283 113.962 306.081 113.811C305.879 113.661 305.653 113.547 305.403 113.47C305.156 113.393 304.893 113.355 304.615 113.355C304.112 113.355 303.662 113.482 303.264 113.734C302.869 113.987 302.557 114.358 302.327 114.847C302.099 115.335 301.986 115.932 301.986 116.636C301.986 117.347 302.099 117.946 302.327 118.435C302.557 118.923 302.871 119.293 303.268 119.543C303.666 119.793 304.114 119.918 304.611 119.918C304.886 119.918 305.148 119.881 305.395 119.807C305.645 119.73 305.871 119.618 306.072 119.47C306.274 119.322 306.445 119.142 306.584 118.929C306.726 118.713 306.824 118.466 306.878 118.188L308.207 118.192C308.136 118.621 307.999 119.016 307.794 119.376C307.592 119.734 307.332 120.044 307.014 120.305C306.699 120.564 306.338 120.764 305.932 120.906C305.526 121.048 305.082 121.119 304.602 121.119C303.847 121.119 303.173 120.94 302.582 120.582C301.991 120.222 301.526 119.706 301.185 119.036C300.847 118.365 300.678 117.565 300.678 116.636C300.678 115.705 300.848 114.905 301.189 114.237C301.53 113.567 301.996 113.053 302.587 112.695C303.178 112.334 303.849 112.153 304.602 112.153C305.065 112.153 305.497 112.22 305.898 112.354C306.301 112.484 306.663 112.678 306.984 112.933C307.305 113.186 307.571 113.496 307.781 113.862C307.991 114.226 308.134 114.642 308.207 115.111ZM309.561 121V114.455H310.792V115.494H310.86C310.98 115.142 311.19 114.865 311.491 114.663C311.795 114.459 312.139 114.357 312.522 114.357C312.602 114.357 312.696 114.359 312.804 114.365C312.914 114.371 313.001 114.378 313.064 114.386V115.605C313.012 115.591 312.922 115.575 312.791 115.558C312.66 115.538 312.53 115.528 312.399 115.528C312.098 115.528 311.829 115.592 311.593 115.72C311.36 115.845 311.176 116.02 311.039 116.244C310.903 116.466 310.835 116.719 310.835 117.003V121H309.561ZM314.046 121V114.455H315.32V121H314.046ZM314.69 113.445C314.468 113.445 314.278 113.371 314.119 113.223C313.962 113.072 313.884 112.893 313.884 112.686C313.884 112.476 313.962 112.297 314.119 112.149C314.278 111.999 314.468 111.923 314.69 111.923C314.911 111.923 315.1 111.999 315.256 112.149C315.416 112.297 315.495 112.476 315.495 112.686C315.495 112.893 315.416 113.072 315.256 113.223C315.1 113.371 314.911 113.445 314.69 113.445ZM316.915 121V114.455H318.138V115.52H318.218C318.355 115.159 318.578 114.878 318.888 114.676C319.197 114.472 319.568 114.369 320 114.369C320.437 114.369 320.804 114.472 321.099 114.676C321.397 114.881 321.618 115.162 321.76 115.52H321.828C321.984 115.17 322.233 114.892 322.574 114.685C322.915 114.474 323.321 114.369 323.792 114.369C324.386 114.369 324.87 114.555 325.245 114.928C325.623 115.3 325.812 115.861 325.812 116.611V121H324.538V116.73C324.538 116.287 324.417 115.966 324.176 115.767C323.934 115.568 323.646 115.469 323.311 115.469C322.896 115.469 322.574 115.597 322.343 115.852C322.113 116.105 321.998 116.43 321.998 116.828V121H320.728V116.649C320.728 116.294 320.618 116.009 320.396 115.793C320.174 115.577 319.886 115.469 319.531 115.469C319.29 115.469 319.066 115.533 318.862 115.661C318.66 115.786 318.497 115.96 318.372 116.185C318.25 116.409 318.189 116.669 318.189 116.964V121H316.915ZM330.221 121.132C329.576 121.132 329.021 120.994 328.555 120.719C328.092 120.44 327.734 120.05 327.481 119.547C327.231 119.041 327.106 118.449 327.106 117.77C327.106 117.099 327.231 116.509 327.481 115.997C327.734 115.486 328.086 115.087 328.538 114.8C328.992 114.513 329.524 114.369 330.132 114.369C330.501 114.369 330.859 114.43 331.205 114.553C331.552 114.675 331.863 114.866 332.139 115.128C332.414 115.389 332.632 115.729 332.791 116.146C332.95 116.561 333.029 117.065 333.029 117.659V118.111H327.826V117.156H331.781C331.781 116.821 331.712 116.524 331.576 116.266C331.44 116.004 331.248 115.798 331.001 115.648C330.757 115.497 330.47 115.422 330.14 115.422C329.782 115.422 329.47 115.51 329.203 115.686C328.938 115.859 328.734 116.087 328.589 116.368C328.447 116.646 328.376 116.949 328.376 117.276V118.021C328.376 118.459 328.453 118.831 328.606 119.138C328.762 119.445 328.98 119.679 329.258 119.841C329.536 120 329.862 120.08 330.234 120.08C330.475 120.08 330.695 120.045 330.894 119.977C331.093 119.906 331.265 119.801 331.41 119.662C331.555 119.523 331.666 119.351 331.742 119.146L332.948 119.364C332.852 119.719 332.678 120.03 332.428 120.297C332.181 120.561 331.87 120.767 331.495 120.915C331.123 121.06 330.698 121.132 330.221 121.132ZM339.228 116.053L338.073 116.257C338.025 116.109 337.948 115.969 337.843 115.835C337.741 115.702 337.601 115.592 337.425 115.507C337.249 115.422 337.029 115.379 336.765 115.379C336.404 115.379 336.103 115.46 335.861 115.622C335.62 115.781 335.499 115.987 335.499 116.24C335.499 116.459 335.58 116.635 335.742 116.768C335.904 116.902 336.165 117.011 336.526 117.097L337.566 117.335C338.168 117.474 338.617 117.689 338.912 117.979C339.208 118.268 339.356 118.645 339.356 119.108C339.356 119.5 339.242 119.849 339.015 120.156C338.79 120.46 338.476 120.699 338.073 120.872C337.672 121.045 337.208 121.132 336.679 121.132C335.947 121.132 335.349 120.976 334.885 120.663C334.422 120.348 334.138 119.901 334.033 119.321L335.265 119.134C335.341 119.455 335.499 119.697 335.738 119.862C335.976 120.024 336.287 120.105 336.671 120.105C337.089 120.105 337.422 120.018 337.672 119.845C337.922 119.669 338.047 119.455 338.047 119.202C338.047 118.997 337.971 118.825 337.817 118.686C337.667 118.547 337.435 118.442 337.123 118.371L336.015 118.128C335.404 117.989 334.952 117.767 334.66 117.463C334.37 117.159 334.225 116.774 334.225 116.308C334.225 115.922 334.333 115.584 334.549 115.294C334.765 115.004 335.063 114.778 335.444 114.616C335.824 114.452 336.26 114.369 336.752 114.369C337.459 114.369 338.016 114.523 338.422 114.83C338.829 115.134 339.097 115.541 339.228 116.053Z" fill="#EFEFEF"/>
<path d="M447.792 112.273V121H446.211V113.811H446.16L444.119 115.115V113.666L446.288 112.273H447.792ZM453.114 121.166C452.412 121.166 451.81 120.989 451.307 120.634C450.807 120.276 450.422 119.76 450.152 119.087C449.885 118.411 449.751 117.597 449.751 116.645C449.754 115.693 449.889 114.884 450.156 114.216C450.426 113.545 450.811 113.034 451.311 112.682C451.814 112.33 452.415 112.153 453.114 112.153C453.812 112.153 454.413 112.33 454.916 112.682C455.419 113.034 455.804 113.545 456.071 114.216C456.341 114.886 456.476 115.696 456.476 116.645C456.476 117.599 456.341 118.415 456.071 119.091C455.804 119.764 455.419 120.278 454.916 120.634C454.416 120.989 453.815 121.166 453.114 121.166ZM453.114 119.832C453.659 119.832 454.089 119.564 454.405 119.027C454.723 118.487 454.882 117.693 454.882 116.645C454.882 115.952 454.81 115.369 454.665 114.898C454.52 114.426 454.315 114.071 454.051 113.832C453.787 113.591 453.474 113.47 453.114 113.47C452.571 113.47 452.142 113.74 451.827 114.28C451.511 114.817 451.352 115.605 451.349 116.645C451.347 117.341 451.416 117.926 451.558 118.401C451.703 118.875 451.908 119.233 452.172 119.474C452.436 119.713 452.75 119.832 453.114 119.832ZM460.998 121.166C460.296 121.166 459.694 120.989 459.191 120.634C458.691 120.276 458.306 119.76 458.036 119.087C457.769 118.411 457.635 117.597 457.635 116.645C457.638 115.693 457.773 114.884 458.04 114.216C458.31 113.545 458.695 113.034 459.195 112.682C459.698 112.33 460.299 112.153 460.998 112.153C461.696 112.153 462.297 112.33 462.8 112.682C463.303 113.034 463.688 113.545 463.955 114.216C464.225 114.886 464.36 115.696 464.36 116.645C464.36 117.599 464.225 118.415 463.955 119.091C463.688 119.764 463.303 120.278 462.8 120.634C462.3 120.989 461.699 121.166 460.998 121.166ZM460.998 119.832C461.543 119.832 461.973 119.564 462.289 119.027C462.607 118.487 462.766 117.693 462.766 116.645C462.766 115.952 462.694 115.369 462.549 114.898C462.404 114.426 462.199 114.071 461.935 113.832C461.671 113.591 461.358 113.47 460.998 113.47C460.455 113.47 460.026 113.74 459.711 114.28C459.395 114.817 459.236 115.605 459.233 116.645C459.23 117.341 459.3 117.926 459.442 118.401C459.587 118.875 459.792 119.233 460.056 119.474C460.32 119.713 460.634 119.832 460.998 119.832Z" fill="white"/>
<rect x="276.5" y="5.5" width="196" height="127" rx="7.5" stroke="white" stroke-opacity="0.12" shape-rendering="crispEdges"/>
</g>
<defs>
<filter id="filter0_d_1370_22432" x="369.097" y="175.793" width="18.374" height="19.793" filterUnits="userSpaceOnUse" color-interpolation-filters="sRGB">
<feFlood flood-opacity="0" result="BackgroundImageFix"/>
<feColorMatrix in="SourceAlpha" type="matrix" values="0 0 0 0 0 0 0 0 0 0 0 0 0 0 0 0 0 0 127 0" result="hardAlpha"/>
<feOffset dy="2"/>
<feGaussianBlur stdDeviation="1"/>
<feColorMatrix type="matrix" values="0 0 0 0 0 0 0 0 0 0 0 0 0 0 0 0 0 0 0.25 0"/>
<feBlend mode="normal" in2="BackgroundImageFix" result="effect1_dropShadow_1370_22432"/>
<feBlend mode="normal" in="SourceGraphic" in2="effect1_dropShadow_1370_22432" result="shape"/>
</filter>
<filter id="filter1_ddi_1370_22432" x="268" y="1" width="213" height="144" filterUnits="userSpaceOnUse" color-interpolation-filters="sRGB">
<feFlood flood-opacity="0" result="BackgroundImageFix"/>
<feColorMatrix in="SourceAlpha" type="matrix" values="0 0 0 0 0 0 0 0 0 0 0 0 0 0 0 0 0 0 127 0" result="hardAlpha"/>
<feOffset dy="2"/>
<feGaussianBlur stdDeviation="2"/>
<feComposite in2="hardAlpha" operator="out"/>
<feColorMatrix type="matrix" values="0 0 0 0 0 0 0 0 0 0 0 0 0 0 0 0 0 0 0.1 0"/>
<feBlend mode="multiply" in2="BackgroundImageFix" result="effect1_dropShadow_1370_22432"/>
<feColorMatrix in="SourceAlpha" type="matrix" values="0 0 0 0 0 0 0 0 0 0 0 0 0 0 0 0 0 0 127 0" result="hardAlpha"/>
<feOffset dy="4"/>
<feGaussianBlur stdDeviation="4"/>
<feComposite in2="hardAlpha" operator="out"/>
<feColorMatrix type="matrix" values="0 0 0 0 0 0 0 0 0 0 0 0 0 0 0 0 0 0 0.1 0"/>
<feBlend mode="multiply" in2="effect1_dropShadow_1370_22432" result="effect2_dropShadow_1370_22432"/>
<feBlend mode="normal" in="SourceGraphic" in2="effect2_dropShadow_1370_22432" result="shape"/>
<feColorMatrix in="SourceAlpha" type="matrix" values="0 0 0 0 0 0 0 0 0 0 0 0 0 0 0 0 0 0 127 0" result="hardAlpha"/>
<feOffset/>
<feGaussianBlur stdDeviation="0.5"/>
<feComposite in2="hardAlpha" operator="arithmetic" k2="-1" k3="1"/>
<feColorMatrix type="matrix" values="0 0 0 0 0 0 0 0 0 0 0 0 0 0 0 0 0 0 1 0"/>
<feBlend mode="multiply" in2="shape" result="effect3_innerShadow_1370_22432"/>
</filter>
</defs>
</svg>
