<svg width="767" height="225" viewBox="0 0 767 225" fill="none" xmlns="http://www.w3.org/2000/svg">
<rect x="84" y="2" width="671" height="1" rx="0.5" fill="#EFEFEF"/>
<rect x="84" y="50.5" width="671" height="1" rx="0.5" fill="#EFEFEF"/>
<rect x="84" y="99" width="671" height="1" rx="0.5" fill="#EFEFEF"/>
<rect x="84" y="147.5" width="671" height="1" rx="0.5" fill="#EFEFEF"/>
<rect x="84" y="196" width="671" height="1" rx="0.5" fill="#EFEFEF"/>
<path d="M0.839489 14V13.0455L3.79261 9.9858C4.10795 9.65341 4.3679 9.36222 4.57244 9.11222C4.77983 8.85937 4.93466 8.61932 5.03693 8.39205C5.1392 8.16477 5.19034 7.9233 5.19034 7.66761C5.19034 7.37784 5.12216 7.12784 4.9858 6.91761C4.84943 6.70455 4.66335 6.54119 4.42756 6.42756C4.19176 6.31108 3.92614 6.25284 3.63068 6.25284C3.31818 6.25284 3.04545 6.31676 2.8125 6.4446C2.57955 6.57244 2.40057 6.75284 2.27557 6.9858C2.15057 7.21875 2.08807 7.49148 2.08807 7.80398H0.830966C0.830966 7.27273 0.953125 6.80824 1.19744 6.41051C1.44176 6.01278 1.77699 5.70455 2.20312 5.4858C2.62926 5.2642 3.11364 5.15341 3.65625 5.15341C4.20455 5.15341 4.6875 5.26278 5.10511 5.48153C5.52557 5.69744 5.85369 5.9929 6.08949 6.3679C6.32528 6.74006 6.44318 7.16051 6.44318 7.62926C6.44318 7.95312 6.3821 8.26989 6.25994 8.57955C6.14063 8.8892 5.93182 9.23437 5.63352 9.61506C5.33523 9.9929 4.92045 10.4517 4.3892 10.9915L2.65483 12.8068V12.8707H6.58381V14H0.839489ZM11.1172 14.1449C10.4439 14.142 9.86864 13.9645 9.39136 13.6122C8.91409 13.2599 8.54903 12.7472 8.29619 12.0739C8.04335 11.4006 7.91693 10.5895 7.91693 9.64062C7.91693 8.6946 8.04335 7.88636 8.29619 7.21591C8.55188 6.54545 8.91835 6.03409 9.39563 5.68182C9.87574 5.32955 10.4496 5.15341 11.1172 5.15341C11.7848 5.15341 12.3573 5.33097 12.8345 5.68608C13.3118 6.03835 13.6769 6.54972 13.9297 7.22017C14.1854 7.88778 14.3132 8.6946 14.3132 9.64062C14.3132 10.5923 14.1868 11.4048 13.934 12.0781C13.6811 12.7486 13.3161 13.2614 12.8388 13.6165C12.3615 13.9688 11.7877 14.1449 11.1172 14.1449ZM11.1172 13.0071C11.7081 13.0071 12.1698 12.7188 12.5022 12.142C12.8374 11.5653 13.005 10.7315 13.005 9.64062C13.005 8.91619 12.9283 8.30398 12.7749 7.80398C12.6243 7.30114 12.407 6.92045 12.1229 6.66193C11.8416 6.40057 11.5064 6.26989 11.1172 6.26989C10.5291 6.26989 10.0675 6.55966 9.73227 7.1392C9.39705 7.71875 9.22801 8.55256 9.22517 9.64062C9.22517 10.3679 9.30045 10.983 9.45102 11.4858C9.60443 11.9858 9.82176 12.3651 10.103 12.6236C10.3843 12.8793 10.7223 13.0071 11.1172 13.0071ZM18.7433 14.1449C18.07 14.142 17.4947 13.9645 17.0175 13.6122C16.5402 13.2599 16.1751 12.7472 15.9223 12.0739C15.6694 11.4006 15.543 10.5895 15.543 9.64062C15.543 8.6946 15.6694 7.88636 15.9223 7.21591C16.178 6.54545 16.5444 6.03409 17.0217 5.68182C17.5018 5.32955 18.0757 5.15341 18.7433 5.15341C19.4109 5.15341 19.9834 5.33097 20.4606 5.68608C20.9379 6.03835 21.303 6.54972 21.5558 7.22017C21.8115 7.88778 21.9393 8.6946 21.9393 9.64062C21.9393 10.5923 21.8129 11.4048 21.5601 12.0781C21.3072 12.7486 20.9422 13.2614 20.4649 13.6165C19.9876 13.9688 19.4138 14.1449 18.7433 14.1449ZM18.7433 13.0071C19.3342 13.0071 19.7959 12.7188 20.1283 12.142C20.4635 11.5653 20.6311 10.7315 20.6311 9.64062C20.6311 8.91619 20.5544 8.30398 20.401 7.80398C20.2504 7.30114 20.0331 6.92045 19.749 6.66193C19.4677 6.40057 19.1325 6.26989 18.7433 6.26989C18.1552 6.26989 17.6936 6.55966 17.3584 7.1392C17.0231 7.71875 16.8541 8.55256 16.8513 9.64062C16.8513 10.3679 16.9265 10.983 17.0771 11.4858C17.2305 11.9858 17.4479 12.3651 17.7291 12.6236C18.0104 12.8793 18.3484 13.0071 18.7433 13.0071Z" fill="#6F767E"/>
<path d="M4.15057 50.0227V58.75H2.82955V51.3438H2.77841L0.690341 52.7074V51.446L2.8679 50.0227H4.15057ZM9.27205 58.8693C8.73795 58.8693 8.25784 58.767 7.8317 58.5625C7.40841 58.3551 7.07034 58.071 6.8175 57.7102C6.56466 57.3494 6.42972 56.9375 6.41267 56.4744H7.69108C7.72233 56.8494 7.88852 57.1577 8.18966 57.3991C8.4908 57.6406 8.85159 57.7614 9.27205 57.7614C9.60727 57.7614 9.90415 57.6847 10.1627 57.5312C10.424 57.375 10.6286 57.1605 10.7763 56.8878C10.9269 56.6151 11.0022 56.304 11.0022 55.9545C11.0022 55.5994 10.9255 55.2827 10.772 55.0043C10.6186 54.7259 10.407 54.5071 10.1371 54.348C9.87006 54.1889 9.56324 54.108 9.21665 54.1051C8.95244 54.1051 8.68682 54.1506 8.41977 54.2415C8.15273 54.3324 7.93682 54.4517 7.77205 54.5994L6.56608 54.4205L7.05614 50.0227H11.8544V51.152H8.15131L7.87432 53.5938H7.92545C8.09591 53.429 8.32176 53.2912 8.60301 53.1804C8.8871 53.0696 9.19108 53.0142 9.51494 53.0142C10.0462 53.0142 10.5192 53.1406 10.934 53.3935C11.3516 53.6463 11.6797 53.9915 11.9184 54.429C12.1598 54.8636 12.2791 55.3636 12.2763 55.929C12.2791 56.4943 12.1513 56.9986 11.8928 57.4418C11.6371 57.8849 11.282 58.2344 10.8274 58.4901C10.3757 58.7429 9.85727 58.8693 9.27205 58.8693ZM16.7511 58.8949C16.0778 58.892 15.5025 58.7145 15.0253 58.3622C14.548 58.0099 14.1829 57.4972 13.9301 56.8239C13.6773 56.1506 13.5508 55.3395 13.5508 54.3906C13.5508 53.4446 13.6773 52.6364 13.9301 51.9659C14.1858 51.2955 14.5523 50.7841 15.0295 50.4318C15.5096 50.0795 16.0835 49.9034 16.7511 49.9034C17.4187 49.9034 17.9912 50.081 18.4685 50.4361C18.9457 50.7884 19.3108 51.2997 19.5636 51.9702C19.8193 52.6378 19.9471 53.4446 19.9471 54.3906C19.9471 55.3423 19.8207 56.1548 19.5679 56.8281C19.315 57.4986 18.95 58.0114 18.4727 58.3665C17.9954 58.7188 17.4216 58.8949 16.7511 58.8949ZM16.7511 57.7571C17.342 57.7571 17.8037 57.4688 18.1361 56.892C18.4713 56.3153 18.6389 55.4815 18.6389 54.3906C18.6389 53.6662 18.5622 53.054 18.4088 52.554C18.2582 52.0511 18.0409 51.6705 17.7568 51.4119C17.4756 51.1506 17.1403 51.0199 16.7511 51.0199C16.1631 51.0199 15.7014 51.3097 15.3662 51.8892C15.031 52.4687 14.8619 53.3026 14.8591 54.3906C14.8591 55.1179 14.9344 55.733 15.0849 56.2358C15.2383 56.7358 15.4557 57.1151 15.7369 57.3736C16.0182 57.6293 16.3562 57.7571 16.7511 57.7571Z" fill="#6F767E"/>
<path d="M4.15057 94.7727V103.5H2.82955V96.0938H2.77841L0.690341 97.4574V96.196L2.8679 94.7727H4.15057ZM9.27205 103.619C8.73795 103.619 8.25784 103.517 7.8317 103.312C7.40841 103.105 7.07034 102.821 6.8175 102.46C6.56466 102.099 6.42972 101.688 6.41267 101.224H7.69108C7.72233 101.599 7.88852 101.908 8.18966 102.149C8.4908 102.391 8.85159 102.511 9.27205 102.511C9.60727 102.511 9.90415 102.435 10.1627 102.281C10.424 102.125 10.6286 101.911 10.7763 101.638C10.9269 101.365 11.0022 101.054 11.0022 100.705C11.0022 100.349 10.9255 100.033 10.772 99.7543C10.6186 99.4759 10.407 99.2571 10.1371 99.098C9.87006 98.9389 9.56324 98.858 9.21665 98.8551C8.95244 98.8551 8.68682 98.9006 8.41977 98.9915C8.15273 99.0824 7.93682 99.2017 7.77205 99.3494L6.56608 99.1705L7.05614 94.7727H11.8544V95.902H8.15131L7.87432 98.3438H7.92545C8.09591 98.179 8.32176 98.0412 8.60301 97.9304C8.8871 97.8196 9.19108 97.7642 9.51494 97.7642C10.0462 97.7642 10.5192 97.8906 10.934 98.1435C11.3516 98.3963 11.6797 98.7415 11.9184 99.179C12.1598 99.6136 12.2791 100.114 12.2763 100.679C12.2791 101.244 12.1513 101.749 11.8928 102.192C11.6371 102.635 11.282 102.984 10.8274 103.24C10.3757 103.493 9.85727 103.619 9.27205 103.619ZM16.7511 103.645C16.0778 103.642 15.5025 103.464 15.0253 103.112C14.548 102.76 14.1829 102.247 13.9301 101.574C13.6773 100.901 13.5508 100.089 13.5508 99.1406C13.5508 98.1946 13.6773 97.3864 13.9301 96.7159C14.1858 96.0455 14.5523 95.5341 15.0295 95.1818C15.5096 94.8295 16.0835 94.6534 16.7511 94.6534C17.4187 94.6534 17.9912 94.831 18.4685 95.1861C18.9457 95.5384 19.3108 96.0497 19.5636 96.7202C19.8193 97.3878 19.9471 98.1946 19.9471 99.1406C19.9471 100.092 19.8207 100.905 19.5679 101.578C19.315 102.249 18.95 102.761 18.4727 103.116C17.9954 103.469 17.4216 103.645 16.7511 103.645ZM16.7511 102.507C17.342 102.507 17.8037 102.219 18.1361 101.642C18.4713 101.065 18.6389 100.232 18.6389 99.1406C18.6389 98.4162 18.5622 97.804 18.4088 97.304C18.2582 96.8011 18.0409 96.4205 17.7568 96.1619C17.4756 95.9006 17.1403 95.7699 16.7511 95.7699C16.1631 95.7699 15.7014 96.0597 15.3662 96.6392C15.031 97.2187 14.8619 98.0526 14.8591 99.1406C14.8591 99.8679 14.9344 100.483 15.0849 100.986C15.2383 101.486 15.4557 101.865 15.7369 102.124C16.0182 102.379 16.3562 102.507 16.7511 102.507Z" fill="#6F767E"/>
<path d="M4.15057 139.523V148.25H2.82955V140.844H2.77841L0.690341 142.207V140.946L2.8679 139.523H4.15057ZM9.42972 148.395C8.75642 148.392 8.18114 148.214 7.70386 147.862C7.22659 147.51 6.86153 146.997 6.60869 146.324C6.35585 145.651 6.22943 144.839 6.22943 143.891C6.22943 142.945 6.35585 142.136 6.60869 141.466C6.86438 140.795 7.23085 140.284 7.70813 139.932C8.18824 139.58 8.7621 139.403 9.42972 139.403C10.0973 139.403 10.6698 139.581 11.147 139.936C11.6243 140.288 11.9894 140.8 12.2422 141.47C12.4979 142.138 12.6257 142.945 12.6257 143.891C12.6257 144.842 12.4993 145.655 12.2465 146.328C11.9936 146.999 11.6286 147.511 11.1513 147.866C10.674 148.219 10.1002 148.395 9.42972 148.395ZM9.42972 147.257C10.0206 147.257 10.4823 146.969 10.8147 146.392C11.1499 145.815 11.3175 144.982 11.3175 143.891C11.3175 143.166 11.2408 142.554 11.0874 142.054C10.9368 141.551 10.7195 141.17 10.4354 140.912C10.1541 140.651 9.81892 140.52 9.42972 140.52C8.84165 140.52 8.38 140.81 8.04477 141.389C7.70955 141.969 7.54051 142.803 7.53767 143.891C7.53767 144.618 7.61295 145.233 7.76352 145.736C7.91693 146.236 8.13426 146.615 8.41551 146.874C8.69676 147.129 9.03483 147.257 9.42972 147.257ZM17.0558 148.395C16.3825 148.392 15.8072 148.214 15.33 147.862C14.8527 147.51 14.4876 146.997 14.2348 146.324C13.9819 145.651 13.8555 144.839 13.8555 143.891C13.8555 142.945 13.9819 142.136 14.2348 141.466C14.4905 140.795 14.8569 140.284 15.3342 139.932C15.8143 139.58 16.3882 139.403 17.0558 139.403C17.7234 139.403 18.2959 139.581 18.7731 139.936C19.2504 140.288 19.6155 140.8 19.8683 141.47C20.124 142.138 20.2518 142.945 20.2518 143.891C20.2518 144.842 20.1254 145.655 19.8726 146.328C19.6197 146.999 19.2547 147.511 18.7774 147.866C18.3001 148.219 17.7263 148.395 17.0558 148.395ZM17.0558 147.257C17.6467 147.257 18.1084 146.969 18.4408 146.392C18.776 145.815 18.9436 144.982 18.9436 143.891C18.9436 143.166 18.8669 142.554 18.7135 142.054C18.5629 141.551 18.3456 141.17 18.0615 140.912C17.7802 140.651 17.445 140.52 17.0558 140.52C16.4677 140.52 16.0061 140.81 15.6709 141.389C15.3356 141.969 15.1666 142.803 15.1638 143.891C15.1638 144.618 15.239 145.233 15.3896 145.736C15.543 146.236 15.7604 146.615 16.0416 146.874C16.3229 147.129 16.6609 147.257 17.0558 147.257Z" fill="#6F767E"/>
<path d="M3.72017 193.119C3.18608 193.119 2.70597 193.017 2.27983 192.812C1.85653 192.605 1.51847 192.321 1.26562 191.96C1.01278 191.599 0.877841 191.188 0.860795 190.724H2.1392C2.17045 191.099 2.33665 191.408 2.63778 191.649C2.93892 191.891 3.29972 192.011 3.72017 192.011C4.0554 192.011 4.35227 191.935 4.6108 191.781C4.87216 191.625 5.0767 191.411 5.22443 191.138C5.375 190.865 5.45028 190.554 5.45028 190.205C5.45028 189.849 5.37358 189.533 5.22017 189.254C5.06676 188.976 4.85511 188.757 4.58523 188.598C4.31818 188.439 4.01136 188.358 3.66477 188.355C3.40057 188.355 3.13494 188.401 2.8679 188.491C2.60085 188.582 2.38494 188.702 2.22017 188.849L1.0142 188.67L1.50426 184.273H6.30256V185.402H2.59943L2.32244 187.844H2.37358C2.54403 187.679 2.76989 187.541 3.05114 187.43C3.33523 187.32 3.6392 187.264 3.96307 187.264C4.49432 187.264 4.96733 187.391 5.3821 187.643C5.79972 187.896 6.12784 188.241 6.36648 188.679C6.60795 189.114 6.72727 189.614 6.72443 190.179C6.72727 190.744 6.59943 191.249 6.34091 191.692C6.08523 192.135 5.73011 192.484 5.27557 192.74C4.82386 192.993 4.3054 193.119 3.72017 193.119ZM11.1992 193.145C10.526 193.142 9.95067 192.964 9.4734 192.612C8.99612 192.26 8.63107 191.747 8.37822 191.074C8.12538 190.401 7.99896 189.589 7.99896 188.641C7.99896 187.695 8.12538 186.886 8.37822 186.216C8.63391 185.545 9.00038 185.034 9.47766 184.682C9.95777 184.33 10.5316 184.153 11.1992 184.153C11.8669 184.153 12.4393 184.331 12.9166 184.686C13.3938 185.038 13.7589 185.55 14.0117 186.22C14.2674 186.888 14.3953 187.695 14.3953 188.641C14.3953 189.592 14.2688 190.405 14.016 191.078C13.7632 191.749 13.3981 192.261 12.9208 192.616C12.4436 192.969 11.8697 193.145 11.1992 193.145ZM11.1992 192.007C11.7902 192.007 12.2518 191.719 12.5842 191.142C12.9194 190.565 13.087 189.732 13.087 188.641C13.087 187.916 13.0103 187.304 12.8569 186.804C12.7063 186.301 12.489 185.92 12.2049 185.662C11.9237 185.401 11.5885 185.27 11.1992 185.27C10.6112 185.27 10.1495 185.56 9.8143 186.139C9.47908 186.719 9.31004 187.553 9.3072 188.641C9.3072 189.368 9.38249 189.983 9.53305 190.486C9.68646 190.986 9.90379 191.365 10.185 191.624C10.4663 191.879 10.8044 192.007 11.1992 192.007Z" fill="#6F767E"/>
<path d="M74.8778 221.145C74.2045 221.142 73.6293 220.964 73.152 220.612C72.6747 220.26 72.3097 219.747 72.0568 219.074C71.804 218.401 71.6776 217.589 71.6776 216.641C71.6776 215.695 71.804 214.886 72.0568 214.216C72.3125 213.545 72.679 213.034 73.1562 212.682C73.6364 212.33 74.2102 212.153 74.8778 212.153C75.5455 212.153 76.1179 212.331 76.5952 212.686C77.0724 213.038 77.4375 213.55 77.6903 214.22C77.946 214.888 78.0739 215.695 78.0739 216.641C78.0739 217.592 77.9474 218.405 77.6946 219.078C77.4418 219.749 77.0767 220.261 76.5994 220.616C76.1222 220.969 75.5483 221.145 74.8778 221.145ZM74.8778 220.007C75.4688 220.007 75.9304 219.719 76.2628 219.142C76.598 218.565 76.7656 217.732 76.7656 216.641C76.7656 215.916 76.6889 215.304 76.5355 214.804C76.3849 214.301 76.1676 213.92 75.8835 213.662C75.6023 213.401 75.267 213.27 74.8778 213.27C74.2898 213.27 73.8281 213.56 73.4929 214.139C73.1577 214.719 72.9886 215.553 72.9858 216.641C72.9858 217.368 73.0611 217.983 73.2116 218.486C73.3651 218.986 73.5824 219.365 73.8636 219.624C74.1449 219.879 74.483 220.007 74.8778 220.007ZM82.7767 212.273V221H81.4556V213.594H81.4045L79.3164 214.957V213.696L81.494 212.273H82.7767ZM95.7735 216.636C95.7735 217.568 95.6031 218.369 95.2622 219.04C94.9212 219.707 94.4539 220.222 93.8602 220.582C93.2693 220.94 92.5974 221.119 91.8445 221.119C91.0889 221.119 90.4141 220.94 89.8204 220.582C89.2295 220.222 88.7636 219.706 88.4227 219.036C88.0818 218.365 87.9113 217.565 87.9113 216.636C87.9113 215.705 88.0818 214.905 88.4227 214.237C88.7636 213.567 89.2295 213.053 89.8204 212.695C90.4141 212.334 91.0889 212.153 91.8445 212.153C92.5974 212.153 93.2693 212.334 93.8602 212.695C94.4539 213.053 94.9212 213.567 95.2622 214.237C95.6031 214.905 95.7735 215.705 95.7735 216.636ZM94.4695 216.636C94.4695 215.926 94.3545 215.328 94.1244 214.842C93.8971 214.354 93.5846 213.984 93.1869 213.734C92.792 213.482 92.3445 213.355 91.8445 213.355C91.3417 213.355 90.8928 213.482 90.498 213.734C90.1031 213.984 89.7906 214.354 89.5605 214.842C89.3332 215.328 89.2195 215.926 89.2195 216.636C89.2195 217.347 89.3332 217.946 89.5605 218.435C89.7906 218.92 90.1031 219.29 90.498 219.543C90.8928 219.793 91.3417 219.918 91.8445 219.918C92.3445 219.918 92.792 219.793 93.1869 219.543C93.5846 219.29 93.8971 218.92 94.1244 218.435C94.3545 217.946 94.4695 217.347 94.4695 216.636ZM99.95 221.132C99.3165 221.132 98.7711 220.989 98.3137 220.702C97.8591 220.412 97.5097 220.013 97.2654 219.504C97.0211 218.996 96.8989 218.413 96.8989 217.757C96.8989 217.092 97.0239 216.506 97.2739 215.997C97.5239 215.486 97.8762 215.087 98.3307 214.8C98.7853 214.513 99.3208 214.369 99.9373 214.369C100.434 214.369 100.878 214.462 101.267 214.646C101.656 214.828 101.97 215.084 102.209 215.413C102.45 215.743 102.594 216.128 102.639 216.568H101.399C101.331 216.261 101.174 215.997 100.93 215.776C100.689 215.554 100.365 215.443 99.9586 215.443C99.6035 215.443 99.2924 215.537 99.0253 215.724C98.7611 215.909 98.5552 216.173 98.4074 216.517C98.2597 216.858 98.1858 217.261 98.1858 217.727C98.1858 218.205 98.2583 218.616 98.4032 218.963C98.5481 219.31 98.7526 219.578 99.0168 219.768C99.2838 219.959 99.5978 220.054 99.9586 220.054C100.2 220.054 100.419 220.01 100.615 219.922C100.814 219.831 100.98 219.702 101.113 219.534C101.25 219.366 101.345 219.165 101.399 218.929H102.639C102.594 219.352 102.456 219.73 102.226 220.062C101.995 220.395 101.687 220.656 101.301 220.847C100.917 221.037 100.467 221.132 99.95 221.132ZM106.937 214.455V215.477H103.362V214.455H106.937ZM104.32 212.886H105.595V219.078C105.595 219.325 105.632 219.511 105.705 219.636C105.779 219.759 105.874 219.842 105.991 219.888C106.11 219.93 106.239 219.952 106.379 219.952C106.481 219.952 106.57 219.945 106.647 219.93C106.724 219.916 106.784 219.905 106.826 219.896L107.056 220.949C106.982 220.977 106.877 221.006 106.741 221.034C106.605 221.065 106.434 221.082 106.23 221.085C105.894 221.091 105.582 221.031 105.292 220.906C105.002 220.781 104.768 220.588 104.589 220.327C104.41 220.065 104.32 219.737 104.32 219.342V212.886Z" fill="#6F767E"/>
<path d="M163.593 221.145C162.919 221.142 162.344 220.964 161.867 220.612C161.39 220.26 161.025 219.747 160.772 219.074C160.519 218.401 160.392 217.589 160.392 216.641C160.392 215.695 160.519 214.886 160.772 214.216C161.027 213.545 161.394 213.034 161.871 212.682C162.351 212.33 162.925 212.153 163.593 212.153C164.26 212.153 164.833 212.331 165.31 212.686C165.787 213.038 166.152 213.55 166.405 214.22C166.661 214.888 166.789 215.695 166.789 216.641C166.789 217.592 166.662 218.405 166.409 219.078C166.157 219.749 165.792 220.261 165.314 220.616C164.837 220.969 164.263 221.145 163.593 221.145ZM163.593 220.007C164.184 220.007 164.645 219.719 164.978 219.142C165.313 218.565 165.48 217.732 165.48 216.641C165.48 215.916 165.404 215.304 165.25 214.804C165.1 214.301 164.882 213.92 164.598 213.662C164.317 213.401 163.982 213.27 163.593 213.27C163.005 213.27 162.543 213.56 162.208 214.139C161.873 214.719 161.703 215.553 161.701 216.641C161.701 217.368 161.776 217.983 161.926 218.486C162.08 218.986 162.297 219.365 162.578 219.624C162.86 219.879 163.198 220.007 163.593 220.007ZM171.219 221.119C170.634 221.119 170.111 221.018 169.651 220.817C169.193 220.615 168.831 220.335 168.564 219.977C168.3 219.616 168.158 219.199 168.138 218.724H169.476C169.493 218.983 169.58 219.207 169.736 219.398C169.895 219.585 170.102 219.73 170.358 219.832C170.614 219.935 170.898 219.986 171.21 219.986C171.554 219.986 171.858 219.926 172.122 219.807C172.389 219.687 172.598 219.521 172.749 219.308C172.899 219.092 172.974 218.844 172.974 218.562C172.974 218.27 172.899 218.013 172.749 217.791C172.601 217.567 172.384 217.391 172.097 217.263C171.813 217.135 171.469 217.071 171.065 217.071H170.328V215.997H171.065C171.389 215.997 171.673 215.939 171.918 215.822C172.165 215.706 172.358 215.544 172.497 215.337C172.636 215.126 172.706 214.881 172.706 214.599C172.706 214.33 172.645 214.095 172.523 213.896C172.403 213.695 172.233 213.537 172.011 213.423C171.793 213.31 171.534 213.253 171.236 213.253C170.952 213.253 170.686 213.305 170.439 213.411C170.195 213.513 169.996 213.661 169.842 213.854C169.689 214.044 169.607 214.273 169.595 214.54H168.321C168.335 214.068 168.474 213.653 168.739 213.295C169.006 212.937 169.358 212.658 169.795 212.456C170.233 212.254 170.719 212.153 171.253 212.153C171.813 212.153 172.295 212.263 172.702 212.482C173.111 212.697 173.426 212.986 173.648 213.347C173.872 213.707 173.983 214.102 173.98 214.531C173.983 215.02 173.847 215.435 173.571 215.776C173.298 216.116 172.935 216.345 172.48 216.462V216.53C173.06 216.618 173.509 216.848 173.827 217.22C174.148 217.592 174.307 218.054 174.304 218.605C174.307 219.085 174.173 219.516 173.903 219.896C173.636 220.277 173.271 220.577 172.808 220.795C172.345 221.011 171.815 221.119 171.219 221.119ZM186.551 216.636C186.551 217.568 186.38 218.369 186.04 219.04C185.699 219.707 185.231 220.222 184.638 220.582C184.047 220.94 183.375 221.119 182.622 221.119C181.866 221.119 181.191 220.94 180.598 220.582C180.007 220.222 179.541 219.706 179.2 219.036C178.859 218.365 178.689 217.565 178.689 216.636C178.689 215.705 178.859 214.905 179.2 214.237C179.541 213.567 180.007 213.053 180.598 212.695C181.191 212.334 181.866 212.153 182.622 212.153C183.375 212.153 184.047 212.334 184.638 212.695C185.231 213.053 185.699 213.567 186.04 214.237C186.38 214.905 186.551 215.705 186.551 216.636ZM185.247 216.636C185.247 215.926 185.132 215.328 184.902 214.842C184.674 214.354 184.362 213.984 183.964 213.734C183.569 213.482 183.122 213.355 182.622 213.355C182.119 213.355 181.67 213.482 181.275 213.734C180.88 213.984 180.568 214.354 180.338 214.842C180.111 215.328 179.997 215.926 179.997 216.636C179.997 217.347 180.111 217.946 180.338 218.435C180.568 218.92 180.88 219.29 181.275 219.543C181.67 219.793 182.119 219.918 182.622 219.918C183.122 219.918 183.569 219.793 183.964 219.543C184.362 219.29 184.674 218.92 184.902 218.435C185.132 217.946 185.247 217.347 185.247 216.636ZM190.727 221.132C190.094 221.132 189.548 220.989 189.091 220.702C188.636 220.412 188.287 220.013 188.043 219.504C187.798 218.996 187.676 218.413 187.676 217.757C187.676 217.092 187.801 216.506 188.051 215.997C188.301 215.486 188.654 215.087 189.108 214.8C189.563 214.513 190.098 214.369 190.715 214.369C191.212 214.369 191.655 214.462 192.044 214.646C192.433 214.828 192.747 215.084 192.986 215.413C193.227 215.743 193.371 216.128 193.416 216.568H192.176C192.108 216.261 191.952 215.997 191.708 215.776C191.466 215.554 191.142 215.443 190.736 215.443C190.381 215.443 190.07 215.537 189.803 215.724C189.538 215.909 189.333 216.173 189.185 216.517C189.037 216.858 188.963 217.261 188.963 217.727C188.963 218.205 189.036 218.616 189.181 218.963C189.325 219.31 189.53 219.578 189.794 219.768C190.061 219.959 190.375 220.054 190.736 220.054C190.977 220.054 191.196 220.01 191.392 219.922C191.591 219.831 191.757 219.702 191.891 219.534C192.027 219.366 192.122 219.165 192.176 218.929H193.416C193.371 219.352 193.233 219.73 193.003 220.062C192.773 220.395 192.465 220.656 192.078 220.847C191.695 221.037 191.244 221.132 190.727 221.132ZM197.714 214.455V215.477H194.139V214.455H197.714ZM195.098 212.886H196.372V219.078C196.372 219.325 196.409 219.511 196.483 219.636C196.557 219.759 196.652 219.842 196.768 219.888C196.888 219.93 197.017 219.952 197.156 219.952C197.258 219.952 197.348 219.945 197.425 219.93C197.501 219.916 197.561 219.905 197.603 219.896L197.834 220.949C197.76 220.977 197.655 221.006 197.518 221.034C197.382 221.065 197.211 221.082 197.007 221.085C196.672 221.091 196.359 221.031 196.069 220.906C195.78 220.781 195.545 220.588 195.366 220.327C195.187 220.065 195.098 219.737 195.098 219.342V212.886Z" fill="#6F767E"/>
<path d="M254.308 221.145C253.634 221.142 253.059 220.964 252.582 220.612C252.104 220.26 251.739 219.747 251.487 219.074C251.234 218.401 251.107 217.589 251.107 216.641C251.107 215.695 251.234 214.886 251.487 214.216C251.742 213.545 252.109 213.034 252.586 212.682C253.066 212.33 253.64 212.153 254.308 212.153C254.975 212.153 255.548 212.331 256.025 212.686C256.502 213.038 256.867 213.55 257.12 214.22C257.376 214.888 257.504 215.695 257.504 216.641C257.504 217.592 257.377 218.405 257.124 219.078C256.871 219.749 256.506 220.261 256.029 220.616C255.552 220.969 254.978 221.145 254.308 221.145ZM254.308 220.007C254.898 220.007 255.36 219.719 255.692 219.142C256.028 218.565 256.195 217.732 256.195 216.641C256.195 215.916 256.119 215.304 255.965 214.804C255.815 214.301 255.597 213.92 255.313 213.662C255.032 213.401 254.697 213.27 254.308 213.27C253.719 213.27 253.258 213.56 252.923 214.139C252.587 214.719 252.418 215.553 252.415 216.641C252.415 217.368 252.491 217.983 252.641 218.486C252.795 218.986 253.012 219.365 253.293 219.624C253.575 219.879 253.913 220.007 254.308 220.007ZM261.934 221.119C261.348 221.119 260.826 221.018 260.365 220.817C259.908 220.615 259.546 220.335 259.279 219.977C259.015 219.616 258.873 219.199 258.853 218.724H260.191C260.208 218.983 260.294 219.207 260.451 219.398C260.61 219.585 260.817 219.73 261.073 219.832C261.329 219.935 261.613 219.986 261.925 219.986C262.269 219.986 262.573 219.926 262.837 219.807C263.104 219.687 263.313 219.521 263.463 219.308C263.614 219.092 263.689 218.844 263.689 218.562C263.689 218.27 263.614 218.013 263.463 217.791C263.316 217.567 263.098 217.391 262.811 217.263C262.527 217.135 262.184 217.071 261.78 217.071H261.043V215.997H261.78C262.104 215.997 262.388 215.939 262.632 215.822C262.88 215.706 263.073 215.544 263.212 215.337C263.351 215.126 263.421 214.881 263.421 214.599C263.421 214.33 263.36 214.095 263.238 213.896C263.118 213.695 262.948 213.537 262.726 213.423C262.507 213.31 262.249 213.253 261.951 213.253C261.667 213.253 261.401 213.305 261.154 213.411C260.909 213.513 260.711 213.661 260.557 213.854C260.404 214.044 260.321 214.273 260.31 214.54H259.036C259.05 214.068 259.189 213.653 259.454 213.295C259.721 212.937 260.073 212.658 260.51 212.456C260.948 212.254 261.434 212.153 261.968 212.153C262.527 212.153 263.01 212.263 263.417 212.482C263.826 212.697 264.141 212.986 264.363 213.347C264.587 213.707 264.698 214.102 264.695 214.531C264.698 215.02 264.561 215.435 264.286 215.776C264.013 216.116 263.65 216.345 263.195 216.462V216.53C263.775 216.618 264.223 216.848 264.542 217.22C264.863 217.592 265.022 218.054 265.019 218.605C265.022 219.085 264.888 219.516 264.618 219.896C264.351 220.277 263.986 220.577 263.523 220.795C263.06 221.011 262.53 221.119 261.934 221.119ZM277.266 216.636C277.266 217.568 277.095 218.369 276.754 219.04C276.413 219.707 275.946 220.222 275.352 220.582C274.761 220.94 274.09 221.119 273.337 221.119C272.581 221.119 271.906 220.94 271.313 220.582C270.722 220.222 270.256 219.706 269.915 219.036C269.574 218.365 269.403 217.565 269.403 216.636C269.403 215.705 269.574 214.905 269.915 214.237C270.256 213.567 270.722 213.053 271.313 212.695C271.906 212.334 272.581 212.153 273.337 212.153C274.09 212.153 274.761 212.334 275.352 212.695C275.946 213.053 276.413 213.567 276.754 214.237C277.095 214.905 277.266 215.705 277.266 216.636ZM275.962 216.636C275.962 215.926 275.847 215.328 275.617 214.842C275.389 214.354 275.077 213.984 274.679 213.734C274.284 213.482 273.837 213.355 273.337 213.355C272.834 213.355 272.385 213.482 271.99 213.734C271.595 213.984 271.283 214.354 271.053 214.842C270.825 215.328 270.712 215.926 270.712 216.636C270.712 217.347 270.825 217.946 271.053 218.435C271.283 218.92 271.595 219.29 271.99 219.543C272.385 219.793 272.834 219.918 273.337 219.918C273.837 219.918 274.284 219.793 274.679 219.543C275.077 219.29 275.389 218.92 275.617 218.435C275.847 217.946 275.962 217.347 275.962 216.636ZM281.442 221.132C280.809 221.132 280.263 220.989 279.806 220.702C279.351 220.412 279.002 220.013 278.758 219.504C278.513 218.996 278.391 218.413 278.391 217.757C278.391 217.092 278.516 216.506 278.766 215.997C279.016 215.486 279.368 215.087 279.823 214.8C280.277 214.513 280.813 214.369 281.429 214.369C281.927 214.369 282.37 214.462 282.759 214.646C283.148 214.828 283.462 215.084 283.701 215.413C283.942 215.743 284.086 216.128 284.131 216.568H282.891C282.823 216.261 282.667 215.997 282.422 215.776C282.181 215.554 281.857 215.443 281.451 215.443C281.096 215.443 280.785 215.537 280.518 215.724C280.253 215.909 280.047 216.173 279.9 216.517C279.752 216.858 279.678 217.261 279.678 217.727C279.678 218.205 279.75 218.616 279.895 218.963C280.04 219.31 280.245 219.578 280.509 219.768C280.776 219.959 281.09 220.054 281.451 220.054C281.692 220.054 281.911 220.01 282.107 219.922C282.306 219.831 282.472 219.702 282.606 219.534C282.742 219.366 282.837 219.165 282.891 218.929H284.131C284.086 219.352 283.948 219.73 283.718 220.062C283.488 220.395 283.179 220.656 282.793 220.847C282.41 221.037 281.959 221.132 281.442 221.132ZM288.429 214.455V215.477H284.854V214.455H288.429ZM285.813 212.886H287.087V219.078C287.087 219.325 287.124 219.511 287.198 219.636C287.271 219.759 287.367 219.842 287.483 219.888C287.602 219.93 287.732 219.952 287.871 219.952C287.973 219.952 288.063 219.945 288.139 219.93C288.216 219.916 288.276 219.905 288.318 219.896L288.548 220.949C288.475 220.977 288.369 221.006 288.233 221.034C288.097 221.065 287.926 221.082 287.722 221.085C287.387 221.091 287.074 221.031 286.784 220.906C286.494 220.781 286.26 220.588 286.081 220.327C285.902 220.065 285.813 219.737 285.813 219.342V212.886Z" fill="#6F767E"/>
<path d="M345.022 221.145C344.349 221.142 343.774 220.964 343.297 220.612C342.819 220.26 342.454 219.747 342.201 219.074C341.949 218.401 341.822 217.589 341.822 216.641C341.822 215.695 341.949 214.886 342.201 214.216C342.457 213.545 342.824 213.034 343.301 212.682C343.781 212.33 344.355 212.153 345.022 212.153C345.69 212.153 346.262 212.331 346.74 212.686C347.217 213.038 347.582 213.55 347.835 214.22C348.091 214.888 348.218 215.695 348.218 216.641C348.218 217.592 348.092 218.405 347.839 219.078C347.586 219.749 347.221 220.261 346.744 220.616C346.267 220.969 345.693 221.145 345.022 221.145ZM345.022 220.007C345.613 220.007 346.075 219.719 346.407 219.142C346.743 218.565 346.91 217.732 346.91 216.641C346.91 215.916 346.833 215.304 346.68 214.804C346.529 214.301 346.312 213.92 346.028 213.662C345.747 213.401 345.412 213.27 345.022 213.27C344.434 213.27 343.973 213.56 343.637 214.139C343.302 214.719 343.133 215.553 343.13 216.641C343.13 217.368 343.206 217.983 343.356 218.486C343.51 218.986 343.727 219.365 344.008 219.624C344.289 219.879 344.627 220.007 345.022 220.007ZM352.648 221.119C352.063 221.119 351.541 221.018 351.08 220.817C350.623 220.615 350.261 220.335 349.994 219.977C349.729 219.616 349.587 219.199 349.568 218.724H350.906C350.923 218.983 351.009 219.207 351.166 219.398C351.325 219.585 351.532 219.73 351.788 219.832C352.043 219.935 352.327 219.986 352.64 219.986C352.984 219.986 353.288 219.926 353.552 219.807C353.819 219.687 354.028 219.521 354.178 219.308C354.329 219.092 354.404 218.844 354.404 218.562C354.404 218.27 354.329 218.013 354.178 217.791C354.031 217.567 353.813 217.391 353.526 217.263C353.242 217.135 352.898 217.071 352.495 217.071H351.758V215.997H352.495C352.819 215.997 353.103 215.939 353.347 215.822C353.594 215.706 353.788 215.544 353.927 215.337C354.066 215.126 354.136 214.881 354.136 214.599C354.136 214.33 354.075 214.095 353.952 213.896C353.833 213.695 353.663 213.537 353.441 213.423C353.222 213.31 352.964 213.253 352.666 213.253C352.381 213.253 352.116 213.305 351.869 213.411C351.624 213.513 351.425 213.661 351.272 213.854C351.119 214.044 351.036 214.273 351.025 214.54H349.751C349.765 214.068 349.904 213.653 350.168 213.295C350.435 212.937 350.788 212.658 351.225 212.456C351.663 212.254 352.148 212.153 352.683 212.153C353.242 212.153 353.725 212.263 354.131 212.482C354.541 212.697 354.856 212.986 355.077 213.347C355.302 213.707 355.413 214.102 355.41 214.531C355.413 215.02 355.276 215.435 355.001 215.776C354.728 216.116 354.364 216.345 353.91 216.462V216.53C354.489 216.618 354.938 216.848 355.256 217.22C355.577 217.592 355.737 218.054 355.734 218.605C355.737 219.085 355.603 219.516 355.333 219.896C355.066 220.277 354.701 220.577 354.238 220.795C353.775 221.011 353.245 221.119 352.648 221.119ZM367.981 216.636C367.981 217.568 367.81 218.369 367.469 219.04C367.128 219.707 366.661 220.222 366.067 220.582C365.476 220.94 364.804 221.119 364.052 221.119C363.296 221.119 362.621 220.94 362.027 220.582C361.437 220.222 360.971 219.706 360.63 219.036C360.289 218.365 360.118 217.565 360.118 216.636C360.118 215.705 360.289 214.905 360.63 214.237C360.971 213.567 361.437 213.053 362.027 212.695C362.621 212.334 363.296 212.153 364.052 212.153C364.804 212.153 365.476 212.334 366.067 212.695C366.661 213.053 367.128 213.567 367.469 214.237C367.81 214.905 367.981 215.705 367.981 216.636ZM366.677 216.636C366.677 215.926 366.562 215.328 366.331 214.842C366.104 214.354 365.792 213.984 365.394 213.734C364.999 213.482 364.552 213.355 364.052 213.355C363.549 213.355 363.1 213.482 362.705 213.734C362.31 213.984 361.998 214.354 361.767 214.842C361.54 215.328 361.427 215.926 361.427 216.636C361.427 217.347 361.54 217.946 361.767 218.435C361.998 218.92 362.31 219.29 362.705 219.543C363.1 219.793 363.549 219.918 364.052 219.918C364.552 219.918 364.999 219.793 365.394 219.543C365.792 219.29 366.104 218.92 366.331 218.435C366.562 217.946 366.677 217.347 366.677 216.636ZM372.157 221.132C371.524 221.132 370.978 220.989 370.521 220.702C370.066 220.412 369.717 220.013 369.472 219.504C369.228 218.996 369.106 218.413 369.106 217.757C369.106 217.092 369.231 216.506 369.481 215.997C369.731 215.486 370.083 215.087 370.538 214.8C370.992 214.513 371.528 214.369 372.144 214.369C372.641 214.369 373.085 214.462 373.474 214.646C373.863 214.828 374.177 215.084 374.416 215.413C374.657 215.743 374.801 216.128 374.846 216.568H373.606C373.538 216.261 373.382 215.997 373.137 215.776C372.896 215.554 372.572 215.443 372.166 215.443C371.81 215.443 371.499 215.537 371.232 215.724C370.968 215.909 370.762 216.173 370.614 216.517C370.467 216.858 370.393 217.261 370.393 217.727C370.393 218.205 370.465 218.616 370.61 218.963C370.755 219.31 370.96 219.578 371.224 219.768C371.491 219.959 371.805 220.054 372.166 220.054C372.407 220.054 372.626 220.01 372.822 219.922C373.021 219.831 373.187 219.702 373.32 219.534C373.457 219.366 373.552 219.165 373.606 218.929H374.846C374.801 219.352 374.663 219.73 374.433 220.062C374.203 220.395 373.894 220.656 373.508 220.847C373.124 221.037 372.674 221.132 372.157 221.132ZM379.144 214.455V215.477H375.569V214.455H379.144ZM376.527 212.886H377.802V219.078C377.802 219.325 377.839 219.511 377.912 219.636C377.986 219.759 378.081 219.842 378.198 219.888C378.317 219.93 378.447 219.952 378.586 219.952C378.688 219.952 378.777 219.945 378.854 219.93C378.931 219.916 378.991 219.905 379.033 219.896L379.263 220.949C379.189 220.977 379.084 221.006 378.948 221.034C378.812 221.065 378.641 221.082 378.437 221.085C378.101 221.091 377.789 221.031 377.499 220.906C377.209 220.781 376.975 220.588 376.796 220.327C376.617 220.065 376.527 219.737 376.527 219.342V212.886Z" fill="#6F767E"/>
<path d="M435.733 221.145C435.06 221.142 434.485 220.964 434.007 220.612C433.53 220.26 433.165 219.747 432.912 219.074C432.659 218.401 432.533 217.589 432.533 216.641C432.533 215.695 432.659 214.886 432.912 214.216C433.168 213.545 433.534 213.034 434.012 212.682C434.492 212.33 435.066 212.153 435.733 212.153C436.401 212.153 436.973 212.331 437.451 212.686C437.928 213.038 438.293 213.55 438.546 214.22C438.801 214.888 438.929 215.695 438.929 216.641C438.929 217.592 438.803 218.405 438.55 219.078C438.297 219.749 437.932 220.261 437.455 220.616C436.978 220.969 436.404 221.145 435.733 221.145ZM435.733 220.007C436.324 220.007 436.786 219.719 437.118 219.142C437.453 218.565 437.621 217.732 437.621 216.641C437.621 215.916 437.544 215.304 437.391 214.804C437.24 214.301 437.023 213.92 436.739 213.662C436.458 213.401 436.123 213.27 435.733 213.27C435.145 213.27 434.684 213.56 434.348 214.139C434.013 214.719 433.844 215.553 433.841 216.641C433.841 217.368 433.917 217.983 434.067 218.486C434.221 218.986 434.438 219.365 434.719 219.624C435 219.879 435.338 220.007 435.733 220.007ZM443.359 221.119C442.774 221.119 442.251 221.018 441.791 220.817C441.334 220.615 440.972 220.335 440.705 219.977C440.44 219.616 440.298 219.199 440.278 218.724H441.617C441.634 218.983 441.72 219.207 441.876 219.398C442.036 219.585 442.243 219.73 442.499 219.832C442.754 219.935 443.038 219.986 443.351 219.986C443.695 219.986 443.999 219.926 444.263 219.807C444.53 219.687 444.739 219.521 444.889 219.308C445.04 219.092 445.115 218.844 445.115 218.562C445.115 218.27 445.04 218.013 444.889 217.791C444.742 217.567 444.524 217.391 444.237 217.263C443.953 217.135 443.609 217.071 443.206 217.071H442.469V215.997H443.206C443.53 215.997 443.814 215.939 444.058 215.822C444.305 215.706 444.499 215.544 444.638 215.337C444.777 215.126 444.847 214.881 444.847 214.599C444.847 214.33 444.786 214.095 444.663 213.896C444.544 213.695 444.374 213.537 444.152 213.423C443.933 213.31 443.675 213.253 443.376 213.253C443.092 213.253 442.827 213.305 442.58 213.411C442.335 213.513 442.136 213.661 441.983 213.854C441.83 214.044 441.747 214.273 441.736 214.54H440.462C440.476 214.068 440.615 213.653 440.879 213.295C441.146 212.937 441.499 212.658 441.936 212.456C442.374 212.254 442.859 212.153 443.393 212.153C443.953 212.153 444.436 212.263 444.842 212.482C445.251 212.697 445.567 212.986 445.788 213.347C446.013 213.707 446.124 214.102 446.121 214.531C446.124 215.02 445.987 215.435 445.712 215.776C445.439 216.116 445.075 216.345 444.621 216.462V216.53C445.2 216.618 445.649 216.848 445.967 217.22C446.288 217.592 446.447 218.054 446.445 218.605C446.447 219.085 446.314 219.516 446.044 219.896C445.777 220.277 445.412 220.577 444.949 220.795C444.486 221.011 443.956 221.119 443.359 221.119ZM458.691 216.636C458.691 217.568 458.521 218.369 458.18 219.04C457.839 219.707 457.372 220.222 456.778 220.582C456.187 220.94 455.515 221.119 454.763 221.119C454.007 221.119 453.332 220.94 452.738 220.582C452.147 220.222 451.682 219.706 451.341 219.036C451 218.365 450.829 217.565 450.829 216.636C450.829 215.705 451 214.905 451.341 214.237C451.682 213.567 452.147 213.053 452.738 212.695C453.332 212.334 454.007 212.153 454.763 212.153C455.515 212.153 456.187 212.334 456.778 212.695C457.372 213.053 457.839 213.567 458.18 214.237C458.521 214.905 458.691 215.705 458.691 216.636ZM457.388 216.636C457.388 215.926 457.272 215.328 457.042 214.842C456.815 214.354 456.503 213.984 456.105 213.734C455.71 213.482 455.263 213.355 454.763 213.355C454.26 213.355 453.811 213.482 453.416 213.734C453.021 213.984 452.709 214.354 452.478 214.842C452.251 215.328 452.138 215.926 452.138 216.636C452.138 217.347 452.251 217.946 452.478 218.435C452.709 218.92 453.021 219.29 453.416 219.543C453.811 219.793 454.26 219.918 454.763 219.918C455.263 219.918 455.71 219.793 456.105 219.543C456.503 219.29 456.815 218.92 457.042 218.435C457.272 217.946 457.388 217.347 457.388 216.636ZM462.868 221.132C462.234 221.132 461.689 220.989 461.232 220.702C460.777 220.412 460.428 220.013 460.183 219.504C459.939 218.996 459.817 218.413 459.817 217.757C459.817 217.092 459.942 216.506 460.192 215.997C460.442 215.486 460.794 215.087 461.249 214.8C461.703 214.513 462.239 214.369 462.855 214.369C463.352 214.369 463.796 214.462 464.185 214.646C464.574 214.828 464.888 215.084 465.127 215.413C465.368 215.743 465.511 216.128 465.557 216.568H464.317C464.249 216.261 464.092 215.997 463.848 215.776C463.607 215.554 463.283 215.443 462.877 215.443C462.521 215.443 462.21 215.537 461.943 215.724C461.679 215.909 461.473 216.173 461.325 216.517C461.178 216.858 461.104 217.261 461.104 217.727C461.104 218.205 461.176 218.616 461.321 218.963C461.466 219.31 461.671 219.578 461.935 219.768C462.202 219.959 462.516 220.054 462.877 220.054C463.118 220.054 463.337 220.01 463.533 219.922C463.732 219.831 463.898 219.702 464.031 219.534C464.168 219.366 464.263 219.165 464.317 218.929H465.557C465.511 219.352 465.374 219.73 465.144 220.062C464.913 220.395 464.605 220.656 464.219 220.847C463.835 221.037 463.385 221.132 462.868 221.132ZM469.855 214.455V215.477H466.28V214.455H469.855ZM467.238 212.886H468.513V219.078C468.513 219.325 468.55 219.511 468.623 219.636C468.697 219.759 468.792 219.842 468.909 219.888C469.028 219.93 469.157 219.952 469.297 219.952C469.399 219.952 469.488 219.945 469.565 219.93C469.642 219.916 469.701 219.905 469.744 219.896L469.974 220.949C469.9 220.977 469.795 221.006 469.659 221.034C469.523 221.065 469.352 221.082 469.148 221.085C468.812 221.091 468.5 221.031 468.21 220.906C467.92 220.781 467.686 220.588 467.507 220.327C467.328 220.065 467.238 219.737 467.238 219.342V212.886Z" fill="#6F767E"/>
<path d="M526.448 221.145C525.775 221.142 525.2 220.964 524.722 220.612C524.245 220.26 523.88 219.747 523.627 219.074C523.374 218.401 523.248 217.589 523.248 216.641C523.248 215.695 523.374 214.886 523.627 214.216C523.883 213.545 524.249 213.034 524.727 212.682C525.207 212.33 525.781 212.153 526.448 212.153C527.116 212.153 527.688 212.331 528.165 212.686C528.643 213.038 529.008 213.55 529.261 214.22C529.516 214.888 529.644 215.695 529.644 216.641C529.644 217.592 529.518 218.405 529.265 219.078C529.012 219.749 528.647 220.261 528.17 220.616C527.692 220.969 527.119 221.145 526.448 221.145ZM526.448 220.007C527.039 220.007 527.501 219.719 527.833 219.142C528.168 218.565 528.336 217.732 528.336 216.641C528.336 215.916 528.259 215.304 528.106 214.804C527.955 214.301 527.738 213.92 527.454 213.662C527.173 213.401 526.837 213.27 526.448 213.27C525.86 213.27 525.398 213.56 525.063 214.139C524.728 214.719 524.559 215.553 524.556 216.641C524.556 217.368 524.631 217.983 524.782 218.486C524.935 218.986 525.153 219.365 525.434 219.624C525.715 219.879 526.053 220.007 526.448 220.007ZM534.074 221.119C533.489 221.119 532.966 221.018 532.506 220.817C532.049 220.615 531.686 220.335 531.419 219.977C531.155 219.616 531.013 219.199 530.993 218.724H532.331C532.348 218.983 532.435 219.207 532.591 219.398C532.75 219.585 532.958 219.73 533.213 219.832C533.469 219.935 533.753 219.986 534.066 219.986C534.409 219.986 534.713 219.926 534.978 219.807C535.245 219.687 535.454 219.521 535.604 219.308C535.755 219.092 535.83 218.844 535.83 218.562C535.83 218.27 535.755 218.013 535.604 217.791C535.456 217.567 535.239 217.391 534.952 217.263C534.668 217.135 534.324 217.071 533.921 217.071H533.184V215.997H533.921C534.245 215.997 534.529 215.939 534.773 215.822C535.02 215.706 535.213 215.544 535.353 215.337C535.492 215.126 535.561 214.881 535.561 214.599C535.561 214.33 535.5 214.095 535.378 213.896C535.259 213.695 535.088 213.537 534.867 213.423C534.648 213.31 534.39 213.253 534.091 213.253C533.807 213.253 533.542 213.305 533.294 213.411C533.05 213.513 532.851 213.661 532.698 213.854C532.544 214.044 532.462 214.273 532.451 214.54H531.177C531.191 214.068 531.33 213.653 531.594 213.295C531.861 212.937 532.213 212.658 532.651 212.456C533.088 212.254 533.574 212.153 534.108 212.153C534.668 212.153 535.151 212.263 535.557 212.482C535.966 212.697 536.282 212.986 536.503 213.347C536.728 213.707 536.838 214.102 536.836 214.531C536.838 215.02 536.702 215.435 536.427 215.776C536.154 216.116 535.79 216.345 535.336 216.462V216.53C535.915 216.618 536.364 216.848 536.682 217.22C537.003 217.592 537.162 218.054 537.159 218.605C537.162 219.085 537.029 219.516 536.759 219.896C536.492 220.277 536.127 220.577 535.664 220.795C535.201 221.011 534.671 221.119 534.074 221.119ZM549.406 216.636C549.406 217.568 549.236 218.369 548.895 219.04C548.554 219.707 548.087 220.222 547.493 220.582C546.902 220.94 546.23 221.119 545.477 221.119C544.722 221.119 544.047 220.94 543.453 220.582C542.862 220.222 542.396 219.706 542.055 219.036C541.715 218.365 541.544 217.565 541.544 216.636C541.544 215.705 541.715 214.905 542.055 214.237C542.396 213.567 542.862 213.053 543.453 212.695C544.047 212.334 544.722 212.153 545.477 212.153C546.23 212.153 546.902 212.334 547.493 212.695C548.087 213.053 548.554 213.567 548.895 214.237C549.236 214.905 549.406 215.705 549.406 216.636ZM548.102 216.636C548.102 215.926 547.987 215.328 547.757 214.842C547.53 214.354 547.217 213.984 546.82 213.734C546.425 213.482 545.977 213.355 545.477 213.355C544.975 213.355 544.526 213.482 544.131 213.734C543.736 213.984 543.423 214.354 543.193 214.842C542.966 215.328 542.852 215.926 542.852 216.636C542.852 217.347 542.966 217.946 543.193 218.435C543.423 218.92 543.736 219.29 544.131 219.543C544.526 219.793 544.975 219.918 545.477 219.918C545.977 219.918 546.425 219.793 546.82 219.543C547.217 219.29 547.53 218.92 547.757 218.435C547.987 217.946 548.102 217.347 548.102 216.636ZM553.583 221.132C552.949 221.132 552.404 220.989 551.946 220.702C551.492 220.412 551.143 220.013 550.898 219.504C550.654 218.996 550.532 218.413 550.532 217.757C550.532 217.092 550.657 216.506 550.907 215.997C551.157 215.486 551.509 215.087 551.964 214.8C552.418 214.513 552.954 214.369 553.57 214.369C554.067 214.369 554.51 214.462 554.9 214.646C555.289 214.828 555.603 215.084 555.841 215.413C556.083 215.743 556.226 216.128 556.272 216.568H555.032C554.964 216.261 554.807 215.997 554.563 215.776C554.321 215.554 553.998 215.443 553.591 215.443C553.236 215.443 552.925 215.537 552.658 215.724C552.394 215.909 552.188 216.173 552.04 216.517C551.893 216.858 551.819 217.261 551.819 217.727C551.819 218.205 551.891 218.616 552.036 218.963C552.181 219.31 552.385 219.578 552.65 219.768C552.917 219.959 553.231 220.054 553.591 220.054C553.833 220.054 554.052 220.01 554.248 219.922C554.446 219.831 554.613 219.702 554.746 219.534C554.883 219.366 554.978 219.165 555.032 218.929H556.272C556.226 219.352 556.089 219.73 555.858 220.062C555.628 220.395 555.32 220.656 554.934 220.847C554.55 221.037 554.1 221.132 553.583 221.132ZM560.57 214.455V215.477H556.994V214.455H560.57ZM557.953 212.886H559.227V219.078C559.227 219.325 559.264 219.511 559.338 219.636C559.412 219.759 559.507 219.842 559.624 219.888C559.743 219.93 559.872 219.952 560.012 219.952C560.114 219.952 560.203 219.945 560.28 219.93C560.357 219.916 560.416 219.905 560.459 219.896L560.689 220.949C560.615 220.977 560.51 221.006 560.374 221.034C560.237 221.065 560.067 221.082 559.862 221.085C559.527 221.091 559.215 221.031 558.925 220.906C558.635 220.781 558.401 220.588 558.222 220.327C558.043 220.065 557.953 219.737 557.953 219.342V212.886Z" fill="#6F767E"/>
<path d="M617.163 221.145C616.49 221.142 615.914 220.964 615.437 220.612C614.96 220.26 614.595 219.747 614.342 219.074C614.089 218.401 613.963 217.589 613.963 216.641C613.963 215.695 614.089 214.886 614.342 214.216C614.598 213.545 614.964 213.034 615.441 212.682C615.922 212.33 616.495 212.153 617.163 212.153C617.831 212.153 618.403 212.331 618.88 212.686C619.358 213.038 619.723 213.55 619.975 214.22C620.231 214.888 620.359 215.695 620.359 216.641C620.359 217.592 620.233 218.405 619.98 219.078C619.727 219.749 619.362 220.261 618.885 220.616C618.407 220.969 617.833 221.145 617.163 221.145ZM617.163 220.007C617.754 220.007 618.216 219.719 618.548 219.142C618.883 218.565 619.051 217.732 619.051 216.641C619.051 215.916 618.974 215.304 618.821 214.804C618.67 214.301 618.453 213.92 618.169 213.662C617.887 213.401 617.552 213.27 617.163 213.27C616.575 213.27 616.113 213.56 615.778 214.139C615.443 214.719 615.274 215.553 615.271 216.641C615.271 217.368 615.346 217.983 615.497 218.486C615.65 218.986 615.868 219.365 616.149 219.624C616.43 219.879 616.768 220.007 617.163 220.007ZM624.789 221.119C624.204 221.119 623.681 221.018 623.221 220.817C622.764 220.615 622.401 220.335 622.134 219.977C621.87 219.616 621.728 219.199 621.708 218.724H623.046C623.063 218.983 623.15 219.207 623.306 219.398C623.465 219.585 623.673 219.73 623.928 219.832C624.184 219.935 624.468 219.986 624.781 219.986C625.124 219.986 625.428 219.926 625.693 219.807C625.96 219.687 626.168 219.521 626.319 219.308C626.469 219.092 626.545 218.844 626.545 218.562C626.545 218.27 626.469 218.013 626.319 217.791C626.171 217.567 625.954 217.391 625.667 217.263C625.383 217.135 625.039 217.071 624.636 217.071H623.898V215.997H624.636C624.96 215.997 625.244 215.939 625.488 215.822C625.735 215.706 625.928 215.544 626.068 215.337C626.207 215.126 626.276 214.881 626.276 214.599C626.276 214.33 626.215 214.095 626.093 213.896C625.974 213.695 625.803 213.537 625.582 213.423C625.363 213.31 625.104 213.253 624.806 213.253C624.522 213.253 624.256 213.305 624.009 213.411C623.765 213.513 623.566 213.661 623.413 213.854C623.259 214.044 623.177 214.273 623.166 214.54H621.891C621.906 214.068 622.045 213.653 622.309 213.295C622.576 212.937 622.928 212.658 623.366 212.456C623.803 212.254 624.289 212.153 624.823 212.153C625.383 212.153 625.866 212.263 626.272 212.482C626.681 212.697 626.996 212.986 627.218 213.347C627.443 213.707 627.553 214.102 627.55 214.531C627.553 215.02 627.417 215.435 627.141 215.776C626.869 216.116 626.505 216.345 626.05 216.462V216.53C626.63 216.618 627.079 216.848 627.397 217.22C627.718 217.592 627.877 218.054 627.874 218.605C627.877 219.085 627.744 219.516 627.474 219.896C627.207 220.277 626.842 220.577 626.379 220.795C625.916 221.011 625.386 221.119 624.789 221.119ZM640.121 216.636C640.121 217.568 639.951 218.369 639.61 219.04C639.269 219.707 638.802 220.222 638.208 220.582C637.617 220.94 636.945 221.119 636.192 221.119C635.437 221.119 634.762 220.94 634.168 220.582C633.577 220.222 633.111 219.706 632.77 219.036C632.429 218.365 632.259 217.565 632.259 216.636C632.259 215.705 632.429 214.905 632.77 214.237C633.111 213.567 633.577 213.053 634.168 212.695C634.762 212.334 635.437 212.153 636.192 212.153C636.945 212.153 637.617 212.334 638.208 212.695C638.802 213.053 639.269 213.567 639.61 214.237C639.951 214.905 640.121 215.705 640.121 216.636ZM638.817 216.636C638.817 215.926 638.702 215.328 638.472 214.842C638.245 214.354 637.932 213.984 637.535 213.734C637.14 213.482 636.692 213.355 636.192 213.355C635.689 213.355 635.24 213.482 634.846 213.734C634.451 213.984 634.138 214.354 633.908 214.842C633.681 215.328 633.567 215.926 633.567 216.636C633.567 217.347 633.681 217.946 633.908 218.435C634.138 218.92 634.451 219.29 634.846 219.543C635.24 219.793 635.689 219.918 636.192 219.918C636.692 219.918 637.14 219.793 637.535 219.543C637.932 219.29 638.245 218.92 638.472 218.435C638.702 217.946 638.817 217.347 638.817 216.636ZM644.298 221.132C643.664 221.132 643.119 220.989 642.661 220.702C642.207 220.412 641.857 220.013 641.613 219.504C641.369 218.996 641.247 218.413 641.247 217.757C641.247 217.092 641.372 216.506 641.622 215.997C641.872 215.486 642.224 215.087 642.678 214.8C643.133 214.513 643.668 214.369 644.285 214.369C644.782 214.369 645.225 214.462 645.614 214.646C646.004 214.828 646.318 215.084 646.556 215.413C646.798 215.743 646.941 216.128 646.987 216.568H645.747C645.678 216.261 645.522 215.997 645.278 215.776C645.036 215.554 644.712 215.443 644.306 215.443C643.951 215.443 643.64 215.537 643.373 215.724C643.109 215.909 642.903 216.173 642.755 216.517C642.607 216.858 642.533 217.261 642.533 217.727C642.533 218.205 642.606 218.616 642.751 218.963C642.896 219.31 643.1 219.578 643.364 219.768C643.632 219.959 643.945 220.054 644.306 220.054C644.548 220.054 644.766 220.01 644.962 219.922C645.161 219.831 645.328 219.702 645.461 219.534C645.597 219.366 645.693 219.165 645.747 218.929H646.987C646.941 219.352 646.803 219.73 646.573 220.062C646.343 220.395 646.035 220.656 645.649 220.847C645.265 221.037 644.815 221.132 644.298 221.132ZM651.285 214.455V215.477H647.709V214.455H651.285ZM648.668 212.886H649.942V219.078C649.942 219.325 649.979 219.511 650.053 219.636C650.127 219.759 650.222 219.842 650.339 219.888C650.458 219.93 650.587 219.952 650.726 219.952C650.829 219.952 650.918 219.945 650.995 219.93C651.072 219.916 651.131 219.905 651.174 219.896L651.404 220.949C651.33 220.977 651.225 221.006 651.089 221.034C650.952 221.065 650.782 221.082 650.577 221.085C650.242 221.091 649.929 221.031 649.64 220.906C649.35 220.781 649.116 220.588 648.937 220.327C648.758 220.065 648.668 219.737 648.668 219.342V212.886Z" fill="#6F767E"/>
<path d="M707.878 221.145C707.205 221.142 706.629 220.964 706.152 220.612C705.675 220.26 705.31 219.747 705.057 219.074C704.804 218.401 704.678 217.589 704.678 216.641C704.678 215.695 704.804 214.886 705.057 214.216C705.313 213.545 705.679 213.034 706.156 212.682C706.636 212.33 707.21 212.153 707.878 212.153C708.545 212.153 709.118 212.331 709.595 212.686C710.072 213.038 710.438 213.55 710.69 214.22C710.946 214.888 711.074 215.695 711.074 216.641C711.074 217.592 710.947 218.405 710.695 219.078C710.442 219.749 710.077 220.261 709.599 220.616C709.122 220.969 708.548 221.145 707.878 221.145ZM707.878 220.007C708.469 220.007 708.93 219.719 709.263 219.142C709.598 218.565 709.766 217.732 709.766 216.641C709.766 215.916 709.689 215.304 709.536 214.804C709.385 214.301 709.168 213.92 708.884 213.662C708.602 213.401 708.267 213.27 707.878 213.27C707.29 213.27 706.828 213.56 706.493 214.139C706.158 214.719 705.989 215.553 705.986 216.641C705.986 217.368 706.061 217.983 706.212 218.486C706.365 218.986 706.582 219.365 706.864 219.624C707.145 219.879 707.483 220.007 707.878 220.007ZM715.504 221.119C714.919 221.119 714.396 221.018 713.936 220.817C713.478 220.615 713.116 220.335 712.849 219.977C712.585 219.616 712.443 219.199 712.423 218.724H713.761C713.778 218.983 713.865 219.207 714.021 219.398C714.18 219.585 714.387 219.73 714.643 219.832C714.899 219.935 715.183 219.986 715.495 219.986C715.839 219.986 716.143 219.926 716.407 219.807C716.674 219.687 716.883 219.521 717.034 219.308C717.184 219.092 717.26 218.844 717.26 218.562C717.26 218.27 717.184 218.013 717.034 217.791C716.886 217.567 716.669 217.391 716.382 217.263C716.098 217.135 715.754 217.071 715.351 217.071H714.613V215.997H715.351C715.674 215.997 715.958 215.939 716.203 215.822C716.45 215.706 716.643 215.544 716.782 215.337C716.922 215.126 716.991 214.881 716.991 214.599C716.991 214.33 716.93 214.095 716.808 213.896C716.689 213.695 716.518 213.537 716.297 213.423C716.078 213.31 715.819 213.253 715.521 213.253C715.237 213.253 714.971 213.305 714.724 213.411C714.48 213.513 714.281 213.661 714.128 213.854C713.974 214.044 713.892 214.273 713.88 214.54H712.606C712.62 214.068 712.76 213.653 713.024 213.295C713.291 212.937 713.643 212.658 714.081 212.456C714.518 212.254 715.004 212.153 715.538 212.153C716.098 212.153 716.581 212.263 716.987 212.482C717.396 212.697 717.711 212.986 717.933 213.347C718.157 213.707 718.268 214.102 718.265 214.531C718.268 215.02 718.132 215.435 717.856 215.776C717.583 216.116 717.22 216.345 716.765 216.462V216.53C717.345 216.618 717.794 216.848 718.112 217.22C718.433 217.592 718.592 218.054 718.589 218.605C718.592 219.085 718.458 219.516 718.189 219.896C717.922 220.277 717.556 220.577 717.093 220.795C716.63 221.011 716.101 221.119 715.504 221.119ZM730.836 216.636C730.836 217.568 730.666 218.369 730.325 219.04C729.984 219.707 729.516 220.222 728.923 220.582C728.332 220.94 727.66 221.119 726.907 221.119C726.151 221.119 725.477 220.94 724.883 220.582C724.292 220.222 723.826 219.706 723.485 219.036C723.144 218.365 722.974 217.565 722.974 216.636C722.974 215.705 723.144 214.905 723.485 214.237C723.826 213.567 724.292 213.053 724.883 212.695C725.477 212.334 726.151 212.153 726.907 212.153C727.66 212.153 728.332 212.334 728.923 212.695C729.516 213.053 729.984 213.567 730.325 214.237C730.666 214.905 730.836 215.705 730.836 216.636ZM729.532 216.636C729.532 215.926 729.417 215.328 729.187 214.842C728.96 214.354 728.647 213.984 728.249 213.734C727.854 213.482 727.407 213.355 726.907 213.355C726.404 213.355 725.955 213.482 725.56 213.734C725.166 213.984 724.853 214.354 724.623 214.842C724.396 215.328 724.282 215.926 724.282 216.636C724.282 217.347 724.396 217.946 724.623 218.435C724.853 218.92 725.166 219.29 725.56 219.543C725.955 219.793 726.404 219.918 726.907 219.918C727.407 219.918 727.854 219.793 728.249 219.543C728.647 219.29 728.96 218.92 729.187 218.435C729.417 217.946 729.532 217.347 729.532 216.636ZM735.013 221.132C734.379 221.132 733.834 220.989 733.376 220.702C732.922 220.412 732.572 220.013 732.328 219.504C732.084 218.996 731.961 218.413 731.961 217.757C731.961 217.092 732.086 216.506 732.336 215.997C732.586 215.486 732.939 215.087 733.393 214.8C733.848 214.513 734.383 214.369 735 214.369C735.497 214.369 735.94 214.462 736.329 214.646C736.719 214.828 737.032 215.084 737.271 215.413C737.513 215.743 737.656 216.128 737.701 216.568H736.461C736.393 216.261 736.237 215.997 735.993 215.776C735.751 215.554 735.427 215.443 735.021 215.443C734.666 215.443 734.355 215.537 734.088 215.724C733.824 215.909 733.618 216.173 733.47 216.517C733.322 216.858 733.248 217.261 733.248 217.727C733.248 218.205 733.321 218.616 733.466 218.963C733.611 219.31 733.815 219.578 734.079 219.768C734.346 219.959 734.66 220.054 735.021 220.054C735.263 220.054 735.481 220.01 735.677 219.922C735.876 219.831 736.042 219.702 736.176 219.534C736.312 219.366 736.407 219.165 736.461 218.929H737.701C737.656 219.352 737.518 219.73 737.288 220.062C737.058 220.395 736.75 220.656 736.363 220.847C735.98 221.037 735.53 221.132 735.013 221.132ZM741.999 214.455V215.477H738.424V214.455H741.999ZM739.383 212.886H740.657V219.078C740.657 219.325 740.694 219.511 740.768 219.636C740.842 219.759 740.937 219.842 741.053 219.888C741.173 219.93 741.302 219.952 741.441 219.952C741.543 219.952 741.633 219.945 741.71 219.93C741.786 219.916 741.846 219.905 741.889 219.896L742.119 220.949C742.045 220.977 741.94 221.006 741.803 221.034C741.667 221.065 741.497 221.082 741.292 221.085C740.957 221.091 740.644 221.031 740.355 220.906C740.065 220.781 739.83 220.588 739.651 220.327C739.472 220.065 739.383 219.737 739.383 219.342V212.886Z" fill="#6F767E"/>
<path d="M89.5 195C115.227 166.337 182.456 89.505 283.562 89.505C409.944 89.505 445.332 2.75 540.36 2.75C616.382 2.75 697 130.707 741.5 168.75" stroke="#2A85FF" stroke-width="4" stroke-linecap="round"/>
<circle cx="179" cy="123.75" r="4" fill="#2A85FF"/>
<g filter="url(#filter0_ddi_565_25544)">
<rect x="196" y="99" width="88" height="54" rx="8" fill="#272B30" shape-rendering="crispEdges"/>
<path d="M203.758 111.128V109.607H210.926V111.128H208.254V118.334H206.43V111.128H203.758ZM211.952 118.334V111.789H213.767V118.334H211.952ZM212.864 110.945C212.594 110.945 212.363 110.855 212.169 110.676C211.979 110.494 211.884 110.277 211.884 110.024C211.884 109.774 211.979 109.56 212.169 109.381C212.363 109.199 212.594 109.108 212.864 109.108C213.134 109.108 213.364 109.199 213.554 109.381C213.748 109.56 213.844 109.774 213.844 110.024C213.844 110.277 213.748 110.494 213.554 110.676C213.364 110.855 213.134 110.945 212.864 110.945ZM218.583 111.789V113.152H214.641V111.789H218.583ZM215.536 110.22H217.352V116.323C217.352 116.49 217.377 116.621 217.428 116.715C217.479 116.806 217.55 116.869 217.641 116.906C217.735 116.943 217.843 116.962 217.965 116.962C218.05 116.962 218.136 116.955 218.221 116.941C218.306 116.923 218.372 116.911 218.417 116.902L218.702 118.253C218.612 118.281 218.484 118.314 218.319 118.351C218.154 118.391 217.954 118.415 217.718 118.423C217.281 118.441 216.897 118.382 216.568 118.249C216.241 118.115 215.987 117.908 215.805 117.627C215.623 117.345 215.533 116.99 215.536 116.561V110.22ZM221.602 109.607V118.334H219.786V109.607H221.602ZM225.919 118.462C225.245 118.462 224.666 118.325 224.18 118.053C223.697 117.777 223.325 117.388 223.064 116.885C222.802 116.379 222.672 115.781 222.672 115.091C222.672 114.418 222.802 113.827 223.064 113.318C223.325 112.81 223.693 112.414 224.167 112.129C224.645 111.845 225.204 111.703 225.846 111.703C226.278 111.703 226.68 111.773 227.052 111.912C227.427 112.048 227.754 112.254 228.032 112.53C228.314 112.806 228.532 113.152 228.689 113.57C228.845 113.985 228.923 114.47 228.923 115.027V115.526H223.396V114.401H227.214C227.214 114.139 227.157 113.908 227.044 113.706C226.93 113.504 226.772 113.347 226.571 113.233C226.372 113.117 226.14 113.058 225.876 113.058C225.601 113.058 225.356 113.122 225.143 113.25C224.933 113.375 224.768 113.544 224.649 113.757C224.53 113.968 224.469 114.202 224.466 114.46V115.53C224.466 115.854 224.525 116.134 224.645 116.369C224.767 116.605 224.939 116.787 225.16 116.915C225.382 117.043 225.645 117.107 225.949 117.107C226.15 117.107 226.335 117.078 226.503 117.021C226.67 116.965 226.814 116.879 226.933 116.766C227.052 116.652 227.143 116.513 227.206 116.348L228.885 116.459C228.799 116.862 228.625 117.215 228.361 117.516C228.099 117.814 227.761 118.047 227.346 118.215C226.934 118.379 226.459 118.462 225.919 118.462Z" fill="white"/>
<rect x="203.332" y="131.666" width="12" height="12" rx="4" fill="#2A85FF"/>
<path d="M223.657 132.939V141.666H222.076V134.477H222.025L219.984 135.781V134.332L222.153 132.939H223.657ZM228.979 141.832C228.277 141.832 227.675 141.655 227.172 141.3C226.672 140.942 226.287 140.426 226.017 139.753C225.75 139.077 225.617 138.263 225.617 137.311C225.62 136.359 225.755 135.55 226.022 134.882C226.292 134.211 226.677 133.7 227.177 133.348C227.679 132.996 228.28 132.819 228.979 132.819C229.678 132.819 230.279 132.996 230.782 133.348C231.284 133.7 231.669 134.211 231.936 134.882C232.206 135.552 232.341 136.362 232.341 137.311C232.341 138.265 232.206 139.081 231.936 139.757C231.669 140.43 231.284 140.944 230.782 141.3C230.282 141.655 229.681 141.832 228.979 141.832ZM228.979 140.498C229.525 140.498 229.955 140.23 230.27 139.693C230.588 139.153 230.748 138.359 230.748 137.311C230.748 136.618 230.675 136.035 230.53 135.564C230.385 135.092 230.181 134.737 229.917 134.498C229.652 134.257 229.34 134.136 228.979 134.136C228.436 134.136 228.007 134.406 227.692 134.946C227.377 135.483 227.218 136.271 227.215 137.311C227.212 138.007 227.282 138.592 227.424 139.067C227.569 139.541 227.773 139.899 228.037 140.14C228.302 140.379 228.615 140.498 228.979 140.498ZM236.863 141.832C236.161 141.832 235.559 141.655 235.056 141.3C234.556 140.942 234.171 140.426 233.901 139.753C233.634 139.077 233.501 138.263 233.501 137.311C233.504 136.359 233.639 135.55 233.906 134.882C234.175 134.211 234.56 133.7 235.06 133.348C235.563 132.996 236.164 132.819 236.863 132.819C237.562 132.819 238.163 132.996 238.666 133.348C239.168 133.7 239.553 134.211 239.82 134.882C240.09 135.552 240.225 136.362 240.225 137.311C240.225 138.265 240.09 139.081 239.82 139.757C239.553 140.43 239.168 140.944 238.666 141.3C238.166 141.655 237.565 141.832 236.863 141.832ZM236.863 140.498C237.408 140.498 237.839 140.23 238.154 139.693C238.472 139.153 238.631 138.359 238.631 137.311C238.631 136.618 238.559 136.035 238.414 135.564C238.269 135.092 238.065 134.737 237.8 134.498C237.536 134.257 237.224 134.136 236.863 134.136C236.32 134.136 235.891 134.406 235.576 134.946C235.261 135.483 235.102 136.271 235.099 137.311C235.096 138.007 235.166 138.592 235.308 139.067C235.452 139.541 235.657 139.899 235.921 140.14C236.185 140.379 236.499 140.498 236.863 140.498Z" fill="white"/>
<rect x="196.458" y="99.4583" width="87.0833" height="53.0833" rx="7.54167" stroke="white" stroke-opacity="0.12" stroke-width="0.916667" shape-rendering="crispEdges"/>
</g>
<defs>
<filter id="filter0_ddi_565_25544" x="188.667" y="95.3333" width="102.667" height="68.6667" filterUnits="userSpaceOnUse" color-interpolation-filters="sRGB">
<feFlood flood-opacity="0" result="BackgroundImageFix"/>
<feColorMatrix in="SourceAlpha" type="matrix" values="0 0 0 0 0 0 0 0 0 0 0 0 0 0 0 0 0 0 127 0" result="hardAlpha"/>
<feOffset dy="1.83333"/>
<feGaussianBlur stdDeviation="1.83333"/>
<feComposite in2="hardAlpha" operator="out"/>
<feColorMatrix type="matrix" values="0 0 0 0 0 0 0 0 0 0 0 0 0 0 0 0 0 0 0.1 0"/>
<feBlend mode="multiply" in2="BackgroundImageFix" result="effect1_dropShadow_565_25544"/>
<feColorMatrix in="SourceAlpha" type="matrix" values="0 0 0 0 0 0 0 0 0 0 0 0 0 0 0 0 0 0 127 0" result="hardAlpha"/>
<feOffset dy="3.66667"/>
<feGaussianBlur stdDeviation="3.66667"/>
<feComposite in2="hardAlpha" operator="out"/>
<feColorMatrix type="matrix" values="0 0 0 0 0 0 0 0 0 0 0 0 0 0 0 0 0 0 0.1 0"/>
<feBlend mode="multiply" in2="effect1_dropShadow_565_25544" result="effect2_dropShadow_565_25544"/>
<feBlend mode="normal" in="SourceGraphic" in2="effect2_dropShadow_565_25544" result="shape"/>
<feColorMatrix in="SourceAlpha" type="matrix" values="0 0 0 0 0 0 0 0 0 0 0 0 0 0 0 0 0 0 127 0" result="hardAlpha"/>
<feOffset/>
<feGaussianBlur stdDeviation="0.458333"/>
<feComposite in2="hardAlpha" operator="arithmetic" k2="-1" k3="1"/>
<feColorMatrix type="matrix" values="0 0 0 0 0 0 0 0 0 0 0 0 0 0 0 0 0 0 1 0"/>
<feBlend mode="multiply" in2="shape" result="effect3_innerShadow_565_25544"/>
</filter>
</defs>
</svg>
