<svg width="363" height="335" viewBox="0 0 363 335" fill="none" xmlns="http://www.w3.org/2000/svg">
<g clip-path="url(#clip0_565_24093)">
<path d="M35.863 266.393C29.3522 270.152 20.9766 267.94 17.716 261.166C4.18644 233.058 -1.90384 201.859 0.146417 170.579C2.49421 134.758 15.4113 100.438 37.2642 71.959C59.1171 43.4798 88.9243 22.1202 122.917 10.5814C156.909 -0.957411 193.559 -2.15723 228.233 7.13368C262.908 16.4246 294.048 35.7889 317.717 62.7779C341.385 89.767 356.52 123.169 361.205 158.759C365.891 194.349 359.917 230.529 344.04 262.725C330.175 290.84 309.302 314.813 283.531 332.391C277.32 336.627 268.961 334.355 265.202 327.844C261.443 321.333 263.715 313.056 269.869 308.738C291.003 293.91 308.14 273.967 319.623 250.683C333.118 223.317 338.196 192.564 334.213 162.312C330.23 132.061 317.366 103.669 297.248 80.7286C277.129 57.788 250.66 41.3283 221.187 33.431C191.714 25.5337 160.561 26.5536 131.668 36.3616C102.774 46.1696 77.4382 64.3252 58.8632 88.5325C40.2883 112.74 29.3087 141.912 27.3131 172.359C25.6152 198.265 30.4858 224.104 41.3738 247.513C44.5445 254.329 42.3737 262.634 35.863 266.393Z" fill="#EFEFEF"/>
<path d="M97.314 327.844C93.5551 334.355 85.1958 336.627 78.985 332.391C60.2909 319.64 44.1117 303.482 31.3158 284.722C15.9582 262.206 5.8686 236.52 1.79578 209.572C-2.27703 182.623 -0.228446 155.103 7.78948 129.055C15.8074 103.006 29.5888 79.0975 48.1108 59.1037C66.6328 39.1099 89.4198 23.5441 114.781 13.5616C140.141 3.57916 167.425 -0.563647 194.605 1.44068C221.786 3.44501 248.167 11.545 271.789 25.1395C291.471 36.4664 308.817 51.3653 322.957 69.0317C327.655 74.9011 326.027 83.4095 319.822 87.6544C313.618 91.8993 305.191 90.2654 300.416 84.4587C288.637 70.1352 274.347 58.023 258.209 48.7359C238.13 37.1806 215.707 30.2956 192.603 28.592C169.5 26.8883 146.309 30.4097 124.752 38.8947C103.195 47.3798 83.8265 60.6108 68.0828 77.6055C52.3391 94.6003 40.625 114.922 33.8097 137.064C26.9945 159.205 25.2532 182.597 28.7151 205.503C32.177 228.41 40.7531 250.242 53.8071 269.381C64.2986 284.762 77.466 298.086 92.6467 308.738C98.8009 313.056 101.073 321.333 97.314 327.844Z" fill="#2A85FF"/>
<path d="M121.326 195.75L146.07 146.773V146.375H117.349V137.568H156.98V146.574L132.264 195.75H121.326ZM187.413 137.568V195.75H176.874V147.824H176.533L162.925 156.517V146.858L177.385 137.568H187.413ZM221.292 196.858C216.614 196.858 212.599 195.674 209.246 193.307C205.913 190.92 203.347 187.483 201.547 182.994C199.767 178.487 198.877 173.061 198.877 166.716C198.896 160.371 199.796 154.973 201.576 150.523C203.375 146.053 205.941 142.644 209.275 140.295C212.627 137.947 216.633 136.773 221.292 136.773C225.951 136.773 229.957 137.947 233.309 140.295C236.661 142.644 239.227 146.053 241.008 150.523C242.807 154.992 243.707 160.39 243.707 166.716C243.707 173.08 242.807 178.515 241.008 183.023C239.227 187.511 236.661 190.939 233.309 193.307C229.975 195.674 225.97 196.858 221.292 196.858ZM221.292 187.966C224.928 187.966 227.797 186.176 229.9 182.597C232.021 178.998 233.082 173.705 233.082 166.716C233.082 162.095 232.599 158.212 231.633 155.068C230.667 151.924 229.303 149.557 227.542 147.966C225.78 146.356 223.697 145.551 221.292 145.551C217.674 145.551 214.814 147.35 212.712 150.949C210.61 154.528 209.549 159.784 209.53 166.716C209.511 171.356 209.975 175.258 210.922 178.42C211.888 181.583 213.252 183.97 215.013 185.58C216.775 187.17 218.868 187.966 221.292 187.966Z" fill="#2066DA"/>
<path d="M139.435 229.75V215.205H148.895V217.413H142.07V221.362H148.405V223.571H142.07V227.541H148.952V229.75H139.435ZM153.172 218.841L155.373 222.868L157.611 218.841H160.331L157.042 224.295L160.388 229.75H157.682L155.373 225.822L153.087 229.75H150.359L153.683 224.295L150.444 218.841H153.172ZM166.268 229.963C165.179 229.963 164.244 229.724 163.462 229.246C162.686 228.768 162.087 228.107 161.666 227.264C161.249 226.417 161.041 225.441 161.041 224.338C161.041 223.23 161.254 222.252 161.68 221.405C162.106 220.553 162.707 219.89 163.484 219.416C164.265 218.938 165.188 218.699 166.254 218.699C167.139 218.699 167.923 218.862 168.604 219.189C169.291 219.511 169.838 219.968 170.245 220.56C170.652 221.147 170.884 221.833 170.941 222.619H168.484C168.384 222.094 168.148 221.656 167.774 221.305C167.404 220.95 166.909 220.773 166.289 220.773C165.764 220.773 165.302 220.915 164.904 221.199C164.506 221.478 164.196 221.881 163.974 222.406C163.756 222.932 163.647 223.562 163.647 224.295C163.647 225.039 163.756 225.678 163.974 226.213C164.192 226.743 164.497 227.153 164.89 227.442C165.288 227.726 165.754 227.868 166.289 227.868C166.668 227.868 167.006 227.797 167.305 227.655C167.608 227.508 167.861 227.297 168.065 227.023C168.268 226.748 168.408 226.414 168.484 226.021H170.941C170.88 226.793 170.652 227.477 170.259 228.074C169.866 228.666 169.331 229.13 168.654 229.466C167.977 229.797 167.182 229.963 166.268 229.963ZM177.482 229.963C176.388 229.963 175.443 229.736 174.648 229.281C173.857 228.822 173.249 228.173 172.823 227.335C172.397 226.492 172.184 225.5 172.184 224.359C172.184 223.237 172.397 222.252 172.823 221.405C173.254 220.553 173.855 219.89 174.627 219.416C175.398 218.938 176.305 218.699 177.347 218.699C178.019 218.699 178.654 218.808 179.25 219.026C179.852 219.239 180.382 219.57 180.841 220.02C181.305 220.47 181.67 221.043 181.935 221.739C182.2 222.43 182.333 223.254 182.333 224.21V224.999H173.391V223.266H179.868C179.863 222.773 179.757 222.335 179.549 221.952C179.34 221.563 179.049 221.258 178.675 221.036C178.306 220.813 177.875 220.702 177.382 220.702C176.857 220.702 176.395 220.83 175.997 221.085C175.6 221.336 175.29 221.668 175.067 222.08C174.849 222.487 174.738 222.934 174.733 223.422V224.935C174.733 225.569 174.849 226.114 175.081 226.568C175.313 227.018 175.638 227.364 176.054 227.605C176.471 227.842 176.959 227.96 177.517 227.96C177.891 227.96 178.23 227.908 178.533 227.804C178.836 227.695 179.099 227.536 179.321 227.328C179.544 227.12 179.712 226.862 179.826 226.554L182.226 226.824C182.075 227.458 181.786 228.012 181.36 228.486C180.938 228.955 180.398 229.319 179.74 229.58C179.082 229.835 178.329 229.963 177.482 229.963ZM186.679 215.205V229.75H184.108V215.205H186.679ZM191.494 215.205V229.75H188.923V215.205H191.494ZM198.567 229.963C197.473 229.963 196.529 229.736 195.733 229.281C194.942 228.822 194.334 228.173 193.908 227.335C193.482 226.492 193.269 225.5 193.269 224.359C193.269 223.237 193.482 222.252 193.908 221.405C194.339 220.553 194.94 219.89 195.712 219.416C196.484 218.938 197.39 218.699 198.432 218.699C199.104 218.699 199.739 218.808 200.335 219.026C200.937 219.239 201.467 219.57 201.926 220.02C202.39 220.47 202.755 221.043 203.02 221.739C203.285 222.43 203.418 223.254 203.418 224.21V224.999H194.476V223.266H200.953C200.949 222.773 200.842 222.335 200.634 221.952C200.425 221.563 200.134 221.258 199.76 221.036C199.391 220.813 198.96 220.702 198.468 220.702C197.942 220.702 197.48 220.83 197.083 221.085C196.685 221.336 196.375 221.668 196.152 222.08C195.934 222.487 195.823 222.934 195.818 223.422V224.935C195.818 225.569 195.934 226.114 196.166 226.568C196.398 227.018 196.723 227.364 197.139 227.605C197.556 227.842 198.044 227.96 198.602 227.96C198.977 227.96 199.315 227.908 199.618 227.804C199.921 227.695 200.184 227.536 200.406 227.328C200.629 227.12 200.797 226.862 200.911 226.554L203.311 226.824C203.16 227.458 202.871 228.012 202.445 228.486C202.023 228.955 201.484 229.319 200.825 229.58C200.167 229.835 199.415 229.963 198.567 229.963ZM207.764 223.358V229.75H205.193V218.841H207.65V220.695H207.778C208.029 220.084 208.429 219.598 208.978 219.239C209.532 218.879 210.217 218.699 211.031 218.699C211.784 218.699 212.44 218.86 212.998 219.182C213.562 219.504 213.997 219.97 214.305 220.581C214.618 221.192 214.771 221.933 214.767 222.804V229.75H212.196V223.202C212.196 222.473 212.006 221.902 211.628 221.49C211.254 221.078 210.735 220.872 210.072 220.872C209.622 220.872 209.222 220.972 208.872 221.17C208.526 221.365 208.254 221.646 208.055 222.016C207.861 222.385 207.764 222.832 207.764 223.358ZM222.428 218.841V220.83H216.157V218.841H222.428ZM217.705 216.227H220.276V226.469C220.276 226.814 220.328 227.08 220.432 227.264C220.541 227.444 220.683 227.567 220.858 227.634C221.033 227.7 221.228 227.733 221.441 227.733C221.602 227.733 221.748 227.721 221.881 227.697C222.018 227.674 222.122 227.652 222.193 227.634L222.627 229.643C222.489 229.691 222.293 229.743 222.037 229.8C221.786 229.857 221.479 229.89 221.114 229.899C220.47 229.918 219.89 229.821 219.374 229.608C218.858 229.39 218.448 229.054 218.145 228.599C217.847 228.145 217.7 227.577 217.705 226.895V216.227Z" fill="#909BAD"/>
</g>
<defs>
<clipPath id="clip0_565_24093">
<rect width="363" height="334" fill="white" transform="translate(0 1)"/>
</clipPath>
</defs>
</svg>
