<svg width="258" height="263" viewBox="0 0 258 263" fill="none" xmlns="http://www.w3.org/2000/svg">
<path d="M89.404 24.3614C86.8821 17.7868 90.1573 10.3458 96.9508 8.49272C124.685 0.927644 154.304 2.92941 180.935 14.3995C211.488 27.5585 235.688 52.1374 248.37 82.8908C261.053 113.644 261.214 148.136 248.819 179.007C236.424 209.877 212.455 234.681 182.026 248.125C151.598 261.568 117.12 262.587 85.9509 250.964C54.7817 239.341 29.3895 215.996 15.1931 185.911C0.996768 155.827 -0.879431 121.385 9.96492 89.9363C19.4174 62.524 37.8822 39.278 62.1501 23.8681C68.0945 20.0934 75.8012 22.6825 78.9637 28.974C82.1263 35.2655 79.5328 42.866 73.6846 46.7882C55.3227 59.1029 41.3542 77.1304 34.0719 98.249C25.3965 123.408 26.8974 150.961 38.2545 175.029C49.6116 199.097 69.9253 217.773 94.8607 227.071C119.796 236.37 147.378 235.555 171.721 224.8C196.064 214.045 215.239 194.202 225.155 169.506C235.071 144.809 234.942 117.215 224.796 92.6126C214.65 68.0099 195.29 48.3468 170.848 37.8196C150.331 28.983 127.598 27.171 106.129 32.4539C99.2913 34.1365 91.9258 30.936 89.404 24.3614Z" fill="#2A85FF"/>
<mask id="path-2-outside-1_237_17305" maskUnits="userSpaceOnUse" x="53" y="213" width="118" height="49" fill="black">
<rect fill="white" x="53" y="213" width="118" height="49"/>
<path d="M59.4502 221.608C55.0902 227.138 56.0086 235.215 61.9457 239.001C76.1309 248.047 92.0037 254.22 108.662 257.116C125.32 260.012 142.344 259.559 158.75 255.831C165.617 254.271 169.208 246.977 166.97 240.3C164.732 233.624 157.51 230.111 150.607 231.499C138.256 233.982 125.514 234.163 113.029 231.993C100.545 229.822 88.6117 225.351 77.8235 218.845C71.7935 215.209 63.8102 216.079 59.4502 221.608Z"/>
</mask>
<path d="M59.4502 221.608C55.0902 227.138 56.0086 235.215 61.9457 239.001C76.1309 248.047 92.0037 254.22 108.662 257.116C125.32 260.012 142.344 259.559 158.75 255.831C165.617 254.271 169.208 246.977 166.97 240.3C164.732 233.624 157.51 230.111 150.607 231.499C138.256 233.982 125.514 234.163 113.029 231.993C100.545 229.822 88.6117 225.351 77.8235 218.845C71.7935 215.209 63.8102 216.079 59.4502 221.608Z" fill="#B6DCFF"/>
<path d="M59.4502 221.608C55.0902 227.138 56.0086 235.215 61.9457 239.001C76.1309 248.047 92.0037 254.22 108.662 257.116C125.32 260.012 142.344 259.559 158.75 255.831C165.617 254.271 169.208 246.977 166.97 240.3C164.732 233.624 157.51 230.111 150.607 231.499C138.256 233.982 125.514 234.163 113.029 231.993C100.545 229.822 88.6117 225.351 77.8235 218.845C71.7935 215.209 63.8102 216.079 59.4502 221.608Z" stroke="white" stroke-width="6" mask="url(#path-2-outside-1_237_17305)"/>
<mask id="path-3-outside-2_237_17305" maskUnits="userSpaceOnUse" x="108" y="0" width="142" height="96" fill="black">
<rect fill="white" x="108" width="142" height="96"/>
<path d="M237.979 91.3021C244.574 88.8354 247.978 81.4522 244.865 75.1359C233.78 52.6426 216.256 33.8247 194.392 21.164C172.528 8.5033 147.485 2.67164 122.458 4.25367C115.43 4.69792 110.721 11.3251 111.865 18.2733C113.008 25.2214 119.576 29.8423 126.613 29.5739C145.782 28.8428 164.864 33.5321 181.614 43.2312C198.363 52.9303 211.929 67.1463 220.836 84.1358C224.106 90.3723 231.383 93.7688 237.979 91.3021Z"/>
</mask>
<path d="M237.979 91.3021C244.574 88.8354 247.978 81.4522 244.865 75.1359C233.78 52.6426 216.256 33.8247 194.392 21.164C172.528 8.5033 147.485 2.67164 122.458 4.25367C115.43 4.69792 110.721 11.3251 111.865 18.2733C113.008 25.2214 119.576 29.8423 126.613 29.5739C145.782 28.8428 164.864 33.5321 181.614 43.2312C198.363 52.9303 211.929 67.1463 220.836 84.1358C224.106 90.3723 231.383 93.7688 237.979 91.3021Z" fill="#38A3A5"/>
<path d="M237.979 91.3021C244.574 88.8354 247.978 81.4522 244.865 75.1359C233.78 52.6426 216.256 33.8247 194.392 21.164C172.528 8.5033 147.485 2.67164 122.458 4.25367C115.43 4.69792 110.721 11.3251 111.865 18.2733C113.008 25.2214 119.576 29.8423 126.613 29.5739C145.782 28.8428 164.864 33.5321 181.614 43.2312C198.363 52.9303 211.929 67.1463 220.836 84.1358C224.106 90.3723 231.383 93.7688 237.979 91.3021Z" stroke="white" stroke-width="6" mask="url(#path-3-outside-2_237_17305)"/>
<mask id="path-4-outside-3_237_17305" maskUnits="userSpaceOnUse" x="0" y="1" width="134" height="237" fill="black">
<rect fill="white" y="1" width="134" height="237"/>
<path d="M130.5 16.75C130.5 9.70837 124.777 3.93391 117.771 4.63685C94.6876 6.95277 72.5852 15.5353 53.9096 29.5679C31.8235 46.163 15.725 69.4827 8.03686 96.0172C0.34867 122.552 1.48676 150.866 11.2799 176.697C19.5608 198.54 33.6513 217.61 51.921 231.907C57.4664 236.247 65.3896 234.426 69.1541 228.475C72.9186 222.525 71.0835 214.706 65.6484 210.229C51.9975 198.985 41.445 184.332 35.1239 167.658C27.2894 146.992 26.3789 124.341 32.5295 103.114C38.68 81.8861 51.5588 63.2304 69.2276 49.9543C83.4834 39.2427 100.235 32.5007 117.783 30.2958C124.77 29.4178 130.5 23.7916 130.5 16.75Z"/>
</mask>
<path d="M130.5 16.75C130.5 9.70837 124.777 3.93391 117.771 4.63685C94.6876 6.95277 72.5852 15.5353 53.9096 29.5679C31.8235 46.163 15.725 69.4827 8.03686 96.0172C0.34867 122.552 1.48676 150.866 11.2799 176.697C19.5608 198.54 33.6513 217.61 51.921 231.907C57.4664 236.247 65.3896 234.426 69.1541 228.475C72.9186 222.525 71.0835 214.706 65.6484 210.229C51.9975 198.985 41.445 184.332 35.1239 167.658C27.2894 146.992 26.3789 124.341 32.5295 103.114C38.68 81.8861 51.5588 63.2304 69.2276 49.9543C83.4834 39.2427 100.235 32.5007 117.783 30.2958C124.77 29.4178 130.5 23.7916 130.5 16.75Z" fill="#FFD670"/>
<path d="M130.5 16.75C130.5 9.70837 124.777 3.93391 117.771 4.63685C94.6876 6.95277 72.5852 15.5353 53.9096 29.5679C31.8235 46.163 15.725 69.4827 8.03686 96.0172C0.34867 122.552 1.48676 150.866 11.2799 176.697C19.5608 198.54 33.6513 217.61 51.921 231.907C57.4664 236.247 65.3896 234.426 69.1541 228.475C72.9186 222.525 71.0835 214.706 65.6484 210.229C51.9975 198.985 41.445 184.332 35.1239 167.658C27.2894 146.992 26.3789 124.341 32.5295 103.114C38.68 81.8861 51.5588 63.2304 69.2276 49.9543C83.4834 39.2427 100.235 32.5007 117.783 30.2958C124.77 29.4178 130.5 23.7916 130.5 16.75Z" stroke="white" stroke-width="6" mask="url(#path-4-outside-3_237_17305)"/>
<path d="M106.06 149.795C103.276 149.777 100.558 149.294 97.9067 148.347C95.2552 147.381 92.8688 145.818 90.7476 143.659C88.6264 141.481 86.9408 138.593 85.6908 134.994C84.4408 131.377 83.8252 126.898 83.8442 121.557C83.8442 116.576 84.3745 112.134 85.4351 108.233C86.4957 104.331 88.0203 101.036 90.0089 98.3466C91.9976 95.6383 94.3934 93.5739 97.1965 92.1534C100.018 90.733 103.172 90.0227 106.657 90.0227C110.312 90.0227 113.551 90.7424 116.373 92.1818C119.213 93.6212 121.505 95.5909 123.248 98.0909C124.99 100.572 126.07 103.375 126.486 106.5H116.117C115.587 104.265 114.498 102.485 112.85 101.159C111.221 99.8144 109.157 99.142 106.657 99.142C102.623 99.142 99.5165 100.894 97.3385 104.398C95.1794 107.902 94.0904 112.712 94.0714 118.83H94.4692C95.3972 117.163 96.5999 115.733 98.0771 114.54C99.5544 113.347 101.221 112.428 103.077 111.784C104.952 111.121 106.931 110.79 109.015 110.79C112.424 110.79 115.482 111.604 118.191 113.233C120.918 114.862 123.077 117.106 124.668 119.966C126.259 122.807 127.045 126.064 127.026 129.739C127.045 133.564 126.174 137.002 124.412 140.051C122.651 143.081 120.198 145.468 117.054 147.21C113.91 148.953 110.246 149.814 106.06 149.795ZM106.003 141.273C108.068 141.273 109.914 140.771 111.543 139.767C113.172 138.763 114.46 137.409 115.407 135.705C116.354 134 116.818 132.087 116.799 129.966C116.818 127.883 116.363 125.998 115.435 124.312C114.526 122.627 113.267 121.292 111.657 120.307C110.047 119.322 108.21 118.83 106.145 118.83C104.611 118.83 103.181 119.123 101.856 119.71C100.53 120.297 99.3745 121.112 98.3896 122.153C97.4048 123.176 96.6283 124.369 96.0601 125.733C95.5108 127.078 95.2268 128.517 95.2078 130.051C95.2268 132.078 95.7002 133.943 96.6283 135.648C97.5563 137.352 98.8347 138.716 100.463 139.739C102.092 140.761 103.939 141.273 106.003 141.273ZM155.734 150.108C151.056 150.108 147.041 148.924 143.688 146.557C140.355 144.17 137.789 140.733 135.99 136.244C134.209 131.737 133.319 126.311 133.319 119.966C133.338 113.621 134.238 108.223 136.018 103.773C137.817 99.303 140.384 95.8939 143.717 93.5455C147.069 91.197 151.075 90.0227 155.734 90.0227C160.393 90.0227 164.399 91.197 167.751 93.5455C171.103 95.8939 173.67 99.303 175.45 103.773C177.249 108.242 178.149 113.64 178.149 119.966C178.149 126.33 177.249 131.765 175.45 136.273C173.67 140.761 171.103 144.189 167.751 146.557C164.418 148.924 160.412 150.108 155.734 150.108ZM155.734 141.216C159.37 141.216 162.24 139.426 164.342 135.847C166.463 132.248 167.524 126.955 167.524 119.966C167.524 115.345 167.041 111.462 166.075 108.318C165.109 105.174 163.745 102.807 161.984 101.216C160.223 99.6061 158.139 98.8011 155.734 98.8011C152.117 98.8011 149.257 100.6 147.154 104.199C145.052 107.778 143.992 113.034 143.973 119.966C143.954 124.606 144.418 128.508 145.365 131.67C146.331 134.833 147.694 137.22 149.456 138.83C151.217 140.42 153.31 141.216 155.734 141.216Z" fill="#2066DA"/>
<path d="M76.6364 168.131V166.364H85.9205V168.131H82.3239V178H80.233V168.131H76.6364ZM90.0005 178.17C89.1482 178.17 88.4096 177.983 87.7846 177.608C87.1596 177.233 86.6748 176.708 86.3301 176.034C85.9891 175.36 85.8187 174.572 85.8187 173.67C85.8187 172.769 85.9891 171.979 86.3301 171.301C86.6748 170.623 87.1596 170.097 87.7846 169.722C88.4096 169.347 89.1482 169.159 90.0005 169.159C90.8528 169.159 91.5914 169.347 92.2164 169.722C92.8414 170.097 93.3244 170.623 93.6653 171.301C94.01 171.979 94.1823 172.769 94.1823 173.67C94.1823 174.572 94.01 175.36 93.6653 176.034C93.3244 176.708 92.8414 177.233 92.2164 177.608C91.5914 177.983 90.8528 178.17 90.0005 178.17ZM90.0119 176.523C90.474 176.523 90.8604 176.396 91.171 176.142C91.4816 175.884 91.7126 175.54 91.8641 175.108C92.0195 174.676 92.0971 174.195 92.0971 173.665C92.0971 173.131 92.0195 172.648 91.8641 172.216C91.7126 171.78 91.4816 171.434 91.171 171.176C90.8604 170.919 90.474 170.79 90.0119 170.79C89.5384 170.79 89.1445 170.919 88.8301 171.176C88.5195 171.434 88.2865 171.78 88.1312 172.216C87.9797 172.648 87.9039 173.131 87.9039 173.665C87.9039 174.195 87.9797 174.676 88.1312 175.108C88.2865 175.54 88.5195 175.884 88.8301 176.142C89.1445 176.396 89.5384 176.523 90.0119 176.523ZM100.126 169.273V170.864H95.109V169.273H100.126ZM96.3476 167.182H98.4044V175.375C98.4044 175.652 98.4461 175.864 98.5294 176.011C98.6166 176.155 98.7302 176.254 98.8703 176.307C99.0105 176.36 99.1658 176.386 99.3363 176.386C99.465 176.386 99.5825 176.377 99.6885 176.358C99.7984 176.339 99.8817 176.322 99.9385 176.307L100.285 177.915C100.175 177.953 100.018 177.994 99.8135 178.04C99.6128 178.085 99.3666 178.112 99.0749 178.119C98.5597 178.134 98.0957 178.057 97.6828 177.886C97.27 177.712 96.9423 177.443 96.6999 177.08C96.4613 176.716 96.3438 176.261 96.3476 175.716V167.182ZM104.198 178.176C103.645 178.176 103.146 178.078 102.703 177.881C102.264 177.68 101.915 177.384 101.658 176.994C101.404 176.604 101.277 176.123 101.277 175.551C101.277 175.059 101.368 174.652 101.55 174.33C101.732 174.008 101.98 173.75 102.294 173.557C102.609 173.364 102.963 173.218 103.357 173.119C103.754 173.017 104.165 172.943 104.59 172.898C105.101 172.845 105.516 172.797 105.834 172.756C106.152 172.71 106.383 172.642 106.527 172.551C106.675 172.456 106.749 172.311 106.749 172.114V172.08C106.749 171.652 106.622 171.32 106.368 171.085C106.114 170.85 105.749 170.733 105.271 170.733C104.768 170.733 104.368 170.843 104.073 171.062C103.781 171.282 103.584 171.542 103.482 171.841L101.561 171.568C101.713 171.038 101.963 170.595 102.311 170.239C102.66 169.879 103.086 169.61 103.59 169.432C104.093 169.25 104.65 169.159 105.26 169.159C105.681 169.159 106.099 169.208 106.516 169.307C106.932 169.405 107.313 169.568 107.658 169.795C108.002 170.019 108.279 170.324 108.487 170.71C108.699 171.097 108.806 171.58 108.806 172.159V178H106.828V176.801H106.76C106.635 177.044 106.459 177.271 106.232 177.483C106.008 177.691 105.726 177.86 105.385 177.989C105.048 178.114 104.652 178.176 104.198 178.176ZM104.732 176.665C105.145 176.665 105.502 176.583 105.806 176.42C106.109 176.254 106.341 176.034 106.504 175.761C106.671 175.489 106.754 175.191 106.754 174.869V173.841C106.69 173.894 106.58 173.943 106.425 173.989C106.273 174.034 106.103 174.074 105.913 174.108C105.724 174.142 105.537 174.172 105.351 174.199C105.165 174.225 105.004 174.248 104.868 174.267C104.561 174.309 104.287 174.377 104.044 174.472C103.802 174.566 103.61 174.699 103.47 174.869C103.33 175.036 103.26 175.252 103.26 175.517C103.26 175.896 103.398 176.182 103.675 176.375C103.951 176.568 104.304 176.665 104.732 176.665ZM112.771 166.364V178H110.714V166.364H112.771ZM128.585 170.29H126.46C126.4 169.941 126.288 169.633 126.125 169.364C125.962 169.091 125.76 168.86 125.517 168.67C125.275 168.481 124.998 168.339 124.688 168.244C124.381 168.146 124.049 168.097 123.693 168.097C123.061 168.097 122.5 168.256 122.012 168.574C121.523 168.888 121.14 169.35 120.864 169.96C120.587 170.566 120.449 171.307 120.449 172.182C120.449 173.072 120.587 173.822 120.864 174.432C121.144 175.038 121.527 175.496 122.012 175.807C122.5 176.114 123.059 176.267 123.688 176.267C124.036 176.267 124.362 176.222 124.665 176.131C124.972 176.036 125.246 175.898 125.489 175.716C125.735 175.534 125.942 175.311 126.108 175.045C126.279 174.78 126.396 174.477 126.46 174.136L128.585 174.148C128.506 174.701 128.334 175.22 128.068 175.705C127.807 176.189 127.464 176.617 127.04 176.989C126.616 177.356 126.12 177.644 125.551 177.852C124.983 178.057 124.353 178.159 123.659 178.159C122.637 178.159 121.724 177.922 120.921 177.449C120.118 176.975 119.485 176.292 119.023 175.398C118.561 174.504 118.33 173.432 118.33 172.182C118.33 170.928 118.563 169.856 119.029 168.966C119.495 168.072 120.129 167.388 120.932 166.915C121.735 166.441 122.644 166.205 123.659 166.205C124.307 166.205 124.909 166.295 125.466 166.477C126.023 166.659 126.519 166.926 126.955 167.278C127.39 167.627 127.748 168.055 128.029 168.562C128.313 169.066 128.498 169.642 128.585 170.29ZM132.322 172.886V178H130.265V166.364H132.276V170.756H132.379C132.583 170.263 132.899 169.875 133.327 169.591C133.759 169.303 134.309 169.159 134.975 169.159C135.581 169.159 136.11 169.286 136.56 169.54C137.011 169.794 137.36 170.165 137.606 170.653C137.856 171.142 137.981 171.739 137.981 172.443V178H135.924V172.761C135.924 172.174 135.773 171.718 135.469 171.392C135.17 171.062 134.75 170.898 134.208 170.898C133.844 170.898 133.519 170.977 133.231 171.136C132.947 171.292 132.723 171.517 132.56 171.812C132.401 172.108 132.322 172.466 132.322 172.886ZM142.429 178.176C141.876 178.176 141.378 178.078 140.934 177.881C140.495 177.68 140.147 177.384 139.889 176.994C139.635 176.604 139.508 176.123 139.508 175.551C139.508 175.059 139.599 174.652 139.781 174.33C139.963 174.008 140.211 173.75 140.525 173.557C140.84 173.364 141.194 173.218 141.588 173.119C141.986 173.017 142.397 172.943 142.821 172.898C143.332 172.845 143.747 172.797 144.065 172.756C144.383 172.71 144.614 172.642 144.758 172.551C144.906 172.456 144.98 172.311 144.98 172.114V172.08C144.98 171.652 144.853 171.32 144.599 171.085C144.345 170.85 143.98 170.733 143.503 170.733C142.999 170.733 142.599 170.843 142.304 171.062C142.012 171.282 141.815 171.542 141.713 171.841L139.792 171.568C139.944 171.038 140.194 170.595 140.542 170.239C140.891 169.879 141.317 169.61 141.821 169.432C142.325 169.25 142.881 169.159 143.491 169.159C143.912 169.159 144.33 169.208 144.747 169.307C145.164 169.405 145.544 169.568 145.889 169.795C146.234 170.019 146.51 170.324 146.719 170.71C146.931 171.097 147.037 171.58 147.037 172.159V178H145.059V176.801H144.991C144.866 177.044 144.69 177.271 144.463 177.483C144.239 177.691 143.957 177.86 143.616 177.989C143.279 178.114 142.883 178.176 142.429 178.176ZM142.963 176.665C143.376 176.665 143.734 176.583 144.037 176.42C144.34 176.254 144.573 176.034 144.736 175.761C144.902 175.489 144.986 175.191 144.986 174.869V173.841C144.921 173.894 144.811 173.943 144.656 173.989C144.505 174.034 144.334 174.074 144.145 174.108C143.955 174.142 143.768 174.172 143.582 174.199C143.397 174.225 143.236 174.248 143.099 174.267C142.792 174.309 142.518 174.377 142.275 174.472C142.033 174.566 141.842 174.699 141.702 174.869C141.561 175.036 141.491 175.252 141.491 175.517C141.491 175.896 141.63 176.182 141.906 176.375C142.183 176.568 142.535 176.665 142.963 176.665ZM151.002 172.886V178H148.945V169.273H150.911V170.756H151.013C151.214 170.267 151.534 169.879 151.973 169.591C152.417 169.303 152.964 169.159 153.615 169.159C154.218 169.159 154.742 169.288 155.189 169.545C155.64 169.803 155.989 170.176 156.235 170.665C156.485 171.153 156.608 171.746 156.604 172.443V178H154.547V172.761C154.547 172.178 154.396 171.722 154.093 171.392C153.793 171.062 153.379 170.898 152.848 170.898C152.489 170.898 152.168 170.977 151.888 171.136C151.612 171.292 151.394 171.517 151.235 171.812C151.079 172.108 151.002 172.466 151.002 172.886ZM162.33 181.455C161.592 181.455 160.957 181.354 160.427 181.153C159.897 180.956 159.471 180.691 159.149 180.358C158.827 180.025 158.603 179.655 158.478 179.25L160.33 178.801C160.414 178.972 160.535 179.14 160.694 179.307C160.853 179.477 161.067 179.617 161.336 179.727C161.609 179.841 161.952 179.898 162.364 179.898C162.948 179.898 163.431 179.756 163.813 179.472C164.196 179.191 164.387 178.729 164.387 178.085V176.432H164.285C164.179 176.644 164.024 176.862 163.819 177.085C163.618 177.309 163.351 177.496 163.018 177.648C162.688 177.799 162.274 177.875 161.774 177.875C161.103 177.875 160.495 177.718 159.95 177.403C159.408 177.085 158.976 176.612 158.654 175.983C158.336 175.35 158.177 174.559 158.177 173.608C158.177 172.65 158.336 171.841 158.654 171.182C158.976 170.519 159.41 170.017 159.955 169.676C160.501 169.331 161.109 169.159 161.779 169.159C162.291 169.159 162.711 169.246 163.041 169.42C163.374 169.591 163.639 169.797 163.836 170.04C164.033 170.278 164.183 170.504 164.285 170.716H164.399V169.273H166.427V178.142C166.427 178.888 166.249 179.506 165.893 179.994C165.537 180.483 165.05 180.848 164.433 181.091C163.815 181.333 163.114 181.455 162.33 181.455ZM162.347 176.261C162.783 176.261 163.154 176.155 163.461 175.943C163.768 175.731 164.001 175.426 164.16 175.028C164.319 174.631 164.399 174.153 164.399 173.597C164.399 173.047 164.319 172.566 164.16 172.153C164.005 171.741 163.774 171.42 163.467 171.193C163.164 170.962 162.791 170.847 162.347 170.847C161.889 170.847 161.507 170.966 161.2 171.205C160.893 171.443 160.662 171.771 160.507 172.188C160.351 172.6 160.274 173.07 160.274 173.597C160.274 174.131 160.351 174.598 160.507 175C160.666 175.398 160.899 175.708 161.205 175.932C161.516 176.152 161.897 176.261 162.347 176.261ZM172.239 178.17C171.364 178.17 170.608 177.989 169.972 177.625C169.339 177.258 168.852 176.739 168.511 176.068C168.17 175.394 168 174.6 168 173.688C168 172.79 168.17 172.002 168.511 171.324C168.856 170.642 169.337 170.112 169.954 169.733C170.572 169.35 171.297 169.159 172.131 169.159C172.669 169.159 173.176 169.246 173.653 169.42C174.134 169.591 174.559 169.856 174.926 170.216C175.297 170.576 175.589 171.034 175.801 171.591C176.013 172.144 176.119 172.803 176.119 173.568V174.199H168.966V172.812H174.148C174.144 172.419 174.059 172.068 173.892 171.761C173.725 171.451 173.492 171.206 173.193 171.028C172.898 170.85 172.553 170.761 172.159 170.761C171.739 170.761 171.369 170.864 171.051 171.068C170.733 171.269 170.485 171.534 170.307 171.864C170.133 172.189 170.044 172.547 170.04 172.938V174.148C170.04 174.655 170.133 175.091 170.318 175.455C170.504 175.814 170.763 176.091 171.097 176.284C171.43 176.473 171.82 176.568 172.267 176.568C172.566 176.568 172.837 176.527 173.079 176.443C173.322 176.356 173.532 176.229 173.71 176.062C173.888 175.896 174.023 175.689 174.114 175.443L176.034 175.659C175.913 176.167 175.682 176.61 175.341 176.989C175.004 177.364 174.572 177.655 174.045 177.864C173.519 178.068 172.917 178.17 172.239 178.17ZM184.597 171.58L182.722 171.784C182.669 171.595 182.576 171.417 182.444 171.25C182.315 171.083 182.141 170.949 181.921 170.847C181.701 170.744 181.432 170.693 181.114 170.693C180.686 170.693 180.326 170.786 180.035 170.972C179.747 171.157 179.605 171.398 179.608 171.693C179.605 171.947 179.697 172.153 179.887 172.312C180.08 172.472 180.398 172.602 180.841 172.705L182.33 173.023C183.156 173.201 183.769 173.483 184.171 173.869C184.576 174.256 184.781 174.761 184.785 175.386C184.781 175.936 184.62 176.42 184.302 176.841C183.987 177.258 183.55 177.583 182.989 177.818C182.428 178.053 181.785 178.17 181.057 178.17C179.989 178.17 179.129 177.947 178.478 177.5C177.826 177.049 177.438 176.422 177.313 175.619L179.319 175.426C179.41 175.82 179.603 176.117 179.898 176.318C180.194 176.519 180.578 176.619 181.052 176.619C181.54 176.619 181.932 176.519 182.228 176.318C182.527 176.117 182.677 175.869 182.677 175.574C182.677 175.324 182.58 175.117 182.387 174.955C182.197 174.792 181.902 174.667 181.5 174.58L180.012 174.267C179.175 174.093 178.555 173.799 178.154 173.386C177.752 172.97 177.553 172.443 177.557 171.807C177.553 171.269 177.699 170.803 177.995 170.409C178.294 170.011 178.709 169.705 179.239 169.489C179.773 169.269 180.389 169.159 181.086 169.159C182.108 169.159 182.913 169.377 183.5 169.812C184.091 170.248 184.457 170.837 184.597 171.58Z" fill="#909BAD"/>
</svg>
