<svg width="244" height="180" viewBox="0 0 244 180" fill="none" xmlns="http://www.w3.org/2000/svg">
<g clip-path="url(#clip0_390_20874)">
<path d="M24.9119 177.596C20.5714 180.102 14.9876 178.628 12.8139 174.112C4.95051 157.775 0.841797 139.842 0.841797 121.634C0.841796 100.394 6.43275 79.5281 17.0527 61.1338C27.6727 42.7395 42.9475 27.4647 61.3418 16.8447C79.7361 6.22475 100.602 0.633789 121.842 0.633789C143.082 0.633789 163.947 6.22475 182.342 16.8447C200.736 27.4647 216.011 42.7395 226.631 61.1338C237.251 79.5281 242.842 100.394 242.842 121.634C242.842 139.842 238.733 157.775 230.87 174.112C228.696 178.628 223.112 180.102 218.772 177.596C214.431 175.09 212.984 169.554 215.098 165.01C221.402 151.456 224.692 136.655 224.692 121.634C224.692 103.58 219.939 85.844 210.913 70.2088C201.886 54.5736 188.902 41.59 173.267 32.5631C157.632 23.5361 139.896 18.7838 121.842 18.7838C103.788 18.7838 86.052 23.5361 70.4168 32.5631C54.7816 41.59 41.798 54.5736 32.7711 70.2088C23.7441 85.844 18.9918 103.58 18.9918 121.634C18.9918 136.655 22.2815 151.456 28.5858 165.01C30.6996 169.554 29.2524 175.09 24.9119 177.596Z" fill="#EFEFEF"/>
<path d="M24.9119 177.596C20.5714 180.102 14.9876 178.628 12.8137 174.112C0.297674 148.111 -2.55528 118.382 4.96477 90.3167C13.2706 59.319 33.55 32.8903 61.3418 16.8447C89.1336 0.799122 122.161 -3.54905 153.159 4.75676C181.224 12.2768 205.544 29.6121 221.803 53.4516C224.627 57.5923 223.112 63.1653 218.772 65.6713C214.431 68.1773 208.913 66.6619 206.034 62.559C192.222 42.8725 171.875 28.562 148.461 22.2883C122.113 15.2284 94.0398 18.9243 70.4168 32.5631C46.7938 46.2018 29.5563 68.6662 22.4963 95.0143C16.2226 118.428 18.4425 143.204 28.5854 165.009C30.6993 169.554 29.2524 175.09 24.9119 177.596Z" fill="#2A85FF"/>
<mask id="path-3-outside-1_390_20874" maskUnits="userSpaceOnUse" x="20.8418" y="2.63379" width="79" height="62" fill="black">
<rect fill="white" x="20.8418" y="2.63379" width="79" height="62"/>
<path d="M96.5339 12.6524C95.3935 7.76513 90.4932 4.69451 85.705 6.19774C62.0812 13.6145 41.2889 28.0992 26.1453 47.6891C23.076 51.6597 24.2583 57.3205 28.4475 60.0838C32.6368 62.8471 38.2428 61.6611 41.3644 57.7316C53.8777 41.9796 70.7392 30.2333 89.8514 23.9538C94.6192 22.3873 97.6743 17.5396 96.5339 12.6524Z"/>
</mask>
<path d="M96.5339 12.6524C95.3935 7.76513 90.4932 4.69451 85.705 6.19774C62.0812 13.6145 41.2889 28.0992 26.1453 47.6891C23.076 51.6597 24.2583 57.3205 28.4475 60.0838C32.6368 62.8471 38.2428 61.6611 41.3644 57.7316C53.8777 41.9796 70.7392 30.2333 89.8514 23.9538C94.6192 22.3873 97.6743 17.5396 96.5339 12.6524Z" fill="#DEF1A8"/>
<path d="M96.5339 12.6524C95.3935 7.76513 90.4932 4.69451 85.705 6.19774C62.0812 13.6145 41.2889 28.0992 26.1453 47.6891C23.076 51.6597 24.2583 57.3205 28.4475 60.0838C32.6368 62.8471 38.2428 61.6611 41.3644 57.7316C53.8777 41.9796 70.7392 30.2333 89.8514 23.9538C94.6192 22.3873 97.6743 17.5396 96.5339 12.6524Z" stroke="white" stroke-width="5.70157" mask="url(#path-3-outside-1_390_20874)"/>
<mask id="path-4-outside-2_390_20874" maskUnits="userSpaceOnUse" x="58.8418" y="-2.36621" width="177" height="89" fill="black">
<rect fill="white" x="58.8418" y="-2.36621" width="177" height="89"/>
<path d="M226.97 82.5326C231.671 80.7745 234.087 75.521 231.982 70.9654C225.778 57.5414 217.158 45.3423 206.526 34.9897C193.721 22.5199 178.315 13.0379 161.413 7.22351C144.511 1.40911 126.532 -0.593653 108.765 1.35881C94.0149 2.97978 79.7139 7.29362 66.5644 14.0599C62.102 16.3562 60.7751 21.9845 63.3992 26.2623C66.0234 30.5401 71.6035 31.8411 76.0959 29.6041C86.9363 24.2063 98.666 20.7518 110.751 19.4238C125.853 17.7642 141.135 19.4666 155.501 24.4088C169.868 29.351 182.963 37.4107 193.847 48.01C202.557 56.4916 209.679 66.4313 214.905 77.3559C217.07 81.8833 222.27 84.2906 226.97 82.5326Z"/>
</mask>
<path d="M226.97 82.5326C231.671 80.7745 234.087 75.521 231.982 70.9654C225.778 57.5414 217.158 45.3423 206.526 34.9897C193.721 22.5199 178.315 13.0379 161.413 7.22351C144.511 1.40911 126.532 -0.593653 108.765 1.35881C94.0149 2.97978 79.7139 7.29362 66.5644 14.0599C62.102 16.3562 60.7751 21.9845 63.3992 26.2623C66.0234 30.5401 71.6035 31.8411 76.0959 29.6041C86.9363 24.2063 98.666 20.7518 110.751 19.4238C125.853 17.7642 141.135 19.4666 155.501 24.4088C169.868 29.351 182.963 37.4107 193.847 48.01C202.557 56.4916 209.679 66.4313 214.905 77.3559C217.07 81.8833 222.27 84.2906 226.97 82.5326Z" fill="#FFD670"/>
<path d="M226.97 82.5326C231.671 80.7745 234.087 75.521 231.982 70.9654C225.778 57.5414 217.158 45.3423 206.526 34.9897C193.721 22.5199 178.315 13.0379 161.413 7.22351C144.511 1.40911 126.532 -0.593653 108.765 1.35881C94.0149 2.97978 79.7139 7.29362 66.5644 14.0599C62.102 16.3562 60.7751 21.9845 63.3992 26.2623C66.0234 30.5401 71.6035 31.8411 76.0959 29.6041C86.9363 24.2063 98.666 20.7518 110.751 19.4238C125.853 17.7642 141.135 19.4666 155.501 24.4088C169.868 29.351 182.963 37.4107 193.847 48.01C202.557 56.4916 209.679 66.4313 214.905 77.3559C217.07 81.8833 222.27 84.2906 226.97 82.5326Z" stroke="white" stroke-width="5.70157" mask="url(#path-4-outside-2_390_20874)"/>
<mask id="path-5-outside-3_390_20874" maskUnits="userSpaceOnUse" x="208.842" y="56.6338" width="38" height="125" fill="black">
<rect fill="white" x="208.842" y="56.6338" width="38" height="125"/>
<path d="M219.651 176.786C224.024 179.249 229.599 177.713 231.727 173.168C239.747 156.039 243.663 137.23 243.107 118.241C242.55 99.2524 237.538 80.7046 228.528 64.0757C226.137 59.6632 220.482 58.4563 216.261 61.1709C212.04 63.8855 210.858 69.4921 213.19 73.9358C220.445 87.7595 224.481 103.09 224.941 118.774C225.4 134.458 222.27 149.998 215.838 164.223C213.77 168.796 215.278 174.324 219.651 176.786Z"/>
</mask>
<path d="M219.651 176.786C224.024 179.249 229.599 177.713 231.727 173.168C239.747 156.039 243.663 137.23 243.107 118.241C242.55 99.2524 237.538 80.7046 228.528 64.0757C226.137 59.6632 220.482 58.4563 216.261 61.1709C212.04 63.8855 210.858 69.4921 213.19 73.9358C220.445 87.7595 224.481 103.09 224.941 118.774C225.4 134.458 222.27 149.998 215.838 164.223C213.77 168.796 215.278 174.324 219.651 176.786Z" fill="#38A3A5"/>
<path d="M219.651 176.786C224.024 179.249 229.599 177.713 231.727 173.168C239.747 156.039 243.663 137.23 243.107 118.241C242.55 99.2524 237.538 80.7046 228.528 64.0757C226.137 59.6632 220.482 58.4563 216.261 61.1709C212.04 63.8855 210.858 69.4921 213.19 73.9358C220.445 87.7595 224.481 103.09 224.941 118.774C225.4 134.458 222.27 149.998 215.838 164.223C213.77 168.796 215.278 174.324 219.651 176.786Z" stroke="white" stroke-width="5.70157" mask="url(#path-5-outside-3_390_20874)"/>
</g>
<path d="M97.0601 126.795C94.276 126.777 91.5582 126.294 88.9067 125.347C86.2552 124.381 83.8688 122.818 81.7476 120.659C79.6264 118.481 77.9408 115.593 76.6908 111.994C75.4408 108.377 74.8252 103.898 74.8442 98.5568C74.8442 93.5758 75.3745 89.1345 76.4351 85.233C77.4957 81.3314 79.0203 78.036 81.0089 75.3466C82.9976 72.6383 85.3934 70.5739 88.1965 69.1534C91.0184 67.733 94.1718 67.0227 97.6567 67.0227C101.312 67.0227 104.551 67.7424 107.373 69.1818C110.213 70.6212 112.505 72.5909 114.248 75.0909C115.99 77.572 117.07 80.375 117.486 83.5H107.117C106.587 81.2652 105.498 79.4848 103.85 78.1591C102.221 76.8144 100.157 76.142 97.6567 76.142C93.6226 76.142 90.5165 77.8939 88.3385 81.3977C86.1794 84.9015 85.0904 89.7121 85.0714 95.8295H85.4692C86.3972 94.1629 87.5999 92.733 89.0771 91.5398C90.5544 90.3466 92.2211 89.428 94.0771 88.7841C95.9521 88.1212 97.9313 87.7898 100.015 87.7898C103.424 87.7898 106.482 88.6042 109.191 90.233C111.918 91.8617 114.077 94.1061 115.668 96.9659C117.259 99.8068 118.045 103.064 118.026 106.739C118.045 110.564 117.174 114.002 115.412 117.051C113.651 120.081 111.198 122.468 108.054 124.21C104.91 125.953 101.246 126.814 97.0601 126.795ZM97.0033 118.273C99.0677 118.273 100.914 117.771 102.543 116.767C104.172 115.763 105.46 114.409 106.407 112.705C107.354 111 107.818 109.087 107.799 106.966C107.818 104.883 107.363 102.998 106.435 101.312C105.526 99.6269 104.267 98.2917 102.657 97.3068C101.047 96.322 99.2097 95.8295 97.1453 95.8295C95.6112 95.8295 94.1813 96.1231 92.8555 96.7102C91.5298 97.2973 90.3745 98.1117 89.3896 99.1534C88.4048 100.176 87.6283 101.369 87.0601 102.733C86.5108 104.078 86.2268 105.517 86.2078 107.051C86.2268 109.078 86.7002 110.943 87.6283 112.648C88.5563 114.352 89.8347 115.716 91.4635 116.739C93.0923 117.761 94.9389 118.273 97.0033 118.273ZM146.734 127.108C142.056 127.108 138.041 125.924 134.688 123.557C131.355 121.17 128.789 117.733 126.99 113.244C125.209 108.737 124.319 103.311 124.319 96.9659C124.338 90.6212 125.238 85.2235 127.018 80.7727C128.817 76.303 131.384 72.8939 134.717 70.5455C138.069 68.197 142.075 67.0227 146.734 67.0227C151.393 67.0227 155.399 68.197 158.751 70.5455C162.103 72.8939 164.67 76.303 166.45 80.7727C168.249 85.2424 169.149 90.6402 169.149 96.9659C169.149 103.33 168.249 108.765 166.45 113.273C164.67 117.761 162.103 121.189 158.751 123.557C155.418 125.924 151.412 127.108 146.734 127.108ZM146.734 118.216C150.37 118.216 153.24 116.426 155.342 112.847C157.463 109.248 158.524 103.955 158.524 96.9659C158.524 92.3447 158.041 88.4621 157.075 85.3182C156.109 82.1742 154.745 79.8068 152.984 78.2159C151.223 76.6061 149.139 75.8011 146.734 75.8011C143.117 75.8011 140.257 77.6004 138.154 81.1989C136.052 84.7784 134.992 90.0341 134.973 96.9659C134.954 101.606 135.418 105.508 136.365 108.67C137.331 111.833 138.694 114.22 140.456 115.83C142.217 117.42 144.31 118.216 146.734 118.216Z" fill="#2066DA"/>
<path d="M87.5455 149.182C87.5455 150.436 87.3106 151.509 86.8409 152.403C86.375 153.294 85.7386 153.975 84.9318 154.449C84.1288 154.922 83.2178 155.159 82.1989 155.159C81.1799 155.159 80.267 154.922 79.4602 154.449C78.6572 153.972 78.0208 153.288 77.5511 152.398C77.0852 151.504 76.8523 150.432 76.8523 149.182C76.8523 147.928 77.0852 146.856 77.5511 145.966C78.0208 145.072 78.6572 144.388 79.4602 143.915C80.267 143.441 81.1799 143.205 82.1989 143.205C83.2178 143.205 84.1288 143.441 84.9318 143.915C85.7386 144.388 86.375 145.072 86.8409 145.966C87.3106 146.856 87.5455 147.928 87.5455 149.182ZM85.4261 149.182C85.4261 148.299 85.2879 147.555 85.0114 146.949C84.7386 146.339 84.3598 145.879 83.875 145.568C83.3902 145.254 82.8314 145.097 82.1989 145.097C81.5663 145.097 81.0076 145.254 80.5227 145.568C80.0379 145.879 79.6572 146.339 79.3807 146.949C79.108 147.555 78.9716 148.299 78.9716 149.182C78.9716 150.064 79.108 150.811 79.3807 151.42C79.6572 152.027 80.0379 152.487 80.5227 152.801C81.0076 153.112 81.5663 153.267 82.1989 153.267C82.8314 153.267 83.3902 153.112 83.875 152.801C84.3598 152.487 84.7386 152.027 85.0114 151.42C85.2879 150.811 85.4261 150.064 85.4261 149.182ZM96.7136 143.364H98.8215V150.966C98.8215 151.799 98.6246 152.532 98.2306 153.165C97.8405 153.797 97.2912 154.292 96.5829 154.648C95.8746 155 95.0469 155.176 94.0999 155.176C93.1492 155.176 92.3196 155 91.6113 154.648C90.903 154.292 90.3537 153.797 89.9636 153.165C89.5734 152.532 89.3784 151.799 89.3784 150.966V143.364H91.4863V150.79C91.4863 151.275 91.5924 151.706 91.8045 152.085C92.0204 152.464 92.3234 152.761 92.7136 152.977C93.1037 153.189 93.5659 153.295 94.0999 153.295C94.634 153.295 95.0962 153.189 95.4863 152.977C95.8802 152.761 96.1833 152.464 96.3954 152.085C96.6075 151.706 96.7136 151.275 96.7136 150.79V143.364ZM100.441 145.131V143.364H109.725V145.131H106.129V155H104.038V145.131H100.441ZM125.562 149.182C125.562 150.436 125.327 151.509 124.857 152.403C124.391 153.294 123.755 153.975 122.948 154.449C122.145 154.922 121.234 155.159 120.215 155.159C119.196 155.159 118.283 154.922 117.476 154.449C116.673 153.972 116.037 153.288 115.567 152.398C115.101 151.504 114.869 150.432 114.869 149.182C114.869 147.928 115.101 146.856 115.567 145.966C116.037 145.072 116.673 144.388 117.476 143.915C118.283 143.441 119.196 143.205 120.215 143.205C121.234 143.205 122.145 143.441 122.948 143.915C123.755 144.388 124.391 145.072 124.857 145.966C125.327 146.856 125.562 147.928 125.562 149.182ZM123.442 149.182C123.442 148.299 123.304 147.555 123.028 146.949C122.755 146.339 122.376 145.879 121.891 145.568C121.406 145.254 120.848 145.097 120.215 145.097C119.583 145.097 119.024 145.254 118.539 145.568C118.054 145.879 117.673 146.339 117.397 146.949C117.124 147.555 116.988 148.299 116.988 149.182C116.988 150.064 117.124 150.811 117.397 151.42C117.673 152.027 118.054 152.487 118.539 152.801C119.024 153.112 119.583 153.267 120.215 153.267C120.848 153.267 121.406 153.112 121.891 152.801C122.376 152.487 122.755 152.027 123.028 151.42C123.304 150.811 123.442 150.064 123.442 149.182ZM127.395 155V143.364H134.849V145.131H129.503V148.29H134.338V150.057H129.503V155H127.395ZM145.038 143.364V155H142.93V145.415H142.862L140.14 147.153V145.222L143.032 143.364H145.038ZM152.133 155.222C151.198 155.222 150.395 154.985 149.724 154.511C149.058 154.034 148.544 153.347 148.184 152.449C147.828 151.547 147.65 150.462 147.65 149.193C147.654 147.924 147.834 146.845 148.19 145.955C148.55 145.061 149.063 144.379 149.73 143.909C150.4 143.439 151.202 143.205 152.133 143.205C153.065 143.205 153.866 143.439 154.537 143.909C155.207 144.379 155.72 145.061 156.077 145.955C156.436 146.848 156.616 147.928 156.616 149.193C156.616 150.466 156.436 151.553 156.077 152.455C155.72 153.352 155.207 154.038 154.537 154.511C153.87 154.985 153.069 155.222 152.133 155.222ZM152.133 153.443C152.861 153.443 153.434 153.085 153.855 152.369C154.279 151.65 154.491 150.591 154.491 149.193C154.491 148.269 154.395 147.492 154.202 146.864C154.008 146.235 153.736 145.761 153.383 145.443C153.031 145.121 152.614 144.96 152.133 144.96C151.41 144.96 150.838 145.32 150.417 146.04C149.997 146.756 149.785 147.807 149.781 149.193C149.777 150.121 149.87 150.902 150.059 151.534C150.253 152.167 150.525 152.644 150.878 152.966C151.23 153.284 151.649 153.443 152.133 153.443ZM162.645 155.222C161.71 155.222 160.907 154.985 160.236 154.511C159.569 154.034 159.056 153.347 158.696 152.449C158.34 151.547 158.162 150.462 158.162 149.193C158.166 147.924 158.346 146.845 158.702 145.955C159.062 145.061 159.575 144.379 160.242 143.909C160.912 143.439 161.713 143.205 162.645 143.205C163.577 143.205 164.378 143.439 165.049 143.909C165.719 144.379 166.232 145.061 166.588 145.955C166.948 146.848 167.128 147.928 167.128 149.193C167.128 150.466 166.948 151.553 166.588 152.455C166.232 153.352 165.719 154.038 165.049 154.511C164.382 154.985 163.581 155.222 162.645 155.222ZM162.645 153.443C163.372 153.443 163.946 153.085 164.367 152.369C164.791 151.65 165.003 150.591 165.003 149.193C165.003 148.269 164.907 147.492 164.713 146.864C164.52 146.235 164.247 145.761 163.895 145.443C163.543 145.121 163.126 144.96 162.645 144.96C161.922 144.96 161.35 145.32 160.929 146.04C160.509 146.756 160.297 147.807 160.293 149.193C160.289 150.121 160.382 150.902 160.571 151.534C160.765 152.167 161.037 152.644 161.39 152.966C161.742 153.284 162.16 153.443 162.645 153.443Z" fill="#909BAD"/>
<defs>
<clipPath id="clip0_390_20874">
<rect width="242.317" height="178.649" fill="white" transform="translate(0.841797 0.633789)"/>
</clipPath>
</defs>
</svg>
