<svg width="1272" height="252" viewBox="0 0 1272 252" fill="none" xmlns="http://www.w3.org/2000/svg">
<rect width="1272" height="252" rx="8" fill="white"/>
<path d="M0.839489 10V9.04545L3.79261 5.9858C4.10795 5.65341 4.3679 5.36222 4.57244 5.11222C4.77983 4.85937 4.93466 4.61932 5.03693 4.39205C5.1392 4.16477 5.19034 3.9233 5.19034 3.66761C5.19034 3.37784 5.12216 3.12784 4.9858 2.91761C4.84943 2.70455 4.66335 2.54119 4.42756 2.42756C4.19176 2.31108 3.92614 2.25284 3.63068 2.25284C3.31818 2.25284 3.04545 2.31676 2.8125 2.4446C2.57955 2.57244 2.40057 2.75284 2.27557 2.9858C2.15057 3.21875 2.08807 3.49148 2.08807 3.80398H0.830966C0.830966 3.27273 0.953125 2.80824 1.19744 2.41051C1.44176 2.01278 1.77699 1.70455 2.20312 1.4858C2.62926 1.2642 3.11364 1.15341 3.65625 1.15341C4.20455 1.15341 4.6875 1.26278 5.10511 1.48153C5.52557 1.69744 5.85369 1.9929 6.08949 2.3679C6.32528 2.74006 6.44318 3.16051 6.44318 3.62926C6.44318 3.95312 6.3821 4.26989 6.25994 4.57955C6.14063 4.8892 5.93182 5.23437 5.63352 5.61506C5.33523 5.9929 4.92045 6.4517 4.3892 6.99148L2.65483 8.80682V8.87074H6.58381V10H0.839489ZM10.9595 10.1193C10.4255 10.1193 9.94534 10.017 9.5192 9.8125C9.09591 9.60511 8.75784 9.32102 8.505 8.96023C8.25216 8.59943 8.11722 8.1875 8.10017 7.72443H9.37858C9.40983 8.09943 9.57602 8.40767 9.87716 8.64915C10.1783 8.89062 10.5391 9.01136 10.9595 9.01136C11.2948 9.01136 11.5916 8.93466 11.8502 8.78125C12.1115 8.625 12.3161 8.41051 12.4638 8.13778C12.6144 7.86506 12.6897 7.55398 12.6897 7.20455C12.6897 6.84943 12.613 6.53267 12.4595 6.25426C12.3061 5.97585 12.0945 5.7571 11.8246 5.59801C11.5576 5.43892 11.2507 5.35795 10.9041 5.35511C10.6399 5.35511 10.3743 5.40057 10.1073 5.49148C9.84023 5.58239 9.62432 5.7017 9.45955 5.84943L8.25358 5.67045L8.74364 1.27273H13.5419V2.40199H9.83881L9.56182 4.84375H9.61295C9.78341 4.67898 10.0093 4.54119 10.2905 4.4304C10.5746 4.3196 10.8786 4.2642 11.2024 4.2642C11.7337 4.2642 12.2067 4.39062 12.6215 4.64347C13.0391 4.89631 13.3672 5.24148 13.6059 5.67898C13.8473 6.11364 13.9666 6.61364 13.9638 7.17898C13.9666 7.74432 13.8388 8.24858 13.5803 8.69176C13.3246 9.13494 12.9695 9.48437 12.5149 9.74006C12.0632 9.9929 11.5448 10.1193 10.9595 10.1193Z" fill="#6F767E"/>
<path d="M0.839489 62V61.0455L3.79261 57.9858C4.10795 57.6534 4.3679 57.3622 4.57244 57.1122C4.77983 56.8594 4.93466 56.6193 5.03693 56.392C5.1392 56.1648 5.19034 55.9233 5.19034 55.6676C5.19034 55.3778 5.12216 55.1278 4.9858 54.9176C4.84943 54.7045 4.66335 54.5412 4.42756 54.4276C4.19176 54.3111 3.92614 54.2528 3.63068 54.2528C3.31818 54.2528 3.04545 54.3168 2.8125 54.4446C2.57955 54.5724 2.40057 54.7528 2.27557 54.9858C2.15057 55.2187 2.08807 55.4915 2.08807 55.804H0.830966C0.830966 55.2727 0.953125 54.8082 1.19744 54.4105C1.44176 54.0128 1.77699 53.7045 2.20312 53.4858C2.62926 53.2642 3.11364 53.1534 3.65625 53.1534C4.20455 53.1534 4.6875 53.2628 5.10511 53.4815C5.52557 53.6974 5.85369 53.9929 6.08949 54.3679C6.32528 54.7401 6.44318 55.1605 6.44318 55.6293C6.44318 55.9531 6.3821 56.2699 6.25994 56.5795C6.14063 56.8892 5.93182 57.2344 5.63352 57.6151C5.33523 57.9929 4.92045 58.4517 4.3892 58.9915L2.65483 60.8068V60.8707H6.58381V62H0.839489ZM11.1172 62.1449C10.4439 62.142 9.86864 61.9645 9.39136 61.6122C8.91409 61.2599 8.54903 60.7472 8.29619 60.0739C8.04335 59.4006 7.91693 58.5895 7.91693 57.6406C7.91693 56.6946 8.04335 55.8864 8.29619 55.2159C8.55188 54.5455 8.91835 54.0341 9.39563 53.6818C9.87574 53.3295 10.4496 53.1534 11.1172 53.1534C11.7848 53.1534 12.3573 53.331 12.8345 53.6861C13.3118 54.0384 13.6769 54.5497 13.9297 55.2202C14.1854 55.8878 14.3132 56.6946 14.3132 57.6406C14.3132 58.5923 14.1868 59.4048 13.934 60.0781C13.6811 60.7486 13.3161 61.2614 12.8388 61.6165C12.3615 61.9688 11.7877 62.1449 11.1172 62.1449ZM11.1172 61.0071C11.7081 61.0071 12.1698 60.7188 12.5022 60.142C12.8374 59.5653 13.005 58.7315 13.005 57.6406C13.005 56.9162 12.9283 56.304 12.7749 55.804C12.6243 55.3011 12.407 54.9205 12.1229 54.6619C11.8416 54.4006 11.5064 54.2699 11.1172 54.2699C10.5291 54.2699 10.0675 54.5597 9.73227 55.1392C9.39705 55.7187 9.22801 56.5526 9.22517 57.6406C9.22517 58.3679 9.30045 58.983 9.45102 59.4858C9.60443 59.9858 9.82176 60.3651 10.103 60.6236C10.3843 60.8793 10.7223 61.0071 11.1172 61.0071Z" fill="#6F767E"/>
<path d="M4.15057 105.273V114H2.82955V106.594H2.77841L0.690341 107.957V106.696L2.8679 105.273H4.15057ZM9.27205 114.119C8.73795 114.119 8.25784 114.017 7.8317 113.812C7.40841 113.605 7.07034 113.321 6.8175 112.96C6.56466 112.599 6.42972 112.188 6.41267 111.724H7.69108C7.72233 112.099 7.88852 112.408 8.18966 112.649C8.4908 112.891 8.85159 113.011 9.27205 113.011C9.60727 113.011 9.90415 112.935 10.1627 112.781C10.424 112.625 10.6286 112.411 10.7763 112.138C10.9269 111.865 11.0022 111.554 11.0022 111.205C11.0022 110.849 10.9255 110.533 10.772 110.254C10.6186 109.976 10.407 109.757 10.1371 109.598C9.87006 109.439 9.56324 109.358 9.21665 109.355C8.95244 109.355 8.68682 109.401 8.41977 109.491C8.15273 109.582 7.93682 109.702 7.77205 109.849L6.56608 109.67L7.05614 105.273H11.8544V106.402H8.15131L7.87432 108.844H7.92545C8.09591 108.679 8.32176 108.541 8.60301 108.43C8.8871 108.32 9.19108 108.264 9.51494 108.264C10.0462 108.264 10.5192 108.391 10.934 108.643C11.3516 108.896 11.6797 109.241 11.9184 109.679C12.1598 110.114 12.2791 110.614 12.2763 111.179C12.2791 111.744 12.1513 112.249 11.8928 112.692C11.6371 113.135 11.282 113.484 10.8274 113.74C10.3757 113.993 9.85727 114.119 9.27205 114.119Z" fill="#6F767E"/>
<path d="M4.15057 157.273V166H2.82955V158.594H2.77841L0.690341 159.957V158.696L2.8679 157.273H4.15057ZM9.42972 166.145C8.75642 166.142 8.18114 165.964 7.70386 165.612C7.22659 165.26 6.86153 164.747 6.60869 164.074C6.35585 163.401 6.22943 162.589 6.22943 161.641C6.22943 160.695 6.35585 159.886 6.60869 159.216C6.86438 158.545 7.23085 158.034 7.70813 157.682C8.18824 157.33 8.7621 157.153 9.42972 157.153C10.0973 157.153 10.6698 157.331 11.147 157.686C11.6243 158.038 11.9894 158.55 12.2422 159.22C12.4979 159.888 12.6257 160.695 12.6257 161.641C12.6257 162.592 12.4993 163.405 12.2465 164.078C11.9936 164.749 11.6286 165.261 11.1513 165.616C10.674 165.969 10.1002 166.145 9.42972 166.145ZM9.42972 165.007C10.0206 165.007 10.4823 164.719 10.8147 164.142C11.1499 163.565 11.3175 162.732 11.3175 161.641C11.3175 160.916 11.2408 160.304 11.0874 159.804C10.9368 159.301 10.7195 158.92 10.4354 158.662C10.1541 158.401 9.81892 158.27 9.42972 158.27C8.84165 158.27 8.38 158.56 8.04477 159.139C7.70955 159.719 7.54051 160.553 7.53767 161.641C7.53767 162.368 7.61295 162.983 7.76352 163.486C7.91693 163.986 8.13426 164.365 8.41551 164.624C8.69676 164.879 9.03483 165.007 9.42972 165.007Z" fill="#6F767E"/>
<path d="M3.72017 218.119C3.18608 218.119 2.70597 218.017 2.27983 217.812C1.85653 217.605 1.51847 217.321 1.26562 216.96C1.01278 216.599 0.877841 216.188 0.860795 215.724H2.1392C2.17045 216.099 2.33665 216.408 2.63778 216.649C2.93892 216.891 3.29972 217.011 3.72017 217.011C4.0554 217.011 4.35227 216.935 4.6108 216.781C4.87216 216.625 5.0767 216.411 5.22443 216.138C5.375 215.865 5.45028 215.554 5.45028 215.205C5.45028 214.849 5.37358 214.533 5.22017 214.254C5.06676 213.976 4.85511 213.757 4.58523 213.598C4.31818 213.439 4.01136 213.358 3.66477 213.355C3.40057 213.355 3.13494 213.401 2.8679 213.491C2.60085 213.582 2.38494 213.702 2.22017 213.849L1.0142 213.67L1.50426 209.273H6.30256V210.402H2.59943L2.32244 212.844H2.37358C2.54403 212.679 2.76989 212.541 3.05114 212.43C3.33523 212.32 3.6392 212.264 3.96307 212.264C4.49432 212.264 4.96733 212.391 5.3821 212.643C5.79972 212.896 6.12784 213.241 6.36648 213.679C6.60795 214.114 6.72727 214.614 6.72443 215.179C6.72727 215.744 6.59943 216.249 6.34091 216.692C6.08523 217.135 5.73011 217.484 5.27557 217.74C4.82386 217.993 4.3054 218.119 3.72017 218.119Z" fill="#6F767E"/>
<path d="M60.5 132C60.5 130.895 61.3954 130 62.5 130H92.5C93.6046 130 94.5 130.895 94.5 132V136H60.5V132Z" fill="#B6DCFF"/>
<rect x="60.5" y="136" width="34" height="10" fill="#38A3A5"/>
<rect x="60.5" y="146" width="34" height="20" fill="#FFD670"/>
<path d="M60.5 166H94.5V210C94.5 211.105 93.6046 212 92.5 212H62.5C61.3954 212 60.5 211.105 60.5 210V166Z" fill="#2A85FF"/>
<path d="M62.8778 248.145C62.2045 248.142 61.6293 247.964 61.152 247.612C60.6747 247.26 60.3097 246.747 60.0568 246.074C59.804 245.401 59.6776 244.589 59.6776 243.641C59.6776 242.695 59.804 241.886 60.0568 241.216C60.3125 240.545 60.679 240.034 61.1562 239.682C61.6364 239.33 62.2102 239.153 62.8778 239.153C63.5455 239.153 64.1179 239.331 64.5952 239.686C65.0724 240.038 65.4375 240.55 65.6903 241.22C65.946 241.888 66.0739 242.695 66.0739 243.641C66.0739 244.592 65.9474 245.405 65.6946 246.078C65.4418 246.749 65.0767 247.261 64.5994 247.616C64.1222 247.969 63.5483 248.145 62.8778 248.145ZM62.8778 247.007C63.4688 247.007 63.9304 246.719 64.2628 246.142C64.598 245.565 64.7656 244.732 64.7656 243.641C64.7656 242.916 64.6889 242.304 64.5355 241.804C64.3849 241.301 64.1676 240.92 63.8835 240.662C63.6023 240.401 63.267 240.27 62.8778 240.27C62.2898 240.27 61.8281 240.56 61.4929 241.139C61.1577 241.719 60.9886 242.553 60.9858 243.641C60.9858 244.368 61.0611 244.983 61.2116 245.486C61.3651 245.986 61.5824 246.365 61.8636 246.624C62.1449 246.879 62.483 247.007 62.8778 247.007ZM70.7767 239.273V248H69.4556V240.594H69.4045L67.3164 241.957V240.696L69.494 239.273H70.7767ZM83.7735 243.636C83.7735 244.568 83.6031 245.369 83.2622 246.04C82.9212 246.707 82.4539 247.222 81.8602 247.582C81.2693 247.94 80.5974 248.119 79.8445 248.119C79.0889 248.119 78.4141 247.94 77.8204 247.582C77.2295 247.222 76.7636 246.706 76.4227 246.036C76.0818 245.365 75.9113 244.565 75.9113 243.636C75.9113 242.705 76.0818 241.905 76.4227 241.237C76.7636 240.567 77.2295 240.053 77.8204 239.695C78.4141 239.334 79.0889 239.153 79.8445 239.153C80.5974 239.153 81.2693 239.334 81.8602 239.695C82.4539 240.053 82.9212 240.567 83.2622 241.237C83.6031 241.905 83.7735 242.705 83.7735 243.636ZM82.4695 243.636C82.4695 242.926 82.3545 242.328 82.1244 241.842C81.8971 241.354 81.5846 240.984 81.1869 240.734C80.792 240.482 80.3445 240.355 79.8445 240.355C79.3417 240.355 78.8928 240.482 78.498 240.734C78.1031 240.984 77.7906 241.354 77.5605 241.842C77.3332 242.328 77.2195 242.926 77.2195 243.636C77.2195 244.347 77.3332 244.946 77.5605 245.435C77.7906 245.92 78.1031 246.29 78.498 246.543C78.8928 246.793 79.3417 246.918 79.8445 246.918C80.3445 246.918 80.792 246.793 81.1869 246.543C81.5846 246.29 81.8971 245.92 82.1244 245.435C82.3545 244.946 82.4695 244.347 82.4695 243.636ZM87.95 248.132C87.3165 248.132 86.7711 247.989 86.3137 247.702C85.8591 247.412 85.5097 247.013 85.2654 246.504C85.0211 245.996 84.8989 245.413 84.8989 244.757C84.8989 244.092 85.0239 243.506 85.2739 242.997C85.5239 242.486 85.8762 242.087 86.3307 241.8C86.7853 241.513 87.3208 241.369 87.9373 241.369C88.4344 241.369 88.8776 241.462 89.2668 241.646C89.656 241.828 89.9699 242.084 90.2086 242.413C90.45 242.743 90.5935 243.128 90.639 243.568H89.3989C89.3307 243.261 89.1745 242.997 88.9302 242.776C88.6887 242.554 88.3648 242.443 87.9586 242.443C87.6035 242.443 87.2924 242.537 87.0253 242.724C86.7611 242.909 86.5552 243.173 86.4074 243.517C86.2597 243.858 86.1858 244.261 86.1858 244.727C86.1858 245.205 86.2583 245.616 86.4032 245.963C86.5481 246.31 86.7526 246.578 87.0168 246.768C87.2838 246.959 87.5978 247.054 87.9586 247.054C88.2 247.054 88.4188 247.01 88.6148 246.922C88.8137 246.831 88.9799 246.702 89.1134 246.534C89.2498 246.366 89.3449 246.165 89.3989 245.929H90.639C90.5935 246.352 90.4557 246.73 90.2256 247.062C89.9955 247.395 89.6873 247.656 89.3009 247.847C88.9174 248.037 88.4671 248.132 87.95 248.132ZM94.9369 241.455V242.477H91.3616V241.455H94.9369ZM92.3205 239.886H93.5946V246.078C93.5946 246.325 93.6315 246.511 93.7054 246.636C93.7793 246.759 93.8744 246.842 93.9909 246.888C94.1102 246.93 94.2395 246.952 94.3787 246.952C94.481 246.952 94.5705 246.945 94.6472 246.93C94.7239 246.916 94.7835 246.905 94.8261 246.896L95.0563 247.949C94.9824 247.977 94.8773 248.006 94.7409 248.034C94.6045 248.065 94.4341 248.082 94.2295 248.085C93.8943 248.091 93.5818 248.031 93.292 247.906C93.0023 247.781 92.7679 247.588 92.5889 247.327C92.4099 247.065 92.3205 246.737 92.3205 246.342V239.886Z" fill="#6F767E"/>
<rect x="171.667" y="34" width="1" height="194" rx="0.5" fill="#EFEFEF"/>
<path d="M250.833 75C250.833 73.8954 251.728 73 252.833 73H282.833C283.938 73 284.833 73.8954 284.833 75V90H250.833V75Z" fill="#B6DCFF"/>
<rect x="250.833" y="90" width="34" height="7" fill="#38A3A5"/>
<rect x="250.833" y="97" width="34" height="21" fill="#FFD670"/>
<path d="M250.833 118H284.833V210C284.833 211.105 283.938 212 282.833 212H252.833C251.728 212 250.833 211.105 250.833 210V118Z" fill="#2A85FF"/>
<path d="M252.211 248.145C251.538 248.142 250.962 247.964 250.485 247.612C250.008 247.26 249.643 246.747 249.39 246.074C249.137 245.401 249.011 244.589 249.011 243.641C249.011 242.695 249.137 241.886 249.39 241.216C249.646 240.545 250.012 240.034 250.489 239.682C250.969 239.33 251.543 239.153 252.211 239.153C252.878 239.153 253.451 239.331 253.928 239.686C254.405 240.038 254.771 240.55 255.023 241.22C255.279 241.888 255.407 242.695 255.407 243.641C255.407 244.592 255.28 245.405 255.028 246.078C254.775 246.749 254.41 247.261 253.932 247.616C253.455 247.969 252.881 248.145 252.211 248.145ZM252.211 247.007C252.802 247.007 253.263 246.719 253.596 246.142C253.931 245.565 254.099 244.732 254.099 243.641C254.099 242.916 254.022 242.304 253.869 241.804C253.718 241.301 253.501 240.92 253.217 240.662C252.935 240.401 252.6 240.27 252.211 240.27C251.623 240.27 251.161 240.56 250.826 241.139C250.491 241.719 250.322 242.553 250.319 243.641C250.319 244.368 250.394 244.983 250.545 245.486C250.698 245.986 250.915 246.365 251.197 246.624C251.478 246.879 251.816 247.007 252.211 247.007ZM256.799 248V247.045L259.752 243.986C260.067 243.653 260.327 243.362 260.532 243.112C260.739 242.859 260.894 242.619 260.996 242.392C261.098 242.165 261.149 241.923 261.149 241.668C261.149 241.378 261.081 241.128 260.945 240.918C260.809 240.705 260.622 240.541 260.387 240.428C260.151 240.311 259.885 240.253 259.59 240.253C259.277 240.253 259.005 240.317 258.772 240.445C258.539 240.572 258.36 240.753 258.235 240.986C258.11 241.219 258.047 241.491 258.047 241.804H256.79C256.79 241.273 256.912 240.808 257.157 240.411C257.401 240.013 257.736 239.705 258.162 239.486C258.588 239.264 259.073 239.153 259.615 239.153C260.164 239.153 260.647 239.263 261.064 239.482C261.485 239.697 261.813 239.993 262.049 240.368C262.284 240.74 262.402 241.161 262.402 241.629C262.402 241.953 262.341 242.27 262.219 242.58C262.1 242.889 261.891 243.234 261.593 243.615C261.294 243.993 260.88 244.452 260.348 244.991L258.614 246.807V246.871H262.543V248H256.799ZM274.794 243.636C274.794 244.568 274.624 245.369 274.283 246.04C273.942 246.707 273.474 247.222 272.881 247.582C272.29 247.94 271.618 248.119 270.865 248.119C270.109 248.119 269.435 247.94 268.841 247.582C268.25 247.222 267.784 246.706 267.443 246.036C267.102 245.365 266.932 244.565 266.932 243.636C266.932 242.705 267.102 241.905 267.443 241.237C267.784 240.567 268.25 240.053 268.841 239.695C269.435 239.334 270.109 239.153 270.865 239.153C271.618 239.153 272.29 239.334 272.881 239.695C273.474 240.053 273.942 240.567 274.283 241.237C274.624 241.905 274.794 242.705 274.794 243.636ZM273.49 243.636C273.49 242.926 273.375 242.328 273.145 241.842C272.918 241.354 272.605 240.984 272.207 240.734C271.812 240.482 271.365 240.355 270.865 240.355C270.362 240.355 269.913 240.482 269.518 240.734C269.124 240.984 268.811 241.354 268.581 241.842C268.354 242.328 268.24 242.926 268.24 243.636C268.24 244.347 268.354 244.946 268.581 245.435C268.811 245.92 269.124 246.29 269.518 246.543C269.913 246.793 270.362 246.918 270.865 246.918C271.365 246.918 271.812 246.793 272.207 246.543C272.605 246.29 272.918 245.92 273.145 245.435C273.375 244.946 273.49 244.347 273.49 243.636ZM278.971 248.132C278.337 248.132 277.792 247.989 277.334 247.702C276.88 247.412 276.53 247.013 276.286 246.504C276.042 245.996 275.919 245.413 275.919 244.757C275.919 244.092 276.044 243.506 276.294 242.997C276.544 242.486 276.897 242.087 277.351 241.8C277.806 241.513 278.341 241.369 278.958 241.369C279.455 241.369 279.898 241.462 280.287 241.646C280.677 241.828 280.99 242.084 281.229 242.413C281.471 242.743 281.614 243.128 281.659 243.568H280.419C280.351 243.261 280.195 242.997 279.951 242.776C279.709 242.554 279.385 242.443 278.979 242.443C278.624 242.443 278.313 242.537 278.046 242.724C277.782 242.909 277.576 243.173 277.428 243.517C277.28 243.858 277.206 244.261 277.206 244.727C277.206 245.205 277.279 245.616 277.424 245.963C277.569 246.31 277.773 246.578 278.037 246.768C278.304 246.959 278.618 247.054 278.979 247.054C279.221 247.054 279.439 247.01 279.635 246.922C279.834 246.831 280 246.702 280.134 246.534C280.27 246.366 280.365 246.165 280.419 245.929H281.659C281.614 246.352 281.476 246.73 281.246 247.062C281.016 247.395 280.708 247.656 280.321 247.847C279.938 248.037 279.488 248.132 278.971 248.132ZM285.957 241.455V242.477H282.382V241.455H285.957ZM283.341 239.886H284.615V246.078C284.615 246.325 284.652 246.511 284.726 246.636C284.8 246.759 284.895 246.842 285.011 246.888C285.131 246.93 285.26 246.952 285.399 246.952C285.501 246.952 285.591 246.945 285.668 246.93C285.744 246.916 285.804 246.905 285.847 246.896L286.077 247.949C286.003 247.977 285.898 248.006 285.761 248.034C285.625 248.065 285.455 248.082 285.25 248.085C284.915 248.091 284.602 248.031 284.313 247.906C284.023 247.781 283.788 247.588 283.609 247.327C283.43 247.065 283.341 246.737 283.341 246.342V239.886Z" fill="#6F767E"/>
<rect x="363" y="34" width="1" height="194" rx="0.5" fill="#EFEFEF"/>
<path d="M442.167 74C442.167 72.8954 443.062 72 444.167 72H474.167C475.272 72 476.167 72.8954 476.167 74V93H442.167V74Z" fill="#B6DCFF"/>
<rect x="442.167" y="93" width="34" height="7" fill="#38A3A5"/>
<rect x="442.167" y="100" width="34" height="12" fill="#FFD670"/>
<path d="M442.167 112H476.167V210C476.167 211.105 475.272 212 474.167 212H444.167C443.062 212 442.167 211.105 442.167 210V112Z" fill="#2A85FF"/>
<path d="M443.545 248.145C442.872 248.142 442.296 247.964 441.819 247.612C441.342 247.26 440.977 246.747 440.724 246.074C440.471 245.401 440.345 244.589 440.345 243.641C440.345 242.695 440.471 241.886 440.724 241.216C440.979 240.545 441.346 240.034 441.823 239.682C442.303 239.33 442.877 239.153 443.545 239.153C444.212 239.153 444.785 239.331 445.262 239.686C445.739 240.038 446.104 240.55 446.357 241.22C446.613 241.888 446.741 242.695 446.741 243.641C446.741 244.592 446.614 245.405 446.362 246.078C446.109 246.749 445.744 247.261 445.266 247.616C444.789 247.969 444.215 248.145 443.545 248.145ZM443.545 247.007C444.136 247.007 444.597 246.719 444.93 246.142C445.265 245.565 445.433 244.732 445.433 243.641C445.433 242.916 445.356 242.304 445.203 241.804C445.052 241.301 444.835 240.92 444.551 240.662C444.269 240.401 443.934 240.27 443.545 240.27C442.957 240.27 442.495 240.56 442.16 241.139C441.825 241.719 441.656 242.553 441.653 243.641C441.653 244.368 441.728 244.983 441.879 245.486C442.032 245.986 442.249 246.365 442.531 246.624C442.812 246.879 443.15 247.007 443.545 247.007ZM451.171 248.119C450.586 248.119 450.063 248.018 449.603 247.817C449.145 247.615 448.783 247.335 448.516 246.977C448.252 246.616 448.11 246.199 448.09 245.724H449.428C449.445 245.983 449.532 246.207 449.688 246.398C449.847 246.585 450.054 246.73 450.31 246.832C450.566 246.935 450.85 246.986 451.162 246.986C451.506 246.986 451.81 246.926 452.074 246.807C452.341 246.687 452.55 246.521 452.701 246.308C452.851 246.092 452.927 245.844 452.927 245.562C452.927 245.27 452.851 245.013 452.701 244.791C452.553 244.567 452.336 244.391 452.049 244.263C451.765 244.135 451.421 244.071 451.018 244.071H450.28V242.997H451.018C451.341 242.997 451.625 242.939 451.87 242.822C452.117 242.706 452.31 242.544 452.449 242.337C452.589 242.126 452.658 241.881 452.658 241.599C452.658 241.33 452.597 241.095 452.475 240.896C452.356 240.695 452.185 240.537 451.964 240.423C451.745 240.31 451.486 240.253 451.188 240.253C450.904 240.253 450.638 240.305 450.391 240.411C450.147 240.513 449.948 240.661 449.795 240.854C449.641 241.044 449.559 241.273 449.547 241.54H448.273C448.287 241.068 448.427 240.653 448.691 240.295C448.958 239.937 449.31 239.658 449.748 239.456C450.185 239.254 450.671 239.153 451.205 239.153C451.765 239.153 452.248 239.263 452.654 239.482C453.063 239.697 453.378 239.986 453.6 240.347C453.824 240.707 453.935 241.102 453.932 241.531C453.935 242.02 453.799 242.435 453.523 242.776C453.25 243.116 452.887 243.345 452.432 243.462V243.53C453.012 243.618 453.461 243.848 453.779 244.22C454.1 244.592 454.259 245.054 454.256 245.605C454.259 246.085 454.125 246.516 453.856 246.896C453.589 247.277 453.223 247.577 452.76 247.795C452.297 248.011 451.768 248.119 451.171 248.119ZM466.503 243.636C466.503 244.568 466.333 245.369 465.992 246.04C465.651 246.707 465.183 247.222 464.59 247.582C463.999 247.94 463.327 248.119 462.574 248.119C461.818 248.119 461.144 247.94 460.55 247.582C459.959 247.222 459.493 246.706 459.152 246.036C458.811 245.365 458.641 244.565 458.641 243.636C458.641 242.705 458.811 241.905 459.152 241.237C459.493 240.567 459.959 240.053 460.55 239.695C461.144 239.334 461.818 239.153 462.574 239.153C463.327 239.153 463.999 239.334 464.59 239.695C465.183 240.053 465.651 240.567 465.992 241.237C466.333 241.905 466.503 242.705 466.503 243.636ZM465.199 243.636C465.199 242.926 465.084 242.328 464.854 241.842C464.627 241.354 464.314 240.984 463.916 240.734C463.521 240.482 463.074 240.355 462.574 240.355C462.071 240.355 461.622 240.482 461.227 240.734C460.833 240.984 460.52 241.354 460.29 241.842C460.063 242.328 459.949 242.926 459.949 243.636C459.949 244.347 460.063 244.946 460.29 245.435C460.52 245.92 460.833 246.29 461.227 246.543C461.622 246.793 462.071 246.918 462.574 246.918C463.074 246.918 463.521 246.793 463.916 246.543C464.314 246.29 464.627 245.92 464.854 245.435C465.084 244.946 465.199 244.347 465.199 243.636ZM470.68 248.132C470.046 248.132 469.501 247.989 469.043 247.702C468.589 247.412 468.239 247.013 467.995 246.504C467.751 245.996 467.628 245.413 467.628 244.757C467.628 244.092 467.753 243.506 468.003 242.997C468.253 242.486 468.606 242.087 469.06 241.8C469.515 241.513 470.05 241.369 470.667 241.369C471.164 241.369 471.607 241.462 471.996 241.646C472.386 241.828 472.699 242.084 472.938 242.413C473.18 242.743 473.323 243.128 473.368 243.568H472.128C472.06 243.261 471.904 242.997 471.66 242.776C471.418 242.554 471.094 242.443 470.688 242.443C470.333 242.443 470.022 242.537 469.755 242.724C469.491 242.909 469.285 243.173 469.137 243.517C468.989 243.858 468.915 244.261 468.915 244.727C468.915 245.205 468.988 245.616 469.133 245.963C469.278 246.31 469.482 246.578 469.746 246.768C470.013 246.959 470.327 247.054 470.688 247.054C470.93 247.054 471.148 247.01 471.344 246.922C471.543 246.831 471.709 246.702 471.843 246.534C471.979 246.366 472.074 246.165 472.128 245.929H473.368C473.323 246.352 473.185 246.73 472.955 247.062C472.725 247.395 472.417 247.656 472.03 247.847C471.647 248.037 471.197 248.132 470.68 248.132ZM477.666 241.455V242.477H474.091V241.455H477.666ZM475.05 239.886H476.324V246.078C476.324 246.325 476.361 246.511 476.435 246.636C476.509 246.759 476.604 246.842 476.72 246.888C476.84 246.93 476.969 246.952 477.108 246.952C477.21 246.952 477.3 246.945 477.377 246.93C477.453 246.916 477.513 246.905 477.556 246.896L477.786 247.949C477.712 247.977 477.607 248.006 477.47 248.034C477.334 248.065 477.164 248.082 476.959 248.085C476.624 248.091 476.311 248.031 476.022 247.906C475.732 247.781 475.497 247.588 475.318 247.327C475.139 247.065 475.05 246.737 475.05 246.342V239.886Z" fill="#6F767E"/>
<rect x="554.333" y="34" width="1" height="194" rx="0.5" fill="#EFEFEF"/>
<path d="M633.5 50C633.5 48.8954 634.395 48 635.5 48H665.5C666.605 48 667.5 48.8954 667.5 50V51H633.5V50Z" fill="#B6DCFF"/>
<rect x="633.5" y="51" width="34" height="7" fill="#38A3A5"/>
<rect x="633.5" y="58" width="34" height="27" fill="#FFD670"/>
<path d="M633.5 85H667.5V210C667.5 211.105 666.605 212 665.5 212H635.5C634.395 212 633.5 211.105 633.5 210V85Z" fill="#2A85FF"/>
<path d="M634.878 248.145C634.205 248.142 633.629 247.964 633.152 247.612C632.675 247.26 632.31 246.747 632.057 246.074C631.804 245.401 631.678 244.589 631.678 243.641C631.678 242.695 631.804 241.886 632.057 241.216C632.313 240.545 632.679 240.034 633.156 239.682C633.636 239.33 634.21 239.153 634.878 239.153C635.545 239.153 636.118 239.331 636.595 239.686C637.072 240.038 637.438 240.55 637.69 241.22C637.946 241.888 638.074 242.695 638.074 243.641C638.074 244.592 637.947 245.405 637.695 246.078C637.442 246.749 637.077 247.261 636.599 247.616C636.122 247.969 635.548 248.145 634.878 248.145ZM634.878 247.007C635.469 247.007 635.93 246.719 636.263 246.142C636.598 245.565 636.766 244.732 636.766 243.641C636.766 242.916 636.689 242.304 636.536 241.804C636.385 241.301 636.168 240.92 635.884 240.662C635.602 240.401 635.267 240.27 634.878 240.27C634.29 240.27 633.828 240.56 633.493 241.139C633.158 241.719 632.989 242.553 632.986 243.641C632.986 244.368 633.061 244.983 633.212 245.486C633.365 245.986 633.582 246.365 633.864 246.624C634.145 246.879 634.483 247.007 634.878 247.007ZM639.282 246.295V245.23L643.054 239.273H643.893V240.841H643.36L640.663 245.111V245.179H645.832V246.295H639.282ZM643.42 248V245.972L643.429 245.486V239.273H644.677V248H643.42ZM657.953 243.636C657.953 244.568 657.783 245.369 657.442 246.04C657.101 246.707 656.634 247.222 656.04 247.582C655.449 247.94 654.777 248.119 654.024 248.119C653.269 248.119 652.594 247.94 652 247.582C651.409 247.222 650.943 246.706 650.602 246.036C650.261 245.365 650.091 244.565 650.091 243.636C650.091 242.705 650.261 241.905 650.602 241.237C650.943 240.567 651.409 240.053 652 239.695C652.594 239.334 653.269 239.153 654.024 239.153C654.777 239.153 655.449 239.334 656.04 239.695C656.634 240.053 657.101 240.567 657.442 241.237C657.783 241.905 657.953 242.705 657.953 243.636ZM656.649 243.636C656.649 242.926 656.534 242.328 656.304 241.842C656.077 241.354 655.764 240.984 655.367 240.734C654.972 240.482 654.524 240.355 654.024 240.355C653.521 240.355 653.073 240.482 652.678 240.734C652.283 240.984 651.97 241.354 651.74 241.842C651.513 242.328 651.399 242.926 651.399 243.636C651.399 244.347 651.513 244.946 651.74 245.435C651.97 245.92 652.283 246.29 652.678 246.543C653.073 246.793 653.521 246.918 654.024 246.918C654.524 246.918 654.972 246.793 655.367 246.543C655.764 246.29 656.077 245.92 656.304 245.435C656.534 244.946 656.649 244.347 656.649 243.636ZM662.13 248.132C661.496 248.132 660.951 247.989 660.493 247.702C660.039 247.412 659.689 247.013 659.445 246.504C659.201 245.996 659.079 245.413 659.079 244.757C659.079 244.092 659.204 243.506 659.454 242.997C659.704 242.486 660.056 242.087 660.51 241.8C660.965 241.513 661.5 241.369 662.117 241.369C662.614 241.369 663.057 241.462 663.446 241.646C663.836 241.828 664.15 242.084 664.388 242.413C664.63 242.743 664.773 243.128 664.819 243.568H663.579C663.51 243.261 663.354 242.997 663.11 242.776C662.868 242.554 662.545 242.443 662.138 242.443C661.783 242.443 661.472 242.537 661.205 242.724C660.941 242.909 660.735 243.173 660.587 243.517C660.439 243.858 660.366 244.261 660.366 244.727C660.366 245.205 660.438 245.616 660.583 245.963C660.728 246.31 660.932 246.578 661.196 246.768C661.464 246.959 661.777 247.054 662.138 247.054C662.38 247.054 662.598 247.01 662.795 246.922C662.993 246.831 663.16 246.702 663.293 246.534C663.429 246.366 663.525 246.165 663.579 245.929H664.819C664.773 246.352 664.635 246.73 664.405 247.062C664.175 247.395 663.867 247.656 663.481 247.847C663.097 248.037 662.647 248.132 662.13 248.132ZM669.117 241.455V242.477H665.541V241.455H669.117ZM666.5 239.886H667.774V246.078C667.774 246.325 667.811 246.511 667.885 246.636C667.959 246.759 668.054 246.842 668.171 246.888C668.29 246.93 668.419 246.952 668.558 246.952C668.661 246.952 668.75 246.945 668.827 246.93C668.904 246.916 668.963 246.905 669.006 246.896L669.236 247.949C669.162 247.977 669.057 248.006 668.921 248.034C668.784 248.065 668.614 248.082 668.409 248.085C668.074 248.091 667.762 248.031 667.472 247.906C667.182 247.781 666.948 247.588 666.769 247.327C666.59 247.065 666.5 246.737 666.5 246.342V239.886Z" fill="#6F767E"/>
<rect x="745.667" y="34" width="1" height="194" rx="0.5" fill="#EFEFEF"/>
<path d="M824.833 66C824.833 64.8954 825.728 64 826.833 64H856.833C857.938 64 858.833 64.8954 858.833 66V70H824.833V66Z" fill="#B6DCFF"/>
<rect x="824.833" y="70" width="34" height="7" fill="#38A3A5"/>
<rect x="824.833" y="77" width="34" height="54" fill="#FFD670"/>
<path d="M824.833 131H858.833V210C858.833 211.105 857.938 212 856.833 212H826.833C825.728 212 824.833 211.105 824.833 210V131Z" fill="#2A85FF"/>
<path d="M826.211 248.145C825.538 248.142 824.962 247.964 824.485 247.612C824.008 247.26 823.643 246.747 823.39 246.074C823.137 245.401 823.011 244.589 823.011 243.641C823.011 242.695 823.137 241.886 823.39 241.216C823.646 240.545 824.012 240.034 824.489 239.682C824.969 239.33 825.543 239.153 826.211 239.153C826.878 239.153 827.451 239.331 827.928 239.686C828.405 240.038 828.771 240.55 829.023 241.22C829.279 241.888 829.407 242.695 829.407 243.641C829.407 244.592 829.28 245.405 829.028 246.078C828.775 246.749 828.41 247.261 827.932 247.616C827.455 247.969 826.881 248.145 826.211 248.145ZM826.211 247.007C826.802 247.007 827.263 246.719 827.596 246.142C827.931 245.565 828.099 244.732 828.099 243.641C828.099 242.916 828.022 242.304 827.869 241.804C827.718 241.301 827.501 240.92 827.217 240.662C826.935 240.401 826.6 240.27 826.211 240.27C825.623 240.27 825.161 240.56 824.826 241.139C824.491 241.719 824.322 242.553 824.319 243.641C824.319 244.368 824.394 244.983 824.545 245.486C824.698 245.986 824.915 246.365 825.197 246.624C825.478 246.879 825.816 247.007 826.211 247.007ZM833.679 248.119C833.145 248.119 832.665 248.017 832.239 247.812C831.816 247.605 831.478 247.321 831.225 246.96C830.972 246.599 830.837 246.188 830.82 245.724H832.098C832.13 246.099 832.296 246.408 832.597 246.649C832.898 246.891 833.259 247.011 833.679 247.011C834.014 247.011 834.311 246.935 834.57 246.781C834.831 246.625 835.036 246.411 835.184 246.138C835.334 245.865 835.409 245.554 835.409 245.205C835.409 244.849 835.333 244.533 835.179 244.254C835.026 243.976 834.814 243.757 834.544 243.598C834.277 243.439 833.97 243.358 833.624 243.355C833.36 243.355 833.094 243.401 832.827 243.491C832.56 243.582 832.344 243.702 832.179 243.849L830.973 243.67L831.463 239.273H836.262V240.402H832.559L832.282 242.844H832.333C832.503 242.679 832.729 242.541 833.01 242.43C833.294 242.32 833.598 242.264 833.922 242.264C834.453 242.264 834.926 242.391 835.341 242.643C835.759 242.896 836.087 243.241 836.326 243.679C836.567 244.114 836.686 244.614 836.684 245.179C836.686 245.744 836.559 246.249 836.3 246.692C836.044 247.135 835.689 247.484 835.235 247.74C834.783 247.993 834.264 248.119 833.679 248.119ZM848.876 243.636C848.876 244.568 848.706 245.369 848.365 246.04C848.024 246.707 847.556 247.222 846.963 247.582C846.372 247.94 845.7 248.119 844.947 248.119C844.191 248.119 843.517 247.94 842.923 247.582C842.332 247.222 841.866 246.706 841.525 246.036C841.184 245.365 841.014 244.565 841.014 243.636C841.014 242.705 841.184 241.905 841.525 241.237C841.866 240.567 842.332 240.053 842.923 239.695C843.517 239.334 844.191 239.153 844.947 239.153C845.7 239.153 846.372 239.334 846.963 239.695C847.556 240.053 848.024 240.567 848.365 241.237C848.706 241.905 848.876 242.705 848.876 243.636ZM847.572 243.636C847.572 242.926 847.457 242.328 847.227 241.842C847 241.354 846.687 240.984 846.289 240.734C845.895 240.482 845.447 240.355 844.947 240.355C844.444 240.355 843.995 240.482 843.6 240.734C843.206 240.984 842.893 241.354 842.663 241.842C842.436 242.328 842.322 242.926 842.322 243.636C842.322 244.347 842.436 244.946 842.663 245.435C842.893 245.92 843.206 246.29 843.6 246.543C843.995 246.793 844.444 246.918 844.947 246.918C845.447 246.918 845.895 246.793 846.289 246.543C846.687 246.29 847 245.92 847.227 245.435C847.457 244.946 847.572 244.347 847.572 243.636ZM853.053 248.132C852.419 248.132 851.874 247.989 851.416 247.702C850.962 247.412 850.612 247.013 850.368 246.504C850.124 245.996 850.001 245.413 850.001 244.757C850.001 244.092 850.126 243.506 850.376 242.997C850.626 242.486 850.979 242.087 851.433 241.8C851.888 241.513 852.423 241.369 853.04 241.369C853.537 241.369 853.98 241.462 854.369 241.646C854.759 241.828 855.072 242.084 855.311 242.413C855.553 242.743 855.696 243.128 855.742 243.568H854.501C854.433 243.261 854.277 242.997 854.033 242.776C853.791 242.554 853.467 242.443 853.061 242.443C852.706 242.443 852.395 242.537 852.128 242.724C851.864 242.909 851.658 243.173 851.51 243.517C851.362 243.858 851.288 244.261 851.288 244.727C851.288 245.205 851.361 245.616 851.506 245.963C851.651 246.31 851.855 246.578 852.119 246.768C852.386 246.959 852.7 247.054 853.061 247.054C853.303 247.054 853.521 247.01 853.717 246.922C853.916 246.831 854.082 246.702 854.216 246.534C854.352 246.366 854.447 246.165 854.501 245.929H855.742C855.696 246.352 855.558 246.73 855.328 247.062C855.098 247.395 854.79 247.656 854.403 247.847C854.02 248.037 853.57 248.132 853.053 248.132ZM860.039 241.455V242.477H856.464V241.455H860.039ZM857.423 239.886H858.697V246.078C858.697 246.325 858.734 246.511 858.808 246.636C858.882 246.759 858.977 246.842 859.093 246.888C859.213 246.93 859.342 246.952 859.481 246.952C859.584 246.952 859.673 246.945 859.75 246.93C859.826 246.916 859.886 246.905 859.929 246.896L860.159 247.949C860.085 247.977 859.98 248.006 859.843 248.034C859.707 248.065 859.537 248.082 859.332 248.085C858.997 248.091 858.684 248.031 858.395 247.906C858.105 247.781 857.87 247.588 857.691 247.327C857.512 247.065 857.423 246.737 857.423 246.342V239.886Z" fill="#6F767E"/>
<rect x="937" y="34" width="1" height="194" rx="0.5" fill="#EFEFEF"/>
<path d="M1016.17 36C1016.17 34.8954 1017.06 34 1018.17 34H1048.17C1049.27 34 1050.17 34.8954 1050.17 36V42H1016.17V36Z" fill="#B6DCFF"/>
<rect x="1016.17" y="42" width="34" height="7" fill="#38A3A5"/>
<rect x="1016.17" y="49" width="34" height="26" fill="#FFD670"/>
<path d="M1016.17 75H1050.17V210C1050.17 211.105 1049.27 212 1048.17 212H1018.17C1017.06 212 1016.17 211.105 1016.17 210V75Z" fill="#2A85FF"/>
<path d="M1017.54 248.145C1016.87 248.142 1016.3 247.964 1015.82 247.612C1015.34 247.26 1014.98 246.747 1014.72 246.074C1014.47 245.401 1014.34 244.589 1014.34 243.641C1014.34 242.695 1014.47 241.886 1014.72 241.216C1014.98 240.545 1015.35 240.034 1015.82 239.682C1016.3 239.33 1016.88 239.153 1017.54 239.153C1018.21 239.153 1018.78 239.331 1019.26 239.686C1019.74 240.038 1020.1 240.55 1020.36 241.22C1020.61 241.888 1020.74 242.695 1020.74 243.641C1020.74 244.592 1020.61 245.405 1020.36 246.078C1020.11 246.749 1019.74 247.261 1019.27 247.616C1018.79 247.969 1018.22 248.145 1017.54 248.145ZM1017.54 247.007C1018.14 247.007 1018.6 246.719 1018.93 246.142C1019.27 245.565 1019.43 244.732 1019.43 243.641C1019.43 242.916 1019.36 242.304 1019.2 241.804C1019.05 241.301 1018.83 240.92 1018.55 240.662C1018.27 240.401 1017.93 240.27 1017.54 240.27C1016.96 240.27 1016.5 240.56 1016.16 241.139C1015.82 241.719 1015.66 242.553 1015.65 243.641C1015.65 244.368 1015.73 244.983 1015.88 245.486C1016.03 245.986 1016.25 246.365 1016.53 246.624C1016.81 246.879 1017.15 247.007 1017.54 247.007ZM1025.18 248.119C1024.79 248.114 1024.41 248.043 1024.03 247.906C1023.65 247.77 1023.31 247.543 1023.01 247.224C1022.7 246.906 1022.45 246.479 1022.27 245.942C1022.09 245.405 1022 244.734 1022 243.93C1022 243.169 1022.07 242.493 1022.22 241.902C1022.38 241.311 1022.6 240.812 1022.88 240.406C1023.17 239.997 1023.52 239.686 1023.92 239.473C1024.33 239.26 1024.78 239.153 1025.29 239.153C1025.81 239.153 1026.27 239.256 1026.68 239.46C1027.08 239.665 1027.41 239.947 1027.66 240.308C1027.91 240.669 1028.07 241.08 1028.14 241.54H1026.84C1026.75 241.176 1026.57 240.879 1026.31 240.649C1026.05 240.419 1025.71 240.304 1025.29 240.304C1024.65 240.304 1024.15 240.582 1023.79 241.139C1023.44 241.696 1023.26 242.47 1023.26 243.462H1023.32C1023.47 243.214 1023.66 243.004 1023.88 242.831C1024.1 242.655 1024.34 242.52 1024.62 242.426C1024.89 242.33 1025.18 242.281 1025.49 242.281C1025.99 242.281 1026.45 242.405 1026.86 242.652C1027.27 242.896 1027.6 243.234 1027.84 243.666C1028.09 244.098 1028.21 244.592 1028.21 245.149C1028.21 245.706 1028.08 246.21 1027.83 246.662C1027.58 247.114 1027.23 247.472 1026.77 247.736C1026.32 247.997 1025.79 248.125 1025.18 248.119ZM1025.18 247.011C1025.51 247.011 1025.81 246.929 1026.07 246.764C1026.34 246.599 1026.55 246.378 1026.7 246.099C1026.85 245.821 1026.93 245.51 1026.93 245.166C1026.93 244.831 1026.86 244.526 1026.71 244.25C1026.56 243.974 1026.35 243.756 1026.09 243.594C1025.83 243.432 1025.54 243.351 1025.21 243.351C1024.95 243.351 1024.72 243.399 1024.5 243.496C1024.29 243.592 1024.1 243.726 1023.94 243.896C1023.78 244.067 1023.65 244.263 1023.56 244.484C1023.46 244.703 1023.42 244.935 1023.42 245.179C1023.42 245.506 1023.49 245.808 1023.65 246.087C1023.8 246.365 1024.01 246.589 1024.27 246.76C1024.54 246.928 1024.84 247.011 1025.18 247.011ZM1040.4 243.636C1040.4 244.568 1040.23 245.369 1039.89 246.04C1039.55 246.707 1039.08 247.222 1038.48 247.582C1037.89 247.94 1037.22 248.119 1036.47 248.119C1035.71 248.119 1035.04 247.94 1034.44 247.582C1033.85 247.222 1033.39 246.706 1033.05 246.036C1032.71 245.365 1032.54 244.565 1032.54 243.636C1032.54 242.705 1032.71 241.905 1033.05 241.237C1033.39 240.567 1033.85 240.053 1034.44 239.695C1035.04 239.334 1035.71 239.153 1036.47 239.153C1037.22 239.153 1037.89 239.334 1038.48 239.695C1039.08 240.053 1039.55 240.567 1039.89 241.237C1040.23 241.905 1040.4 242.705 1040.4 243.636ZM1039.09 243.636C1039.09 242.926 1038.98 242.328 1038.75 241.842C1038.52 241.354 1038.21 240.984 1037.81 240.734C1037.42 240.482 1036.97 240.355 1036.47 240.355C1035.97 240.355 1035.52 240.482 1035.12 240.734C1034.73 240.984 1034.41 241.354 1034.18 241.842C1033.96 242.328 1033.84 242.926 1033.84 243.636C1033.84 244.347 1033.96 244.946 1034.18 245.435C1034.41 245.92 1034.73 246.29 1035.12 246.543C1035.52 246.793 1035.97 246.918 1036.47 246.918C1036.97 246.918 1037.42 246.793 1037.81 246.543C1038.21 246.29 1038.52 245.92 1038.75 245.435C1038.98 244.946 1039.09 244.347 1039.09 243.636ZM1044.57 248.132C1043.94 248.132 1043.4 247.989 1042.94 247.702C1042.48 247.412 1042.13 247.013 1041.89 246.504C1041.65 245.996 1041.52 245.413 1041.52 244.757C1041.52 244.092 1041.65 243.506 1041.9 242.997C1042.15 242.486 1042.5 242.087 1042.95 241.8C1043.41 241.513 1043.94 241.369 1044.56 241.369C1045.06 241.369 1045.5 241.462 1045.89 241.646C1046.28 241.828 1046.59 242.084 1046.83 242.413C1047.07 242.743 1047.22 243.128 1047.26 243.568H1046.02C1045.95 243.261 1045.8 242.997 1045.55 242.776C1045.31 242.554 1044.99 242.443 1044.58 242.443C1044.23 242.443 1043.92 242.537 1043.65 242.724C1043.39 242.909 1043.18 243.173 1043.03 243.517C1042.88 243.858 1042.81 244.261 1042.81 244.727C1042.81 245.205 1042.88 245.616 1043.03 245.963C1043.17 246.31 1043.38 246.578 1043.64 246.768C1043.91 246.959 1044.22 247.054 1044.58 247.054C1044.82 247.054 1045.04 247.01 1045.24 246.922C1045.44 246.831 1045.6 246.702 1045.74 246.534C1045.87 246.366 1045.97 246.165 1046.02 245.929H1047.26C1047.22 246.352 1047.08 246.73 1046.85 247.062C1046.62 247.395 1046.31 247.656 1045.92 247.847C1045.54 248.037 1045.09 248.132 1044.57 248.132ZM1051.56 241.455V242.477H1047.99V241.455H1051.56ZM1048.94 239.886H1050.22V246.078C1050.22 246.325 1050.26 246.511 1050.33 246.636C1050.4 246.759 1050.5 246.842 1050.61 246.888C1050.73 246.93 1050.86 246.952 1051 246.952C1051.1 246.952 1051.19 246.945 1051.27 246.93C1051.35 246.916 1051.41 246.905 1051.45 246.896L1051.68 247.949C1051.61 247.977 1051.5 248.006 1051.36 248.034C1051.23 248.065 1051.06 248.082 1050.85 248.085C1050.52 248.091 1050.21 248.031 1049.92 247.906C1049.63 247.781 1049.39 247.588 1049.21 247.327C1049.03 247.065 1048.94 246.737 1048.94 246.342V239.886Z" fill="#6F767E"/>
<rect x="1128.33" y="34" width="1" height="194" rx="0.5" fill="#EFEFEF"/>
<path d="M1207 87C1207 85.8954 1207.9 85 1209 85H1239C1240.1 85 1241 85.8954 1241 87V91H1207V87Z" fill="#B6DCFF"/>
<rect x="1207" y="91" width="34" height="7" fill="#38A3A5"/>
<rect x="1207" y="98" width="34" height="18" fill="#FFD670"/>
<path d="M1207 116H1241V210C1241 211.105 1240.1 212 1239 212H1209C1207.9 212 1207 211.105 1207 210V116Z" fill="#2A85FF"/>
<path d="M1208.88 248.145C1208.2 248.142 1207.63 247.964 1207.15 247.612C1206.67 247.26 1206.31 246.747 1206.06 246.074C1205.8 245.401 1205.68 244.589 1205.68 243.641C1205.68 242.695 1205.8 241.886 1206.06 241.216C1206.31 240.545 1206.68 240.034 1207.16 239.682C1207.64 239.33 1208.21 239.153 1208.88 239.153C1209.55 239.153 1210.12 239.331 1210.6 239.686C1211.07 240.038 1211.44 240.55 1211.69 241.22C1211.95 241.888 1212.07 242.695 1212.07 243.641C1212.07 244.592 1211.95 245.405 1211.69 246.078C1211.44 246.749 1211.08 247.261 1210.6 247.616C1210.12 247.969 1209.55 248.145 1208.88 248.145ZM1208.88 247.007C1209.47 247.007 1209.93 246.719 1210.26 246.142C1210.6 245.565 1210.77 244.732 1210.77 243.641C1210.77 242.916 1210.69 242.304 1210.54 241.804C1210.38 241.301 1210.17 240.92 1209.88 240.662C1209.6 240.401 1209.27 240.27 1208.88 240.27C1208.29 240.27 1207.83 240.56 1207.49 241.139C1207.16 241.719 1206.99 242.553 1206.99 243.641C1206.99 244.368 1207.06 244.983 1207.21 245.486C1207.37 245.986 1207.58 246.365 1207.86 246.624C1208.14 246.879 1208.48 247.007 1208.88 247.007ZM1213.53 248L1217.33 240.466V240.402H1212.93V239.273H1218.7V240.44L1214.9 248H1213.53ZM1230.82 243.636C1230.82 244.568 1230.65 245.369 1230.31 246.04C1229.96 246.707 1229.5 247.222 1228.9 247.582C1228.31 247.94 1227.64 248.119 1226.89 248.119C1226.13 248.119 1225.46 247.94 1224.86 247.582C1224.27 247.222 1223.81 246.706 1223.47 246.036C1223.12 245.365 1222.95 244.565 1222.95 243.636C1222.95 242.705 1223.12 241.905 1223.47 241.237C1223.81 240.567 1224.27 240.053 1224.86 239.695C1225.46 239.334 1226.13 239.153 1226.89 239.153C1227.64 239.153 1228.31 239.334 1228.9 239.695C1229.5 240.053 1229.96 240.567 1230.31 241.237C1230.65 241.905 1230.82 242.705 1230.82 243.636ZM1229.51 243.636C1229.51 242.926 1229.4 242.328 1229.17 241.842C1228.94 241.354 1228.63 240.984 1228.23 240.734C1227.83 240.482 1227.39 240.355 1226.89 240.355C1226.38 240.355 1225.94 240.482 1225.54 240.734C1225.15 240.984 1224.83 241.354 1224.6 241.842C1224.38 242.328 1224.26 242.926 1224.26 243.636C1224.26 244.347 1224.38 244.946 1224.6 245.435C1224.83 245.92 1225.15 246.29 1225.54 246.543C1225.94 246.793 1226.38 246.918 1226.89 246.918C1227.39 246.918 1227.83 246.793 1228.23 246.543C1228.63 246.29 1228.94 245.92 1229.17 245.435C1229.4 244.946 1229.51 244.347 1229.51 243.636ZM1234.99 248.132C1234.36 248.132 1233.81 247.989 1233.36 247.702C1232.9 247.412 1232.55 247.013 1232.31 246.504C1232.06 245.996 1231.94 245.413 1231.94 244.757C1231.94 244.092 1232.07 243.506 1232.32 242.997C1232.57 242.486 1232.92 242.087 1233.37 241.8C1233.83 241.513 1234.36 241.369 1234.98 241.369C1235.48 241.369 1235.92 241.462 1236.31 241.646C1236.7 241.828 1237.01 242.084 1237.25 242.413C1237.49 242.743 1237.64 243.128 1237.68 243.568H1236.44C1236.37 243.261 1236.22 242.997 1235.97 242.776C1235.73 242.554 1235.41 242.443 1235 242.443C1234.65 242.443 1234.34 242.537 1234.07 242.724C1233.8 242.909 1233.6 243.173 1233.45 243.517C1233.3 243.858 1233.23 244.261 1233.23 244.727C1233.23 245.205 1233.3 245.616 1233.45 245.963C1233.59 246.31 1233.8 246.578 1234.06 246.768C1234.33 246.959 1234.64 247.054 1235 247.054C1235.24 247.054 1235.46 247.01 1235.66 246.922C1235.86 246.831 1236.02 246.702 1236.16 246.534C1236.29 246.366 1236.39 246.165 1236.44 245.929H1237.68C1237.64 246.352 1237.5 246.73 1237.27 247.062C1237.04 247.395 1236.73 247.656 1236.34 247.847C1235.96 248.037 1235.51 248.132 1234.99 248.132ZM1241.98 241.455V242.477H1238.4V241.455H1241.98ZM1239.36 239.886H1240.64V246.078C1240.64 246.325 1240.67 246.511 1240.75 246.636C1240.82 246.759 1240.92 246.842 1241.03 246.888C1241.15 246.93 1241.28 246.952 1241.42 246.952C1241.52 246.952 1241.61 246.945 1241.69 246.93C1241.77 246.916 1241.83 246.905 1241.87 246.896L1242.1 247.949C1242.03 247.977 1241.92 248.006 1241.78 248.034C1241.65 248.065 1241.48 248.082 1241.27 248.085C1240.94 248.091 1240.62 248.031 1240.34 247.906C1240.05 247.781 1239.81 247.588 1239.63 247.327C1239.45 247.065 1239.36 246.737 1239.36 246.342V239.886Z" fill="#6F767E"/>
</svg>
