<svg width="113" height="40" viewBox="0 0 113 40" fill="none" xmlns="http://www.w3.org/2000/svg">
<g clip-path="url(#clip0_1677_18736)">
<path fill-rule="evenodd" clip-rule="evenodd" d="M22 11C22 10.4477 21.5523 10 21 10C20.4477 10 20 10.4477 20 11V12H19C17.3431 12 16 13.3431 16 15V27C16 28.6569 17.3431 30 19 30H33C34.6569 30 36 28.6569 36 27V15C36 13.3431 34.6569 12 33 12H32V11C32 10.4477 31.5523 10 31 10C30.4477 10 30 10.4477 30 11V12H22V11ZM30.7071 19.7071C31.0976 19.3166 31.0976 18.6834 30.7071 18.2929C30.3166 17.9024 29.6834 17.9024 29.2929 18.2929L25 22.5858L23.2071 20.7929C22.8166 20.4024 22.1834 20.4024 21.7929 20.7929C21.4024 21.1834 21.4024 21.8166 21.7929 22.2071L24.2929 24.7071C24.6834 25.0976 25.3166 25.0976 25.7071 24.7071L30.7071 19.7071Z" fill="white"/>
</g>
<path d="M46.6399 25H44.3331L47.848 14.8182H50.6222L54.1321 25H51.8253L49.2749 17.1449H49.1953L46.6399 25ZM46.4957 20.9979H51.9446V22.6783H46.4957V20.9979ZM58.2726 25.1491C57.4904 25.1491 56.8176 24.9834 56.2542 24.652C55.694 24.3172 55.2632 23.8532 54.9616 23.2599C54.6633 22.6667 54.5141 21.9839 54.5141 21.2116C54.5141 20.4295 54.6649 19.7434 54.9665 19.1534C55.2715 18.5601 55.704 18.0978 56.2641 17.7663C56.8243 17.4316 57.4904 17.2642 58.2627 17.2642C58.9289 17.2642 59.5122 17.3852 60.0127 17.6271C60.5132 17.8691 60.9092 18.2088 61.2009 18.6463C61.4926 19.0838 61.6533 19.5975 61.6832 20.1875H59.6846C59.6282 19.8063 59.4791 19.4998 59.2371 19.2678C58.9985 19.0324 58.6853 18.9148 58.2975 18.9148C57.9694 18.9148 57.6827 19.0043 57.4374 19.1832C57.1955 19.3589 57.0065 19.6158 56.8707 19.9538C56.7348 20.2919 56.6668 20.7012 56.6668 21.1818C56.6668 21.669 56.7331 22.0833 56.8657 22.4247C57.0016 22.7661 57.1921 23.0263 57.4374 23.2053C57.6827 23.3842 57.9694 23.4737 58.2975 23.4737C58.5395 23.4737 58.7565 23.424 58.9488 23.3246C59.1443 23.2251 59.3051 23.081 59.431 22.892C59.5603 22.6998 59.6448 22.4695 59.6846 22.201H61.6832C61.65 22.7843 61.4909 23.2981 61.2059 23.7422C60.9242 24.183 60.5347 24.5277 60.0376 24.7763C59.5404 25.0249 58.9521 25.1491 58.2726 25.1491ZM66.9609 17.3636V18.9545H62.3622V17.3636H66.9609ZM63.4063 15.5341H65.5242V22.6534C65.5242 22.849 65.554 23.0014 65.6136 23.1108C65.6733 23.2169 65.7562 23.2914 65.8622 23.3345C65.9716 23.3776 66.0975 23.3991 66.2401 23.3991C66.3395 23.3991 66.4389 23.3909 66.5384 23.3743C66.6378 23.3544 66.714 23.3395 66.7671 23.3295L67.1001 24.9055C66.9941 24.9387 66.8449 24.9768 66.6527 25.0199C66.4605 25.0663 66.2268 25.0945 65.9517 25.1044C65.4413 25.1243 64.9939 25.0563 64.6094 24.9006C64.2282 24.7448 63.9316 24.5028 63.7195 24.1747C63.5073 23.8466 63.4029 23.4323 63.4063 22.9318V15.5341ZM68.2006 25V17.3636H70.3185V25H68.2006ZM69.2645 16.3793C68.9496 16.3793 68.6795 16.2749 68.4541 16.0661C68.232 15.8539 68.121 15.6004 68.121 15.3054C68.121 15.0137 68.232 14.7635 68.4541 14.5547C68.6795 14.3426 68.9496 14.2365 69.2645 14.2365C69.5793 14.2365 69.8478 14.3426 70.0699 14.5547C70.2953 14.7635 70.4079 15.0137 70.4079 15.3054C70.4079 15.6004 70.2953 15.8539 70.0699 16.0661C69.8478 16.2749 69.5793 16.3793 69.2645 16.3793ZM78.9943 17.3636L76.3246 25H73.9382L71.2685 17.3636H73.5057L75.0916 22.8274H75.1712L76.7521 17.3636H78.9943ZM79.9381 25V17.3636H82.056V25H79.9381ZM81.0021 16.3793C80.6872 16.3793 80.4171 16.2749 80.1917 16.0661C79.9696 15.8539 79.8586 15.6004 79.8586 15.3054C79.8586 15.0137 79.9696 14.7635 80.1917 14.5547C80.4171 14.3426 80.6872 14.2365 81.0021 14.2365C81.3169 14.2365 81.5854 14.3426 81.8075 14.5547C82.0328 14.7635 82.1455 15.0137 82.1455 15.3054C82.1455 15.6004 82.0328 15.8539 81.8075 16.0661C81.5854 16.2749 81.3169 16.3793 81.0021 16.3793ZM87.6744 17.3636V18.9545H83.0757V17.3636H87.6744ZM84.1197 15.5341H86.2376V22.6534C86.2376 22.849 86.2674 23.0014 86.3271 23.1108C86.3867 23.2169 86.4696 23.2914 86.5757 23.3345C86.685 23.3776 86.811 23.3991 86.9535 23.3991C87.0529 23.3991 87.1524 23.3909 87.2518 23.3743C87.3512 23.3544 87.4275 23.3395 87.4805 23.3295L87.8136 24.9055C87.7075 24.9387 87.5584 24.9768 87.3661 25.0199C87.1739 25.0663 86.9402 25.0945 86.6651 25.1044C86.1547 25.1243 85.7073 25.0563 85.3228 24.9006C84.9417 24.7448 84.645 24.5028 84.4329 24.1747C84.2208 23.8466 84.1164 23.4323 84.1197 22.9318V15.5341ZM90.2215 27.8636C89.9531 27.8636 89.7012 27.8421 89.4658 27.799C89.2338 27.7592 89.0416 27.7079 88.8891 27.6449L89.3664 26.0639C89.615 26.1402 89.8387 26.1816 90.0376 26.1882C90.2398 26.1948 90.4138 26.1484 90.5596 26.049C90.7087 25.9496 90.8297 25.7805 90.9225 25.5419L91.0468 25.2188L88.3075 17.3636H90.5347L92.1157 22.9716H92.1952L93.7911 17.3636H96.0333L93.0653 25.8253C92.9228 26.2363 92.7289 26.5942 92.4836 26.8991C92.2417 27.2074 91.9351 27.4444 91.5639 27.6101C91.1926 27.7791 90.7452 27.8636 90.2215 27.8636Z" fill="white"/>
<rect x="0.5" y="0.5" width="112" height="39" rx="7.5" stroke="white"/>
<defs>
<clipPath id="clip0_1677_18736">
<rect width="20" height="20" fill="white" transform="translate(16 10)"/>
</clipPath>
</defs>
</svg>
