<svg width="192" height="48" viewBox="0 0 192 48" fill="none" xmlns="http://www.w3.org/2000/svg">
<rect width="192" height="48" rx="12" fill="#EFEFEF"/>
<path d="M27.3239 21.7102C27.2784 21.2519 27.0833 20.8958 26.7386 20.642C26.3939 20.3883 25.9261 20.2614 25.3352 20.2614C24.9337 20.2614 24.5947 20.3182 24.3182 20.4318C24.0417 20.5417 23.8295 20.6951 23.6818 20.892C23.5379 21.089 23.4659 21.3125 23.4659 21.5625C23.4583 21.7708 23.5019 21.9527 23.5966 22.108C23.6951 22.2633 23.8295 22.3977 24 22.5114C24.1705 22.6212 24.3674 22.7178 24.5909 22.8011C24.8144 22.8807 25.053 22.9489 25.3068 23.0057L26.3523 23.2557C26.8598 23.3693 27.3258 23.5208 27.75 23.7102C28.1742 23.8996 28.5417 24.1326 28.8523 24.4091C29.1629 24.6856 29.4034 25.0114 29.5739 25.3864C29.7481 25.7614 29.8371 26.1913 29.8409 26.6761C29.8371 27.3883 29.6553 28.0057 29.2955 28.5284C28.9394 29.0473 28.4242 29.4508 27.75 29.7386C27.0795 30.0227 26.2708 30.1648 25.3239 30.1648C24.3845 30.1648 23.5663 30.0208 22.8693 29.733C22.1761 29.4451 21.6345 29.0189 21.2443 28.4545C20.858 27.8864 20.6553 27.1837 20.6364 26.3466H23.017C23.0436 26.7367 23.1553 27.0625 23.3523 27.3239C23.553 27.5814 23.8201 27.7765 24.1534 27.9091C24.4905 28.0379 24.8712 28.1023 25.2955 28.1023C25.7121 28.1023 26.0739 28.0417 26.3807 27.9205C26.6913 27.7992 26.9318 27.6307 27.1023 27.4148C27.2727 27.1989 27.358 26.9508 27.358 26.6705C27.358 26.4091 27.2803 26.1894 27.125 26.0114C26.9735 25.8333 26.75 25.6818 26.4545 25.5568C26.1629 25.4318 25.8049 25.3182 25.3807 25.2159L24.1136 24.8977C23.1326 24.6591 22.358 24.286 21.7898 23.7784C21.2216 23.2708 20.9394 22.5871 20.9432 21.7273C20.9394 21.0227 21.1269 20.4072 21.5057 19.8807C21.8883 19.3542 22.4129 18.9432 23.0795 18.6477C23.7462 18.3523 24.5038 18.2045 25.3523 18.2045C26.2159 18.2045 26.9697 18.3523 27.6136 18.6477C28.2614 18.9432 28.7652 19.3542 29.125 19.8807C29.4848 20.4072 29.6705 21.017 29.6818 21.7102H27.3239ZM35.2676 30.1705C34.3698 30.1705 33.5971 29.9886 32.9494 29.625C32.3054 29.2576 31.8092 28.7386 31.4607 28.0682C31.1123 27.3939 30.938 26.5966 30.938 25.6761C30.938 24.7784 31.1123 23.9905 31.4607 23.3125C31.8092 22.6345 32.2998 22.1061 32.9323 21.7273C33.5687 21.3485 34.3149 21.1591 35.171 21.1591C35.7467 21.1591 36.2827 21.2519 36.7789 21.4375C37.2789 21.6193 37.7145 21.8939 38.0857 22.2614C38.4607 22.6288 38.7524 23.0909 38.9607 23.6477C39.1691 24.2008 39.2732 24.8485 39.2732 25.5909V26.2557H31.9039V24.7557H36.9948C36.9948 24.4072 36.9191 24.0985 36.7676 23.8295C36.616 23.5606 36.4058 23.3504 36.1369 23.1989C35.8717 23.0436 35.563 22.9659 35.2107 22.9659C34.8433 22.9659 34.5176 23.0511 34.2335 23.2216C33.9532 23.3883 33.7335 23.6136 33.5744 23.8977C33.4153 24.178 33.3338 24.4905 33.3301 24.8352V26.2614C33.3301 26.6932 33.4096 27.0663 33.5687 27.3807C33.7316 27.6951 33.9607 27.9375 34.2562 28.108C34.5516 28.2784 34.902 28.3636 35.3073 28.3636C35.5763 28.3636 35.8225 28.3258 36.046 28.25C36.2695 28.1742 36.4607 28.0606 36.6198 27.9091C36.7789 27.7576 36.9001 27.572 36.9835 27.3523L39.2221 27.5C39.1085 28.0379 38.8755 28.5076 38.5232 28.9091C38.1748 29.3068 37.724 29.6174 37.171 29.8409C36.6217 30.0606 35.9873 30.1705 35.2676 30.1705ZM44.6701 30.1705C43.7723 30.1705 42.9996 29.9886 42.3519 29.625C41.7079 29.2576 41.2117 28.7386 40.8632 28.0682C40.5148 27.3939 40.3405 26.5966 40.3405 25.6761C40.3405 24.7784 40.5148 23.9905 40.8632 23.3125C41.2117 22.6345 41.7023 22.1061 42.3348 21.7273C42.9712 21.3485 43.7174 21.1591 44.5735 21.1591C45.1492 21.1591 45.6852 21.2519 46.1814 21.4375C46.6814 21.6193 47.117 21.8939 47.4882 22.2614C47.8632 22.6288 48.1549 23.0909 48.3632 23.6477C48.5716 24.2008 48.6757 24.8485 48.6757 25.5909V26.2557H41.3064V24.7557H46.3973C46.3973 24.4072 46.3216 24.0985 46.1701 23.8295C46.0185 23.5606 45.8083 23.3504 45.5394 23.1989C45.2742 23.0436 44.9655 22.9659 44.6132 22.9659C44.2458 22.9659 43.9201 23.0511 43.636 23.2216C43.3557 23.3883 43.136 23.6136 42.9769 23.8977C42.8178 24.178 42.7363 24.4905 42.7326 24.8352V26.2614C42.7326 26.6932 42.8121 27.0663 42.9712 27.3807C43.1341 27.6951 43.3632 27.9375 43.6587 28.108C43.9541 28.2784 44.3045 28.3636 44.7098 28.3636C44.9788 28.3636 45.225 28.3258 45.4485 28.25C45.672 28.1742 45.8632 28.0606 46.0223 27.9091C46.1814 27.7576 46.3026 27.572 46.386 27.3523L48.6246 27.5C48.511 28.0379 48.278 28.5076 47.9257 28.9091C47.5773 29.3068 47.1265 29.6174 46.5735 29.8409C46.0242 30.0606 45.3898 30.1705 44.6701 30.1705ZM55.6895 30H53.0532L57.0702 18.3636H60.2407L64.252 30H61.6157L58.7009 21.0227H58.61L55.6895 30ZM55.5248 25.4261H61.752V27.3466H55.5248V25.4261ZM67.8676 18.3636V30H65.4472V18.3636H67.8676ZM72.067 18.3636V30H69.6465V18.3636H72.067ZM77.4345 30V18.3636H82.0936C82.9496 18.3636 83.6637 18.4905 84.2356 18.7443C84.8076 18.9981 85.2375 19.3504 85.5254 19.8011C85.8133 20.2481 85.9572 20.7633 85.9572 21.3466C85.9572 21.8011 85.8663 22.2008 85.6845 22.5455C85.5027 22.8864 85.2527 23.1667 84.9345 23.3864C84.6201 23.6023 84.2602 23.7557 83.8549 23.8466V23.9602C84.2981 23.9792 84.7129 24.1042 85.0993 24.3352C85.4894 24.5663 85.8057 24.8902 86.0481 25.3068C86.2906 25.7197 86.4118 26.2121 86.4118 26.7841C86.4118 27.4015 86.2584 27.9527 85.9515 28.4375C85.6485 28.9186 85.1996 29.2992 84.6049 29.5795C84.0102 29.8598 83.2773 30 82.4061 30H77.4345ZM79.8947 27.9886H81.9004C82.586 27.9886 83.086 27.858 83.4004 27.5966C83.7148 27.3314 83.872 26.9792 83.872 26.5398C83.872 26.2178 83.7943 25.9337 83.639 25.6875C83.4837 25.4413 83.2621 25.2481 82.9743 25.108C82.6902 24.9678 82.3512 24.8977 81.9572 24.8977H79.8947V27.9886ZM79.8947 23.233H81.7186C82.0557 23.233 82.3549 23.1742 82.6163 23.0568C82.8815 22.9356 83.0898 22.7652 83.2413 22.5455C83.3966 22.3258 83.4743 22.0625 83.4743 21.7557C83.4743 21.3352 83.3246 20.9962 83.0254 20.7386C82.7299 20.4811 82.3095 20.3523 81.764 20.3523H79.8947V23.233ZM90.2276 18.3636V30H87.8072V18.3636H90.2276ZM95.9497 30.1705C95.0671 30.1705 94.3039 29.983 93.6599 29.608C93.0198 29.2292 92.5255 28.7027 92.177 28.0284C91.8285 27.3504 91.6543 26.5644 91.6543 25.6705C91.6543 24.7689 91.8285 23.9811 92.177 23.3068C92.5255 22.6288 93.0198 22.1023 93.6599 21.7273C94.3039 21.3485 95.0671 21.1591 95.9497 21.1591C96.8323 21.1591 97.5937 21.3485 98.2338 21.7273C98.8777 22.1023 99.374 22.6288 99.7224 23.3068C100.071 23.9811 100.245 24.7689 100.245 25.6705C100.245 26.5644 100.071 27.3504 99.7224 28.0284C99.374 28.7027 98.8777 29.2292 98.2338 29.608C97.5937 29.983 96.8323 30.1705 95.9497 30.1705ZM95.9611 28.2955C96.3626 28.2955 96.6978 28.1818 96.9668 27.9545C97.2357 27.7235 97.4384 27.4091 97.5747 27.0114C97.7149 26.6136 97.7849 26.161 97.7849 25.6534C97.7849 25.1458 97.7149 24.6932 97.5747 24.2955C97.4384 23.8977 97.2357 23.5833 96.9668 23.3523C96.6978 23.1212 96.3626 23.0057 95.9611 23.0057C95.5558 23.0057 95.2149 23.1212 94.9384 23.3523C94.6656 23.5833 94.4592 23.8977 94.319 24.2955C94.1827 24.6932 94.1145 25.1458 94.1145 25.6534C94.1145 26.161 94.1827 26.6136 94.319 27.0114C94.4592 27.4091 94.6656 27.7235 94.9384 27.9545C95.2149 28.1818 95.5558 28.2955 95.9611 28.2955ZM105.591 33.4545C104.807 33.4545 104.134 33.3466 103.574 33.1307C103.017 32.9186 102.574 32.6288 102.244 32.2614C101.915 31.8939 101.701 31.4811 101.602 31.0227L103.841 30.7216C103.909 30.8958 104.017 31.0587 104.165 31.2102C104.312 31.3617 104.508 31.483 104.75 31.5739C104.996 31.6686 105.295 31.7159 105.648 31.7159C106.174 31.7159 106.608 31.5871 106.949 31.3295C107.294 31.0758 107.466 30.6496 107.466 30.0511V28.4545H107.364C107.258 28.697 107.098 28.9261 106.886 29.142C106.674 29.358 106.401 29.5341 106.068 29.6705C105.735 29.8068 105.337 29.875 104.875 29.875C104.22 29.875 103.623 29.7235 103.085 29.4205C102.551 29.1136 102.125 28.6458 101.807 28.017C101.492 27.3845 101.335 26.5852 101.335 25.6193C101.335 24.6307 101.496 23.8049 101.818 23.142C102.14 22.4792 102.568 21.983 103.102 21.6534C103.64 21.3239 104.229 21.1591 104.869 21.1591C105.358 21.1591 105.767 21.2424 106.097 21.4091C106.426 21.572 106.691 21.7765 106.892 22.0227C107.097 22.2652 107.254 22.5038 107.364 22.7386H107.454V21.2727H109.858V30.0852C109.858 30.8277 109.676 31.4489 109.312 31.9489C108.949 32.4489 108.445 32.8239 107.801 33.0739C107.161 33.3277 106.424 33.4545 105.591 33.4545ZM105.642 28.0568C106.032 28.0568 106.362 27.9602 106.631 27.767C106.903 27.5701 107.112 27.2898 107.256 26.9261C107.403 26.5587 107.477 26.1193 107.477 25.608C107.477 25.0966 107.405 24.6534 107.261 24.2784C107.117 23.8996 106.909 23.6061 106.636 23.3977C106.364 23.1894 106.032 23.0852 105.642 23.0852C105.244 23.0852 104.909 23.1932 104.636 23.4091C104.364 23.6212 104.157 23.9167 104.017 24.2955C103.877 24.6742 103.807 25.1117 103.807 25.608C103.807 26.1117 103.877 26.5473 104.017 26.9148C104.161 27.2784 104.367 27.5606 104.636 27.7614C104.909 27.9583 105.244 28.0568 105.642 28.0568ZM118.735 30.1705C117.932 30.1705 117.239 30.0265 116.656 29.7386C116.072 29.4508 115.624 29.0606 115.309 28.5682C114.999 28.072 114.843 27.5189 114.843 26.9091C114.843 26.4545 114.934 26.0511 115.116 25.6989C115.298 25.3466 115.552 25.0227 115.877 24.7273C116.203 24.428 116.582 24.1307 117.014 23.8352L119.269 22.3523C119.561 22.1667 119.775 21.9716 119.911 21.767C120.048 21.5587 120.116 21.3333 120.116 21.0909C120.116 20.8598 120.023 20.6458 119.838 20.4489C119.652 20.2519 119.389 20.1553 119.048 20.1591C118.821 20.1591 118.624 20.2102 118.457 20.3125C118.29 20.411 118.16 20.5417 118.065 20.7045C117.974 20.8636 117.929 21.0417 117.929 21.2386C117.929 21.4811 117.997 21.7273 118.133 21.9773C118.269 22.2273 118.451 22.4924 118.679 22.7727C118.906 23.0492 119.154 23.3485 119.423 23.6705L124.94 30H122.417L117.815 24.875C117.512 24.5303 117.209 24.1705 116.906 23.7955C116.607 23.4167 116.357 23.0152 116.156 22.5909C115.955 22.1629 115.855 21.6989 115.855 21.1989C115.855 20.6345 115.985 20.1269 116.247 19.6761C116.512 19.2254 116.883 18.8693 117.36 18.608C117.838 18.3428 118.394 18.2102 119.031 18.2102C119.652 18.2102 120.188 18.3371 120.639 18.5909C121.093 18.8409 121.442 19.1742 121.684 19.5909C121.93 20.0038 122.054 20.4583 122.054 20.9545C122.054 21.5038 121.917 22.0019 121.644 22.4489C121.375 22.892 120.997 23.2898 120.508 23.642L118.133 25.3523C117.811 25.5871 117.572 25.8277 117.417 26.0739C117.266 26.3163 117.19 26.5492 117.19 26.7727C117.19 27.0492 117.258 27.2973 117.394 27.517C117.531 27.7367 117.724 27.911 117.974 28.0398C118.224 28.1648 118.518 28.2273 118.855 28.2273C119.264 28.2273 119.667 28.1345 120.065 27.9489C120.466 27.7595 120.83 27.4924 121.156 27.1477C121.485 26.7992 121.749 26.3864 121.946 25.9091C122.143 25.4318 122.241 24.9034 122.241 24.3239H124.247C124.247 25.036 124.169 25.678 124.014 26.25C123.858 26.8182 123.643 27.3144 123.366 27.7386C123.09 28.1591 122.773 28.5038 122.417 28.7727C122.304 28.8447 122.194 28.9129 122.088 28.9773C121.982 29.0417 121.872 29.1098 121.758 29.1818C121.326 29.5303 120.843 29.7822 120.309 29.9375C119.779 30.0928 119.254 30.1705 118.735 30.1705ZM139.11 18.3636V30H136.985L131.922 22.6761H131.837V30H129.377V18.3636H131.536L136.559 25.6818H136.661V18.3636H139.11ZM144.914 30.1705C144.017 30.1705 143.244 29.9886 142.596 29.625C141.952 29.2576 141.456 28.7386 141.108 28.0682C140.759 27.3939 140.585 26.5966 140.585 25.6761C140.585 24.7784 140.759 23.9905 141.108 23.3125C141.456 22.6345 141.947 22.1061 142.579 21.7273C143.216 21.3485 143.962 21.1591 144.818 21.1591C145.394 21.1591 145.93 21.2519 146.426 21.4375C146.926 21.6193 147.361 21.8939 147.733 22.2614C148.108 22.6288 148.399 23.0909 148.608 23.6477C148.816 24.2008 148.92 24.8485 148.92 25.5909V26.2557H141.551V24.7557H146.642C146.642 24.4072 146.566 24.0985 146.414 23.8295C146.263 23.5606 146.053 23.3504 145.784 23.1989C145.519 23.0436 145.21 22.9659 144.858 22.9659C144.49 22.9659 144.164 23.0511 143.88 23.2216C143.6 23.3883 143.38 23.6136 143.221 23.8977C143.062 24.178 142.981 24.4905 142.977 24.8352V26.2614C142.977 26.6932 143.056 27.0663 143.216 27.3807C143.378 27.6951 143.608 27.9375 143.903 28.108C144.199 28.2784 144.549 28.3636 144.954 28.3636C145.223 28.3636 145.469 28.3258 145.693 28.25C145.916 28.1742 146.108 28.0606 146.267 27.9091C146.426 27.7576 146.547 27.572 146.63 27.3523L148.869 27.5C148.755 28.0379 148.522 28.5076 148.17 28.9091C147.822 29.3068 147.371 29.6174 146.818 29.8409C146.269 30.0606 145.634 30.1705 144.914 30.1705ZM151.999 30L149.624 21.2727H152.073L153.425 27.1364H153.504L154.914 21.2727H157.317L158.749 27.1023H158.823L160.152 21.2727H162.595L160.226 30H157.664L156.164 24.5114H156.056L154.556 30H151.999ZM170.988 23.7614L168.772 23.8977C168.734 23.7083 168.653 23.5379 168.528 23.3864C168.403 23.2311 168.238 23.108 168.033 23.017C167.833 22.9223 167.592 22.875 167.312 22.875C166.937 22.875 166.62 22.9545 166.363 23.1136C166.105 23.2689 165.977 23.4773 165.977 23.7386C165.977 23.947 166.06 24.1231 166.227 24.267C166.393 24.411 166.679 24.5265 167.084 24.6136L168.664 24.9318C169.513 25.1061 170.145 25.3864 170.562 25.7727C170.978 26.1591 171.187 26.6667 171.187 27.2955C171.187 27.8674 171.018 28.3693 170.681 28.8011C170.348 29.233 169.889 29.5701 169.306 29.8125C168.727 30.0511 168.058 30.1705 167.3 30.1705C166.145 30.1705 165.225 29.9299 164.539 29.4489C163.857 28.964 163.458 28.3049 163.34 27.4716L165.721 27.3466C165.793 27.6989 165.967 27.9678 166.244 28.1534C166.52 28.3352 166.874 28.4261 167.306 28.4261C167.73 28.4261 168.071 28.3447 168.329 28.1818C168.59 28.0152 168.723 27.8011 168.727 27.5398C168.723 27.3201 168.63 27.1402 168.448 27C168.266 26.8561 167.986 26.7462 167.607 26.6705L166.096 26.3693C165.244 26.1989 164.609 25.9034 164.192 25.483C163.78 25.0625 163.573 24.5265 163.573 23.875C163.573 23.3144 163.725 22.8314 164.028 22.4261C164.334 22.0208 164.764 21.7083 165.317 21.4886C165.874 21.2689 166.526 21.1591 167.272 21.1591C168.374 21.1591 169.242 21.392 169.874 21.858C170.511 22.3239 170.882 22.9583 170.988 23.7614Z" fill="#344054"/>
</svg>
