<svg width="264" height="40" viewBox="0 0 264 40" fill="none" xmlns="http://www.w3.org/2000/svg">
<rect width="264" height="40" rx="8" fill="#D2E0F8"/>
<path d="M100.288 14.8182H102.7L105.021 19.2031H105.121L107.442 14.8182H109.854L106.14 21.4006V25H104.002V21.4006L100.288 14.8182ZM112.7 25.1491C111.928 25.1491 111.26 24.9851 110.697 24.657C110.137 24.3255 109.704 23.8648 109.399 23.2749C109.094 22.6816 108.942 21.9938 108.942 21.2116C108.942 20.4228 109.094 19.7334 109.399 19.1435C109.704 18.5502 110.137 18.0895 110.697 17.7614C111.26 17.4299 111.928 17.2642 112.7 17.2642C113.473 17.2642 114.139 17.4299 114.699 17.7614C115.262 18.0895 115.697 18.5502 116.002 19.1435C116.306 19.7334 116.459 20.4228 116.459 21.2116C116.459 21.9938 116.306 22.6816 116.002 23.2749C115.697 23.8648 115.262 24.3255 114.699 24.657C114.139 24.9851 113.473 25.1491 112.7 25.1491ZM112.71 23.5085C113.062 23.5085 113.355 23.4091 113.59 23.2102C113.826 23.008 114.003 22.733 114.122 22.3849C114.245 22.0369 114.306 21.6409 114.306 21.1967C114.306 20.7526 114.245 20.3565 114.122 20.0085C114.003 19.6605 113.826 19.3854 113.59 19.1832C113.355 18.9811 113.062 18.88 112.71 18.88C112.356 18.88 112.057 18.9811 111.815 19.1832C111.577 19.3854 111.396 19.6605 111.274 20.0085C111.154 20.3565 111.095 20.7526 111.095 21.1967C111.095 21.6409 111.154 22.0369 111.274 22.3849C111.396 22.733 111.577 23.008 111.815 23.2102C112.057 23.4091 112.356 23.5085 112.71 23.5085ZM122.593 21.7486V17.3636H124.711V25H122.678V23.6129H122.598C122.426 24.0604 122.139 24.42 121.738 24.6918C121.34 24.9635 120.855 25.0994 120.281 25.0994C119.771 25.0994 119.322 24.9834 118.934 24.7514C118.546 24.5194 118.243 24.1896 118.024 23.7621C117.809 23.3345 117.699 22.8224 117.696 22.2259V17.3636H119.814V21.848C119.817 22.2988 119.938 22.6551 120.177 22.9169C120.415 23.1787 120.735 23.3097 121.136 23.3097C121.392 23.3097 121.63 23.2517 121.852 23.1357C122.074 23.0163 122.253 22.8407 122.389 22.6087C122.528 22.3767 122.596 22.09 122.593 21.7486ZM126.265 25V17.3636H128.318V18.696H128.398C128.537 18.2221 128.771 17.8641 129.099 17.6222C129.427 17.3769 129.805 17.2543 130.232 17.2543C130.338 17.2543 130.453 17.2609 130.575 17.2741C130.698 17.2874 130.806 17.3056 130.899 17.3288V19.2081C130.799 19.1783 130.662 19.1518 130.486 19.1286C130.31 19.1054 130.149 19.0938 130.004 19.0938C129.692 19.0938 129.414 19.1617 129.168 19.2976C128.926 19.4302 128.734 19.6158 128.592 19.8544C128.453 20.093 128.383 20.3681 128.383 20.6797V25H126.265ZM134.994 25V14.8182H139.011C139.783 14.8182 140.441 14.9657 140.984 15.2607C141.528 15.5523 141.942 15.9583 142.227 16.4787C142.516 16.9957 142.66 17.5923 142.66 18.2685C142.66 18.9446 142.514 19.5412 142.222 20.0582C141.931 20.5753 141.508 20.978 140.954 21.2663C140.404 21.5547 139.738 21.6989 138.956 21.6989H136.396V19.9737H138.608C139.022 19.9737 139.364 19.9025 139.632 19.7599C139.904 19.6141 140.106 19.4136 140.239 19.1584C140.374 18.8999 140.442 18.6032 140.442 18.2685C140.442 17.9304 140.374 17.6354 140.239 17.3835C140.106 17.1283 139.904 16.9311 139.632 16.7919C139.36 16.6494 139.016 16.5781 138.598 16.5781H137.146V25H134.994ZM145.996 14.8182V25H143.878V14.8182H145.996ZM149.73 25.1442C149.243 25.1442 148.809 25.0597 148.428 24.8906C148.047 24.7183 147.745 24.4647 147.523 24.13C147.304 23.7919 147.195 23.371 147.195 22.8672C147.195 22.4429 147.273 22.0866 147.428 21.7983C147.584 21.5099 147.796 21.2779 148.065 21.1023C148.333 20.9266 148.638 20.794 148.98 20.7045C149.324 20.6151 149.685 20.5521 150.063 20.5156C150.507 20.4692 150.865 20.4261 151.137 20.3864C151.409 20.3433 151.606 20.2803 151.729 20.1974C151.851 20.1146 151.913 19.992 151.913 19.8295V19.7997C151.913 19.4848 151.813 19.2412 151.614 19.0689C151.419 18.8965 151.141 18.8104 150.779 18.8104C150.398 18.8104 150.095 18.8949 149.869 19.0639C149.644 19.2296 149.495 19.4384 149.422 19.6903L147.463 19.5312C147.563 19.0672 147.758 18.6662 148.05 18.3281C148.341 17.9867 148.718 17.7249 149.178 17.5426C149.642 17.357 150.179 17.2642 150.789 17.2642C151.213 17.2642 151.619 17.3139 152.007 17.4134C152.398 17.5128 152.745 17.6669 153.046 17.8757C153.351 18.0845 153.591 18.353 153.767 18.6811C153.943 19.0059 154.031 19.3954 154.031 19.8494V25H152.022V23.9411H151.962C151.84 24.1797 151.676 24.3902 151.47 24.5724C151.265 24.7514 151.018 24.8923 150.73 24.995C150.441 25.0945 150.108 25.1442 149.73 25.1442ZM150.337 23.6825C150.648 23.6825 150.923 23.6212 151.162 23.4986C151.401 23.3726 151.588 23.2036 151.724 22.9915C151.86 22.7794 151.928 22.5391 151.928 22.2706V21.4602C151.861 21.5033 151.77 21.5431 151.654 21.5795C151.542 21.6127 151.414 21.6442 151.271 21.674C151.129 21.7005 150.986 21.7254 150.844 21.7486C150.701 21.7685 150.572 21.7867 150.456 21.8033C150.208 21.8397 149.99 21.8977 149.805 21.9773C149.619 22.0568 149.475 22.1645 149.372 22.3004C149.27 22.433 149.218 22.5987 149.218 22.7976C149.218 23.0859 149.323 23.3063 149.531 23.4588C149.743 23.608 150.012 23.6825 150.337 23.6825ZM157.652 20.5852V25H155.534V17.3636H157.552V18.7109H157.642C157.811 18.2668 158.094 17.9155 158.492 17.657C158.89 17.3951 159.372 17.2642 159.939 17.2642C160.469 17.2642 160.931 17.3802 161.326 17.6122C161.72 17.8442 162.027 18.1757 162.245 18.6065C162.464 19.0341 162.574 19.5445 162.574 20.1378V25H160.456V20.5156C160.459 20.0483 160.34 19.6837 160.098 19.4219C159.856 19.1567 159.523 19.0241 159.098 19.0241C158.813 19.0241 158.561 19.0855 158.343 19.2081C158.127 19.3307 157.958 19.5097 157.836 19.745C157.716 19.977 157.655 20.2571 157.652 20.5852Z" fill="white"/>
</svg>
