<svg width="100" height="40" viewBox="0 0 100 40" fill="none" xmlns="http://www.w3.org/2000/svg">
<rect width="100" height="40" rx="8" fill="#EFEFEF"/>
<path d="M20.4943 25H16.8849V14.8182H20.5241C21.5483 14.8182 22.4299 15.022 23.169 15.4297C23.9081 15.834 24.4766 16.4157 24.8743 17.1747C25.2753 17.9337 25.4759 18.8419 25.4759 19.8991C25.4759 20.9598 25.2753 21.8712 24.8743 22.6335C24.4766 23.3958 23.9048 23.9808 23.1591 24.3885C22.4167 24.7962 21.5284 25 20.4943 25ZM19.0376 23.1555H20.4048C21.0412 23.1555 21.5765 23.0429 22.0107 22.8175C22.4482 22.5888 22.7763 22.2358 22.995 21.7585C23.2171 21.2779 23.3281 20.6581 23.3281 19.8991C23.3281 19.1468 23.2171 18.532 22.995 18.0547C22.7763 17.5774 22.4498 17.2261 22.0156 17.0007C21.5814 16.7753 21.0462 16.6626 20.4098 16.6626H19.0376V23.1555ZM30.3708 25.1491C29.5853 25.1491 28.9092 24.9901 28.3424 24.6719C27.779 24.3504 27.3448 23.8963 27.0399 23.3097C26.7349 22.7197 26.5825 22.022 26.5825 21.2166C26.5825 20.4311 26.7349 19.7417 27.0399 19.1484C27.3448 18.5552 27.774 18.0928 28.3275 17.7614C28.8843 17.4299 29.5373 17.2642 30.2863 17.2642C30.7901 17.2642 31.2591 17.3454 31.6933 17.5078C32.1308 17.6669 32.5119 17.9072 32.8367 18.2287C33.1649 18.5502 33.4201 18.9545 33.6024 19.4418C33.7847 19.9257 33.8758 20.4924 33.8758 21.142V21.7237H27.4276V20.4112H31.8822C31.8822 20.1063 31.8159 19.8362 31.6833 19.6009C31.5508 19.3655 31.3668 19.1816 31.1315 19.049C30.8995 18.9131 30.6294 18.8452 30.3211 18.8452C29.9996 18.8452 29.7146 18.9197 29.466 19.0689C29.2207 19.2147 29.0285 19.4119 28.8893 19.6605C28.7501 19.9058 28.6788 20.1792 28.6755 20.4808V21.7287C28.6755 22.1065 28.7451 22.433 28.8843 22.7081C29.0268 22.9832 29.2274 23.1953 29.4859 23.3445C29.7444 23.4936 30.051 23.5682 30.4056 23.5682C30.641 23.5682 30.8564 23.535 31.0519 23.4688C31.2475 23.4025 31.4149 23.303 31.5541 23.1705C31.6933 23.0379 31.7993 22.8755 31.8723 22.6832L33.8311 22.8125C33.7316 23.2831 33.5278 23.6941 33.2196 24.0455C32.9146 24.3935 32.5202 24.6652 32.0363 24.8608C31.5557 25.053 31.0006 25.1491 30.3708 25.1491ZM39.1797 17.3636V18.9545H34.581V17.3636H39.1797ZM35.625 15.5341H37.7429V22.6534C37.7429 22.849 37.7727 23.0014 37.8324 23.1108C37.8921 23.2169 37.9749 23.2914 38.081 23.3345C38.1903 23.3776 38.3163 23.3991 38.4588 23.3991C38.5582 23.3991 38.6577 23.3909 38.7571 23.3743C38.8565 23.3544 38.9328 23.3395 38.9858 23.3295L39.3189 24.9055C39.2128 24.9387 39.0637 24.9768 38.8715 25.0199C38.6792 25.0663 38.4456 25.0945 38.1705 25.1044C37.66 25.1243 37.2126 25.0563 36.8281 24.9006C36.447 24.7448 36.1503 24.5028 35.9382 24.1747C35.7261 23.8466 35.6217 23.4323 35.625 22.9318V15.5341ZM42.5969 25.1442C42.1097 25.1442 41.6755 25.0597 41.2943 24.8906C40.9132 24.7183 40.6115 24.4647 40.3895 24.13C40.1707 23.7919 40.0614 23.371 40.0614 22.8672C40.0614 22.4429 40.1392 22.0866 40.295 21.7983C40.4508 21.5099 40.6629 21.2779 40.9314 21.1023C41.1999 20.9266 41.5048 20.794 41.8462 20.7045C42.1909 20.6151 42.5521 20.5521 42.93 20.5156C43.3741 20.4692 43.732 20.4261 44.0038 20.3864C44.2756 20.3433 44.4728 20.2803 44.5954 20.1974C44.7181 20.1146 44.7794 19.992 44.7794 19.8295V19.7997C44.7794 19.4848 44.68 19.2412 44.4811 19.0689C44.2856 18.8965 44.0071 18.8104 43.6459 18.8104C43.2647 18.8104 42.9615 18.8949 42.7361 19.0639C42.5107 19.2296 42.3615 19.4384 42.2886 19.6903L40.3298 19.5312C40.4293 19.0672 40.6248 18.6662 40.9165 18.3281C41.2081 17.9867 41.5843 17.7249 42.045 17.5426C42.509 17.357 43.046 17.2642 43.6558 17.2642C44.0801 17.2642 44.4861 17.3139 44.8739 17.4134C45.265 17.5128 45.6113 17.6669 45.9129 17.8757C46.2178 18.0845 46.4581 18.353 46.6338 18.6811C46.8095 19.0059 46.8973 19.3954 46.8973 19.8494V25H44.8888V23.9411H44.8291C44.7065 24.1797 44.5424 24.3902 44.3369 24.5724C44.1314 24.7514 43.8845 24.8923 43.5962 24.995C43.3078 25.0945 42.9747 25.1442 42.5969 25.1442ZM43.2034 23.6825C43.515 23.6825 43.79 23.6212 44.0287 23.4986C44.2673 23.3726 44.4546 23.2036 44.5905 22.9915C44.7264 22.7794 44.7943 22.5391 44.7943 22.2706V21.4602C44.728 21.5033 44.6369 21.5431 44.5209 21.5795C44.4082 21.6127 44.2806 21.6442 44.1381 21.674C43.9955 21.7005 43.853 21.7254 43.7105 21.7486C43.568 21.7685 43.4387 21.7867 43.3227 21.8033C43.0741 21.8397 42.857 21.8977 42.6714 21.9773C42.4858 22.0568 42.3417 22.1645 42.2389 22.3004C42.1362 22.433 42.0848 22.5987 42.0848 22.7976C42.0848 23.0859 42.1892 23.3063 42.398 23.4588C42.6101 23.608 42.8786 23.6825 43.2034 23.6825ZM48.4004 25V17.3636H50.5183V25H48.4004ZM49.4643 16.3793C49.1495 16.3793 48.8793 16.2749 48.654 16.0661C48.4319 15.8539 48.3209 15.6004 48.3209 15.3054C48.3209 15.0137 48.4319 14.7635 48.654 14.5547C48.8793 14.3426 49.1495 14.2365 49.4643 14.2365C49.7792 14.2365 50.0477 14.3426 50.2697 14.5547C50.4951 14.7635 50.6078 15.0137 50.6078 15.3054C50.6078 15.6004 50.4951 15.8539 50.2697 16.0661C50.0477 16.2749 49.7792 16.3793 49.4643 16.3793ZM54.1928 14.8182V25H52.0749V14.8182H54.1928Z" fill="#344054"/>
<path fill-rule="evenodd" clip-rule="evenodd" d="M67.9941 17.1191C68.3195 16.7936 68.8472 16.7936 69.1726 17.1191L74 21.9465L78.8274 17.1191C79.1528 16.7936 79.6805 16.7936 80.0059 17.1191C80.3314 17.4445 80.3314 17.9722 80.0059 18.2976L75.1785 23.125C74.5276 23.7759 73.4724 23.7759 72.8215 23.125L67.9941 18.2976C67.6686 17.9722 67.6686 17.4445 67.9941 17.1191Z" fill="#344054"/>
</svg>
