<svg width="128" height="40" viewBox="0 0 128 40" fill="none" xmlns="http://www.w3.org/2000/svg">
<rect x="0.5" y="0.5" width="127" height="39" rx="7.5" fill="white"/>
<path fill-rule="evenodd" clip-rule="evenodd" d="M26.8349 14.1654C26.8349 13.7051 26.4618 13.332 26.0016 13.332C25.5413 13.332 25.1682 13.7051 25.1682 14.1654V20.9039L22.8408 18.5765C22.5154 18.251 21.9877 18.251 21.6623 18.5765C21.3369 18.9019 21.3369 19.4295 21.6623 19.755L24.8231 22.9157C25.4739 23.5666 26.5292 23.5666 27.1801 22.9157L30.3393 19.7566C30.6647 19.4312 30.6647 18.9035 30.3393 18.5781C30.0138 18.2526 29.4862 18.2526 29.1607 18.5781L26.8349 20.9039V14.1654Z" fill="#2066DA"/>
<path fill-rule="evenodd" clip-rule="evenodd" d="M19.3333 21.6657C19.7936 21.6657 20.1667 22.0388 20.1667 22.499V24.1657C20.1667 24.6259 20.5398 24.999 21 24.999H31C31.4602 24.999 31.8333 24.6259 31.8333 24.1657V22.499C31.8333 22.0388 32.2064 21.6657 32.6667 21.6657C33.1269 21.6657 33.5 22.0388 33.5 22.499V24.1657C33.5 25.5464 32.3807 26.6657 31 26.6657H21C19.6193 26.6657 18.5 25.5464 18.5 24.1657V22.499C18.5 22.0388 18.8731 21.6657 19.3333 21.6657Z" fill="#2066DA"/>
<path d="M48.4943 25H44.8849V14.8182H48.5241C49.5483 14.8182 50.4299 15.022 51.169 15.4297C51.9081 15.834 52.4766 16.4157 52.8743 17.1747C53.2753 17.9337 53.4759 18.8419 53.4759 19.8991C53.4759 20.9598 53.2753 21.8712 52.8743 22.6335C52.4766 23.3958 51.9048 23.9808 51.1591 24.3885C50.4167 24.7962 49.5284 25 48.4943 25ZM47.0376 23.1555H48.4048C49.0412 23.1555 49.5765 23.0429 50.0107 22.8175C50.4482 22.5888 50.7763 22.2358 50.995 21.7585C51.2171 21.2779 51.3281 20.6581 51.3281 19.8991C51.3281 19.1468 51.2171 18.532 50.995 18.0547C50.7763 17.5774 50.4498 17.2261 50.0156 17.0007C49.5814 16.7753 49.0462 16.6626 48.4098 16.6626H47.0376V23.1555ZM58.341 25.1491C57.5687 25.1491 56.9009 24.9851 56.3374 24.657C55.7773 24.3255 55.3448 23.8648 55.0399 23.2749C54.7349 22.6816 54.5825 21.9938 54.5825 21.2116C54.5825 20.4228 54.7349 19.7334 55.0399 19.1435C55.3448 18.5502 55.7773 18.0895 56.3374 17.7614C56.9009 17.4299 57.5687 17.2642 58.341 17.2642C59.1133 17.2642 59.7794 17.4299 60.3396 17.7614C60.903 18.0895 61.3372 18.5502 61.6421 19.1435C61.9471 19.7334 62.0995 20.4228 62.0995 21.2116C62.0995 21.9938 61.9471 22.6816 61.6421 23.2749C61.3372 23.8648 60.903 24.3255 60.3396 24.657C59.7794 24.9851 59.1133 25.1491 58.341 25.1491ZM58.3509 23.5085C58.7023 23.5085 58.9956 23.4091 59.2309 23.2102C59.4662 23.008 59.6436 22.733 59.7629 22.3849C59.8855 22.0369 59.9468 21.6409 59.9468 21.1967C59.9468 20.7526 59.8855 20.3565 59.7629 20.0085C59.6436 19.6605 59.4662 19.3854 59.2309 19.1832C58.9956 18.9811 58.7023 18.88 58.3509 18.88C57.9963 18.88 57.698 18.9811 57.4561 19.1832C57.2174 19.3854 57.0368 19.6605 56.9142 20.0085C56.7948 20.3565 56.7352 20.7526 56.7352 21.1967C56.7352 21.6409 56.7948 22.0369 56.9142 22.3849C57.0368 22.733 57.2174 23.008 57.4561 23.2102C57.698 23.4091 57.9963 23.5085 58.3509 23.5085ZM64.6516 25L62.5735 17.3636H64.7163L65.8995 22.4943H65.9691L67.2021 17.3636H69.305L70.5579 22.4645H70.6225L71.7859 17.3636H73.9237L71.8505 25H69.6083L68.2958 20.1974H68.2014L66.8889 25H64.6516ZM77.0313 20.5852V25H74.9135V17.3636H76.9319V18.7109H77.0214C77.1904 18.2668 77.4738 17.9155 77.8715 17.657C78.2693 17.3951 78.7515 17.2642 79.3183 17.2642C79.8486 17.2642 80.3109 17.3802 80.7054 17.6122C81.0998 17.8442 81.4063 18.1757 81.6251 18.6065C81.8438 19.0341 81.9532 19.5445 81.9532 20.1378V25H79.8353V20.5156C79.8386 20.0483 79.7193 19.6837 79.4774 19.4219C79.2354 19.1567 78.9023 19.0241 78.4781 19.0241C78.193 19.0241 77.9412 19.0855 77.7224 19.2081C77.507 19.3307 77.3379 19.5097 77.2153 19.745C77.096 19.977 77.0347 20.2571 77.0313 20.5852ZM85.6003 14.8182V25H83.4824V14.8182H85.6003ZM90.6072 25.1491C89.8349 25.1491 89.1671 24.9851 88.6036 24.657C88.0435 24.3255 87.611 23.8648 87.306 23.2749C87.0011 22.6816 86.8486 21.9938 86.8486 21.2116C86.8486 20.4228 87.0011 19.7334 87.306 19.1435C87.611 18.5502 88.0435 18.0895 88.6036 17.7614C89.1671 17.4299 89.8349 17.2642 90.6072 17.2642C91.3794 17.2642 92.0456 17.4299 92.6058 17.7614C93.1692 18.0895 93.6034 18.5502 93.9083 19.1435C94.2132 19.7334 94.3657 20.4228 94.3657 21.2116C94.3657 21.9938 94.2132 22.6816 93.9083 23.2749C93.6034 23.8648 93.1692 24.3255 92.6058 24.657C92.0456 24.9851 91.3794 25.1491 90.6072 25.1491ZM90.6171 23.5085C90.9684 23.5085 91.2618 23.4091 91.4971 23.2102C91.7324 23.008 91.9097 22.733 92.029 22.3849C92.1517 22.0369 92.213 21.6409 92.213 21.1967C92.213 20.7526 92.1517 20.3565 92.029 20.0085C91.9097 19.6605 91.7324 19.3854 91.4971 19.1832C91.2618 18.9811 90.9684 18.88 90.6171 18.88C90.2625 18.88 89.9642 18.9811 89.7222 19.1832C89.4836 19.3854 89.303 19.6605 89.1803 20.0085C89.061 20.3565 89.0013 20.7526 89.0013 21.1967C89.0013 21.6409 89.061 22.0369 89.1803 22.3849C89.303 22.733 89.4836 23.008 89.7222 23.2102C89.9642 23.4091 90.2625 23.5085 90.6171 23.5085ZM97.7804 25.1442C97.2932 25.1442 96.859 25.0597 96.4778 24.8906C96.0967 24.7183 95.7951 24.4647 95.573 24.13C95.3542 23.7919 95.2449 23.371 95.2449 22.8672C95.2449 22.4429 95.3228 22.0866 95.4785 21.7983C95.6343 21.5099 95.8464 21.2779 96.1149 21.1023C96.3834 20.9266 96.6883 20.794 97.0297 20.7045C97.3744 20.6151 97.7356 20.5521 98.1135 20.5156C98.5576 20.4692 98.9156 20.4261 99.1873 20.3864C99.4591 20.3433 99.6563 20.2803 99.779 20.1974C99.9016 20.1146 99.9629 19.992 99.9629 19.8295V19.7997C99.9629 19.4848 99.8635 19.2412 99.6646 19.0689C99.4691 18.8965 99.1907 18.8104 98.8294 18.8104C98.4482 18.8104 98.145 18.8949 97.9196 19.0639C97.6942 19.2296 97.5451 19.4384 97.4721 19.6903L95.5133 19.5312C95.6128 19.0672 95.8083 18.6662 96.1 18.3281C96.3917 17.9867 96.7678 17.7249 97.2285 17.5426C97.6926 17.357 98.2295 17.2642 98.8393 17.2642C99.2636 17.2642 99.6696 17.3139 100.057 17.4134C100.448 17.5128 100.795 17.6669 101.096 17.8757C101.401 18.0845 101.642 18.353 101.817 18.6811C101.993 19.0059 102.081 19.3954 102.081 19.8494V25H100.072V23.9411H100.013C99.89 24.1797 99.7259 24.3902 99.5204 24.5724C99.3149 24.7514 99.068 24.8923 98.7797 24.995C98.4913 25.0945 98.1582 25.1442 97.7804 25.1442ZM98.3869 23.6825C98.6985 23.6825 98.9736 23.6212 99.2122 23.4986C99.4508 23.3726 99.6381 23.2036 99.774 22.9915C99.9099 22.7794 99.9778 22.5391 99.9778 22.2706V21.4602C99.9115 21.5033 99.8204 21.5431 99.7044 21.5795C99.5917 21.6127 99.4641 21.6442 99.3216 21.674C99.1791 21.7005 99.0365 21.7254 98.894 21.7486C98.7515 21.7685 98.6222 21.7867 98.5062 21.8033C98.2577 21.8397 98.0406 21.8977 97.855 21.9773C97.6694 22.0568 97.5252 22.1645 97.4224 22.3004C97.3197 22.433 97.2683 22.5987 97.2683 22.7976C97.2683 23.0859 97.3727 23.3063 97.5815 23.4588C97.7936 23.608 98.0621 23.6825 98.3869 23.6825ZM106.398 25.1243C105.818 25.1243 105.292 24.9751 104.822 24.6768C104.355 24.3752 103.983 23.9328 103.708 23.3494C103.436 22.7628 103.301 22.0436 103.301 21.1918C103.301 20.3168 103.441 19.5893 103.723 19.0092C104.005 18.4259 104.379 17.9901 104.847 17.7017C105.317 17.41 105.833 17.2642 106.393 17.2642C106.82 17.2642 107.177 17.3371 107.462 17.483C107.75 17.6255 107.982 17.8045 108.158 18.0199C108.337 18.232 108.473 18.4408 108.565 18.6463H108.63V14.8182H110.743V25H108.655V23.777H108.565C108.466 23.9891 108.325 24.1996 108.143 24.4084C107.964 24.6139 107.73 24.7846 107.442 24.9205C107.157 25.0563 106.809 25.1243 106.398 25.1243ZM107.069 23.4389C107.41 23.4389 107.699 23.3461 107.934 23.1605C108.173 22.9716 108.355 22.7081 108.481 22.37C108.61 22.032 108.675 21.6359 108.675 21.1818C108.675 20.7277 108.612 20.3333 108.486 19.9986C108.36 19.6638 108.178 19.4053 107.939 19.223C107.7 19.0407 107.41 18.9496 107.069 18.9496C106.721 18.9496 106.428 19.044 106.189 19.233C105.95 19.4219 105.77 19.6837 105.647 20.0185C105.524 20.3532 105.463 20.741 105.463 21.1818C105.463 21.6259 105.524 22.0187 105.647 22.3601C105.773 22.6982 105.954 22.9633 106.189 23.1555C106.428 23.3445 106.721 23.4389 107.069 23.4389Z" fill="#2066DA"/>
<rect x="0.5" y="0.5" width="127" height="39" rx="7.5" stroke="#2066DA"/>
</svg>
