<svg width="120" height="40" viewBox="0 0 120 40" fill="none" xmlns="http://www.w3.org/2000/svg">
<rect x="0.5" y="0.5" width="119" height="39" rx="7.5" fill="white"/>
<path d="M47.3849 25V14.8182H54.2457V16.593H49.5376V19.0192H53.8928V20.794H49.5376V23.2251H54.2656V25H47.3849ZM58.5914 25.1243C58.0113 25.1243 57.486 24.9751 57.0154 24.6768C56.548 24.3752 56.1768 23.9328 55.9017 23.3494C55.6299 22.7628 55.4941 22.0436 55.4941 21.1918C55.4941 20.3168 55.6349 19.5893 55.9166 19.0092C56.1984 18.4259 56.5729 17.9901 57.0402 17.7017C57.5109 17.41 58.0263 17.2642 58.5864 17.2642C59.0139 17.2642 59.3702 17.3371 59.6553 17.483C59.9436 17.6255 60.1756 17.8045 60.3513 18.0199C60.5303 18.232 60.6662 18.4408 60.759 18.6463H60.8236V14.8182H62.9365V25H60.8485V23.777H60.759C60.6595 23.9891 60.5187 24.1996 60.3364 24.4084C60.1574 24.6139 59.9237 24.7846 59.6354 24.9205C59.3504 25.0563 59.0023 25.1243 58.5914 25.1243ZM59.2625 23.4389C59.6039 23.4389 59.8923 23.3461 60.1276 23.1605C60.3662 22.9716 60.5485 22.7081 60.6745 22.37C60.8037 22.032 60.8683 21.6359 60.8683 21.1818C60.8683 20.7277 60.8054 20.3333 60.6794 19.9986C60.5535 19.6638 60.3712 19.4053 60.1325 19.223C59.8939 19.0407 59.6039 18.9496 59.2625 18.9496C58.9145 18.9496 58.6212 19.044 58.3825 19.233C58.1439 19.4219 57.9633 19.6837 57.8406 20.0185C57.718 20.3532 57.6567 20.741 57.6567 21.1818C57.6567 21.6259 57.718 22.0187 57.8406 22.3601C57.9666 22.6982 58.1472 22.9633 58.3825 23.1555C58.6212 23.3445 58.9145 23.4389 59.2625 23.4389ZM64.5378 25V17.3636H66.6557V25H64.5378ZM65.6017 16.3793C65.2869 16.3793 65.0168 16.2749 64.7914 16.0661C64.5693 15.8539 64.4583 15.6004 64.4583 15.3054C64.4583 15.0137 64.5693 14.7635 64.7914 14.5547C65.0168 14.3426 65.2869 14.2365 65.6017 14.2365C65.9166 14.2365 66.1851 14.3426 66.4071 14.5547C66.6325 14.7635 66.7452 15.0137 66.7452 15.3054C66.7452 15.6004 66.6325 15.8539 66.4071 16.0661C66.1851 16.2749 65.9166 16.3793 65.6017 16.3793ZM72.2741 17.3636V18.9545H67.6753V17.3636H72.2741ZM68.7194 15.5341H70.8373V22.6534C70.8373 22.849 70.8671 23.0014 70.9268 23.1108C70.9864 23.2169 71.0693 23.2914 71.1753 23.3345C71.2847 23.3776 71.4107 23.3991 71.5532 23.3991C71.6526 23.3991 71.7521 23.3909 71.8515 23.3743C71.9509 23.3544 72.0271 23.3395 72.0802 23.3295L72.4133 24.9055C72.3072 24.9387 72.1581 24.9768 71.9658 25.0199C71.7736 25.0663 71.5399 25.0945 71.2648 25.1044C70.7544 25.1243 70.307 25.0563 69.9225 24.9006C69.5414 24.7448 69.2447 24.5028 69.0326 24.1747C68.8205 23.8466 68.7161 23.4323 68.7194 22.9318V15.5341Z" fill="#2066DA"/>
<rect x="0.5" y="0.5" width="119" height="39" rx="7.5" stroke="#2066DA"/>
</svg>
