<svg width="90" height="40" viewBox="0 0 90 40" fill="none" xmlns="http://www.w3.org/2000/svg">
<rect width="90" height="40" rx="8" fill="#2066DA"/>
<path d="M22.8849 25V14.8182H29.7457V16.593H25.0376V19.0192H29.3928V20.794H25.0376V23.2251H29.7656V25H22.8849ZM33.3953 20.5852V25H31.2774V17.3636H33.2959V18.7109H33.3854C33.5544 18.2668 33.8378 17.9155 34.2355 17.657C34.6333 17.3951 35.1155 17.2642 35.6823 17.2642C36.2126 17.2642 36.6749 17.3802 37.0693 17.6122C37.4638 17.8442 37.7703 18.1757 37.9891 18.6065C38.2078 19.0341 38.3172 19.5445 38.3172 20.1378V25H36.1993V20.5156C36.2026 20.0483 36.0833 19.6837 35.8414 19.4219C35.5994 19.1567 35.2663 19.0241 34.8421 19.0241C34.557 19.0241 34.3051 19.0855 34.0864 19.2081C33.8709 19.3307 33.7019 19.5097 33.5793 19.745C33.46 19.977 33.3986 20.2571 33.3953 20.5852ZM42.024 25.1442C41.5368 25.1442 41.1026 25.0597 40.7214 24.8906C40.3403 24.7183 40.0387 24.4647 39.8166 24.13C39.5978 23.7919 39.4885 23.371 39.4885 22.8672C39.4885 22.4429 39.5664 22.0866 39.7221 21.7983C39.8779 21.5099 40.09 21.2779 40.3585 21.1023C40.627 20.9266 40.9319 20.794 41.2733 20.7045C41.618 20.6151 41.9792 20.5521 42.3571 20.5156C42.8012 20.4692 43.1592 20.4261 43.4309 20.3864C43.7027 20.3433 43.8999 20.2803 44.0226 20.1974C44.1452 20.1146 44.2065 19.992 44.2065 19.8295V19.7997C44.2065 19.4848 44.1071 19.2412 43.9082 19.0689C43.7127 18.8965 43.4343 18.8104 43.073 18.8104C42.6918 18.8104 42.3886 18.8949 42.1632 19.0639C41.9378 19.2296 41.7887 19.4384 41.7157 19.6903L39.7569 19.5312C39.8564 19.0672 40.0519 18.6662 40.3436 18.3281C40.6352 17.9867 41.0114 17.7249 41.4721 17.5426C41.9361 17.357 42.4731 17.2642 43.0829 17.2642C43.5072 17.2642 43.9132 17.3139 44.301 17.4134C44.6921 17.5128 45.0384 17.6669 45.34 17.8757C45.645 18.0845 45.8852 18.353 46.0609 18.6811C46.2366 19.0059 46.3244 19.3954 46.3244 19.8494V25H44.3159V23.9411H44.2562C44.1336 24.1797 43.9695 24.3902 43.764 24.5724C43.5585 24.7514 43.3116 24.8923 43.0233 24.995C42.7349 25.0945 42.4018 25.1442 42.024 25.1442ZM42.6305 23.6825C42.9421 23.6825 43.2172 23.6212 43.4558 23.4986C43.6944 23.3726 43.8817 23.2036 44.0176 22.9915C44.1535 22.7794 44.2214 22.5391 44.2214 22.2706V21.4602C44.1551 21.5033 44.064 21.5431 43.948 21.5795C43.8353 21.6127 43.7077 21.6442 43.5652 21.674C43.4227 21.7005 43.2801 21.7254 43.1376 21.7486C42.9951 21.7685 42.8658 21.7867 42.7498 21.8033C42.5012 21.8397 42.2842 21.8977 42.0986 21.9773C41.9129 22.0568 41.7688 22.1645 41.666 22.3004C41.5633 22.433 41.5119 22.5987 41.5119 22.7976C41.5119 23.0859 41.6163 23.3063 41.8251 23.4588C42.0372 23.608 42.3057 23.6825 42.6305 23.6825ZM47.8673 25V14.8182H49.9852V18.6463H50.0498C50.1426 18.4408 50.2769 18.232 50.4525 18.0199C50.6315 17.8045 50.8635 17.6255 51.1485 17.483C51.4369 17.3371 51.7948 17.2642 52.2224 17.2642C52.7792 17.2642 53.2929 17.41 53.7636 17.7017C54.2342 17.9901 54.6104 18.4259 54.8921 19.0092C55.1739 19.5893 55.3147 20.3168 55.3147 21.1918C55.3147 22.0436 55.1772 22.7628 54.9021 23.3494C54.6303 23.9328 54.2591 24.3752 53.7885 24.6768C53.3211 24.9751 52.7974 25.1243 52.2174 25.1243C51.8064 25.1243 51.4568 25.0563 51.1684 24.9205C50.8834 24.7846 50.6497 24.6139 50.4674 24.4084C50.2851 24.1996 50.1459 23.9891 50.0498 23.777H49.9554V25H47.8673ZM49.9404 21.1818C49.9404 21.6359 50.0034 22.032 50.1294 22.37C50.2553 22.7081 50.4376 22.9716 50.6762 23.1605C50.9149 23.3461 51.2049 23.4389 51.5463 23.4389C51.891 23.4389 52.1826 23.3445 52.4213 23.1555C52.6599 22.9633 52.8405 22.6982 52.9632 22.3601C53.0891 22.0187 53.1521 21.6259 53.1521 21.1818C53.1521 20.741 53.0908 20.3532 52.9681 20.0185C52.8455 19.6837 52.6649 19.4219 52.4262 19.233C52.1876 19.044 51.8943 18.9496 51.5463 18.9496C51.2016 18.9496 50.9099 19.0407 50.6713 19.223C50.4359 19.4053 50.2553 19.6638 50.1294 19.9986C50.0034 20.3333 49.9404 20.7277 49.9404 21.1818ZM58.7058 14.8182V25H56.5879V14.8182H58.7058ZM63.7425 25.1491C62.957 25.1491 62.2808 24.9901 61.7141 24.6719C61.1506 24.3504 60.7164 23.8963 60.4115 23.3097C60.1066 22.7197 59.9541 22.022 59.9541 21.2166C59.9541 20.4311 60.1066 19.7417 60.4115 19.1484C60.7164 18.5552 61.1456 18.0928 61.6991 17.7614C62.256 17.4299 62.9089 17.2642 63.658 17.2642C64.1617 17.2642 64.6307 17.3454 65.0649 17.5078C65.5024 17.6669 65.8836 17.9072 66.2084 18.2287C66.5365 18.5502 66.7917 18.9545 66.974 19.4418C67.1563 19.9257 67.2474 20.4924 67.2474 21.142V21.7237H60.7993V20.4112H65.2538C65.2538 20.1063 65.1875 19.8362 65.055 19.6009C64.9224 19.3655 64.7384 19.1816 64.5031 19.049C64.2711 18.9131 64.001 18.8452 63.6928 18.8452C63.3713 18.8452 63.0862 18.9197 62.8376 19.0689C62.5924 19.2147 62.4001 19.4119 62.2609 19.6605C62.1217 19.9058 62.0505 20.1792 62.0472 20.4808V21.7287C62.0472 22.1065 62.1168 22.433 62.256 22.7081C62.3985 22.9832 62.599 23.1953 62.8575 23.3445C63.1161 23.4936 63.4226 23.5682 63.7773 23.5682C64.0126 23.5682 64.228 23.535 64.4236 23.4688C64.6191 23.4025 64.7865 23.303 64.9257 23.1705C65.0649 23.0379 65.171 22.8755 65.2439 22.6832L67.2027 22.8125C67.1033 23.2831 66.8994 23.6941 66.5912 24.0455C66.2863 24.3935 65.8919 24.6652 65.408 24.8608C64.9274 25.053 64.3722 25.1491 63.7425 25.1491Z" fill="white"/>
</svg>
