<svg width="91" height="32" viewBox="0 0 91 32" fill="none" xmlns="http://www.w3.org/2000/svg">
<rect x="1.29999" y="0.5" width="89" height="31" rx="7.5" fill="#FFF1F3"/>
<circle cx="27.3" cy="16" r="3" fill="#F63D68"/>
<path d="M38.3121 21V10.8182H40.1566V15.1286H44.8746V10.8182H46.724V21H44.8746V16.6747H40.1566V21H38.3121ZM48.5105 21V13.3636H50.3102V21H48.5105ZM49.4154 12.2798C49.1303 12.2798 48.8851 12.1854 48.6796 11.9964C48.4741 11.8042 48.3713 11.5739 48.3713 11.3054C48.3713 11.0336 48.4741 10.8033 48.6796 10.6143C48.8851 10.4221 49.1303 10.326 49.4154 10.326C49.7037 10.326 49.949 10.4221 50.1511 10.6143C50.3566 10.8033 50.4594 11.0336 50.4594 11.3054C50.4594 11.5739 50.3566 11.8042 50.1511 11.9964C49.949 12.1854 49.7037 12.2798 49.4154 12.2798ZM55.3419 24.0227C54.6956 24.0227 54.1405 23.9349 53.6765 23.7592C53.2124 23.5869 52.8396 23.3549 52.5578 23.0632C52.2761 22.7715 52.0806 22.4484 51.9712 22.0938L53.5919 21.701C53.6649 21.8501 53.7709 21.9976 53.9101 22.1435C54.0493 22.2926 54.2366 22.4152 54.4719 22.5114C54.7105 22.6108 55.0105 22.6605 55.3718 22.6605C55.8822 22.6605 56.3048 22.5362 56.6395 22.2876C56.9743 22.0424 57.1417 21.638 57.1417 21.0746V19.6278H57.0522C56.9594 19.8134 56.8235 20.004 56.6445 20.1996C56.4688 20.3951 56.2352 20.5592 55.9435 20.6918C55.6551 20.8243 55.2922 20.8906 54.8547 20.8906C54.2681 20.8906 53.7361 20.7531 53.2588 20.478C52.7849 20.1996 52.407 19.7853 52.1253 19.2351C51.8469 18.6816 51.7077 17.9889 51.7077 17.157C51.7077 16.3184 51.8469 15.6108 52.1253 15.0341C52.407 14.4541 52.7865 14.0149 53.2638 13.7166C53.7411 13.415 54.273 13.2642 54.8597 13.2642C55.3071 13.2642 55.675 13.3404 55.9634 13.4929C56.2551 13.642 56.4871 13.8227 56.6594 14.0348C56.8318 14.2436 56.9627 14.4408 57.0522 14.6264H57.1516V13.3636H58.9265V21.1243C58.9265 21.7772 58.7707 22.3175 58.4591 22.745C58.1476 23.1726 57.7217 23.4924 57.1814 23.7045C56.6412 23.9167 56.028 24.0227 55.3419 24.0227ZM55.3569 19.4787C55.738 19.4787 56.0628 19.3859 56.3313 19.2003C56.5998 19.0147 56.8036 18.7479 56.9428 18.3999C57.082 18.0518 57.1516 17.6342 57.1516 17.147C57.1516 16.6664 57.082 16.2455 56.9428 15.8842C56.8069 15.523 56.6047 15.2429 56.3363 15.044C56.0711 14.8419 55.7446 14.7408 55.3569 14.7408C54.9558 14.7408 54.6211 14.8452 54.3526 15.054C54.0841 15.2628 53.8819 15.5495 53.7461 15.9141C53.6102 16.2753 53.5422 16.6863 53.5422 17.147C53.5422 17.6143 53.6102 18.0237 53.7461 18.375C53.8853 18.723 54.0891 18.9948 54.3576 19.1903C54.6293 19.3826 54.9624 19.4787 55.3569 19.4787ZM62.4306 16.5256V21H60.6309V10.8182H62.3909V14.6612H62.4803C62.6593 14.2304 62.9361 13.8906 63.3106 13.642C63.6884 13.3902 64.169 13.2642 64.7524 13.2642C65.2827 13.2642 65.745 13.3752 66.1394 13.5973C66.5339 13.8194 66.8388 14.1442 67.0542 14.5717C67.273 14.9993 67.3823 15.5213 67.3823 16.1378V21H65.5826V16.4162C65.5826 15.9025 65.45 15.5031 65.1849 15.218C64.9231 14.9297 64.5552 14.7855 64.0812 14.7855C63.763 14.7855 63.478 14.8551 63.2261 14.9943C62.9775 15.1302 62.782 15.3274 62.6394 15.5859C62.5002 15.8445 62.4306 16.1577 62.4306 16.5256Z" fill="#430A1C"/>
<rect x="1.29999" y="0.5" width="89" height="31" rx="7.5" stroke="#F63D68"/>
</svg>
