<svg width="91" height="32" viewBox="0 0 91 32" fill="none" xmlns="http://www.w3.org/2000/svg">
<rect x="1.09998" y="0.5" width="89" height="31" rx="7.5" fill="#E6FAFA"/>
<circle cx="28.6" cy="16" r="3" fill="#06D2DD"/>
<path d="M39.7716 21V10.8182H41.616V19.4538H46.1004V21H39.7716ZM50.8127 21.1491C50.067 21.1491 49.4206 20.9851 48.8738 20.657C48.3269 20.3288 47.9027 19.8698 47.601 19.2798C47.3027 18.6899 47.1536 18.0005 47.1536 17.2116C47.1536 16.4228 47.3027 15.7318 47.601 15.1385C47.9027 14.5452 48.3269 14.0845 48.8738 13.7564C49.4206 13.4283 50.067 13.2642 50.8127 13.2642C51.5584 13.2642 52.2047 13.4283 52.7516 13.7564C53.2985 14.0845 53.7211 14.5452 54.0194 15.1385C54.321 15.7318 54.4718 16.4228 54.4718 17.2116C54.4718 18.0005 54.321 18.6899 54.0194 19.2798C53.7211 19.8698 53.2985 20.3288 52.7516 20.657C52.2047 20.9851 51.5584 21.1491 50.8127 21.1491ZM50.8226 19.7074C51.227 19.7074 51.5651 19.5964 51.8368 19.3743C52.1086 19.1489 52.3108 18.8473 52.4434 18.4695C52.5793 18.0916 52.6472 17.6707 52.6472 17.2067C52.6472 16.7393 52.5793 16.3168 52.4434 15.9389C52.3108 15.5578 52.1086 15.2545 51.8368 15.0291C51.5651 14.8037 51.227 14.6911 50.8226 14.6911C50.4083 14.6911 50.0636 14.8037 49.7885 15.0291C49.5168 15.2545 49.3129 15.5578 49.177 15.9389C49.0445 16.3168 48.9782 16.7393 48.9782 17.2067C48.9782 17.6707 49.0445 18.0916 49.177 18.4695C49.3129 18.8473 49.5168 19.1489 49.7885 19.3743C50.0636 19.5964 50.4083 19.7074 50.8226 19.7074ZM57.2165 21L55.0589 13.3636H56.8934L58.2357 18.733H58.3053L59.6775 13.3636H61.4921L62.8643 18.7031H62.9388L64.2613 13.3636H66.1008L63.9381 21H62.0638L60.632 15.8395H60.5276L59.0958 21H57.2165Z" fill="#183A68"/>
<rect x="1.09998" y="0.5" width="89" height="31" rx="7.5" stroke="#06D2DD"/>
</svg>
