<svg width="91" height="32" viewBox="0 0 91 32" fill="none" xmlns="http://www.w3.org/2000/svg">
<rect x="0.899963" y="0.5" width="89" height="31" rx="7.5" fill="#FEF7E6"/>
<circle cx="15.4" cy="16" r="3" fill="#F6B305"/>
<path d="M26.4857 10.8182H28.7428L31.7655 18.196H31.8848L34.9075 10.8182H37.1646V21H35.3948V14.005H35.3003L32.4864 20.9702H31.1639L28.35 13.9901H28.2556V21H26.4857V10.8182ZM42.3343 21.1491C41.5687 21.1491 40.9075 20.9901 40.3506 20.6719C39.7971 20.3504 39.3712 19.8963 39.0729 19.3097C38.7746 18.7197 38.6255 18.0253 38.6255 17.2266C38.6255 16.4411 38.7746 15.7517 39.0729 15.1584C39.3746 14.5618 39.7955 14.0978 40.3357 13.7663C40.876 13.4316 41.5107 13.2642 42.2398 13.2642C42.7105 13.2642 43.1546 13.3404 43.5722 13.4929C43.9932 13.642 44.3644 13.8741 44.6859 14.1889C45.0107 14.5038 45.2659 14.9048 45.4515 15.392C45.6371 15.8759 45.7299 16.4527 45.7299 17.1222V17.674H39.4707V16.4609H44.0048C44.0014 16.1162 43.9269 15.8097 43.781 15.5412C43.6352 15.2694 43.4314 15.0556 43.1695 14.8999C42.911 14.7441 42.6094 14.6662 42.2647 14.6662C41.8968 14.6662 41.5737 14.7557 41.2952 14.9347C41.0168 15.1103 40.7997 15.3423 40.644 15.6307C40.4915 15.9157 40.4136 16.2289 40.4103 16.5703V17.6293C40.4103 18.0734 40.4915 18.4545 40.6539 18.7727C40.8163 19.0876 41.0434 19.3295 41.335 19.4986C41.6267 19.6643 41.9681 19.7472 42.3592 19.7472C42.621 19.7472 42.858 19.7107 43.0701 19.6378C43.2822 19.5616 43.4662 19.4505 43.6219 19.3047C43.7777 19.1589 43.8954 18.9782 43.9749 18.7628L45.6553 18.9517C45.5493 19.3958 45.3471 19.7836 45.0488 20.1151C44.7538 20.4432 44.376 20.6984 43.9153 20.8807C43.4546 21.0597 42.9276 21.1491 42.3343 21.1491ZM49.9463 21.1342C49.3464 21.1342 48.8094 20.9801 48.3355 20.6719C47.8615 20.3636 47.487 19.9162 47.2119 19.3295C46.9368 18.7429 46.7992 18.0303 46.7992 17.1918C46.7992 16.3433 46.9384 15.6274 47.2169 15.044C47.4986 14.4574 47.8781 14.0149 48.3554 13.7166C48.8326 13.415 49.3646 13.2642 49.9512 13.2642C50.3987 13.2642 50.7666 13.3404 51.0549 13.4929C51.3433 13.642 51.572 13.8227 51.741 14.0348C51.91 14.2436 52.041 14.4408 52.1338 14.6264H52.2083V10.8182H54.013V21H52.2431V19.7969H52.1338C52.041 19.9825 51.9067 20.1797 51.7311 20.3885C51.5554 20.594 51.3234 20.7696 51.035 20.9155C50.7467 21.0613 50.3838 21.1342 49.9463 21.1342ZM50.4484 19.6577C50.8295 19.6577 51.1544 19.5549 51.4228 19.3494C51.6913 19.1406 51.8951 18.8506 52.0343 18.4794C52.1735 18.1082 52.2431 17.6757 52.2431 17.1818C52.2431 16.688 52.1735 16.2588 52.0343 15.8942C51.8984 15.5296 51.6963 15.2462 51.4278 15.044C51.1626 14.8419 50.8362 14.7408 50.4484 14.7408C50.0473 14.7408 49.7126 14.8452 49.4441 15.054C49.1757 15.2628 48.9735 15.5511 48.8376 15.919C48.7017 16.2869 48.6338 16.7079 48.6338 17.1818C48.6338 17.6591 48.7017 18.085 48.8376 18.4595C48.9768 18.8307 49.1806 19.1241 49.4491 19.3395C49.7209 19.5516 50.054 19.6577 50.4484 19.6577ZM55.7908 21V13.3636H57.5905V21H55.7908ZM56.6956 12.2798C56.4106 12.2798 56.1653 12.1854 55.9598 11.9964C55.7544 11.8042 55.6516 11.5739 55.6516 11.3054C55.6516 11.0336 55.7544 10.8033 55.9598 10.6143C56.1653 10.4221 56.4106 10.326 56.6956 10.326C56.984 10.326 57.2293 10.4221 57.4314 10.6143C57.6369 10.8033 57.7397 11.0336 57.7397 11.3054C57.7397 11.5739 57.6369 11.8042 57.4314 11.9964C57.2293 12.1854 56.984 12.2798 56.6956 12.2798ZM64.1684 17.7884V13.3636H65.9681V21H64.2231V19.6428H64.1435C63.9712 20.0703 63.6878 20.42 63.2934 20.6918C62.9023 20.9635 62.42 21.0994 61.8467 21.0994C61.3462 21.0994 60.9037 20.9884 60.5192 20.7663C60.1381 20.541 59.8398 20.2145 59.6244 19.7869C59.4089 19.3561 59.3012 18.8357 59.3012 18.2259V13.3636H61.1009V17.9474C61.1009 18.4313 61.2335 18.8158 61.4986 19.1009C61.7638 19.3859 62.1118 19.5284 62.5427 19.5284C62.8078 19.5284 63.0647 19.4638 63.3133 19.3345C63.5619 19.2053 63.7657 19.013 63.9248 18.7578C64.0872 18.4993 64.1684 18.1761 64.1684 17.7884ZM67.6788 21V13.3636H69.399V14.6612H69.4884C69.6475 14.2237 69.911 13.8823 70.2789 13.6371C70.6468 13.3885 71.086 13.2642 71.5964 13.2642C72.1134 13.2642 72.5493 13.3902 72.9039 13.642C73.2619 13.8906 73.5138 14.2304 73.6596 14.6612H73.7392C73.9082 14.237 74.1932 13.8989 74.5943 13.647C74.9986 13.3918 75.4776 13.2642 76.0311 13.2642C76.7337 13.2642 77.3071 13.4863 77.7512 13.9304C78.1954 14.3745 78.4174 15.0225 78.4174 15.8743V21H76.6127V16.1527C76.6127 15.6787 76.4868 15.3324 76.2349 15.1136C75.983 14.8916 75.6748 14.7805 75.3102 14.7805C74.876 14.7805 74.5363 14.9164 74.291 15.1882C74.049 15.4567 73.9281 15.8063 73.9281 16.2372V21H72.1632V16.0781C72.1632 15.6837 72.0438 15.3688 71.8052 15.1335C71.5699 14.8982 71.2616 14.7805 70.8805 14.7805C70.622 14.7805 70.3866 14.8468 70.1745 14.9794C69.9624 15.1087 69.7934 15.2926 69.6674 15.5312C69.5415 15.7666 69.4785 16.0417 69.4785 16.3565V21H67.6788Z" fill="#483605"/>
<rect x="0.899963" y="0.5" width="89" height="31" rx="7.5" stroke="#F6B305"/>
</svg>
