<svg width="264" height="40" viewBox="0 0 264 40" fill="none" xmlns="http://www.w3.org/2000/svg">
<rect width="264" height="40" rx="8" fill="#2066DA"/>
<path d="M93.174 14.8182H95.3267V21.4304C95.3267 22.1728 95.1494 22.8224 94.7947 23.3793C94.4434 23.9361 93.9512 24.3703 93.3182 24.6818C92.6851 24.9901 91.9477 25.1442 91.1058 25.1442C90.2607 25.1442 89.5215 24.9901 88.8885 24.6818C88.2554 24.3703 87.7633 23.9361 87.4119 23.3793C87.0606 22.8224 86.8849 22.1728 86.8849 21.4304V14.8182H89.0376V21.2464C89.0376 21.6342 89.1222 21.9789 89.2912 22.2805C89.4635 22.5821 89.7055 22.8191 90.017 22.9915C90.3286 23.1638 90.6915 23.25 91.1058 23.25C91.5234 23.25 91.8864 23.1638 92.1946 22.9915C92.5062 22.8191 92.7464 22.5821 92.9155 22.2805C93.0878 21.9789 93.174 21.6342 93.174 21.2464V14.8182ZM96.9181 27.8636V17.3636H99.0061V18.6463H99.1006C99.1934 18.4408 99.3276 18.232 99.5033 18.0199C99.6823 17.8045 99.9143 17.6255 100.199 17.483C100.488 17.3371 100.846 17.2642 101.273 17.2642C101.83 17.2642 102.344 17.41 102.814 17.7017C103.285 17.9901 103.661 18.4259 103.943 19.0092C104.225 19.5893 104.366 20.3168 104.366 21.1918C104.366 22.0436 104.228 22.7628 103.953 23.3494C103.681 23.9328 103.31 24.3752 102.839 24.6768C102.372 24.9751 101.848 25.1243 101.268 25.1243C100.857 25.1243 100.508 25.0563 100.219 24.9205C99.9342 24.7846 99.7005 24.6139 99.5182 24.4084C99.3359 24.1996 99.1967 23.9891 99.1006 23.777H99.036V27.8636H96.9181ZM98.9912 21.1818C98.9912 21.6359 99.0542 22.032 99.1801 22.37C99.3061 22.7081 99.4884 22.9716 99.727 23.1605C99.9656 23.3461 100.256 23.4389 100.597 23.4389C100.942 23.4389 101.233 23.3445 101.472 23.1555C101.711 22.9633 101.891 22.6982 102.014 22.3601C102.14 22.0187 102.203 21.6259 102.203 21.1818C102.203 20.741 102.142 20.3532 102.019 20.0185C101.896 19.6837 101.716 19.4219 101.477 19.233C101.238 19.044 100.945 18.9496 100.597 18.9496C100.252 18.9496 99.9607 19.0407 99.722 19.223C99.4867 19.4053 99.3061 19.6638 99.1801 19.9986C99.0542 20.3333 98.9912 20.7277 98.9912 21.1818ZM109.078 28.0227C108.392 28.0227 107.803 27.9283 107.313 27.7393C106.826 27.5537 106.438 27.3002 106.15 26.9787C105.861 26.6572 105.674 26.2959 105.588 25.8949L107.547 25.6314C107.606 25.7839 107.701 25.9264 107.83 26.0589C107.959 26.1915 108.13 26.2976 108.342 26.3771C108.557 26.46 108.819 26.5014 109.127 26.5014C109.588 26.5014 109.968 26.3887 110.266 26.1634C110.568 25.9413 110.718 25.5684 110.718 25.0447V23.6477H110.629C110.536 23.8598 110.397 24.0604 110.211 24.2493C110.026 24.4382 109.787 24.5923 109.495 24.7116C109.204 24.831 108.856 24.8906 108.451 24.8906C107.878 24.8906 107.356 24.758 106.885 24.4929C106.418 24.2244 106.045 23.8151 105.767 23.2649C105.492 22.7114 105.354 22.0121 105.354 21.1669C105.354 20.3018 105.495 19.5793 105.777 18.9993C106.058 18.4193 106.433 17.9851 106.9 17.6967C107.371 17.4084 107.886 17.2642 108.446 17.2642C108.874 17.2642 109.232 17.3371 109.52 17.483C109.809 17.6255 110.041 17.8045 110.216 18.0199C110.395 18.232 110.533 18.4408 110.629 18.6463H110.708V17.3636H112.811V25.0746C112.811 25.7242 112.652 26.2678 112.334 26.7053C112.016 27.1428 111.575 27.4709 111.012 27.6896C110.452 27.9117 109.807 28.0227 109.078 28.0227ZM109.123 23.2997C109.464 23.2997 109.752 23.2152 109.988 23.0462C110.226 22.8738 110.409 22.6286 110.534 22.3104C110.664 21.9889 110.728 21.6044 110.728 21.157C110.728 20.7095 110.665 20.3217 110.539 19.9936C110.413 19.6622 110.231 19.4053 109.993 19.223C109.754 19.0407 109.464 18.9496 109.123 18.9496C108.775 18.9496 108.481 19.044 108.243 19.233C108.004 19.4186 107.823 19.6771 107.701 20.0085C107.578 20.34 107.517 20.7228 107.517 21.157C107.517 21.5978 107.578 21.9789 107.701 22.3004C107.827 22.6186 108.007 22.8655 108.243 23.0412C108.481 23.2135 108.775 23.2997 109.123 23.2997ZM114.357 25V17.3636H116.41V18.696H116.49C116.629 18.2221 116.862 17.8641 117.191 17.6222C117.519 17.3769 117.897 17.2543 118.324 17.2543C118.43 17.2543 118.545 17.2609 118.667 17.2741C118.79 17.2874 118.898 17.3056 118.99 17.3288V19.2081C118.891 19.1783 118.753 19.1518 118.578 19.1286C118.402 19.1054 118.241 19.0938 118.095 19.0938C117.784 19.0938 117.505 19.1617 117.26 19.2976C117.018 19.4302 116.826 19.6158 116.684 19.8544C116.544 20.093 116.475 20.3681 116.475 20.6797V25H114.357ZM121.904 25.1442C121.417 25.1442 120.983 25.0597 120.602 24.8906C120.22 24.7183 119.919 24.4647 119.697 24.13C119.478 23.7919 119.369 23.371 119.369 22.8672C119.369 22.4429 119.447 22.0866 119.602 21.7983C119.758 21.5099 119.97 21.2779 120.239 21.1023C120.507 20.9266 120.812 20.794 121.153 20.7045C121.498 20.6151 121.859 20.5521 122.237 20.5156C122.681 20.4692 123.039 20.4261 123.311 20.3864C123.583 20.3433 123.78 20.2803 123.903 20.1974C124.025 20.1146 124.087 19.992 124.087 19.8295V19.7997C124.087 19.4848 123.987 19.2412 123.788 19.0689C123.593 18.8965 123.314 18.8104 122.953 18.8104C122.572 18.8104 122.269 18.8949 122.043 19.0639C121.818 19.2296 121.669 19.4384 121.596 19.6903L119.637 19.5312C119.737 19.0672 119.932 18.6662 120.224 18.3281C120.515 17.9867 120.892 17.7249 121.352 17.5426C121.816 17.357 122.353 17.2642 122.963 17.2642C123.387 17.2642 123.793 17.3139 124.181 17.4134C124.572 17.5128 124.919 17.6669 125.22 17.8757C125.525 18.0845 125.765 18.353 125.941 18.6811C126.117 19.0059 126.205 19.3954 126.205 19.8494V25H124.196V23.9411H124.136C124.014 24.1797 123.85 24.3902 123.644 24.5724C123.439 24.7514 123.192 24.8923 122.903 24.995C122.615 25.0945 122.282 25.1442 121.904 25.1442ZM122.511 23.6825C122.822 23.6825 123.097 23.6212 123.336 23.4986C123.575 23.3726 123.762 23.2036 123.898 22.9915C124.034 22.7794 124.102 22.5391 124.102 22.2706V21.4602C124.035 21.5033 123.944 21.5431 123.828 21.5795C123.715 21.6127 123.588 21.6442 123.445 21.674C123.303 21.7005 123.16 21.7254 123.018 21.7486C122.875 21.7685 122.746 21.7867 122.63 21.8033C122.381 21.8397 122.164 21.8977 121.979 21.9773C121.793 22.0568 121.649 22.1645 121.546 22.3004C121.443 22.433 121.392 22.5987 121.392 22.7976C121.392 23.0859 121.496 23.3063 121.705 23.4588C121.917 23.608 122.186 23.6825 122.511 23.6825ZM130.522 25.1243C129.942 25.1243 129.416 24.9751 128.946 24.6768C128.478 24.3752 128.107 23.9328 127.832 23.3494C127.56 22.7628 127.424 22.0436 127.424 21.1918C127.424 20.3168 127.565 19.5893 127.847 19.0092C128.129 18.4259 128.503 17.9901 128.97 17.7017C129.441 17.41 129.956 17.2642 130.517 17.2642C130.944 17.2642 131.3 17.3371 131.586 17.483C131.874 17.6255 132.106 17.8045 132.282 18.0199C132.461 18.232 132.596 18.4408 132.689 18.6463H132.754V14.8182H134.867V25H132.779V23.777H132.689C132.59 23.9891 132.449 24.1996 132.267 24.4084C132.088 24.6139 131.854 24.7846 131.566 24.9205C131.281 25.0563 130.933 25.1243 130.522 25.1243ZM131.193 23.4389C131.534 23.4389 131.822 23.3461 132.058 23.1605C132.296 22.9716 132.479 22.7081 132.605 22.37C132.734 22.032 132.799 21.6359 132.799 21.1818C132.799 20.7277 132.736 20.3333 132.61 19.9986C132.484 19.6638 132.301 19.4053 132.063 19.223C131.824 19.0407 131.534 18.9496 131.193 18.9496C130.845 18.9496 130.551 19.044 130.313 19.233C130.074 19.4219 129.894 19.6837 129.771 20.0185C129.648 20.3532 129.587 20.741 129.587 21.1818C129.587 21.6259 129.648 22.0187 129.771 22.3601C129.897 22.6982 130.077 22.9633 130.313 23.1555C130.551 23.3445 130.845 23.4389 131.193 23.4389ZM139.948 25.1491C139.163 25.1491 138.487 24.9901 137.92 24.6719C137.356 24.3504 136.922 23.8963 136.617 23.3097C136.312 22.7197 136.16 22.022 136.16 21.2166C136.16 20.4311 136.312 19.7417 136.617 19.1484C136.922 18.5552 137.351 18.0928 137.905 17.7614C138.462 17.4299 139.115 17.2642 139.864 17.2642C140.367 17.2642 140.836 17.3454 141.271 17.5078C141.708 17.6669 142.089 17.9072 142.414 18.2287C142.742 18.5502 142.997 18.9545 143.18 19.4418C143.362 19.9257 143.453 20.4924 143.453 21.142V21.7237H137.005V20.4112H141.46C141.46 20.1063 141.393 19.8362 141.261 19.6009C141.128 19.3655 140.944 19.1816 140.709 19.049C140.477 18.9131 140.207 18.8452 139.898 18.8452C139.577 18.8452 139.292 18.9197 139.043 19.0689C138.798 19.2147 138.606 19.4119 138.467 19.6605C138.327 19.9058 138.256 20.1792 138.253 20.4808V21.7287C138.253 22.1065 138.322 22.433 138.462 22.7081C138.604 22.9832 138.805 23.1953 139.063 23.3445C139.322 23.4936 139.628 23.5682 139.983 23.5682C140.218 23.5682 140.434 23.535 140.629 23.4688C140.825 23.4025 140.992 23.303 141.131 23.1705C141.271 23.0379 141.377 22.8755 141.45 22.6832L143.408 22.8125C143.309 23.2831 143.105 23.6941 142.797 24.0455C142.492 24.3935 142.098 24.6652 141.614 24.8608C141.133 25.053 140.578 25.1491 139.948 25.1491ZM156.352 14.8182V25H154.492L150.063 18.5916H149.988V25H147.835V14.8182H149.724L154.119 21.2216H154.209V14.8182H156.352ZM161.401 25.1491C160.628 25.1491 159.961 24.9851 159.397 24.657C158.837 24.3255 158.404 23.8648 158.1 23.2749C157.795 22.6816 157.642 21.9938 157.642 21.2116C157.642 20.4228 157.795 19.7334 158.1 19.1435C158.404 18.5502 158.837 18.0895 159.397 17.7614C159.961 17.4299 160.628 17.2642 161.401 17.2642C162.173 17.2642 162.839 17.4299 163.399 17.7614C163.963 18.0895 164.397 18.5502 164.702 19.1435C165.007 19.7334 165.159 20.4228 165.159 21.2116C165.159 21.9938 165.007 22.6816 164.702 23.2749C164.397 23.8648 163.963 24.3255 163.399 24.657C162.839 24.9851 162.173 25.1491 161.401 25.1491ZM161.411 23.5085C161.762 23.5085 162.055 23.4091 162.291 23.2102C162.526 23.008 162.703 22.733 162.823 22.3849C162.945 22.0369 163.007 21.6409 163.007 21.1967C163.007 20.7526 162.945 20.3565 162.823 20.0085C162.703 19.6605 162.526 19.3854 162.291 19.1832C162.055 18.9811 161.762 18.88 161.411 18.88C161.056 18.88 160.758 18.9811 160.516 19.1832C160.277 19.3854 160.096 19.6605 159.974 20.0085C159.855 20.3565 159.795 20.7526 159.795 21.1967C159.795 21.6409 159.855 22.0369 159.974 22.3849C160.096 22.733 160.277 23.008 160.516 23.2102C160.758 23.4091 161.056 23.5085 161.411 23.5085ZM167.711 25L165.633 17.3636H167.776L168.959 22.4943H169.029L170.262 17.3636H172.365L173.618 22.4645H173.682L174.846 17.3636H176.983L174.91 25H172.668L171.356 20.1974H171.261L169.949 25H167.711Z" fill="white"/>
</svg>
