<svg width="106" height="40" viewBox="0 0 106 40" fill="none" xmlns="http://www.w3.org/2000/svg">
<g clip-path="url(#clip0_1677_18732)">
<path fill-rule="evenodd" clip-rule="evenodd" d="M19.8889 10C18.2013 10 16.8333 11.3431 16.8333 13V27C16.8333 28.6569 18.2013 30 19.8889 30H32.1111C33.7986 30 35.1666 28.6569 35.1666 27V15.7426C35.1666 14.947 34.8447 14.1839 34.2717 13.6213L31.4783 10.8787C30.9052 10.3161 30.128 10 29.3177 10H19.8889ZM29.0555 12.2071V14C29.0555 15.1046 29.9675 16 31.0926 16H32.9187C33.3724 16 33.5996 15.4614 33.2788 15.1464L29.9249 11.8535C29.6041 11.5386 29.0555 11.7617 29.0555 12.2071ZM20.9074 19C20.9074 18.4477 21.3634 18 21.9259 18H30.0741C30.6366 18 31.0926 18.4477 31.0926 19C31.0926 19.5523 30.6366 20 30.0741 20H21.9259C21.3634 20 20.9074 19.5523 20.9074 19ZM21.9259 22C21.3634 22 20.9074 22.4477 20.9074 23C20.9074 23.5523 21.3634 24 21.9259 24H26C26.5625 24 27.0185 23.5523 27.0185 23C27.0185 22.4477 26.5625 22 26 22H21.9259Z" fill="white"/>
</g>
<path d="M44.8849 25V14.8182H48.902C49.6709 14.8182 50.3272 14.9557 50.8707 15.2308C51.4176 15.5026 51.8336 15.8887 52.1186 16.3892C52.407 16.8864 52.5511 17.4714 52.5511 18.1442C52.5511 18.8203 52.4053 19.402 52.1136 19.8892C51.822 20.3731 51.3994 20.7443 50.8459 21.0028C50.2957 21.2614 49.6295 21.3906 48.8473 21.3906H46.1577V19.6605H48.4993C48.9103 19.6605 49.2517 19.6042 49.5234 19.4915C49.7952 19.3788 49.9974 19.2098 50.13 18.9844C50.2659 18.759 50.3338 18.4789 50.3338 18.1442C50.3338 17.8061 50.2659 17.5211 50.13 17.2891C49.9974 17.0571 49.7936 16.8814 49.5185 16.7621C49.2467 16.6394 48.9036 16.5781 48.4893 16.5781H47.0376V25H44.8849ZM50.3835 20.3665L52.9141 25H50.5376L48.0618 20.3665H50.3835ZM57.2497 25.1491C56.4642 25.1491 55.7881 24.9901 55.2213 24.6719C54.6579 24.3504 54.2237 23.8963 53.9188 23.3097C53.6138 22.7197 53.4614 22.022 53.4614 21.2166C53.4614 20.4311 53.6138 19.7417 53.9188 19.1484C54.2237 18.5552 54.6529 18.0928 55.2064 17.7614C55.7632 17.4299 56.4162 17.2642 57.1652 17.2642C57.669 17.2642 58.138 17.3454 58.5722 17.5078C59.0097 17.6669 59.3908 17.9072 59.7156 18.2287C60.0438 18.5502 60.299 18.9545 60.4813 19.4418C60.6636 19.9257 60.7547 20.4924 60.7547 21.142V21.7237H54.3066V20.4112H58.7611C58.7611 20.1063 58.6948 19.8362 58.5622 19.6009C58.4297 19.3655 58.2457 19.1816 58.0104 19.049C57.7784 18.9131 57.5083 18.8452 57.2 18.8452C56.8785 18.8452 56.5935 18.9197 56.3449 19.0689C56.0996 19.2147 55.9074 19.4119 55.7682 19.6605C55.629 19.9058 55.5577 20.1792 55.5544 20.4808V21.7287C55.5544 22.1065 55.624 22.433 55.7632 22.7081C55.9058 22.9832 56.1063 23.1953 56.3648 23.3445C56.6233 23.4936 56.9299 23.5682 57.2845 23.5682C57.5199 23.5682 57.7353 23.535 57.9308 23.4688C58.1264 23.4025 58.2938 23.303 58.433 23.1705C58.5722 23.0379 58.6782 22.8755 58.7512 22.6832L60.71 22.8125C60.6105 23.2831 60.4067 23.6941 60.0985 24.0455C59.7935 24.3935 59.3991 24.6652 58.9152 24.8608C58.4346 25.053 57.8795 25.1491 57.2497 25.1491ZM61.9968 27.8636V17.3636H64.0849V18.6463H64.1793C64.2721 18.4408 64.4064 18.232 64.582 18.0199C64.761 17.8045 64.993 17.6255 65.2781 17.483C65.5664 17.3371 65.9244 17.2642 66.3519 17.2642C66.9087 17.2642 67.4225 17.41 67.8931 17.7017C68.3638 17.9901 68.7399 18.4259 69.0217 19.0092C69.3034 19.5893 69.4443 20.3168 69.4443 21.1918C69.4443 22.0436 69.3067 22.7628 69.0316 23.3494C68.7598 23.9328 68.3886 24.3752 67.918 24.6768C67.4506 24.9751 66.927 25.1243 66.347 25.1243C65.936 25.1243 65.5863 25.0563 65.2979 24.9205C65.0129 24.7846 64.7792 24.6139 64.597 24.4084C64.4147 24.1996 64.2755 23.9891 64.1793 23.777H64.1147V27.8636H61.9968ZM64.07 21.1818C64.07 21.6359 64.1329 22.032 64.2589 22.37C64.3848 22.7081 64.5671 22.9716 64.8058 23.1605C65.0444 23.3461 65.3344 23.4389 65.6758 23.4389C66.0205 23.4389 66.3122 23.3445 66.5508 23.1555C66.7894 22.9633 66.9701 22.6982 67.0927 22.3601C67.2186 22.0187 67.2816 21.6259 67.2816 21.1818C67.2816 20.741 67.2203 20.3532 67.0977 20.0185C66.975 19.6837 66.7944 19.4219 66.5558 19.233C66.3171 19.044 66.0238 18.9496 65.6758 18.9496C65.3311 18.9496 65.0394 19.0407 64.8008 19.223C64.5655 19.4053 64.3848 19.6638 64.2589 19.9986C64.1329 20.3333 64.07 20.7277 64.07 21.1818ZM74.1665 25.1491C73.3942 25.1491 72.7264 24.9851 72.1629 24.657C71.6028 24.3255 71.1703 23.8648 70.8653 23.2749C70.5604 22.6816 70.4079 21.9938 70.4079 21.2116C70.4079 20.4228 70.5604 19.7334 70.8653 19.1435C71.1703 18.5502 71.6028 18.0895 72.1629 17.7614C72.7264 17.4299 73.3942 17.2642 74.1665 17.2642C74.9387 17.2642 75.6049 17.4299 76.165 17.7614C76.7285 18.0895 77.1627 18.5502 77.4676 19.1435C77.7725 19.7334 77.925 20.4228 77.925 21.2116C77.925 21.9938 77.7725 22.6816 77.4676 23.2749C77.1627 23.8648 76.7285 24.3255 76.165 24.657C75.6049 24.9851 74.9387 25.1491 74.1665 25.1491ZM74.1764 23.5085C74.5277 23.5085 74.8211 23.4091 75.0564 23.2102C75.2917 23.008 75.469 22.733 75.5883 22.3849C75.711 22.0369 75.7723 21.6409 75.7723 21.1967C75.7723 20.7526 75.711 20.3565 75.5883 20.0085C75.469 19.6605 75.2917 19.3854 75.0564 19.1832C74.8211 18.9811 74.5277 18.88 74.1764 18.88C73.8218 18.88 73.5235 18.9811 73.2815 19.1832C73.0429 19.3854 72.8623 19.6605 72.7396 20.0085C72.6203 20.3565 72.5606 20.7526 72.5606 21.1967C72.5606 21.6409 72.6203 22.0369 72.7396 22.3849C72.8623 22.733 73.0429 23.008 73.2815 23.2102C73.5235 23.4091 73.8218 23.5085 74.1764 23.5085ZM79.1621 25V17.3636H81.2154V18.696H81.2949C81.4341 18.2221 81.6678 17.8641 81.9959 17.6222C82.3241 17.3769 82.7019 17.2543 83.1295 17.2543C83.2355 17.2543 83.3499 17.2609 83.4725 17.2741C83.5951 17.2874 83.7028 17.3056 83.7956 17.3288V19.2081C83.6962 19.1783 83.5587 19.1518 83.383 19.1286C83.2073 19.1054 83.0466 19.0938 82.9008 19.0938C82.5892 19.0938 82.3108 19.1617 82.0655 19.2976C81.8236 19.4302 81.6313 19.6158 81.4888 19.8544C81.3496 20.093 81.28 20.3681 81.28 20.6797V25H79.1621ZM89.1952 17.3636V18.9545H84.5965V17.3636H89.1952ZM85.6406 15.5341H87.7585V22.6534C87.7585 22.849 87.7883 23.0014 87.8479 23.1108C87.9076 23.2169 87.9905 23.2914 88.0965 23.3345C88.2059 23.3776 88.3318 23.3991 88.4744 23.3991C88.5738 23.3991 88.6732 23.3909 88.7727 23.3743C88.8721 23.3544 88.9483 23.3395 89.0013 23.3295L89.3344 24.9055C89.2284 24.9387 89.0792 24.9768 88.887 25.0199C88.6948 25.0663 88.4611 25.0945 88.186 25.1044C87.6756 25.1243 87.2281 25.0563 86.8437 24.9006C86.4625 24.7448 86.1659 24.5028 85.9538 24.1747C85.7416 23.8466 85.6372 23.4323 85.6406 22.9318V15.5341Z" fill="white"/>
<rect x="0.5" y="0.5" width="105" height="39" rx="7.5" stroke="white"/>
<defs>
<clipPath id="clip0_1677_18732">
<rect width="20" height="20" fill="white" transform="translate(16 10)"/>
</clipPath>
</defs>
</svg>
