<svg width="127" height="48" viewBox="0 0 127 48" fill="none" xmlns="http://www.w3.org/2000/svg">
<rect width="127" height="48" rx="12" fill="#2066DA"/>
<path fill-rule="evenodd" clip-rule="evenodd" d="M38 23C38 26.866 34.866 30 31 30C27.134 30 24 26.866 24 23C24 19.134 27.134 16 31 16C34.866 16 38 19.134 38 23ZM38.0319 28.6177C39.2635 27.078 40 25.125 40 23C40 18.0294 35.9706 14 31 14C26.0294 14 22 18.0294 22 23C22 27.9706 26.0294 32 31 32C33.125 32 35.078 31.2635 36.6177 30.0319L39.2929 32.7071C39.6834 33.0976 40.3166 33.0976 40.7071 32.7071C41.0976 32.3166 41.0976 31.6834 40.7071 31.2929L38.0319 28.6177Z" fill="white"/>
<path d="M59.3239 21.7102C59.2784 21.2519 59.0833 20.8958 58.7386 20.642C58.3939 20.3883 57.9261 20.2614 57.3352 20.2614C56.9337 20.2614 56.5947 20.3182 56.3182 20.4318C56.0417 20.5417 55.8295 20.6951 55.6818 20.892C55.5379 21.089 55.4659 21.3125 55.4659 21.5625C55.4583 21.7708 55.5019 21.9527 55.5966 22.108C55.6951 22.2633 55.8295 22.3977 56 22.5114C56.1705 22.6212 56.3674 22.7178 56.5909 22.8011C56.8144 22.8807 57.053 22.9489 57.3068 23.0057L58.3523 23.2557C58.8598 23.3693 59.3258 23.5208 59.75 23.7102C60.1742 23.8996 60.5417 24.1326 60.8523 24.4091C61.1629 24.6856 61.4034 25.0114 61.5739 25.3864C61.7481 25.7614 61.8371 26.1913 61.8409 26.6761C61.8371 27.3883 61.6553 28.0057 61.2955 28.5284C60.9394 29.0473 60.4242 29.4508 59.75 29.7386C59.0795 30.0227 58.2708 30.1648 57.3239 30.1648C56.3845 30.1648 55.5663 30.0208 54.8693 29.733C54.1761 29.4451 53.6345 29.0189 53.2443 28.4545C52.858 27.8864 52.6553 27.1837 52.6364 26.3466H55.017C55.0436 26.7367 55.1553 27.0625 55.3523 27.3239C55.553 27.5814 55.8201 27.7765 56.1534 27.9091C56.4905 28.0379 56.8712 28.1023 57.2955 28.1023C57.7121 28.1023 58.0739 28.0417 58.3807 27.9205C58.6913 27.7992 58.9318 27.6307 59.1023 27.4148C59.2727 27.1989 59.358 26.9508 59.358 26.6705C59.358 26.4091 59.2803 26.1894 59.125 26.0114C58.9735 25.8333 58.75 25.6818 58.4545 25.5568C58.1629 25.4318 57.8049 25.3182 57.3807 25.2159L56.1136 24.8977C55.1326 24.6591 54.358 24.286 53.7898 23.7784C53.2216 23.2708 52.9394 22.5871 52.9432 21.7273C52.9394 21.0227 53.1269 20.4072 53.5057 19.8807C53.8883 19.3542 54.4129 18.9432 55.0795 18.6477C55.7462 18.3523 56.5038 18.2045 57.3523 18.2045C58.2159 18.2045 58.9697 18.3523 59.6136 18.6477C60.2614 18.9432 60.7652 19.3542 61.125 19.8807C61.4848 20.4072 61.6705 21.017 61.6818 21.7102H59.3239ZM67.2676 30.1705C66.3698 30.1705 65.5971 29.9886 64.9494 29.625C64.3054 29.2576 63.8092 28.7386 63.4607 28.0682C63.1123 27.3939 62.938 26.5966 62.938 25.6761C62.938 24.7784 63.1123 23.9905 63.4607 23.3125C63.8092 22.6345 64.2998 22.1061 64.9323 21.7273C65.5687 21.3485 66.3149 21.1591 67.171 21.1591C67.7467 21.1591 68.2827 21.2519 68.7789 21.4375C69.2789 21.6193 69.7145 21.8939 70.0857 22.2614C70.4607 22.6288 70.7524 23.0909 70.9607 23.6477C71.1691 24.2008 71.2732 24.8485 71.2732 25.5909V26.2557H63.9039V24.7557H68.9948C68.9948 24.4072 68.9191 24.0985 68.7676 23.8295C68.616 23.5606 68.4058 23.3504 68.1369 23.1989C67.8717 23.0436 67.563 22.9659 67.2107 22.9659C66.8433 22.9659 66.5176 23.0511 66.2335 23.2216C65.9532 23.3883 65.7335 23.6136 65.5744 23.8977C65.4153 24.178 65.3338 24.4905 65.3301 24.8352V26.2614C65.3301 26.6932 65.4096 27.0663 65.5687 27.3807C65.7316 27.6951 65.9607 27.9375 66.2562 28.108C66.5516 28.2784 66.902 28.3636 67.3073 28.3636C67.5763 28.3636 67.8225 28.3258 68.046 28.25C68.2695 28.1742 68.4607 28.0606 68.6198 27.9091C68.7789 27.7576 68.9001 27.572 68.9835 27.3523L71.2221 27.5C71.1085 28.0379 70.8755 28.5076 70.5232 28.9091C70.1748 29.3068 69.724 29.6174 69.171 29.8409C68.6217 30.0606 67.9873 30.1705 67.2676 30.1705ZM75.1814 30.1648C74.6246 30.1648 74.1284 30.0682 73.6928 29.875C73.2572 29.678 72.9125 29.3883 72.6587 29.0057C72.4087 28.6193 72.2837 28.1383 72.2837 27.5625C72.2837 27.0777 72.3727 26.6705 72.5507 26.3409C72.7288 26.0114 72.9712 25.7462 73.278 25.5455C73.5848 25.3447 73.9333 25.1932 74.3235 25.0909C74.7174 24.9886 75.1303 24.9167 75.5621 24.875C76.0697 24.822 76.4788 24.7727 76.7894 24.7273C77.1 24.678 77.3254 24.6061 77.4655 24.5114C77.6057 24.4167 77.6757 24.2765 77.6757 24.0909V24.0568C77.6757 23.697 77.5621 23.4186 77.3348 23.2216C77.1113 23.0246 76.7932 22.9261 76.3803 22.9261C75.9447 22.9261 75.5981 23.0227 75.3405 23.2159C75.0829 23.4053 74.9125 23.6439 74.8291 23.9318L72.5905 23.75C72.7041 23.2197 72.9276 22.7614 73.261 22.375C73.5943 21.9848 74.0242 21.6856 74.5507 21.4773C75.081 21.2652 75.6947 21.1591 76.3916 21.1591C76.8765 21.1591 77.3405 21.2159 77.7837 21.3295C78.2307 21.4432 78.6265 21.6193 78.9712 21.858C79.3197 22.0966 79.5943 22.4034 79.7951 22.7784C79.9958 23.1496 80.0962 23.5947 80.0962 24.1136V30H77.8007V28.7898H77.7326C77.5924 29.0625 77.4049 29.303 77.1701 29.5114C76.9352 29.7159 76.653 29.8769 76.3235 29.9943C75.9939 30.108 75.6132 30.1648 75.1814 30.1648ZM75.8746 28.4943C76.2307 28.4943 76.5451 28.4242 76.8178 28.2841C77.0905 28.1402 77.3045 27.947 77.4598 27.7045C77.6151 27.4621 77.6928 27.1875 77.6928 26.8807V25.9545C77.617 26.0038 77.5129 26.0492 77.3803 26.0909C77.2515 26.1288 77.1057 26.1648 76.9428 26.1989C76.7799 26.2292 76.617 26.2576 76.4541 26.2841C76.2913 26.3068 76.1435 26.3277 76.011 26.3466C75.7269 26.3883 75.4788 26.4545 75.2666 26.5455C75.0545 26.6364 74.8898 26.7595 74.7723 26.9148C74.6549 27.0663 74.5962 27.2557 74.5962 27.483C74.5962 27.8125 74.7155 28.0644 74.9541 28.2386C75.1966 28.4091 75.5034 28.4943 75.8746 28.4943ZM81.814 30V21.2727H84.1606V22.7955H84.2515C84.4106 22.2538 84.6777 21.8447 85.0527 21.5682C85.4277 21.2879 85.8595 21.1477 86.3481 21.1477C86.4693 21.1477 86.6 21.1553 86.7402 21.1705C86.8803 21.1856 87.0034 21.2064 87.1095 21.233V23.3807C86.9959 23.3466 86.8387 23.3163 86.6379 23.2898C86.4371 23.2633 86.2534 23.25 86.0868 23.25C85.7307 23.25 85.4125 23.3277 85.1322 23.483C84.8557 23.6345 84.636 23.8466 84.4731 24.1193C84.314 24.392 84.2345 24.7064 84.2345 25.0625V30H81.814ZM91.7378 30.1705C90.8439 30.1705 90.075 29.9811 89.431 29.6023C88.7909 29.2197 88.2984 28.6894 87.9538 28.0114C87.6128 27.3333 87.4424 26.553 87.4424 25.6705C87.4424 24.7765 87.6147 23.9924 87.9594 23.3182C88.3079 22.6402 88.8022 22.1117 89.4424 21.733C90.0825 21.3504 90.8439 21.1591 91.7265 21.1591C92.4878 21.1591 93.1545 21.2973 93.7265 21.5739C94.2984 21.8504 94.7511 22.2386 95.0844 22.7386C95.4178 23.2386 95.6015 23.8258 95.6356 24.5H93.3515C93.2871 24.0644 93.1166 23.714 92.8401 23.4489C92.5674 23.1799 92.2094 23.0455 91.7663 23.0455C91.3913 23.0455 91.0636 23.1477 90.7833 23.3523C90.5068 23.553 90.2909 23.8466 90.1356 24.233C89.9803 24.6193 89.9026 25.0871 89.9026 25.6364C89.9026 26.1932 89.9784 26.6667 90.1299 27.0568C90.2852 27.447 90.503 27.7443 90.7833 27.9489C91.0636 28.1534 91.3913 28.2557 91.7663 28.2557C92.0428 28.2557 92.2909 28.1989 92.5106 28.0852C92.7341 27.9716 92.9178 27.8068 93.0617 27.5909C93.2094 27.3712 93.306 27.108 93.3515 26.8011H95.6356C95.5977 27.4678 95.4159 28.0549 95.0901 28.5625C94.7681 29.0663 94.3231 29.4602 93.7549 29.7443C93.1867 30.0284 92.5144 30.1705 91.7378 30.1705ZM99.4457 24.9545V30H97.0253V18.3636H99.3776V22.8125H99.4798C99.6768 22.2973 99.995 21.8939 100.434 21.6023C100.874 21.3068 101.425 21.1591 102.088 21.1591C102.694 21.1591 103.222 21.2917 103.673 21.5568C104.128 21.8182 104.48 22.1951 104.73 22.6875C104.984 23.1761 105.109 23.7614 105.105 24.4432V30H102.684V24.875C102.688 24.3371 102.552 23.9186 102.275 23.6193C102.003 23.3201 101.62 23.1705 101.128 23.1705C100.798 23.1705 100.506 23.2405 100.253 23.3807C100.003 23.5208 99.8056 23.7254 99.6616 23.9943C99.5215 24.2595 99.4495 24.5795 99.4457 24.9545Z" fill="white"/>
</svg>
