<svg width="90" height="32" viewBox="0 0 90 32" fill="none" xmlns="http://www.w3.org/2000/svg">
<rect x="0.5" y="0.5" width="89" height="31" rx="7.5" fill="#E7F8EE"/>
<circle cx="18.5" cy="16" r="3" fill="#05BF90"/>
<path d="M35.1259 13.6172C35.0795 13.183 34.884 12.8449 34.5393 12.603C34.1979 12.361 33.7538 12.2401 33.2069 12.2401C32.8224 12.2401 32.4926 12.2981 32.2175 12.4141C31.9424 12.5301 31.732 12.6875 31.5862 12.8864C31.4403 13.0852 31.3657 13.3123 31.3624 13.5675C31.3624 13.7796 31.4105 13.9635 31.5066 14.1193C31.606 14.2751 31.7403 14.4077 31.9093 14.517C32.0783 14.6231 32.2656 14.7126 32.4711 14.7855C32.6766 14.8584 32.8837 14.9197 33.0925 14.9695L34.0471 15.2081C34.4316 15.2976 34.8011 15.4186 35.1558 15.571C35.5137 15.7235 35.8335 15.9157 36.1153 16.1477C36.4003 16.3797 36.6257 16.6598 36.7914 16.9879C36.9571 17.3161 37.04 17.7005 37.04 18.1413C37.04 18.7379 36.8875 19.2633 36.5826 19.7173C36.2777 20.1681 35.8369 20.5211 35.2602 20.7763C34.6868 21.0282 33.9924 21.1541 33.1771 21.1541C32.3849 21.1541 31.6972 21.0315 31.1138 20.7862C30.5338 20.541 30.0798 20.183 29.7516 19.7124C29.4268 19.2417 29.2512 18.6683 29.2246 17.9922H31.0393C31.0658 18.3468 31.1752 18.6418 31.3674 18.8771C31.5596 19.1125 31.8099 19.2881 32.1181 19.4041C32.4297 19.5201 32.7777 19.5781 33.1621 19.5781C33.5632 19.5781 33.9145 19.5185 34.2161 19.3991C34.521 19.2765 34.7597 19.1075 34.932 18.892C35.1044 18.6733 35.1922 18.4181 35.1955 18.1264C35.1922 17.8613 35.1143 17.6425 34.9619 17.4702C34.8094 17.2945 34.5956 17.1487 34.3205 17.0327C34.0487 16.9134 33.7306 16.8073 33.366 16.7145L32.2076 16.4162C31.3691 16.2008 30.7062 15.8743 30.219 15.4368C29.7351 14.996 29.4931 14.411 29.4931 13.6818C29.4931 13.0819 29.6555 12.5566 29.9803 12.1058C30.3085 11.6551 30.7542 11.3054 31.3177 11.0568C31.8811 10.8049 32.5192 10.679 33.2317 10.679C33.9543 10.679 34.5873 10.8049 35.1309 11.0568C35.6778 11.3054 36.107 11.6518 36.4185 12.0959C36.7301 12.5367 36.8908 13.0438 36.9008 13.6172H35.1259ZM41.8455 21.1491C41.0799 21.1491 40.4186 20.9901 39.8618 20.6719C39.3083 20.3504 38.8824 19.8963 38.5841 19.3097C38.2858 18.7197 38.1367 18.0253 38.1367 17.2266C38.1367 16.4411 38.2858 15.7517 38.5841 15.1584C38.8857 14.5618 39.3067 14.0978 39.8469 13.7663C40.3871 13.4316 41.0218 13.2642 41.751 13.2642C42.2217 13.2642 42.6658 13.3404 43.0834 13.4929C43.5043 13.642 43.8755 13.8741 44.197 14.1889C44.5218 14.5038 44.7771 14.9048 44.9627 15.392C45.1483 15.8759 45.2411 16.4527 45.2411 17.1222V17.674H38.9818V16.4609H43.5159C43.5126 16.1162 43.438 15.8097 43.2922 15.5412C43.1464 15.2694 42.9425 15.0556 42.6807 14.8999C42.4222 14.7441 42.1206 14.6662 41.7759 14.6662C41.408 14.6662 41.0848 14.7557 40.8064 14.9347C40.528 15.1103 40.3109 15.3423 40.1551 15.6307C40.0027 15.9157 39.9248 16.2289 39.9215 16.5703V17.6293C39.9215 18.0734 40.0027 18.4545 40.1651 18.7727C40.3275 19.0876 40.5545 19.3295 40.8462 19.4986C41.1379 19.6643 41.4792 19.7472 41.8703 19.7472C42.1322 19.7472 42.3692 19.7107 42.5813 19.6378C42.7934 19.5616 42.9773 19.4505 43.1331 19.3047C43.2889 19.1589 43.4066 18.9782 43.4861 18.7628L45.1665 18.9517C45.0604 19.3958 44.8583 19.7836 44.56 20.1151C44.265 20.4432 43.8871 20.6984 43.4264 20.8807C42.9657 21.0597 42.4388 21.1491 41.8455 21.1491ZM49.9546 21.1491C49.1923 21.1491 48.5377 20.9818 47.9908 20.647C47.4472 20.3123 47.028 19.8499 46.733 19.2599C46.4413 18.6667 46.2955 17.9839 46.2955 17.2116C46.2955 16.4361 46.4446 15.7517 46.7429 15.1584C47.0412 14.5618 47.4622 14.0978 48.0057 13.7663C48.5526 13.4316 49.1989 13.2642 49.9446 13.2642C50.5644 13.2642 51.113 13.3786 51.5902 13.6072C52.0708 13.8326 52.4536 14.1525 52.7387 14.5668C53.0237 14.9777 53.1861 15.4583 53.2259 16.0085H51.5057C51.4361 15.6406 51.2704 15.334 51.0086 15.0888C50.75 14.8402 50.4037 14.7159 49.9695 14.7159C49.6016 14.7159 49.2785 14.8153 49 15.0142C48.7216 15.2098 48.5045 15.4915 48.3488 15.8594C48.1963 16.2273 48.1201 16.6681 48.1201 17.1818C48.1201 17.7022 48.1963 18.1496 48.3488 18.5241C48.5012 18.8954 48.715 19.1821 48.9901 19.3842C49.2685 19.5831 49.595 19.6825 49.9695 19.6825C50.2347 19.6825 50.4716 19.6328 50.6804 19.5334C50.8926 19.4306 51.0699 19.2831 51.2124 19.0909C51.3549 18.8987 51.4527 18.665 51.5057 18.3899H53.2259C53.1828 18.9302 53.0237 19.4091 52.7486 19.8267C52.4735 20.241 52.099 20.5658 51.625 20.8011C51.1511 21.0331 50.5943 21.1491 49.9546 21.1491ZM59.4309 17.7884V13.3636H61.2306V21H59.4856V19.6428H59.406C59.2337 20.0703 58.9503 20.42 58.5559 20.6918C58.1648 20.9635 57.6825 21.0994 57.1092 21.0994C56.6087 21.0994 56.1662 20.9884 55.7817 20.7663C55.4006 20.541 55.1023 20.2145 54.8869 19.7869C54.6714 19.3561 54.5637 18.8357 54.5637 18.2259V13.3636H56.3634V17.9474C56.3634 18.4313 56.496 18.8158 56.7611 19.1009C57.0263 19.3859 57.3743 19.5284 57.8052 19.5284C58.0703 19.5284 58.3272 19.4638 58.5758 19.3345C58.8244 19.2053 59.0282 19.013 59.1873 18.7578C59.3497 18.4993 59.4309 18.1761 59.4309 17.7884ZM62.9413 21V13.3636H64.6863V14.6364H64.7659C64.9051 14.1955 65.1437 13.8558 65.4818 13.6172C65.8231 13.3752 66.2126 13.2543 66.6501 13.2543C66.7495 13.2543 66.8606 13.2592 66.9832 13.2692C67.1091 13.2758 67.2135 13.2874 67.2964 13.304V14.9595C67.2202 14.933 67.0992 14.9098 66.9335 14.8899C66.7711 14.8667 66.6136 14.8551 66.4612 14.8551C66.133 14.8551 65.8381 14.9264 65.5762 15.0689C65.3177 15.2081 65.1139 15.402 64.9647 15.6506C64.8156 15.8991 64.741 16.1858 64.741 16.5107V21H62.9413ZM71.4183 21.1491C70.6527 21.1491 69.9914 20.9901 69.4346 20.6719C68.8811 20.3504 68.4552 19.8963 68.1569 19.3097C67.8586 18.7197 67.7095 18.0253 67.7095 17.2266C67.7095 16.4411 67.8586 15.7517 68.1569 15.1584C68.4585 14.5618 68.8795 14.0978 69.4197 13.7663C69.96 13.4316 70.5947 13.2642 71.3238 13.2642C71.7945 13.2642 72.2386 13.3404 72.6562 13.4929C73.0771 13.642 73.4484 13.8741 73.7699 14.1889C74.0947 14.5038 74.3499 14.9048 74.5355 15.392C74.7211 15.8759 74.8139 16.4527 74.8139 17.1222V17.674H68.5547V16.4609H73.0887C73.0854 16.1162 73.0109 15.8097 72.865 15.5412C72.7192 15.2694 72.5154 15.0556 72.2535 14.8999C71.995 14.7441 71.6934 14.6662 71.3487 14.6662C70.9808 14.6662 70.6576 14.7557 70.3792 14.9347C70.1008 15.1103 69.8837 15.3423 69.7279 15.6307C69.5755 15.9157 69.4976 16.2289 69.4943 16.5703V17.6293C69.4943 18.0734 69.5755 18.4545 69.7379 18.7727C69.9003 19.0876 70.1273 19.3295 70.419 19.4986C70.7107 19.6643 71.052 19.7472 71.4431 19.7472C71.705 19.7472 71.942 19.7107 72.1541 19.6378C72.3662 19.5616 72.5502 19.4505 72.7059 19.3047C72.8617 19.1589 72.9794 18.9782 73.0589 18.7628L74.7393 18.9517C74.6333 19.3958 74.4311 19.7836 74.1328 20.1151C73.8378 20.4432 73.46 20.6984 72.9993 20.8807C72.5386 21.0597 72.0116 21.1491 71.4183 21.1491Z" fill="#063722"/>
<rect x="0.5" y="0.5" width="89" height="31" rx="7.5" stroke="#05BF90"/>
</svg>
