<svg width="90" height="40" viewBox="0 0 90 40" fill="none" xmlns="http://www.w3.org/2000/svg">
<rect width="90" height="40" rx="8" fill="#EFEFEF"/>
<path d="M31.4084 17.7464C31.3686 17.3454 31.1979 17.0339 30.8963 16.8118C30.5947 16.5897 30.1854 16.4787 29.6683 16.4787C29.317 16.4787 29.0204 16.5284 28.7784 16.6278C28.5365 16.724 28.3509 16.8582 28.2216 17.0305C28.0956 17.2029 28.0327 17.3984 28.0327 17.6172C28.026 17.7995 28.0642 17.9586 28.147 18.0945C28.2332 18.2304 28.3509 18.348 28.5 18.4474C28.6491 18.5436 28.8215 18.6281 29.017 18.701C29.2126 18.7706 29.4214 18.8303 29.6435 18.88L30.5582 19.0987C31.0024 19.1982 31.41 19.3307 31.7812 19.4964C32.1525 19.6622 32.474 19.866 32.7457 20.108C33.0175 20.3499 33.228 20.6349 33.3771 20.9631C33.5296 21.2912 33.6075 21.6674 33.6108 22.0916C33.6075 22.7147 33.4484 23.255 33.1335 23.7124C32.822 24.1664 32.3712 24.5194 31.7812 24.7713C31.1946 25.0199 30.487 25.1442 29.6584 25.1442C28.8364 25.1442 28.1205 25.0182 27.5107 24.7663C26.9041 24.5144 26.4302 24.1416 26.0888 23.6477C25.7507 23.1506 25.5734 22.5357 25.5568 21.8033H27.6399C27.6631 22.1446 27.7609 22.4297 27.9332 22.6584C28.1089 22.8838 28.3426 23.0545 28.6342 23.1705C28.9292 23.2831 29.2623 23.3395 29.6335 23.3395C29.9981 23.3395 30.3146 23.2865 30.5831 23.1804C30.8549 23.0743 31.0653 22.9268 31.2145 22.7379C31.3636 22.549 31.4382 22.3319 31.4382 22.0866C31.4382 21.858 31.3703 21.6657 31.2344 21.5099C31.1018 21.3542 30.9063 21.2216 30.6477 21.1122C30.3925 21.0028 30.0793 20.9034 29.7081 20.8139L28.5994 20.5355C27.741 20.3267 27.0632 20.0002 26.5661 19.5561C26.0689 19.112 25.822 18.5137 25.8253 17.7614C25.822 17.1449 25.986 16.6063 26.3175 16.1456C26.6522 15.6849 27.1113 15.3253 27.6946 15.0668C28.2779 14.8082 28.9408 14.679 29.6832 14.679C30.4389 14.679 31.0985 14.8082 31.6619 15.0668C32.2287 15.3253 32.6695 15.6849 32.9844 16.1456C33.2992 16.6063 33.4616 17.1399 33.4716 17.7464H31.4084ZM38.3591 25.1491C37.5736 25.1491 36.8975 24.9901 36.3307 24.6719C35.7673 24.3504 35.3331 23.8963 35.0281 23.3097C34.7232 22.7197 34.5708 22.022 34.5708 21.2166C34.5708 20.4311 34.7232 19.7417 35.0281 19.1484C35.3331 18.5552 35.7623 18.0928 36.3158 17.7614C36.8726 17.4299 37.5255 17.2642 38.2746 17.2642C38.7784 17.2642 39.2474 17.3454 39.6816 17.5078C40.1191 17.6669 40.5002 17.9072 40.825 18.2287C41.1531 18.5502 41.4084 18.9545 41.5906 19.4418C41.7729 19.9257 41.8641 20.4924 41.8641 21.142V21.7237H35.4159V20.4112H39.8705C39.8705 20.1063 39.8042 19.8362 39.6716 19.6009C39.539 19.3655 39.3551 19.1816 39.1198 19.049C38.8878 18.9131 38.6176 18.8452 38.3094 18.8452C37.9879 18.8452 37.7029 18.9197 37.4543 19.0689C37.209 19.2147 37.0168 19.4119 36.8776 19.6605C36.7384 19.9058 36.6671 20.1792 36.6638 20.4808V21.7287C36.6638 22.1065 36.7334 22.433 36.8726 22.7081C37.0151 22.9832 37.2156 23.1953 37.4742 23.3445C37.7327 23.4936 38.0393 23.5682 38.3939 23.5682C38.6292 23.5682 38.8447 23.535 39.0402 23.4688C39.2358 23.4025 39.4031 23.303 39.5424 23.1705C39.6816 23.0379 39.7876 22.8755 39.8605 22.6832L41.8193 22.8125C41.7199 23.2831 41.5161 23.6941 41.2078 24.0455C40.9029 24.3935 40.5085 24.6652 40.0246 24.8608C39.544 25.053 38.9888 25.1491 38.3591 25.1491ZM47.168 17.3636V18.9545H42.5693V17.3636H47.168ZM43.6133 15.5341H45.7312V22.6534C45.7312 22.849 45.761 23.0014 45.8207 23.1108C45.8803 23.2169 45.9632 23.2914 46.0693 23.3345C46.1786 23.3776 46.3046 23.3991 46.4471 23.3991C46.5465 23.3991 46.646 23.3909 46.7454 23.3743C46.8448 23.3544 46.9211 23.3395 46.9741 23.3295L47.3072 24.9055C47.2011 24.9387 47.052 24.9768 46.8597 25.0199C46.6675 25.0663 46.4338 25.0945 46.1587 25.1044C45.6483 25.1243 45.2009 25.0563 44.8164 24.9006C44.4353 24.7448 44.1386 24.5028 43.9265 24.1747C43.7144 23.8466 43.61 23.4323 43.6133 22.9318V15.5341ZM53.3046 21.7486V17.3636H55.4225V25H53.3891V23.6129H53.3096C53.1372 24.0604 52.8505 24.42 52.4495 24.6918C52.0518 24.9635 51.5662 25.0994 50.9928 25.0994C50.4824 25.0994 50.0333 24.9834 49.6455 24.7514C49.2577 24.5194 48.9545 24.1896 48.7357 23.7621C48.5203 23.3345 48.4109 22.8224 48.4076 22.2259V17.3636H50.5255V21.848C50.5288 22.2988 50.6498 22.6551 50.8884 22.9169C51.1271 23.1787 51.4469 23.3097 51.8479 23.3097C52.1031 23.3097 52.3418 23.2517 52.5638 23.1357C52.7859 23.0163 52.9649 22.8407 53.1008 22.6087C53.24 22.3767 53.3079 22.09 53.3046 21.7486ZM56.9766 27.8636V17.3636H59.0646V18.6463H59.1591C59.2519 18.4408 59.3861 18.232 59.5618 18.0199C59.7408 17.8045 59.9728 17.6255 60.2578 17.483C60.5462 17.3371 60.9041 17.2642 61.3317 17.2642C61.8885 17.2642 62.4022 17.41 62.8729 17.7017C63.3435 17.9901 63.7197 18.4259 64.0014 19.0092C64.2832 19.5893 64.424 20.3168 64.424 21.1918C64.424 22.0436 64.2865 22.7628 64.0114 23.3494C63.7396 23.9328 63.3684 24.3752 62.8977 24.6768C62.4304 24.9751 61.9067 25.1243 61.3267 25.1243C60.9157 25.1243 60.5661 25.0563 60.2777 24.9205C59.9927 24.7846 59.759 24.6139 59.5767 24.4084C59.3944 24.1996 59.2552 23.9891 59.1591 23.777H59.0945V27.8636H56.9766ZM59.0497 21.1818C59.0497 21.6359 59.1127 22.032 59.2387 22.37C59.3646 22.7081 59.5469 22.9716 59.7855 23.1605C60.0242 23.3461 60.3142 23.4389 60.6556 23.4389C61.0003 23.4389 61.2919 23.3445 61.5306 23.1555C61.7692 22.9633 61.9498 22.6982 62.0725 22.3601C62.1984 22.0187 62.2614 21.6259 62.2614 21.1818C62.2614 20.741 62.2001 20.3532 62.0774 20.0185C61.9548 19.6837 61.7742 19.4219 61.5355 19.233C61.2969 19.044 61.0036 18.9496 60.6556 18.9496C60.3109 18.9496 60.0192 19.0407 59.7806 19.223C59.5452 19.4053 59.3646 19.6638 59.2387 19.9986C59.1127 20.3333 59.0497 20.7277 59.0497 21.1818Z" fill="#344054"/>
</svg>
