<svg width="331" height="48" viewBox="0 0 331 48" fill="none" xmlns="http://www.w3.org/2000/svg">
<rect width="331" height="48" rx="12" fill="#EFEFEF"/>
<path d="M78.8239 21.7102C78.7784 21.2519 78.5833 20.8958 78.2386 20.642C77.8939 20.3883 77.4261 20.2614 76.8352 20.2614C76.4337 20.2614 76.0947 20.3182 75.8182 20.4318C75.5417 20.5417 75.3295 20.6951 75.1818 20.892C75.0379 21.089 74.9659 21.3125 74.9659 21.5625C74.9583 21.7708 75.0019 21.9527 75.0966 22.108C75.1951 22.2633 75.3295 22.3977 75.5 22.5114C75.6705 22.6212 75.8674 22.7178 76.0909 22.8011C76.3144 22.8807 76.553 22.9489 76.8068 23.0057L77.8523 23.2557C78.3598 23.3693 78.8258 23.5208 79.25 23.7102C79.6742 23.8996 80.0417 24.1326 80.3523 24.4091C80.6629 24.6856 80.9034 25.0114 81.0739 25.3864C81.2481 25.7614 81.3371 26.1913 81.3409 26.6761C81.3371 27.3883 81.1553 28.0057 80.7955 28.5284C80.4394 29.0473 79.9242 29.4508 79.25 29.7386C78.5795 30.0227 77.7708 30.1648 76.8239 30.1648C75.8845 30.1648 75.0663 30.0208 74.3693 29.733C73.6761 29.4451 73.1345 29.0189 72.7443 28.4545C72.358 27.8864 72.1553 27.1837 72.1364 26.3466H74.517C74.5436 26.7367 74.6553 27.0625 74.8523 27.3239C75.053 27.5814 75.3201 27.7765 75.6534 27.9091C75.9905 28.0379 76.3712 28.1023 76.7955 28.1023C77.2121 28.1023 77.5739 28.0417 77.8807 27.9205C78.1913 27.7992 78.4318 27.6307 78.6023 27.4148C78.7727 27.1989 78.858 26.9508 78.858 26.6705C78.858 26.4091 78.7803 26.1894 78.625 26.0114C78.4735 25.8333 78.25 25.6818 77.9545 25.5568C77.6629 25.4318 77.3049 25.3182 76.8807 25.2159L75.6136 24.8977C74.6326 24.6591 73.858 24.286 73.2898 23.7784C72.7216 23.2708 72.4394 22.5871 72.4432 21.7273C72.4394 21.0227 72.6269 20.4072 73.0057 19.8807C73.3883 19.3542 73.9129 18.9432 74.5795 18.6477C75.2462 18.3523 76.0038 18.2045 76.8523 18.2045C77.7159 18.2045 78.4697 18.3523 79.1136 18.6477C79.7614 18.9432 80.2652 19.3542 80.625 19.8807C80.9848 20.4072 81.1705 21.017 81.1818 21.7102H78.8239ZM82.7903 30V21.2727H85.2107V30H82.7903ZM84.0062 20.1477C83.6463 20.1477 83.3376 20.0284 83.0801 19.7898C82.8263 19.5473 82.6994 19.2576 82.6994 18.9205C82.6994 18.5871 82.8263 18.3011 83.0801 18.0625C83.3376 17.8201 83.6463 17.6989 84.0062 17.6989C84.366 17.6989 84.6729 17.8201 84.9266 18.0625C85.1842 18.3011 85.313 18.5871 85.313 18.9205C85.313 19.2576 85.1842 19.5473 84.9266 19.7898C84.6729 20.0284 84.366 20.1477 84.0062 20.1477ZM90.9215 33.4545C90.1374 33.4545 89.465 33.3466 88.9044 33.1307C88.3476 32.9186 87.9044 32.6288 87.5749 32.2614C87.2453 31.8939 87.0313 31.4811 86.9328 31.0227L89.1715 30.7216C89.2397 30.8958 89.3476 31.0587 89.4953 31.2102C89.6431 31.3617 89.8381 31.483 90.0806 31.5739C90.3268 31.6686 90.626 31.7159 90.9783 31.7159C91.5048 31.7159 91.9385 31.5871 92.2794 31.3295C92.6241 31.0758 92.7965 30.6496 92.7965 30.0511V28.4545H92.6942C92.5881 28.697 92.4291 28.9261 92.2169 29.142C92.0048 29.358 91.7321 29.5341 91.3988 29.6705C91.0654 29.8068 90.6677 29.875 90.2056 29.875C89.5503 29.875 88.9537 29.7235 88.4158 29.4205C87.8817 29.1136 87.4556 28.6458 87.1374 28.017C86.823 27.3845 86.6658 26.5852 86.6658 25.6193C86.6658 24.6307 86.8268 23.8049 87.1488 23.142C87.4707 22.4792 87.8988 21.983 88.4328 21.6534C88.9707 21.3239 89.5597 21.1591 90.1999 21.1591C90.6885 21.1591 91.0976 21.2424 91.4272 21.4091C91.7567 21.572 92.0219 21.7765 92.2226 22.0227C92.4272 22.2652 92.5844 22.5038 92.6942 22.7386H92.7851V21.2727H95.1885V30.0852C95.1885 30.8277 95.0067 31.4489 94.6431 31.9489C94.2794 32.4489 93.7756 32.8239 93.1317 33.0739C92.4916 33.3277 91.7548 33.4545 90.9215 33.4545ZM90.9726 28.0568C91.3628 28.0568 91.6923 27.9602 91.9613 27.767C92.234 27.5701 92.4423 27.2898 92.5863 26.9261C92.734 26.5587 92.8078 26.1193 92.8078 25.608C92.8078 25.0966 92.7359 24.6534 92.5919 24.2784C92.448 23.8996 92.2397 23.6061 91.9669 23.3977C91.6942 23.1894 91.3628 23.0852 90.9726 23.0852C90.5749 23.0852 90.2397 23.1932 89.9669 23.4091C89.6942 23.6212 89.4878 23.9167 89.3476 24.2955C89.2075 24.6742 89.1374 25.1117 89.1374 25.608C89.1374 26.1117 89.2075 26.5473 89.3476 26.9148C89.4916 27.2784 89.698 27.5606 89.9669 27.7614C90.2397 27.9583 90.5749 28.0568 90.9726 28.0568ZM99.3751 24.9545V30H96.9547V21.2727H99.2615V22.8125H99.3638C99.5569 22.3049 99.8808 21.9034 100.335 21.608C100.79 21.3087 101.341 21.1591 101.989 21.1591C102.595 21.1591 103.123 21.2917 103.574 21.5568C104.025 21.822 104.375 22.2008 104.625 22.6932C104.875 23.1818 105 23.7652 105 24.4432V30H102.58V24.875C102.583 24.3409 102.447 23.9242 102.171 23.625C101.894 23.322 101.513 23.1705 101.029 23.1705C100.703 23.1705 100.415 23.2405 100.165 23.3807C99.9187 23.5208 99.7255 23.7254 99.5853 23.9943C99.449 24.2595 99.3789 24.5795 99.3751 24.9545ZM114.234 30.1705C113.352 30.1705 112.588 29.983 111.944 29.608C111.304 29.2292 110.81 28.7027 110.461 28.0284C110.113 27.3504 109.939 26.5644 109.939 25.6705C109.939 24.7689 110.113 23.9811 110.461 23.3068C110.81 22.6288 111.304 22.1023 111.944 21.7273C112.588 21.3485 113.352 21.1591 114.234 21.1591C115.117 21.1591 115.878 21.3485 116.518 21.7273C117.162 22.1023 117.658 22.6288 118.007 23.3068C118.355 23.9811 118.53 24.7689 118.53 25.6705C118.53 26.5644 118.355 27.3504 118.007 28.0284C117.658 28.7027 117.162 29.2292 116.518 29.608C115.878 29.983 115.117 30.1705 114.234 30.1705ZM114.245 28.2955C114.647 28.2955 114.982 28.1818 115.251 27.9545C115.52 27.7235 115.723 27.4091 115.859 27.0114C115.999 26.6136 116.069 26.161 116.069 25.6534C116.069 25.1458 115.999 24.6932 115.859 24.2955C115.723 23.8977 115.52 23.5833 115.251 23.3523C114.982 23.1212 114.647 23.0057 114.245 23.0057C113.84 23.0057 113.499 23.1212 113.223 23.3523C112.95 23.5833 112.744 23.8977 112.603 24.2955C112.467 24.6932 112.399 25.1458 112.399 25.6534C112.399 26.161 112.467 26.6136 112.603 27.0114C112.744 27.4091 112.95 27.7235 113.223 27.9545C113.499 28.1818 113.84 28.2955 114.245 28.2955ZM125.54 26.2841V21.2727H127.96V30H125.637V28.4148H125.546C125.349 28.9261 125.021 29.3371 124.563 29.6477C124.108 29.9583 123.553 30.1136 122.898 30.1136C122.315 30.1136 121.801 29.9811 121.358 29.7159C120.915 29.4508 120.568 29.0739 120.318 28.5852C120.072 28.0966 119.947 27.5114 119.943 26.8295V21.2727H122.364V26.3977C122.368 26.9129 122.506 27.3201 122.779 27.6193C123.051 27.9186 123.417 28.0682 123.875 28.0682C124.167 28.0682 124.44 28.0019 124.693 27.8693C124.947 27.733 125.152 27.5322 125.307 27.267C125.466 27.0019 125.544 26.6742 125.54 26.2841ZM134.379 21.2727V23.0909H129.123V21.2727H134.379ZM130.316 19.1818H132.737V27.3182C132.737 27.5417 132.771 27.7159 132.839 27.8409C132.907 27.9621 133.002 28.0473 133.123 28.0966C133.248 28.1458 133.392 28.1705 133.555 28.1705C133.668 28.1705 133.782 28.161 133.896 28.142C134.009 28.1193 134.096 28.1023 134.157 28.0909L134.538 29.892C134.416 29.9299 134.246 29.9735 134.026 30.0227C133.807 30.0758 133.54 30.108 133.225 30.1193C132.642 30.142 132.13 30.0644 131.691 29.8864C131.255 29.7083 130.916 29.4318 130.674 29.0568C130.432 28.6818 130.312 28.2083 130.316 27.6364V19.1818ZM144.032 21.2727V23.0909H138.645V21.2727H144.032ZM139.878 30V20.642C139.878 20.0095 140.001 19.4848 140.247 19.0682C140.497 18.6515 140.838 18.339 141.27 18.1307C141.702 17.9223 142.193 17.8182 142.742 17.8182C143.113 17.8182 143.452 17.8466 143.759 17.9034C144.069 17.9602 144.301 18.0114 144.452 18.0568L144.02 19.875C143.926 19.8447 143.808 19.8163 143.668 19.7898C143.532 19.7633 143.391 19.75 143.247 19.75C142.891 19.75 142.643 19.8333 142.503 20C142.363 20.1629 142.293 20.392 142.293 20.6875V30H139.878ZM145.35 30V21.2727H147.697V22.7955H147.788C147.947 22.2538 148.214 21.8447 148.589 21.5682C148.964 21.2879 149.396 21.1477 149.884 21.1477C150.006 21.1477 150.136 21.1553 150.276 21.1705C150.417 21.1856 150.54 21.2064 150.646 21.233V23.3807C150.532 23.3466 150.375 23.3163 150.174 23.2898C149.973 23.2633 149.79 23.25 149.623 23.25C149.267 23.25 148.949 23.3277 148.668 23.483C148.392 23.6345 148.172 23.8466 148.009 24.1193C147.85 24.392 147.771 24.7064 147.771 25.0625V30H145.35ZM155.274 30.1705C154.392 30.1705 153.628 29.983 152.984 29.608C152.344 29.2292 151.85 28.7027 151.501 28.0284C151.153 27.3504 150.979 26.5644 150.979 25.6705C150.979 24.7689 151.153 23.9811 151.501 23.3068C151.85 22.6288 152.344 22.1023 152.984 21.7273C153.628 21.3485 154.392 21.1591 155.274 21.1591C156.157 21.1591 156.918 21.3485 157.558 21.7273C158.202 22.1023 158.698 22.6288 159.047 23.3068C159.395 23.9811 159.57 24.7689 159.57 25.6705C159.57 26.5644 159.395 27.3504 159.047 28.0284C158.698 28.7027 158.202 29.2292 157.558 29.608C156.918 29.983 156.157 30.1705 155.274 30.1705ZM155.285 28.2955C155.687 28.2955 156.022 28.1818 156.291 27.9545C156.56 27.7235 156.763 27.4091 156.899 27.0114C157.039 26.6136 157.109 26.161 157.109 25.6534C157.109 25.1458 157.039 24.6932 156.899 24.2955C156.763 23.8977 156.56 23.5833 156.291 23.3523C156.022 23.1212 155.687 23.0057 155.285 23.0057C154.88 23.0057 154.539 23.1212 154.263 23.3523C153.99 23.5833 153.784 23.8977 153.643 24.2955C153.507 24.6932 153.439 25.1458 153.439 25.6534C153.439 26.161 153.507 26.6136 153.643 27.0114C153.784 27.4091 153.99 27.7235 154.263 27.9545C154.539 28.1818 154.88 28.2955 155.285 28.2955ZM160.983 30V21.2727H163.29V22.8125H163.393C163.574 22.3011 163.877 21.8977 164.302 21.6023C164.726 21.3068 165.233 21.1591 165.824 21.1591C166.423 21.1591 166.932 21.3087 167.353 21.608C167.773 21.9034 168.053 22.3049 168.194 22.8125H168.285C168.463 22.3125 168.785 21.9129 169.25 21.6136C169.72 21.3106 170.275 21.1591 170.915 21.1591C171.73 21.1591 172.391 21.4186 172.898 21.9375C173.41 22.4527 173.665 23.1837 173.665 24.1307V30H171.25V24.608C171.25 24.1231 171.122 23.7595 170.864 23.517C170.607 23.2746 170.285 23.1534 169.898 23.1534C169.459 23.1534 169.116 23.2936 168.87 23.5739C168.624 23.8504 168.5 24.2159 168.5 24.6705V30H166.154V24.5568C166.154 24.1288 166.031 23.7879 165.785 23.5341C165.542 23.2803 165.222 23.1534 164.824 23.1534C164.555 23.1534 164.313 23.2216 164.097 23.358C163.885 23.4905 163.716 23.678 163.591 23.9205C163.466 24.1591 163.404 24.4394 163.404 24.7614V30H160.983ZM181.449 30.1648C180.892 30.1648 180.396 30.0682 179.96 29.875C179.525 29.678 179.18 29.3883 178.926 29.0057C178.676 28.6193 178.551 28.1383 178.551 27.5625C178.551 27.0777 178.64 26.6705 178.818 26.3409C178.996 26.0114 179.239 25.7462 179.546 25.5455C179.852 25.3447 180.201 25.1932 180.591 25.0909C180.985 24.9886 181.398 24.9167 181.83 24.875C182.337 24.822 182.746 24.7727 183.057 24.7273C183.367 24.678 183.593 24.6061 183.733 24.5114C183.873 24.4167 183.943 24.2765 183.943 24.0909V24.0568C183.943 23.697 183.83 23.4186 183.602 23.2216C183.379 23.0246 183.061 22.9261 182.648 22.9261C182.212 22.9261 181.866 23.0227 181.608 23.2159C181.35 23.4053 181.18 23.6439 181.097 23.9318L178.858 23.75C178.972 23.2197 179.195 22.7614 179.528 22.375C179.862 21.9848 180.292 21.6856 180.818 21.4773C181.349 21.2652 181.962 21.1591 182.659 21.1591C183.144 21.1591 183.608 21.2159 184.051 21.3295C184.498 21.4432 184.894 21.6193 185.239 21.858C185.587 22.0966 185.862 22.4034 186.063 22.7784C186.263 23.1496 186.364 23.5947 186.364 24.1136V30H184.068V28.7898H184C183.86 29.0625 183.672 29.303 183.438 29.5114C183.203 29.7159 182.921 29.8769 182.591 29.9943C182.261 30.108 181.881 30.1648 181.449 30.1648ZM182.142 28.4943C182.498 28.4943 182.813 28.4242 183.085 28.2841C183.358 28.1402 183.572 27.947 183.727 27.7045C183.883 27.4621 183.96 27.1875 183.96 26.8807V25.9545C183.885 26.0038 183.78 26.0492 183.648 26.0909C183.519 26.1288 183.373 26.1648 183.21 26.1989C183.047 26.2292 182.885 26.2576 182.722 26.2841C182.559 26.3068 182.411 26.3277 182.278 26.3466C181.994 26.3883 181.746 26.4545 181.534 26.5455C181.322 26.6364 181.157 26.7595 181.04 26.9148C180.922 27.0663 180.864 27.2557 180.864 27.483C180.864 27.8125 180.983 28.0644 181.222 28.2386C181.464 28.4091 181.771 28.4943 182.142 28.4943ZM190.502 18.3636V30H188.082V18.3636H190.502ZM194.701 18.3636V30H192.281V18.3636H194.701ZM203.239 30.142C202.576 30.142 201.976 29.9716 201.438 29.6307C200.904 29.286 200.48 28.7803 200.165 28.1136C199.855 27.4432 199.7 26.6212 199.7 25.6477C199.7 24.6477 199.861 23.8163 200.183 23.1534C200.504 22.4867 200.933 21.9886 201.467 21.6591C202.004 21.3258 202.593 21.1591 203.234 21.1591C203.722 21.1591 204.129 21.2424 204.455 21.4091C204.785 21.572 205.05 21.7765 205.251 22.0227C205.455 22.2652 205.611 22.5038 205.717 22.7386H205.79V18.3636H208.205V30H205.819V28.6023H205.717C205.603 28.8447 205.442 29.0852 205.234 29.3239C205.029 29.5587 204.762 29.7538 204.433 29.9091C204.107 30.0644 203.709 30.142 203.239 30.142ZM204.006 28.2159C204.397 28.2159 204.726 28.1098 204.995 27.8977C205.268 27.6818 205.476 27.3807 205.62 26.9943C205.768 26.608 205.842 26.1553 205.842 25.6364C205.842 25.1174 205.77 24.6667 205.626 24.2841C205.482 23.9015 205.273 23.6061 205.001 23.3977C204.728 23.1894 204.397 23.0852 204.006 23.0852C203.609 23.0852 203.273 23.1932 203.001 23.4091C202.728 23.625 202.522 23.9242 202.381 24.3068C202.241 24.6894 202.171 25.1326 202.171 25.6364C202.171 26.1439 202.241 26.5928 202.381 26.983C202.525 27.3693 202.732 27.6723 203.001 27.892C203.273 28.108 203.609 28.2159 204.006 28.2159ZM214.013 30.1705C213.115 30.1705 212.342 29.9886 211.694 29.625C211.05 29.2576 210.554 28.7386 210.206 28.0682C209.857 27.3939 209.683 26.5966 209.683 25.6761C209.683 24.7784 209.857 23.9905 210.206 23.3125C210.554 22.6345 211.045 22.1061 211.677 21.7273C212.314 21.3485 213.06 21.1591 213.916 21.1591C214.492 21.1591 215.028 21.2519 215.524 21.4375C216.024 21.6193 216.46 21.8939 216.831 22.2614C217.206 22.6288 217.497 23.0909 217.706 23.6477C217.914 24.2008 218.018 24.8485 218.018 25.5909V26.2557H210.649V24.7557H215.74C215.74 24.4072 215.664 24.0985 215.513 23.8295C215.361 23.5606 215.151 23.3504 214.882 23.1989C214.617 23.0436 214.308 22.9659 213.956 22.9659C213.588 22.9659 213.263 23.0511 212.978 23.2216C212.698 23.3883 212.478 23.6136 212.319 23.8977C212.16 24.178 212.079 24.4905 212.075 24.8352V26.2614C212.075 26.6932 212.155 27.0663 212.314 27.3807C212.477 27.6951 212.706 27.9375 213.001 28.108C213.297 28.2784 213.647 28.3636 214.052 28.3636C214.321 28.3636 214.567 28.3258 214.791 28.25C215.014 28.1742 215.206 28.0606 215.365 27.9091C215.524 27.7576 215.645 27.572 215.728 27.3523L217.967 27.5C217.853 28.0379 217.621 28.5076 217.268 28.9091C216.92 29.3068 216.469 29.6174 215.916 29.8409C215.367 30.0606 214.732 30.1705 214.013 30.1705ZM227.34 21.2727L224.289 30H221.561L218.51 21.2727H221.067L222.88 27.517H222.97L224.777 21.2727H227.34ZM228.418 30V21.2727H230.839V30H228.418ZM229.634 20.1477C229.274 20.1477 228.966 20.0284 228.708 19.7898C228.454 19.5473 228.327 19.2576 228.327 18.9205C228.327 18.5871 228.454 18.3011 228.708 18.0625C228.966 17.8201 229.274 17.6989 229.634 17.6989C229.994 17.6989 230.301 17.8201 230.555 18.0625C230.812 18.3011 230.941 18.5871 230.941 18.9205C230.941 19.2576 230.812 19.5473 230.555 19.7898C230.301 20.0284 229.994 20.1477 229.634 20.1477ZM236.561 30.1705C235.667 30.1705 234.898 29.9811 234.254 29.6023C233.614 29.2197 233.122 28.6894 232.777 28.0114C232.436 27.3333 232.266 26.553 232.266 25.6705C232.266 24.7765 232.438 23.9924 232.783 23.3182C233.131 22.6402 233.625 22.1117 234.266 21.733C234.906 21.3504 235.667 21.1591 236.55 21.1591C237.311 21.1591 237.978 21.2973 238.55 21.5739C239.122 21.8504 239.574 22.2386 239.908 22.7386C240.241 23.2386 240.425 23.8258 240.459 24.5H238.175C238.11 24.0644 237.94 23.714 237.663 23.4489C237.391 23.1799 237.033 23.0455 236.589 23.0455C236.214 23.0455 235.887 23.1477 235.606 23.3523C235.33 23.553 235.114 23.8466 234.959 24.233C234.803 24.6193 234.726 25.0871 234.726 25.6364C234.726 26.1932 234.801 26.6667 234.953 27.0568C235.108 27.447 235.326 27.7443 235.606 27.9489C235.887 28.1534 236.214 28.2557 236.589 28.2557C236.866 28.2557 237.114 28.1989 237.334 28.0852C237.557 27.9716 237.741 27.8068 237.885 27.5909C238.033 27.3712 238.129 27.108 238.175 26.8011H240.459C240.421 27.4678 240.239 28.0549 239.913 28.5625C239.591 29.0663 239.146 29.4602 238.578 29.7443C238.01 30.0284 237.337 30.1705 236.561 30.1705ZM245.826 30.1705C244.928 30.1705 244.155 29.9886 243.508 29.625C242.864 29.2576 242.367 28.7386 242.019 28.0682C241.67 27.3939 241.496 26.5966 241.496 25.6761C241.496 24.7784 241.67 23.9905 242.019 23.3125C242.367 22.6345 242.858 22.1061 243.49 21.7273C244.127 21.3485 244.873 21.1591 245.729 21.1591C246.305 21.1591 246.841 21.2519 247.337 21.4375C247.837 21.6193 248.273 21.8939 248.644 22.2614C249.019 22.6288 249.311 23.0909 249.519 23.6477C249.727 24.2008 249.831 24.8485 249.831 25.5909V26.2557H242.462V24.7557H247.553C247.553 24.4072 247.477 24.0985 247.326 23.8295C247.174 23.5606 246.964 23.3504 246.695 23.1989C246.43 23.0436 246.121 22.9659 245.769 22.9659C245.401 22.9659 245.076 23.0511 244.792 23.2216C244.511 23.3883 244.292 23.6136 244.133 23.8977C243.973 24.178 243.892 24.4905 243.888 24.8352V26.2614C243.888 26.6932 243.968 27.0663 244.127 27.3807C244.29 27.6951 244.519 27.9375 244.814 28.108C245.11 28.2784 245.46 28.3636 245.865 28.3636C246.134 28.3636 246.381 28.3258 246.604 28.25C246.828 28.1742 247.019 28.0606 247.178 27.9091C247.337 27.7576 247.458 27.572 247.542 27.3523L249.78 27.5C249.667 28.0379 249.434 28.5076 249.081 28.9091C248.733 29.3068 248.282 29.6174 247.729 29.8409C247.18 30.0606 246.545 30.1705 245.826 30.1705ZM258.512 23.7614L256.296 23.8977C256.258 23.7083 256.177 23.5379 256.052 23.3864C255.927 23.2311 255.762 23.108 255.558 23.017C255.357 22.9223 255.116 22.875 254.836 22.875C254.461 22.875 254.145 22.9545 253.887 23.1136C253.63 23.2689 253.501 23.4773 253.501 23.7386C253.501 23.947 253.584 24.1231 253.751 24.267C253.918 24.411 254.204 24.5265 254.609 24.6136L256.188 24.9318C257.037 25.1061 257.669 25.3864 258.086 25.7727C258.503 26.1591 258.711 26.6667 258.711 27.2955C258.711 27.8674 258.543 28.3693 258.205 28.8011C257.872 29.233 257.414 29.5701 256.83 29.8125C256.251 30.0511 255.582 30.1705 254.825 30.1705C253.669 30.1705 252.749 29.9299 252.063 29.4489C251.382 28.964 250.982 28.3049 250.865 27.4716L253.245 27.3466C253.317 27.6989 253.491 27.9678 253.768 28.1534C254.044 28.3352 254.399 28.4261 254.83 28.4261C255.255 28.4261 255.596 28.3447 255.853 28.1818C256.115 28.0152 256.247 27.8011 256.251 27.5398C256.247 27.3201 256.154 27.1402 255.973 27C255.791 26.8561 255.51 26.7462 255.132 26.6705L253.62 26.3693C252.768 26.1989 252.133 25.9034 251.717 25.483C251.304 25.0625 251.098 24.5265 251.098 23.875C251.098 23.3144 251.249 22.8314 251.552 22.4261C251.859 22.0208 252.289 21.7083 252.842 21.4886C253.399 21.2689 254.05 21.1591 254.796 21.1591C255.899 21.1591 256.766 21.392 257.399 21.858C258.035 22.3239 258.406 22.9583 258.512 23.7614Z" fill="#344054"/>
</svg>
