<svg width="197" height="40" viewBox="0 0 197 40" fill="none" xmlns="http://www.w3.org/2000/svg">
<rect width="197" height="40" rx="8" fill="#2066DA"/>
<path d="M22.4084 17.7464C22.3686 17.3454 22.1979 17.0339 21.8963 16.8118C21.5947 16.5897 21.1854 16.4787 20.6683 16.4787C20.317 16.4787 20.0204 16.5284 19.7784 16.6278C19.5365 16.724 19.3509 16.8582 19.2216 17.0305C19.0956 17.2029 19.0327 17.3984 19.0327 17.6172C19.026 17.7995 19.0642 17.9586 19.147 18.0945C19.2332 18.2304 19.3509 18.348 19.5 18.4474C19.6491 18.5436 19.8215 18.6281 20.017 18.701C20.2126 18.7706 20.4214 18.8303 20.6435 18.88L21.5582 19.0987C22.0024 19.1982 22.41 19.3307 22.7812 19.4964C23.1525 19.6622 23.474 19.866 23.7457 20.108C24.0175 20.3499 24.228 20.6349 24.3771 20.9631C24.5296 21.2912 24.6075 21.6674 24.6108 22.0916C24.6075 22.7147 24.4484 23.255 24.1335 23.7124C23.822 24.1664 23.3712 24.5194 22.7812 24.7713C22.1946 25.0199 21.487 25.1442 20.6584 25.1442C19.8364 25.1442 19.1205 25.0182 18.5107 24.7663C17.9041 24.5144 17.4302 24.1416 17.0888 23.6477C16.7507 23.1506 16.5734 22.5357 16.5568 21.8033H18.6399C18.6631 22.1446 18.7609 22.4297 18.9332 22.6584C19.1089 22.8838 19.3426 23.0545 19.6342 23.1705C19.9292 23.2831 20.2623 23.3395 20.6335 23.3395C20.9981 23.3395 21.3146 23.2865 21.5831 23.1804C21.8549 23.0743 22.0653 22.9268 22.2145 22.7379C22.3636 22.549 22.4382 22.3319 22.4382 22.0866C22.4382 21.858 22.3703 21.6657 22.2344 21.5099C22.1018 21.3542 21.9063 21.2216 21.6477 21.1122C21.3925 21.0028 21.0793 20.9034 20.7081 20.8139L19.5994 20.5355C18.741 20.3267 18.0632 20.0002 17.5661 19.5561C17.0689 19.112 16.822 18.5137 16.8253 17.7614C16.822 17.1449 16.986 16.6063 17.3175 16.1456C17.6522 15.6849 18.1113 15.3253 18.6946 15.0668C19.2779 14.8082 19.9408 14.679 20.6832 14.679C21.4389 14.679 22.0985 14.8082 22.6619 15.0668C23.2287 15.3253 23.6695 15.6849 23.9844 16.1456C24.2992 16.6063 24.4616 17.1399 24.4716 17.7464H22.4084ZM25.879 25V17.3636H27.9969V25H25.879ZM26.9429 16.3793C26.6281 16.3793 26.3579 16.2749 26.1325 16.0661C25.9105 15.8539 25.7995 15.6004 25.7995 15.3054C25.7995 15.0137 25.9105 14.7635 26.1325 14.5547C26.3579 14.3426 26.6281 14.2365 26.9429 14.2365C27.2578 14.2365 27.5263 14.3426 27.7483 14.5547C27.9737 14.7635 28.0864 15.0137 28.0864 15.3054C28.0864 15.6004 27.9737 15.8539 27.7483 16.0661C27.5263 16.2749 27.2578 16.3793 26.9429 16.3793ZM32.9938 28.0227C32.3077 28.0227 31.7194 27.9283 31.2289 27.7393C30.7417 27.5537 30.3539 27.3002 30.0655 26.9787C29.7772 26.6572 29.5899 26.2959 29.5037 25.8949L31.4625 25.6314C31.5222 25.7839 31.6167 25.9264 31.7459 26.0589C31.8752 26.1915 32.0459 26.2976 32.258 26.3771C32.4734 26.46 32.7353 26.5014 33.0435 26.5014C33.5042 26.5014 33.8837 26.3887 34.182 26.1634C34.4836 25.9413 34.6344 25.5684 34.6344 25.0447V23.6477H34.5449C34.4521 23.8598 34.3129 24.0604 34.1273 24.2493C33.9417 24.4382 33.7031 24.5923 33.4114 24.7116C33.1197 24.831 32.7717 24.8906 32.3674 24.8906C31.794 24.8906 31.272 24.758 30.8013 24.4929C30.334 24.2244 29.9611 23.8151 29.6827 23.2649C29.4076 22.7114 29.2701 22.0121 29.2701 21.1669C29.2701 20.3018 29.4109 19.5793 29.6927 18.9993C29.9744 18.4193 30.3489 17.9851 30.8162 17.6967C31.2869 17.4084 31.8023 17.2642 32.3624 17.2642C32.79 17.2642 33.1479 17.3371 33.4363 17.483C33.7246 17.6255 33.9566 17.8045 34.1323 18.0199C34.3113 18.232 34.4488 18.4408 34.5449 18.6463H34.6245V17.3636H36.7275V25.0746C36.7275 25.7242 36.5684 26.2678 36.2502 26.7053C35.932 27.1428 35.4912 27.4709 34.9277 27.6896C34.3676 27.9117 33.723 28.0227 32.9938 28.0227ZM33.0385 23.2997C33.3799 23.2997 33.6683 23.2152 33.9036 23.0462C34.1422 22.8738 34.3245 22.6286 34.4505 22.3104C34.5797 21.9889 34.6444 21.6044 34.6444 21.157C34.6444 20.7095 34.5814 20.3217 34.4554 19.9936C34.3295 19.6622 34.1472 19.4053 33.9086 19.223C33.6699 19.0407 33.3799 18.9496 33.0385 18.9496C32.6905 18.9496 32.3972 19.044 32.1586 19.233C31.9199 19.4186 31.7393 19.6771 31.6167 20.0085C31.494 20.34 31.4327 20.7228 31.4327 21.157C31.4327 21.5978 31.494 21.9789 31.6167 22.3004C31.7426 22.6186 31.9232 22.8655 32.1586 23.0412C32.3972 23.2135 32.6905 23.2997 33.0385 23.2997ZM40.3907 20.5852V25H38.2728V17.3636H40.2913V18.7109H40.3808C40.5498 18.2668 40.8332 17.9155 41.2309 17.657C41.6287 17.3951 42.1109 17.2642 42.6777 17.2642C43.208 17.2642 43.6703 17.3802 44.0647 17.6122C44.4591 17.8442 44.7657 18.1757 44.9845 18.6065C45.2032 19.0341 45.3126 19.5445 45.3126 20.1378V25H43.1947V20.5156C43.198 20.0483 43.0787 19.6837 42.8367 19.4219C42.5948 19.1567 42.2617 19.0241 41.8375 19.0241C41.5524 19.0241 41.3005 19.0855 41.0818 19.2081C40.8663 19.3307 40.6973 19.5097 40.5747 19.745C40.4554 19.977 40.394 20.2571 40.3907 20.5852ZM53.3923 25.1491C52.6201 25.1491 51.9522 24.9851 51.3888 24.657C50.8286 24.3255 50.3961 23.8648 50.0912 23.2749C49.7863 22.6816 49.6338 21.9938 49.6338 21.2116C49.6338 20.4228 49.7863 19.7334 50.0912 19.1435C50.3961 18.5502 50.8286 18.0895 51.3888 17.7614C51.9522 17.4299 52.6201 17.2642 53.3923 17.2642C54.1646 17.2642 54.8308 17.4299 55.3909 17.7614C55.9544 18.0895 56.3885 18.5502 56.6935 19.1435C56.9984 19.7334 57.1509 20.4228 57.1509 21.2116C57.1509 21.9938 56.9984 22.6816 56.6935 23.2749C56.3885 23.8648 55.9544 24.3255 55.3909 24.657C54.8308 24.9851 54.1646 25.1491 53.3923 25.1491ZM53.4023 23.5085C53.7536 23.5085 54.0469 23.4091 54.2822 23.2102C54.5176 23.008 54.6949 22.733 54.8142 22.3849C54.9368 22.0369 54.9982 21.6409 54.9982 21.1967C54.9982 20.7526 54.9368 20.3565 54.8142 20.0085C54.6949 19.6605 54.5176 19.3854 54.2822 19.1832C54.0469 18.9811 53.7536 18.88 53.4023 18.88C53.0476 18.88 52.7493 18.9811 52.5074 19.1832C52.2687 19.3854 52.0881 19.6605 51.9655 20.0085C51.8462 20.3565 51.7865 20.7526 51.7865 21.1967C51.7865 21.6409 51.8462 22.0369 51.9655 22.3849C52.0881 22.733 52.2687 23.008 52.5074 23.2102C52.7493 23.4091 53.0476 23.5085 53.4023 23.5085ZM63.285 21.7486V17.3636H65.4029V25H63.3695V23.6129H63.29C63.1176 24.0604 62.8309 24.42 62.4299 24.6918C62.0322 24.9635 61.5466 25.0994 60.9732 25.0994C60.4628 25.0994 60.0137 24.9834 59.6259 24.7514C59.2381 24.5194 58.9349 24.1896 58.7161 23.7621C58.5007 23.3345 58.3913 22.8224 58.388 22.2259V17.3636H60.5059V21.848C60.5092 22.2988 60.6302 22.6551 60.8688 22.9169C61.1074 23.1787 61.4273 23.3097 61.8283 23.3097C62.0835 23.3097 62.3222 23.2517 62.5442 23.1357C62.7663 23.0163 62.9453 22.8407 63.0812 22.6087C63.2204 22.3767 63.2883 22.09 63.285 21.7486ZM71.0188 17.3636V18.9545H66.42V17.3636H71.0188ZM67.4641 15.5341H69.582V22.6534C69.582 22.849 69.6118 23.0014 69.6715 23.1108C69.7311 23.2169 69.814 23.2914 69.92 23.3345C70.0294 23.3776 70.1554 23.3991 70.2979 23.3991C70.3973 23.3991 70.4967 23.3909 70.5962 23.3743C70.6956 23.3544 70.7718 23.3395 70.8249 23.3295L71.158 24.9055C71.0519 24.9387 70.9028 24.9768 70.7105 25.0199C70.5183 25.0663 70.2846 25.0945 70.0095 25.1044C69.4991 25.1243 69.0517 25.0563 68.6672 24.9006C68.286 24.7448 67.9894 24.5028 67.7773 24.1747C67.5652 23.8466 67.4608 23.4323 67.4641 22.9318V15.5341ZM79.4651 17.3636V18.9545H74.7521V17.3636H79.4651ZM75.8309 25V16.8118C75.8309 16.2583 75.9386 15.7992 76.1541 15.4347C76.3728 15.0701 76.6711 14.7966 77.049 14.6143C77.4268 14.4321 77.856 14.3409 78.3366 14.3409C78.6614 14.3409 78.958 14.3658 79.2265 14.4155C79.4983 14.4652 79.7005 14.5099 79.833 14.5497L79.4552 16.1406C79.3723 16.1141 79.2696 16.0893 79.147 16.0661C79.0276 16.0429 78.905 16.0312 78.7791 16.0312C78.4675 16.0312 78.2504 16.1042 78.1278 16.25C78.0052 16.3925 77.9438 16.593 77.9438 16.8516V25H75.8309ZM80.619 25V17.3636H82.6723V18.696H82.7518C82.891 18.2221 83.1247 17.8641 83.4528 17.6222C83.7809 17.3769 84.1588 17.2543 84.5863 17.2543C84.6924 17.2543 84.8067 17.2609 84.9294 17.2741C85.052 17.2874 85.1597 17.3056 85.2525 17.3288V19.2081C85.1531 19.1783 85.0155 19.1518 84.8399 19.1286C84.6642 19.1054 84.5035 19.0938 84.3576 19.0938C84.0461 19.0938 83.7677 19.1617 83.5224 19.2976C83.2805 19.4302 83.0882 19.6158 82.9457 19.8544C82.8065 20.093 82.7369 20.3681 82.7369 20.6797V25H80.619ZM89.3023 25.1491C88.5301 25.1491 87.8622 24.9851 87.2988 24.657C86.7386 24.3255 86.3061 23.8648 86.0012 23.2749C85.6963 22.6816 85.5438 21.9938 85.5438 21.2116C85.5438 20.4228 85.6963 19.7334 86.0012 19.1435C86.3061 18.5502 86.7386 18.0895 87.2988 17.7614C87.8622 17.4299 88.5301 17.2642 89.3023 17.2642C90.0746 17.2642 90.7408 17.4299 91.3009 17.7614C91.8644 18.0895 92.2985 18.5502 92.6035 19.1435C92.9084 19.7334 93.0609 20.4228 93.0609 21.2116C93.0609 21.9938 92.9084 22.6816 92.6035 23.2749C92.2985 23.8648 91.8644 24.3255 91.3009 24.657C90.7408 24.9851 90.0746 25.1491 89.3023 25.1491ZM89.3123 23.5085C89.6636 23.5085 89.9569 23.4091 90.1922 23.2102C90.4276 23.008 90.6049 22.733 90.7242 22.3849C90.8468 22.0369 90.9082 21.6409 90.9082 21.1967C90.9082 20.7526 90.8468 20.3565 90.7242 20.0085C90.6049 19.6605 90.4276 19.3854 90.1922 19.1832C89.9569 18.9811 89.6636 18.88 89.3123 18.88C88.9576 18.88 88.6593 18.9811 88.4174 19.1832C88.1787 19.3854 87.9981 19.6605 87.8755 20.0085C87.7562 20.3565 87.6965 20.7526 87.6965 21.1967C87.6965 21.6409 87.7562 22.0369 87.8755 22.3849C87.9981 22.733 88.1787 23.008 88.4174 23.2102C88.6593 23.4091 88.9576 23.5085 89.3123 23.5085ZM94.298 25V17.3636H96.3164V18.7109H96.4059C96.565 18.2635 96.8302 17.9105 97.2014 17.652C97.5726 17.3935 98.0167 17.2642 98.5338 17.2642C99.0575 17.2642 99.5032 17.3951 99.8711 17.657C100.239 17.9155 100.484 18.2668 100.607 18.7109H100.686C100.842 18.2734 101.124 17.9238 101.532 17.6619C101.943 17.3968 102.428 17.2642 102.988 17.2642C103.701 17.2642 104.279 17.4912 104.723 17.9453C105.171 18.3961 105.395 19.0357 105.395 19.8643V25H103.282V20.282C103.282 19.8577 103.169 19.5395 102.944 19.3274C102.718 19.1153 102.436 19.0092 102.098 19.0092C101.714 19.0092 101.414 19.1319 101.199 19.3771C100.983 19.6191 100.875 19.9389 100.875 20.3366V25H98.8221V20.2372C98.8221 19.8627 98.7144 19.5644 98.499 19.3423C98.2869 19.1203 98.0068 19.0092 97.6588 19.0092C97.4235 19.0092 97.2113 19.0689 97.0224 19.1882C96.8368 19.3042 96.6893 19.4683 96.5799 19.6804C96.4706 19.8892 96.4159 20.1345 96.4159 20.4162V25H94.298ZM112.205 25.1442C111.718 25.1442 111.284 25.0597 110.903 24.8906C110.522 24.7183 110.22 24.4647 109.998 24.13C109.779 23.7919 109.67 23.371 109.67 22.8672C109.67 22.4429 109.748 22.0866 109.903 21.7983C110.059 21.5099 110.271 21.2779 110.54 21.1023C110.808 20.9266 111.113 20.794 111.455 20.7045C111.799 20.6151 112.161 20.5521 112.538 20.5156C112.983 20.4692 113.34 20.4261 113.612 20.3864C113.884 20.3433 114.081 20.2803 114.204 20.1974C114.327 20.1146 114.388 19.992 114.388 19.8295V19.7997C114.388 19.4848 114.288 19.2412 114.09 19.0689C113.894 18.8965 113.616 18.8104 113.254 18.8104C112.873 18.8104 112.57 18.8949 112.345 19.0639C112.119 19.2296 111.97 19.4384 111.897 19.6903L109.938 19.5312C110.038 19.0672 110.233 18.6662 110.525 18.3281C110.817 17.9867 111.193 17.7249 111.653 17.5426C112.117 17.357 112.654 17.2642 113.264 17.2642C113.688 17.2642 114.095 17.3139 114.482 17.4134C114.873 17.5128 115.22 17.6669 115.521 17.8757C115.826 18.0845 116.067 18.353 116.242 18.6811C116.418 19.0059 116.506 19.3954 116.506 19.8494V25H114.497V23.9411H114.438C114.315 24.1797 114.151 24.3902 113.945 24.5724C113.74 24.7514 113.493 24.8923 113.205 24.995C112.916 25.0945 112.583 25.1442 112.205 25.1442ZM112.812 23.6825C113.123 23.6825 113.398 23.6212 113.637 23.4986C113.876 23.3726 114.063 23.2036 114.199 22.9915C114.335 22.7794 114.403 22.5391 114.403 22.2706V21.4602C114.336 21.5033 114.245 21.5431 114.129 21.5795C114.017 21.6127 113.889 21.6442 113.746 21.674C113.604 21.7005 113.461 21.7254 113.319 21.7486C113.176 21.7685 113.047 21.7867 112.931 21.8033C112.683 21.8397 112.465 21.8977 112.28 21.9773C112.094 22.0568 111.95 22.1645 111.847 22.3004C111.745 22.433 111.693 22.5987 111.693 22.7976C111.693 23.0859 111.798 23.3063 112.006 23.4588C112.219 23.608 112.487 23.6825 112.812 23.6825ZM120.127 14.8182V25H118.009V14.8182H120.127ZM123.801 14.8182V25H121.683V14.8182H123.801ZM131.272 25.1243C130.692 25.1243 130.167 24.9751 129.696 24.6768C129.229 24.3752 128.857 23.9328 128.582 23.3494C128.31 22.7628 128.175 22.0436 128.175 21.1918C128.175 20.3168 128.315 19.5893 128.597 19.0092C128.879 18.4259 129.253 17.9901 129.721 17.7017C130.191 17.41 130.707 17.2642 131.267 17.2642C131.694 17.2642 132.051 17.3371 132.336 17.483C132.624 17.6255 132.856 17.8045 133.032 18.0199C133.211 18.232 133.347 18.4408 133.44 18.6463H133.504V14.8182H135.617V25H133.529V23.777H133.44C133.34 23.9891 133.199 24.1996 133.017 24.4084C132.838 24.6139 132.604 24.7846 132.316 24.9205C132.031 25.0563 131.683 25.1243 131.272 25.1243ZM131.943 23.4389C132.284 23.4389 132.573 23.3461 132.808 23.1605C133.047 22.9716 133.229 22.7081 133.355 22.37C133.484 22.032 133.549 21.6359 133.549 21.1818C133.549 20.7277 133.486 20.3333 133.36 19.9986C133.234 19.6638 133.052 19.4053 132.813 19.223C132.574 19.0407 132.284 18.9496 131.943 18.9496C131.595 18.9496 131.302 19.044 131.063 19.233C130.824 19.4219 130.644 19.6837 130.521 20.0185C130.399 20.3532 130.337 20.741 130.337 21.1818C130.337 21.6259 130.399 22.0187 130.521 22.3601C130.647 22.6982 130.828 22.9633 131.063 23.1555C131.302 23.3445 131.595 23.4389 131.943 23.4389ZM140.698 25.1491C139.913 25.1491 139.237 24.9901 138.67 24.6719C138.107 24.3504 137.672 23.8963 137.368 23.3097C137.063 22.7197 136.91 22.022 136.91 21.2166C136.91 20.4311 137.063 19.7417 137.368 19.1484C137.672 18.5552 138.102 18.0928 138.655 17.7614C139.212 17.4299 139.865 17.2642 140.614 17.2642C141.118 17.2642 141.587 17.3454 142.021 17.5078C142.458 17.6669 142.84 17.9072 143.164 18.2287C143.493 18.5502 143.748 18.9545 143.93 19.4418C144.112 19.9257 144.203 20.4924 144.203 21.142V21.7237H137.755V20.4112H142.21C142.21 20.1063 142.144 19.8362 142.011 19.6009C141.878 19.3655 141.694 19.1816 141.459 19.049C141.227 18.9131 140.957 18.8452 140.649 18.8452C140.327 18.8452 140.042 18.9197 139.794 19.0689C139.548 19.2147 139.356 19.4119 139.217 19.6605C139.078 19.9058 139.006 20.1792 139.003 20.4808V21.7287C139.003 22.1065 139.073 22.433 139.212 22.7081C139.354 22.9832 139.555 23.1953 139.814 23.3445C140.072 23.4936 140.379 23.5682 140.733 23.5682C140.969 23.5682 141.184 23.535 141.38 23.4688C141.575 23.4025 141.743 23.303 141.882 23.1705C142.021 23.0379 142.127 22.8755 142.2 22.6832L144.159 22.8125C144.059 23.2831 143.855 23.6941 143.547 24.0455C143.242 24.3935 142.848 24.6652 142.364 24.8608C141.883 25.053 141.328 25.1491 140.698 25.1491ZM152.36 17.3636L149.69 25H147.304L144.634 17.3636H146.871L148.457 22.8274H148.537L150.118 17.3636H152.36ZM153.304 25V17.3636H155.422V25H153.304ZM154.368 16.3793C154.053 16.3793 153.783 16.2749 153.557 16.0661C153.335 15.8539 153.224 15.6004 153.224 15.3054C153.224 15.0137 153.335 14.7635 153.557 14.5547C153.783 14.3426 154.053 14.2365 154.368 14.2365C154.682 14.2365 154.951 14.3426 155.173 14.5547C155.398 14.7635 155.511 15.0137 155.511 15.3054C155.511 15.6004 155.398 15.8539 155.173 16.0661C154.951 16.2749 154.682 16.3793 154.368 16.3793ZM160.428 25.1491C159.646 25.1491 158.973 24.9834 158.41 24.652C157.85 24.3172 157.419 23.8532 157.117 23.2599C156.819 22.6667 156.67 21.9839 156.67 21.2116C156.67 20.4295 156.821 19.7434 157.122 19.1534C157.427 18.5601 157.86 18.0978 158.42 17.7663C158.98 17.4316 159.646 17.2642 160.418 17.2642C161.085 17.2642 161.668 17.3852 162.168 17.6271C162.669 17.8691 163.065 18.2088 163.357 18.6463C163.648 19.0838 163.809 19.5975 163.839 20.1875H161.84C161.784 19.8063 161.635 19.4998 161.393 19.2678C161.154 19.0324 160.841 18.9148 160.453 18.9148C160.125 18.9148 159.838 19.0043 159.593 19.1832C159.351 19.3589 159.162 19.6158 159.026 19.9538C158.89 20.2919 158.823 20.7012 158.823 21.1818C158.823 21.669 158.889 22.0833 159.021 22.4247C159.157 22.7661 159.348 23.0263 159.593 23.2053C159.838 23.3842 160.125 23.4737 160.453 23.4737C160.695 23.4737 160.912 23.424 161.104 23.3246C161.3 23.2251 161.461 23.081 161.587 22.892C161.716 22.6998 161.801 22.4695 161.84 22.201H163.839C163.806 22.7843 163.647 23.2981 163.362 23.7422C163.08 24.183 162.69 24.5277 162.193 24.7763C161.696 25.0249 161.108 25.1491 160.428 25.1491ZM168.535 25.1491C167.749 25.1491 167.073 24.9901 166.507 24.6719C165.943 24.3504 165.509 23.8963 165.204 23.3097C164.899 22.7197 164.747 22.022 164.747 21.2166C164.747 20.4311 164.899 19.7417 165.204 19.1484C165.509 18.5552 165.938 18.0928 166.492 17.7614C167.048 17.4299 167.701 17.2642 168.45 17.2642C168.954 17.2642 169.423 17.3454 169.857 17.5078C170.295 17.6669 170.676 17.9072 171.001 18.2287C171.329 18.5502 171.584 18.9545 171.767 19.4418C171.949 19.9257 172.04 20.4924 172.04 21.142V21.7237H165.592V20.4112H170.046C170.046 20.1063 169.98 19.8362 169.847 19.6009C169.715 19.3655 169.531 19.1816 169.296 19.049C169.064 18.9131 168.793 18.8452 168.485 18.8452C168.164 18.8452 167.879 18.9197 167.63 19.0689C167.385 19.2147 167.193 19.4119 167.053 19.6605C166.914 19.9058 166.843 20.1792 166.84 20.4808V21.7287C166.84 22.1065 166.909 22.433 167.048 22.7081C167.191 22.9832 167.392 23.1953 167.65 23.3445C167.909 23.4936 168.215 23.5682 168.57 23.5682C168.805 23.5682 169.021 23.535 169.216 23.4688C169.412 23.4025 169.579 23.303 169.718 23.1705C169.857 23.0379 169.963 22.8755 170.036 22.6832L171.995 22.8125C171.896 23.2831 171.692 23.6941 171.384 24.0455C171.079 24.3935 170.684 24.6652 170.2 24.8608C169.72 25.053 169.165 25.1491 168.535 25.1491ZM179.636 19.5412L177.697 19.6605C177.664 19.4948 177.592 19.3456 177.483 19.2131C177.374 19.0772 177.229 18.9695 177.051 18.8899C176.875 18.8071 176.664 18.7656 176.419 18.7656C176.091 18.7656 175.814 18.8352 175.589 18.9744C175.363 19.1103 175.251 19.2926 175.251 19.5213C175.251 19.7036 175.324 19.8577 175.47 19.9837C175.615 20.1096 175.866 20.2107 176.22 20.2869L177.602 20.5653C178.345 20.7178 178.898 20.9631 179.263 21.3011C179.627 21.6392 179.81 22.0833 179.81 22.6335C179.81 23.134 179.662 23.5732 179.367 23.951C179.076 24.3288 178.675 24.6238 178.164 24.8359C177.657 25.0447 177.072 25.1491 176.409 25.1491C175.398 25.1491 174.593 24.9387 173.993 24.5178C173.396 24.0935 173.047 23.5168 172.944 22.7876L175.027 22.6783C175.09 22.9865 175.243 23.2218 175.484 23.3842C175.726 23.5433 176.036 23.6229 176.414 23.6229C176.785 23.6229 177.084 23.5516 177.309 23.4091C177.538 23.2633 177.654 23.076 177.657 22.8473C177.654 22.6551 177.573 22.4976 177.413 22.375C177.254 22.2491 177.009 22.1529 176.678 22.0866L175.355 21.8232C174.609 21.674 174.054 21.4155 173.69 21.0476C173.328 20.6797 173.148 20.2107 173.148 19.6406C173.148 19.1501 173.28 18.7275 173.546 18.3729C173.814 18.0182 174.19 17.7448 174.674 17.5526C175.161 17.3603 175.731 17.2642 176.384 17.2642C177.349 17.2642 178.108 17.468 178.661 17.8757C179.218 18.2834 179.543 18.8385 179.636 19.5412Z" fill="white"/>
</svg>
