<svg width="174" height="48" viewBox="0 0 174 48" fill="none" xmlns="http://www.w3.org/2000/svg">
<rect width="174" height="48" rx="12" fill="#2066DA"/>
<path d="M40.8239 21.7102C40.7784 21.2519 40.5833 20.8958 40.2386 20.642C39.8939 20.3883 39.4261 20.2614 38.8352 20.2614C38.4337 20.2614 38.0947 20.3182 37.8182 20.4318C37.5417 20.5417 37.3295 20.6951 37.1818 20.892C37.0379 21.089 36.9659 21.3125 36.9659 21.5625C36.9583 21.7708 37.0019 21.9527 37.0966 22.108C37.1951 22.2633 37.3295 22.3977 37.5 22.5114C37.6705 22.6212 37.8674 22.7178 38.0909 22.8011C38.3144 22.8807 38.553 22.9489 38.8068 23.0057L39.8523 23.2557C40.3598 23.3693 40.8258 23.5208 41.25 23.7102C41.6742 23.8996 42.0417 24.1326 42.3523 24.4091C42.6629 24.6856 42.9034 25.0114 43.0739 25.3864C43.2481 25.7614 43.3371 26.1913 43.3409 26.6761C43.3371 27.3883 43.1553 28.0057 42.7955 28.5284C42.4394 29.0473 41.9242 29.4508 41.25 29.7386C40.5795 30.0227 39.7708 30.1648 38.8239 30.1648C37.8845 30.1648 37.0663 30.0208 36.3693 29.733C35.6761 29.4451 35.1345 29.0189 34.7443 28.4545C34.358 27.8864 34.1553 27.1837 34.1364 26.3466H36.517C36.5436 26.7367 36.6553 27.0625 36.8523 27.3239C37.053 27.5814 37.3201 27.7765 37.6534 27.9091C37.9905 28.0379 38.3712 28.1023 38.7955 28.1023C39.2121 28.1023 39.5739 28.0417 39.8807 27.9205C40.1913 27.7992 40.4318 27.6307 40.6023 27.4148C40.7727 27.1989 40.858 26.9508 40.858 26.6705C40.858 26.4091 40.7803 26.1894 40.625 26.0114C40.4735 25.8333 40.25 25.6818 39.9545 25.5568C39.6629 25.4318 39.3049 25.3182 38.8807 25.2159L37.6136 24.8977C36.6326 24.6591 35.858 24.286 35.2898 23.7784C34.7216 23.2708 34.4394 22.5871 34.4432 21.7273C34.4394 21.0227 34.6269 20.4072 35.0057 19.8807C35.3883 19.3542 35.9129 18.9432 36.5795 18.6477C37.2462 18.3523 38.0038 18.2045 38.8523 18.2045C39.7159 18.2045 40.4697 18.3523 41.1136 18.6477C41.7614 18.9432 42.2652 19.3542 42.625 19.8807C42.9848 20.4072 43.1705 21.017 43.1818 21.7102H40.8239ZM50.3869 26.2841V21.2727H52.8073V30H50.4835V28.4148H50.3926C50.1956 28.9261 49.8679 29.3371 49.4096 29.6477C48.9551 29.9583 48.4001 30.1136 47.7448 30.1136C47.1615 30.1136 46.6482 29.9811 46.2051 29.7159C45.7619 29.4508 45.4153 29.0739 45.1653 28.5852C44.9191 28.0966 44.7941 27.5114 44.7903 26.8295V21.2727H47.2107V26.3977C47.2145 26.9129 47.3528 27.3201 47.6255 27.6193C47.8982 27.9186 48.2638 28.0682 48.7221 28.0682C49.0138 28.0682 49.2865 28.0019 49.5403 27.8693C49.7941 27.733 49.9986 27.5322 50.1539 27.267C50.313 27.0019 50.3907 26.6742 50.3869 26.2841ZM54.6289 30V18.3636H57.0493V22.7386H57.1232C57.2292 22.5038 57.3827 22.2652 57.5834 22.0227C57.788 21.7765 58.0531 21.572 58.3789 21.4091C58.7084 21.2424 59.1175 21.1591 59.6061 21.1591C60.2425 21.1591 60.8296 21.3258 61.3675 21.6591C61.9054 21.9886 62.3353 22.4867 62.6573 23.1534C62.9792 23.8163 63.1402 24.6477 63.1402 25.6477C63.1402 26.6212 62.983 27.4432 62.6686 28.1136C62.358 28.7803 61.9338 29.286 61.3959 29.6307C60.8618 29.9716 60.2633 30.142 59.6005 30.142C59.1308 30.142 58.7311 30.0644 58.4016 29.9091C58.0758 29.7538 57.8088 29.5587 57.6005 29.3239C57.3921 29.0852 57.233 28.8447 57.1232 28.6023H57.0152V30H54.6289ZM56.9982 25.6364C56.9982 26.1553 57.0702 26.608 57.2141 26.9943C57.358 27.3807 57.5664 27.6818 57.8391 27.8977C58.1118 28.1098 58.4433 28.2159 58.8334 28.2159C59.2273 28.2159 59.5607 28.108 59.8334 27.892C60.1061 27.6723 60.3126 27.3693 60.4527 26.983C60.5967 26.5928 60.6686 26.1439 60.6686 25.6364C60.6686 25.1326 60.5986 24.6894 60.4584 24.3068C60.3183 23.9242 60.1118 23.625 59.8391 23.4091C59.5664 23.1932 59.2311 23.0852 58.8334 23.0852C58.4395 23.0852 58.1061 23.1894 57.8334 23.3977C57.5645 23.6061 57.358 23.9015 57.2141 24.2841C57.0702 24.6667 56.9982 25.1174 56.9982 25.6364ZM64.5953 30V21.2727H66.9021V22.8125H67.0044C67.1862 22.3011 67.4892 21.8977 67.9135 21.6023C68.3377 21.3068 68.8453 21.1591 69.4362 21.1591C70.0347 21.1591 70.5441 21.3087 70.9646 21.608C71.3851 21.9034 71.6654 22.3049 71.8055 22.8125H71.8964C72.0745 22.3125 72.3964 21.9129 72.8623 21.6136C73.332 21.3106 73.887 21.1591 74.5271 21.1591C75.3415 21.1591 76.0025 21.4186 76.5101 21.9375C77.0214 22.4527 77.2771 23.1837 77.2771 24.1307V30H74.8623V24.608C74.8623 24.1231 74.7335 23.7595 74.476 23.517C74.2184 23.2746 73.8964 23.1534 73.5101 23.1534C73.0707 23.1534 72.7279 23.2936 72.4816 23.5739C72.2354 23.8504 72.1123 24.2159 72.1123 24.6705V30H69.7657V24.5568C69.7657 24.1288 69.6426 23.7879 69.3964 23.5341C69.154 23.2803 68.8339 23.1534 68.4362 23.1534C68.1673 23.1534 67.9248 23.2216 67.7089 23.358C67.4968 23.4905 67.3282 23.678 67.2032 23.9205C67.0782 24.1591 67.0157 24.4394 67.0157 24.7614V30H64.5953ZM79.029 30V21.2727H81.4495V30H79.029ZM80.2449 20.1477C79.8851 20.1477 79.5764 20.0284 79.3188 19.7898C79.065 19.5473 78.9381 19.2576 78.9381 18.9205C78.9381 18.5871 79.065 18.3011 79.3188 18.0625C79.5764 17.8201 79.8851 17.6989 80.2449 17.6989C80.6048 17.6989 80.9116 17.8201 81.1654 18.0625C81.423 18.3011 81.5518 18.5871 81.5518 18.9205C81.5518 19.2576 81.423 19.5473 81.1654 19.7898C80.9116 20.0284 80.6048 20.1477 80.2449 20.1477ZM87.8705 21.2727V23.0909H82.6148V21.2727H87.8705ZM83.808 19.1818H86.2284V27.3182C86.2284 27.5417 86.2625 27.7159 86.3307 27.8409C86.3989 27.9621 86.4936 28.0473 86.6148 28.0966C86.7398 28.1458 86.8837 28.1705 87.0466 28.1705C87.1602 28.1705 87.2739 28.161 87.3875 28.142C87.5011 28.1193 87.5883 28.1023 87.6489 28.0909L88.0295 29.892C87.9083 29.9299 87.7379 29.9735 87.5182 30.0227C87.2985 30.0758 87.0314 30.108 86.717 30.1193C86.1337 30.142 85.6223 30.0644 85.183 29.8864C84.7473 29.7083 84.4083 29.4318 84.1659 29.0568C83.9235 28.6818 83.8042 28.2083 83.808 27.6364V19.1818ZM92.4326 20.392V18.3636H101.989V20.392H98.4269V30H95.9951V20.392H92.4326ZM103.358 30V21.2727H105.778V30H103.358ZM104.574 20.1477C104.214 20.1477 103.905 20.0284 103.648 19.7898C103.394 19.5473 103.267 19.2576 103.267 18.9205C103.267 18.5871 103.394 18.3011 103.648 18.0625C103.905 17.8201 104.214 17.6989 104.574 17.6989C104.934 17.6989 105.24 17.8201 105.494 18.0625C105.752 18.3011 105.881 18.5871 105.881 18.9205C105.881 19.2576 105.752 19.5473 105.494 19.7898C105.24 20.0284 104.934 20.1477 104.574 20.1477ZM111.5 30.1705C110.606 30.1705 109.837 29.9811 109.194 29.6023C108.553 29.2197 108.061 28.6894 107.716 28.0114C107.375 27.3333 107.205 26.553 107.205 25.6705C107.205 24.7765 107.377 23.9924 107.722 23.3182C108.07 22.6402 108.565 22.1117 109.205 21.733C109.845 21.3504 110.606 21.1591 111.489 21.1591C112.25 21.1591 112.917 21.2973 113.489 21.5739C114.061 21.8504 114.514 22.2386 114.847 22.7386C115.18 23.2386 115.364 23.8258 115.398 24.5H113.114C113.05 24.0644 112.879 23.714 112.603 23.4489C112.33 23.1799 111.972 23.0455 111.529 23.0455C111.154 23.0455 110.826 23.1477 110.546 23.3523C110.269 23.553 110.053 23.8466 109.898 24.233C109.743 24.6193 109.665 25.0871 109.665 25.6364C109.665 26.1932 109.741 26.6667 109.892 27.0568C110.048 27.447 110.265 27.7443 110.546 27.9489C110.826 28.1534 111.154 28.2557 111.529 28.2557C111.805 28.2557 112.053 28.1989 112.273 28.0852C112.497 27.9716 112.68 27.8068 112.824 27.5909C112.972 27.3712 113.069 27.108 113.114 26.8011H115.398C115.36 27.4678 115.178 28.0549 114.853 28.5625C114.531 29.0663 114.086 29.4602 113.517 29.7443C112.949 30.0284 112.277 30.1705 111.5 30.1705ZM118.981 27.4886L118.987 24.5852H119.339L122.134 21.2727H124.913L121.157 25.6591H120.583L118.981 27.4886ZM116.788 30V18.3636H119.208V30H116.788ZM122.242 30L119.674 26.1989L121.288 24.4886L125.078 30H122.242ZM129.558 30.1705C128.66 30.1705 127.888 29.9886 127.24 29.625C126.596 29.2576 126.1 28.7386 125.751 28.0682C125.403 27.3939 125.229 26.5966 125.229 25.6761C125.229 24.7784 125.403 23.9905 125.751 23.3125C126.1 22.6345 126.59 22.1061 127.223 21.7273C127.859 21.3485 128.606 21.1591 129.462 21.1591C130.037 21.1591 130.573 21.2519 131.07 21.4375C131.57 21.6193 132.005 21.8939 132.376 22.2614C132.751 22.6288 133.043 23.0909 133.251 23.6477C133.46 24.2008 133.564 24.8485 133.564 25.5909V26.2557H126.195V24.7557H131.285C131.285 24.4072 131.21 24.0985 131.058 23.8295C130.907 23.5606 130.696 23.3504 130.427 23.1989C130.162 23.0436 129.854 22.9659 129.501 22.9659C129.134 22.9659 128.808 23.0511 128.524 23.2216C128.244 23.3883 128.024 23.6136 127.865 23.8977C127.706 24.178 127.624 24.4905 127.621 24.8352V26.2614C127.621 26.6932 127.7 27.0663 127.859 27.3807C128.022 27.6951 128.251 27.9375 128.547 28.108C128.842 28.2784 129.193 28.3636 129.598 28.3636C129.867 28.3636 130.113 28.3258 130.337 28.25C130.56 28.1742 130.751 28.0606 130.91 27.9091C131.07 27.7576 131.191 27.572 131.274 27.3523L133.513 27.5C133.399 28.0379 133.166 28.5076 132.814 28.9091C132.465 29.3068 132.015 29.6174 131.462 29.8409C130.912 30.0606 130.278 30.1705 129.558 30.1705ZM139.625 21.2727V23.0909H134.37V21.2727H139.625ZM135.563 19.1818H137.983V27.3182C137.983 27.5417 138.018 27.7159 138.086 27.8409C138.154 27.9621 138.249 28.0473 138.37 28.0966C138.495 28.1458 138.639 28.1705 138.802 28.1705C138.915 28.1705 139.029 28.161 139.143 28.142C139.256 28.1193 139.343 28.1023 139.404 28.0909L139.785 29.892C139.663 29.9299 139.493 29.9735 139.273 30.0227C139.053 30.0758 138.786 30.108 138.472 30.1193C137.889 30.142 137.377 30.0644 136.938 29.8864C136.502 29.7083 136.163 29.4318 135.921 29.0568C135.678 28.6818 135.559 28.2083 135.563 27.6364V19.1818Z" fill="white"/>
</svg>
