<svg width="120" height="40" viewBox="0 0 120 40" fill="none" xmlns="http://www.w3.org/2000/svg">
<rect width="120" height="40" rx="8" fill="#2066DA"/>
<path d="M38.174 14.8182H40.3267V21.4304C40.3267 22.1728 40.1494 22.8224 39.7947 23.3793C39.4434 23.9361 38.9512 24.3703 38.3182 24.6818C37.6851 24.9901 36.9477 25.1442 36.1058 25.1442C35.2607 25.1442 34.5215 24.9901 33.8885 24.6818C33.2554 24.3703 32.7633 23.9361 32.4119 23.3793C32.0606 22.8224 31.8849 22.1728 31.8849 21.4304V14.8182H34.0376V21.2464C34.0376 21.6342 34.1222 21.9789 34.2912 22.2805C34.4635 22.5821 34.7055 22.8191 35.017 22.9915C35.3286 23.1638 35.6915 23.25 36.1058 23.25C36.5234 23.25 36.8864 23.1638 37.1946 22.9915C37.5062 22.8191 37.7464 22.5821 37.9155 22.2805C38.0878 21.9789 38.174 21.6342 38.174 21.2464V14.8182ZM41.9181 27.8636V17.3636H44.0061V18.6463H44.1006C44.1934 18.4408 44.3276 18.232 44.5033 18.0199C44.6823 17.8045 44.9143 17.6255 45.1993 17.483C45.4877 17.3371 45.8456 17.2642 46.2732 17.2642C46.83 17.2642 47.3437 17.41 47.8144 17.7017C48.285 17.9901 48.6612 18.4259 48.9429 19.0092C49.2246 19.5893 49.3655 20.3168 49.3655 21.1918C49.3655 22.0436 49.228 22.7628 48.9529 23.3494C48.6811 23.9328 48.3099 24.3752 47.8392 24.6768C47.3719 24.9751 46.8482 25.1243 46.2682 25.1243C45.8572 25.1243 45.5075 25.0563 45.2192 24.9205C44.9342 24.7846 44.7005 24.6139 44.5182 24.4084C44.3359 24.1996 44.1967 23.9891 44.1006 23.777H44.036V27.8636H41.9181ZM43.9912 21.1818C43.9912 21.6359 44.0542 22.032 44.1801 22.37C44.3061 22.7081 44.4884 22.9716 44.727 23.1605C44.9656 23.3461 45.2557 23.4389 45.597 23.4389C45.9417 23.4389 46.2334 23.3445 46.472 23.1555C46.7107 22.9633 46.8913 22.6982 47.0139 22.3601C47.1399 22.0187 47.2029 21.6259 47.2029 21.1818C47.2029 20.741 47.1415 20.3532 47.0189 20.0185C46.8963 19.6837 46.7156 19.4219 46.477 19.233C46.2384 19.044 45.945 18.9496 45.597 18.9496C45.2523 18.9496 44.9607 19.0407 44.722 19.223C44.4867 19.4053 44.3061 19.6638 44.1801 19.9986C44.0542 20.3333 43.9912 20.7277 43.9912 21.1818ZM54.0778 28.0227C53.3917 28.0227 52.8034 27.9283 52.3129 27.7393C51.8256 27.5537 51.4379 27.3002 51.1495 26.9787C50.8612 26.6572 50.6739 26.2959 50.5877 25.8949L52.5465 25.6314C52.6062 25.7839 52.7006 25.9264 52.8299 26.0589C52.9592 26.1915 53.1299 26.2976 53.342 26.3771C53.5574 26.46 53.8193 26.5014 54.1275 26.5014C54.5882 26.5014 54.9677 26.3887 55.266 26.1634C55.5676 25.9413 55.7184 25.5684 55.7184 25.0447V23.6477H55.6289C55.5361 23.8598 55.3969 24.0604 55.2113 24.2493C55.0257 24.4382 54.7871 24.5923 54.4954 24.7116C54.2037 24.831 53.8557 24.8906 53.4514 24.8906C52.878 24.8906 52.3559 24.758 51.8853 24.4929C51.418 24.2244 51.0451 23.8151 50.7667 23.2649C50.4916 22.7114 50.3541 22.0121 50.3541 21.1669C50.3541 20.3018 50.4949 19.5793 50.7766 18.9993C51.0584 18.4193 51.4329 17.9851 51.9002 17.6967C52.3709 17.4084 52.8863 17.2642 53.4464 17.2642C53.8739 17.2642 54.2319 17.3371 54.5202 17.483C54.8086 17.6255 55.0406 17.8045 55.2163 18.0199C55.3952 18.232 55.5328 18.4408 55.6289 18.6463H55.7085V17.3636H57.8114V25.0746C57.8114 25.7242 57.6524 26.2678 57.3342 26.7053C57.016 27.1428 56.5752 27.4709 56.0117 27.6896C55.4516 27.9117 54.8069 28.0227 54.0778 28.0227ZM54.1225 23.2997C54.4639 23.2997 54.7523 23.2152 54.9876 23.0462C55.2262 22.8738 55.4085 22.6286 55.5345 22.3104C55.6637 21.9889 55.7283 21.6044 55.7283 21.157C55.7283 20.7095 55.6654 20.3217 55.5394 19.9936C55.4135 19.6622 55.2312 19.4053 54.9925 19.223C54.7539 19.0407 54.4639 18.9496 54.1225 18.9496C53.7745 18.9496 53.4812 19.044 53.2425 19.233C53.0039 19.4186 52.8233 19.6771 52.7006 20.0085C52.578 20.34 52.5167 20.7228 52.5167 21.157C52.5167 21.5978 52.578 21.9789 52.7006 22.3004C52.8266 22.6186 53.0072 22.8655 53.2425 23.0412C53.4812 23.2135 53.7745 23.2997 54.1225 23.2997ZM59.3568 25V17.3636H61.4101V18.696H61.4896C61.6288 18.2221 61.8625 17.8641 62.1906 17.6222C62.5187 17.3769 62.8966 17.2543 63.3241 17.2543C63.4302 17.2543 63.5445 17.2609 63.6672 17.2741C63.7898 17.2874 63.8975 17.3056 63.9903 17.3288V19.2081C63.8909 19.1783 63.7534 19.1518 63.5777 19.1286C63.402 19.1054 63.2413 19.0938 63.0954 19.0938C62.7839 19.0938 62.5055 19.1617 62.2602 19.2976C62.0183 19.4302 61.826 19.6158 61.6835 19.8544C61.5443 20.093 61.4747 20.3681 61.4747 20.6797V25H59.3568ZM66.9041 25.1442C66.4169 25.1442 65.9827 25.0597 65.6016 24.8906C65.2204 24.7183 64.9188 24.4647 64.6967 24.13C64.478 23.7919 64.3686 23.371 64.3686 22.8672C64.3686 22.4429 64.4465 22.0866 64.6023 21.7983C64.7581 21.5099 64.9702 21.2779 65.2386 21.1023C65.5071 20.9266 65.812 20.794 66.1534 20.7045C66.4981 20.6151 66.8594 20.5521 67.2372 20.5156C67.6814 20.4692 68.0393 20.4261 68.3111 20.3864C68.5829 20.3433 68.7801 20.2803 68.9027 20.1974C69.0253 20.1146 69.0867 19.992 69.0867 19.8295V19.7997C69.0867 19.4848 68.9872 19.2412 68.7884 19.0689C68.5928 18.8965 68.3144 18.8104 67.9531 18.8104C67.572 18.8104 67.2687 18.8949 67.0433 19.0639C66.818 19.2296 66.6688 19.4384 66.5959 19.6903L64.6371 19.5312C64.7365 19.0672 64.9321 18.6662 65.2237 18.3281C65.5154 17.9867 65.8916 17.7249 66.3523 17.5426C66.8163 17.357 67.3532 17.2642 67.9631 17.2642C68.3873 17.2642 68.7933 17.3139 69.1811 17.4134C69.5722 17.5128 69.9186 17.6669 70.2202 17.8757C70.5251 18.0845 70.7654 18.353 70.9411 18.6811C71.1167 19.0059 71.2046 19.3954 71.2046 19.8494V25H69.196V23.9411H69.1364C69.0137 24.1797 68.8497 24.3902 68.6442 24.5724C68.4387 24.7514 68.1918 24.8923 67.9034 24.995C67.6151 25.0945 67.282 25.1442 66.9041 25.1442ZM67.5107 23.6825C67.8222 23.6825 68.0973 23.6212 68.336 23.4986C68.5746 23.3726 68.7618 23.2036 68.8977 22.9915C69.0336 22.7794 69.1016 22.5391 69.1016 22.2706V21.4602C69.0353 21.5033 68.9441 21.5431 68.8281 21.5795C68.7154 21.6127 68.5878 21.6442 68.4453 21.674C68.3028 21.7005 68.1603 21.7254 68.0178 21.7486C67.8752 21.7685 67.746 21.7867 67.63 21.8033C67.3814 21.8397 67.1643 21.8977 66.9787 21.9773C66.7931 22.0568 66.6489 22.1645 66.5462 22.3004C66.4434 22.433 66.3921 22.5987 66.3921 22.7976C66.3921 23.0859 66.4965 23.3063 66.7053 23.4588C66.9174 23.608 67.1859 23.6825 67.5107 23.6825ZM75.5216 25.1243C74.9416 25.1243 74.4162 24.9751 73.9456 24.6768C73.4783 24.3752 73.1071 23.9328 72.832 23.3494C72.5602 22.7628 72.4243 22.0436 72.4243 21.1918C72.4243 20.3168 72.5652 19.5893 72.8469 19.0092C73.1286 18.4259 73.5031 17.9901 73.9705 17.7017C74.4411 17.41 74.9565 17.2642 75.5166 17.2642C75.9442 17.2642 76.3005 17.3371 76.5855 17.483C76.8739 17.6255 77.1059 17.8045 77.2815 18.0199C77.4605 18.232 77.5964 18.4408 77.6892 18.6463H77.7538V14.8182H79.8668V25H77.7787V23.777H77.6892C77.5898 23.9891 77.4489 24.1996 77.2666 24.4084C77.0876 24.6139 76.854 24.7846 76.5656 24.9205C76.2806 25.0563 75.9326 25.1243 75.5216 25.1243ZM76.1928 23.4389C76.5341 23.4389 76.8225 23.3461 77.0578 23.1605C77.2964 22.9716 77.4787 22.7081 77.6047 22.37C77.7339 22.032 77.7986 21.6359 77.7986 21.1818C77.7986 20.7277 77.7356 20.3333 77.6097 19.9986C77.4837 19.6638 77.3014 19.4053 77.0628 19.223C76.8241 19.0407 76.5341 18.9496 76.1928 18.9496C75.8447 18.9496 75.5514 19.044 75.3128 19.233C75.0741 19.4219 74.8935 19.6837 74.7709 20.0185C74.6482 20.3532 74.5869 20.741 74.5869 21.1818C74.5869 21.6259 74.6482 22.0187 74.7709 22.3601C74.8968 22.6982 75.0775 22.9633 75.3128 23.1555C75.5514 23.3445 75.8447 23.4389 76.1928 23.4389ZM84.9482 25.1491C84.1627 25.1491 83.4865 24.9901 82.9198 24.6719C82.3563 24.3504 81.9221 23.8963 81.6172 23.3097C81.3123 22.7197 81.1598 22.022 81.1598 21.2166C81.1598 20.4311 81.3123 19.7417 81.6172 19.1484C81.9221 18.5552 82.3513 18.0928 82.9049 17.7614C83.4617 17.4299 84.1146 17.2642 84.8637 17.2642C85.3674 17.2642 85.8364 17.3454 86.2706 17.5078C86.7081 17.6669 87.0893 17.9072 87.4141 18.2287C87.7422 18.5502 87.9974 18.9545 88.1797 19.4418C88.362 19.9257 88.4531 20.4924 88.4531 21.142V21.7237H82.005V20.4112H86.4595C86.4595 20.1063 86.3933 19.8362 86.2607 19.6009C86.1281 19.3655 85.9442 19.1816 85.7088 19.049C85.4768 18.9131 85.2067 18.8452 84.8985 18.8452C84.577 18.8452 84.2919 18.9197 84.0433 19.0689C83.7981 19.2147 83.6058 19.4119 83.4666 19.6605C83.3274 19.9058 83.2562 20.1792 83.2529 20.4808V21.7287C83.2529 22.1065 83.3225 22.433 83.4617 22.7081C83.6042 22.9832 83.8047 23.1953 84.0632 23.3445C84.3218 23.4936 84.6283 23.5682 84.983 23.5682C85.2183 23.5682 85.4337 23.535 85.6293 23.4688C85.8248 23.4025 85.9922 23.303 86.1314 23.1705C86.2706 23.0379 86.3767 22.8755 86.4496 22.6832L88.4084 22.8125C88.309 23.2831 88.1051 23.6941 87.7969 24.0455C87.492 24.3935 87.0976 24.6652 86.6137 24.8608C86.1331 25.053 85.5779 25.1491 84.9482 25.1491Z" fill="white"/>
</svg>
