<svg width="90" height="32" viewBox="0 0 90 32" fill="none" xmlns="http://www.w3.org/2000/svg">
<rect x="0.5" y="0.5" width="89" height="31" rx="7.5" fill="#E7F8EE"/>
<circle cx="16" cy="16" r="3" fill="#05BF90"/>
<path d="M28.4287 10.8182L31.0786 18.8324H31.183L33.8279 10.8182H35.8563L32.2668 21H29.9898L26.4053 10.8182H28.4287ZM39.5382 21.1491C38.7726 21.1491 38.1114 20.9901 37.5545 20.6719C37.001 20.3504 36.5751 19.8963 36.2768 19.3097C35.9786 18.7197 35.8294 18.0253 35.8294 17.2266C35.8294 16.4411 35.9786 15.7517 36.2768 15.1584C36.5785 14.5618 36.9994 14.0978 37.5396 13.7663C38.0799 13.4316 38.7146 13.2642 39.4437 13.2642C39.9144 13.2642 40.3585 13.3404 40.7761 13.4929C41.1971 13.642 41.5683 13.8741 41.8898 14.1889C42.2146 14.5038 42.4698 14.9048 42.6554 15.392C42.841 15.8759 42.9338 16.4527 42.9338 17.1222V17.674H36.6746V16.4609H41.2087C41.2054 16.1162 41.1308 15.8097 40.9849 15.5412C40.8391 15.2694 40.6353 15.0556 40.3734 14.8999C40.1149 14.7441 39.8133 14.6662 39.4686 14.6662C39.1007 14.6662 38.7776 14.7557 38.4991 14.9347C38.2207 15.1103 38.0036 15.3423 37.8479 15.6307C37.6954 15.9157 37.6175 16.2289 37.6142 16.5703V17.6293C37.6142 18.0734 37.6954 18.4545 37.8578 18.7727C38.0202 19.0876 38.2473 19.3295 38.5389 19.4986C38.8306 19.6643 39.172 19.7472 39.5631 19.7472C39.8249 19.7472 40.0619 19.7107 40.274 19.6378C40.4861 19.5616 40.6701 19.4505 40.8259 19.3047C40.9816 19.1589 41.0993 18.9782 41.1788 18.7628L42.8592 18.9517C42.7532 19.3958 42.551 19.7836 42.2527 20.1151C41.9577 20.4432 41.5799 20.6984 41.1192 20.8807C40.6585 21.0597 40.1315 21.1491 39.5382 21.1491ZM44.3164 21V13.3636H46.0614V14.6364H46.1409C46.2801 14.1955 46.5188 13.8558 46.8568 13.6172C47.1982 13.3752 47.5877 13.2543 48.0252 13.2543C48.1246 13.2543 48.2356 13.2592 48.3583 13.2692C48.4842 13.2758 48.5886 13.2874 48.6715 13.304V14.9595C48.5952 14.933 48.4743 14.9098 48.3085 14.8899C48.1461 14.8667 47.9887 14.8551 47.8362 14.8551C47.5081 14.8551 47.2131 14.9264 46.9513 15.0689C46.6928 15.2081 46.4889 15.402 46.3398 15.6506C46.1906 15.8991 46.1161 16.1858 46.1161 16.5107V21H44.3164ZM49.7271 21V13.3636H51.5269V21H49.7271ZM50.632 12.2798C50.3469 12.2798 50.1017 12.1854 49.8962 11.9964C49.6907 11.8042 49.5879 11.5739 49.5879 11.3054C49.5879 11.0336 49.6907 10.8033 49.8962 10.6143C50.1017 10.4221 50.3469 10.326 50.632 10.326C50.9203 10.326 51.1656 10.4221 51.3678 10.6143C51.5733 10.8033 51.676 11.0336 51.676 11.3054C51.676 11.5739 51.5733 11.8042 51.3678 11.9964C51.1656 12.1854 50.9203 12.2798 50.632 12.2798ZM57.1054 13.3636V14.7557H52.5912V13.3636H57.1054ZM53.7198 21V12.6428C53.7198 12.129 53.8258 11.7015 54.038 11.3601C54.2534 11.0187 54.5417 10.7635 54.903 10.5945C55.2643 10.4254 55.6653 10.3409 56.1061 10.3409C56.4177 10.3409 56.6944 10.3658 56.9364 10.4155C57.1783 10.4652 57.3573 10.5099 57.4733 10.5497L57.1154 11.9418C57.0391 11.9186 56.943 11.8954 56.827 11.8722C56.711 11.8456 56.5818 11.8324 56.4392 11.8324C56.1045 11.8324 55.8675 11.9136 55.7283 12.076C55.5924 12.2351 55.5245 12.4638 55.5245 12.7621V21H53.7198ZM58.3749 21V13.3636H60.1746V21H58.3749ZM59.2797 12.2798C58.9947 12.2798 58.7494 12.1854 58.5439 11.9964C58.3384 11.8042 58.2357 11.5739 58.2357 11.3054C58.2357 11.0336 58.3384 10.8033 58.5439 10.6143C58.7494 10.4221 58.9947 10.326 59.2797 10.326C59.5681 10.326 59.8133 10.4221 60.0155 10.6143C60.221 10.8033 60.3237 11.0336 60.3237 11.3054C60.3237 11.5739 60.221 11.8042 60.0155 11.9964C59.8133 12.1854 59.5681 12.2798 59.2797 12.2798ZM65.2659 21.1491C64.5003 21.1491 63.8391 20.9901 63.2823 20.6719C62.7288 20.3504 62.3029 19.8963 62.0046 19.3097C61.7063 18.7197 61.5571 18.0253 61.5571 17.2266C61.5571 16.4411 61.7063 15.7517 62.0046 15.1584C62.3062 14.5618 62.7271 14.0978 63.2674 13.7663C63.8076 13.4316 64.4423 13.2642 65.1715 13.2642C65.6421 13.2642 66.0863 13.3404 66.5039 13.4929C66.9248 13.642 67.296 13.8741 67.6175 14.1889C67.9423 14.5038 68.1975 14.9048 68.3831 15.392C68.5687 15.8759 68.6615 16.4527 68.6615 17.1222V17.674H62.4023V16.4609H66.9364C66.9331 16.1162 66.8585 15.8097 66.7127 15.5412C66.5668 15.2694 66.363 15.0556 66.1012 14.8999C65.8427 14.7441 65.541 14.6662 65.1963 14.6662C64.8284 14.6662 64.5053 14.7557 64.2269 14.9347C63.9485 15.1103 63.7314 15.3423 63.5756 15.6307C63.4231 15.9157 63.3453 16.2289 63.3419 16.5703V17.6293C63.3419 18.0734 63.4231 18.4545 63.5855 18.7727C63.748 19.0876 63.975 19.3295 64.2667 19.4986C64.5583 19.6643 64.8997 19.7472 65.2908 19.7472C65.5526 19.7472 65.7896 19.7107 66.0017 19.6378C66.2139 19.5616 66.3978 19.4505 66.5536 19.3047C66.7094 19.1589 66.827 18.9782 66.9066 18.7628L68.587 18.9517C68.4809 19.3958 68.2787 19.7836 67.9804 20.1151C67.6855 20.4432 67.3076 20.6984 66.8469 20.8807C66.3862 21.0597 65.8592 21.1491 65.2659 21.1491ZM72.8779 21.1342C72.278 21.1342 71.7411 20.9801 71.2671 20.6719C70.7931 20.3636 70.4186 19.9162 70.1435 19.3295C69.8684 18.7429 69.7309 18.0303 69.7309 17.1918C69.7309 16.3433 69.8701 15.6274 70.1485 15.044C70.4302 14.4574 70.8097 14.0149 71.287 13.7166C71.7643 13.415 72.2962 13.2642 72.8829 13.2642C73.3303 13.2642 73.6982 13.3404 73.9866 13.4929C74.2749 13.642 74.5036 13.8227 74.6726 14.0348C74.8417 14.2436 74.9726 14.4408 75.0654 14.6264H75.14V10.8182H76.9447V21H75.1748V19.7969H75.0654C74.9726 19.9825 74.8384 20.1797 74.6627 20.3885C74.487 20.594 74.255 20.7696 73.9667 20.9155C73.6783 21.0613 73.3154 21.1342 72.8779 21.1342ZM73.38 19.6577C73.7612 19.6577 74.086 19.5549 74.3545 19.3494C74.6229 19.1406 74.8268 18.8506 74.966 18.4794C75.1052 18.1082 75.1748 17.6757 75.1748 17.1818C75.1748 16.688 75.1052 16.2588 74.966 15.8942C74.8301 15.5296 74.6279 15.2462 74.3594 15.044C74.0943 14.8419 73.7678 14.7408 73.38 14.7408C72.979 14.7408 72.6442 14.8452 72.3758 15.054C72.1073 15.2628 71.9051 15.5511 71.7692 15.919C71.6333 16.2869 71.5654 16.7079 71.5654 17.1818C71.5654 17.6591 71.6333 18.085 71.7692 18.4595C71.9084 18.8307 72.1123 19.1241 72.3807 19.3395C72.6525 19.5516 72.9856 19.6577 73.38 19.6577Z" fill="#063722"/>
<rect x="0.5" y="0.5" width="89" height="31" rx="7.5" stroke="#05BF90"/>
</svg>
