<svg width="192" height="48" viewBox="0 0 192 48" fill="none" xmlns="http://www.w3.org/2000/svg">
<rect width="192" height="48" rx="12" fill="#EFEFEF"/>
<path d="M57.6136 18.3636L60.4261 27.2045H60.5341L63.3523 18.3636H66.0795L62.0682 30H58.8977L54.8807 18.3636H57.6136ZM67.2747 30V21.2727H69.6951V30H67.2747ZM68.4906 20.1477C68.1307 20.1477 67.822 20.0284 67.5644 19.7898C67.3106 19.5473 67.1838 19.2576 67.1838 18.9205C67.1838 18.5871 67.3106 18.3011 67.5644 18.0625C67.822 17.8201 68.1307 17.6989 68.4906 17.6989C68.8504 17.6989 69.1572 17.8201 69.411 18.0625C69.6686 18.3011 69.7974 18.5871 69.7974 18.9205C69.7974 19.2576 69.6686 19.5473 69.411 19.7898C69.1572 20.0284 68.8504 20.1477 68.4906 20.1477ZM75.4513 30.1705C74.5536 30.1705 73.7809 29.9886 73.1331 29.625C72.4892 29.2576 71.993 28.7386 71.6445 28.0682C71.296 27.3939 71.1218 26.5966 71.1218 25.6761C71.1218 24.7784 71.296 23.9905 71.6445 23.3125C71.993 22.6345 72.4835 22.1061 73.1161 21.7273C73.7524 21.3485 74.4987 21.1591 75.3547 21.1591C75.9305 21.1591 76.4665 21.2519 76.9627 21.4375C77.4627 21.6193 77.8983 21.8939 78.2695 22.2614C78.6445 22.6288 78.9362 23.0909 79.1445 23.6477C79.3528 24.2008 79.457 24.8485 79.457 25.5909V26.2557H72.0877V24.7557H77.1786C77.1786 24.4072 77.1028 24.0985 76.9513 23.8295C76.7998 23.5606 76.5896 23.3504 76.3206 23.1989C76.0555 23.0436 75.7468 22.9659 75.3945 22.9659C75.0271 22.9659 74.7013 23.0511 74.4172 23.2216C74.1369 23.3883 73.9172 23.6136 73.7581 23.8977C73.599 24.178 73.5176 24.4905 73.5138 24.8352V26.2614C73.5138 26.6932 73.5934 27.0663 73.7524 27.3807C73.9153 27.6951 74.1445 27.9375 74.4399 28.108C74.7354 28.2784 75.0858 28.3636 75.4911 28.3636C75.76 28.3636 76.0062 28.3258 76.2297 28.25C76.4532 28.1742 76.6445 28.0606 76.8036 27.9091C76.9627 27.7576 77.0839 27.572 77.1672 27.3523L79.4059 27.5C79.2922 28.0379 79.0593 28.5076 78.707 28.9091C78.3585 29.3068 77.9077 29.6174 77.3547 29.8409C76.8055 30.0606 76.171 30.1705 75.4513 30.1705ZM82.5356 30L80.1606 21.2727H82.6095L83.9618 27.1364H84.0413L85.4504 21.2727H87.8538L89.2856 27.1023H89.3595L90.689 21.2727H93.1322L90.7629 30H88.2004L86.7004 24.5114H86.5924L85.0924 30H82.5356ZM97.852 18.3636H100.886L104.091 26.1818H104.227L107.432 18.3636H110.466V30H108.079V22.4261H107.983L104.971 29.9432H103.346L100.335 22.3977H100.238V30H97.852V18.3636ZM116.23 30.1705C115.348 30.1705 114.585 29.983 113.941 29.608C113.3 29.2292 112.806 28.7027 112.458 28.0284C112.109 27.3504 111.935 26.5644 111.935 25.6705C111.935 24.7689 112.109 23.9811 112.458 23.3068C112.806 22.6288 113.3 22.1023 113.941 21.7273C114.585 21.3485 115.348 21.1591 116.23 21.1591C117.113 21.1591 117.874 21.3485 118.514 21.7273C119.158 22.1023 119.655 22.6288 120.003 23.3068C120.352 23.9811 120.526 24.7689 120.526 25.6705C120.526 26.5644 120.352 27.3504 120.003 28.0284C119.655 28.7027 119.158 29.2292 118.514 29.608C117.874 29.983 117.113 30.1705 116.23 30.1705ZM116.242 28.2955C116.643 28.2955 116.978 28.1818 117.247 27.9545C117.516 27.7235 117.719 27.4091 117.855 27.0114C117.995 26.6136 118.066 26.161 118.066 25.6534C118.066 25.1458 117.995 24.6932 117.855 24.2955C117.719 23.8977 117.516 23.5833 117.247 23.3523C116.978 23.1212 116.643 23.0057 116.242 23.0057C115.836 23.0057 115.495 23.1212 115.219 23.3523C114.946 23.5833 114.74 23.8977 114.6 24.2955C114.463 24.6932 114.395 25.1458 114.395 25.6534C114.395 26.161 114.463 26.6136 114.6 27.0114C114.74 27.4091 114.946 27.7235 115.219 27.9545C115.495 28.1818 115.836 28.2955 116.242 28.2955ZM121.94 30V21.2727H124.286V22.7955H124.377C124.536 22.2538 124.803 21.8447 125.178 21.5682C125.553 21.2879 125.985 21.1477 126.474 21.1477C126.595 21.1477 126.726 21.1553 126.866 21.1705C127.006 21.1856 127.129 21.2064 127.235 21.233V23.3807C127.121 23.3466 126.964 23.3163 126.764 23.2898C126.563 23.2633 126.379 23.25 126.212 23.25C125.856 23.25 125.538 23.3277 125.258 23.483C124.981 23.6345 124.762 23.8466 124.599 24.1193C124.44 24.392 124.36 24.7064 124.36 25.0625V30H121.94ZM131.898 30.1705C131 30.1705 130.227 29.9886 129.579 29.625C128.935 29.2576 128.439 28.7386 128.091 28.0682C127.742 27.3939 127.568 26.5966 127.568 25.6761C127.568 24.7784 127.742 23.9905 128.091 23.3125C128.439 22.6345 128.93 22.1061 129.562 21.7273C130.199 21.3485 130.945 21.1591 131.801 21.1591C132.377 21.1591 132.913 21.2519 133.409 21.4375C133.909 21.6193 134.345 21.8939 134.716 22.2614C135.091 22.6288 135.382 23.0909 135.591 23.6477C135.799 24.2008 135.903 24.8485 135.903 25.5909V26.2557H128.534V24.7557H133.625C133.625 24.4072 133.549 24.0985 133.398 23.8295C133.246 23.5606 133.036 23.3504 132.767 23.1989C132.502 23.0436 132.193 22.9659 131.841 22.9659C131.473 22.9659 131.148 23.0511 130.863 23.2216C130.583 23.3883 130.363 23.6136 130.204 23.8977C130.045 24.178 129.964 24.4905 129.96 24.8352V26.2614C129.96 26.6932 130.04 27.0663 130.199 27.3807C130.362 27.6951 130.591 27.9375 130.886 28.108C131.182 28.2784 131.532 28.3636 131.937 28.3636C132.206 28.3636 132.452 28.3258 132.676 28.25C132.899 28.1742 133.091 28.0606 133.25 27.9091C133.409 27.7576 133.53 27.572 133.613 27.3523L135.852 27.5C135.738 28.0379 135.506 28.5076 135.153 28.9091C134.805 29.3068 134.354 29.6174 133.801 29.8409C133.252 30.0606 132.617 30.1705 131.898 30.1705Z" fill="#344054"/>
</svg>
