<svg width="95" height="40" viewBox="0 0 95 40" fill="none" xmlns="http://www.w3.org/2000/svg">
<rect width="95" height="40" rx="8" fill="#EFEFEF"/>
<path fill-rule="evenodd" clip-rule="evenodd" d="M26 24.166C29.4267 24.166 31.4888 21.6102 32.4025 20.0866C32.4234 20.0518 32.4291 20.0225 32.4291 19.9993C32.4291 19.9762 32.4234 19.9469 32.4025 19.9121C31.4888 18.3885 29.4267 15.8327 26 15.8327C22.5733 15.8327 20.5112 18.3885 19.5975 19.9121C19.5766 19.9469 19.5709 19.9762 19.5709 19.9993C19.5709 20.0225 19.5766 20.0518 19.5975 20.0866C20.5112 21.6102 22.5733 24.166 26 24.166ZM33.8318 20.9438C32.8416 22.595 30.3458 25.8327 26 25.8327C21.6541 25.8327 19.1584 22.595 18.1682 20.9438C17.8163 20.357 17.8163 19.6416 18.1682 19.0549C19.1584 17.4037 21.6541 14.166 26 14.166C30.3458 14.166 32.8416 17.4037 33.8318 19.0549C34.1837 19.6416 34.1837 20.3571 33.8318 20.9438Z" fill="#344054"/>
<path fill-rule="evenodd" clip-rule="evenodd" d="M26 20.8327C26.4602 20.8327 26.8333 20.4596 26.8333 19.9993C26.8333 19.5391 26.4602 19.166 26 19.166C25.5398 19.166 25.1667 19.5391 25.1667 19.9993C25.1667 20.4596 25.5398 20.8327 26 20.8327ZM26 22.4993C27.3807 22.4993 28.5 21.3801 28.5 19.9993C28.5 18.6186 27.3807 17.4993 26 17.4993C24.6193 17.4993 23.5 18.6186 23.5 19.9993C23.5 21.3801 24.6193 22.4993 26 22.4993Z" fill="#344054"/>
<path d="M46.7244 14.8182L49.1854 22.554H49.2798L51.7457 14.8182H54.1321L50.6222 25H47.848L44.3331 14.8182H46.7244ZM55.1778 25V17.3636H57.2957V25H55.1778ZM56.2417 16.3793C55.9269 16.3793 55.6568 16.2749 55.4314 16.0661C55.2093 15.8539 55.0983 15.6004 55.0983 15.3054C55.0983 15.0137 55.2093 14.7635 55.4314 14.5547C55.6568 14.3426 55.9269 14.2365 56.2417 14.2365C56.5566 14.2365 56.8251 14.3426 57.0471 14.5547C57.2725 14.7635 57.3852 15.0137 57.3852 15.3054C57.3852 15.6004 57.2725 15.8539 57.0471 16.0661C56.8251 16.2749 56.5566 16.3793 56.2417 16.3793ZM62.3324 25.1491C61.5469 25.1491 60.8707 24.9901 60.304 24.6719C59.7405 24.3504 59.3064 23.8963 59.0014 23.3097C58.6965 22.7197 58.544 22.022 58.544 21.2166C58.544 20.4311 58.6965 19.7417 59.0014 19.1484C59.3064 18.5552 59.7356 18.0928 60.2891 17.7614C60.8459 17.4299 61.4988 17.2642 62.2479 17.2642C62.7517 17.2642 63.2207 17.3454 63.6548 17.5078C64.0923 17.6669 64.4735 17.9072 64.7983 18.2287C65.1264 18.5502 65.3816 18.9545 65.5639 19.4418C65.7462 19.9257 65.8374 20.4924 65.8374 21.142V21.7237H59.3892V20.4112H63.8438C63.8438 20.1063 63.7775 19.8362 63.6449 19.6009C63.5123 19.3655 63.3284 19.1816 63.093 19.049C62.861 18.9131 62.5909 18.8452 62.2827 18.8452C61.9612 18.8452 61.6761 18.9197 61.4276 19.0689C61.1823 19.2147 60.9901 19.4119 60.8509 19.6605C60.7117 19.9058 60.6404 20.1792 60.6371 20.4808V21.7287C60.6371 22.1065 60.7067 22.433 60.8459 22.7081C60.9884 22.9832 61.1889 23.1953 61.4475 23.3445C61.706 23.4936 62.0126 23.5682 62.3672 23.5682C62.6025 23.5682 62.818 23.535 63.0135 23.4688C63.2091 23.4025 63.3764 23.303 63.5156 23.1705C63.6548 23.0379 63.7609 22.8755 63.8338 22.6832L65.7926 22.8125C65.6932 23.2831 65.4894 23.6941 65.1811 24.0455C64.8762 24.3935 64.4818 24.6652 63.9979 24.8608C63.5173 25.053 62.9621 25.1491 62.3324 25.1491ZM68.5312 25L66.453 17.3636H68.5958L69.779 22.4943H69.8486L71.0816 17.3636H73.1846L74.4374 22.4645H74.5021L75.6654 17.3636H77.8032L75.73 25H73.4878L72.1753 20.1974H72.0809L70.7684 25H68.5312Z" fill="#344054"/>
</svg>
