<svg width="60" height="40" viewBox="0 0 60 40" fill="none" xmlns="http://www.w3.org/2000/svg">
<rect width="60" height="40" rx="8" fill="#EBECF0"/>
<g clip-path="url(#clip0_642_25965)">
<path d="M36.3561 13.668C33.374 13.668 30.709 15.2198 30.709 18.087C30.709 21.375 35.4354 21.6021 35.4354 23.2539C35.4354 23.9494 34.6415 24.5721 33.2855 24.5721C31.3612 24.5721 29.9229 23.7021 29.9229 23.7021L29.3074 26.5954C29.3074 26.5954 30.9643 27.3302 33.1641 27.3302C36.4246 27.3302 38.9901 25.7022 38.9901 22.786C38.9901 19.3116 34.244 19.0912 34.244 17.5581C34.244 17.0132 34.8957 16.4162 36.2478 16.4162C37.7734 16.4162 39.0181 17.0489 39.0181 17.0489L39.6204 14.2545C39.6204 14.2545 38.2661 13.668 36.3561 13.668ZM9.07223 13.8789L9 14.3007C9 14.3007 10.2546 14.5312 11.3846 14.991C12.8395 15.5183 12.9432 15.8253 13.1882 16.7787L15.8583 27.1127H19.4377L24.9519 13.8789H21.3808L17.8375 22.8766L16.3917 15.2497C16.2591 14.3768 15.5874 13.8789 14.7653 13.8789H9.07223ZM26.3879 13.8789L23.5864 27.1127H26.9918L29.7834 13.8788H26.3879V13.8789ZM45.3807 13.8789C44.5596 13.8789 44.1245 14.3203 43.8053 15.0915L38.8162 27.1127H42.3873L43.0782 25.1091H47.4289L47.849 27.1127H51L48.2511 13.8789H45.3807ZM45.8452 17.4543L46.9037 22.4202H44.0678L45.8452 17.4543Z" fill="#000C40"/>
</g>
<defs>
<clipPath id="clip0_642_25965">
<rect width="42" height="13.6957" fill="white" transform="translate(9 13.6523)"/>
</clipPath>
</defs>
</svg>
