<svg width="20" height="20" viewBox="0 0 20 20" fill="none" xmlns="http://www.w3.org/2000/svg">
<path fill-rule="evenodd" clip-rule="evenodd" d="M6 1C6 0.447715 5.55228 0 5 0C4.44772 0 4 0.447715 4 1V2H3C1.34315 2 0 3.34315 0 5V17C0 18.6569 1.34315 20 3 20H17C18.6569 20 20 18.6569 20 17V5C20 3.34315 18.6569 2 17 2H16V1C16 0.447715 15.5523 0 15 0C14.4477 0 14 0.447715 14 1V2H6V1ZM14.7071 9.70711C15.0976 9.31658 15.0976 8.68342 14.7071 8.29289C14.3166 7.90237 13.6834 7.90237 13.2929 8.29289L9 12.5858L7.20711 10.7929C6.81658 10.4024 6.18342 10.4024 5.79289 10.7929C5.40237 11.1834 5.40237 11.8166 5.79289 12.2071L8.29289 14.7071C8.68342 15.0976 9.31658 15.0976 9.70711 14.7071L14.7071 9.70711Z" fill="white"/>
</svg>
