<svg width="25" height="24" viewBox="0 0 25 24" fill="none" xmlns="http://www.w3.org/2000/svg">
<path d="M20.5 2C20.5 0.89543 19.6046 0 18.5 0H2.5C1.39543 0 0.5 0.89543 0.5 2V3C0.5 3.13807 0.611929 3.25 0.75 3.25H20.25C20.3881 3.25 20.5 3.13807 20.5 3V2Z" fill="#000C40"/>
<path fill-rule="evenodd" clip-rule="evenodd" d="M18 9.5C18.738 9.50056 19.4723 9.60355 20.182 9.806C20.2573 9.82728 20.3382 9.81209 20.4006 9.76497C20.463 9.71785 20.4998 9.64422 20.5 9.566V5C20.5 4.86193 20.3881 4.75 20.25 4.75H0.75C0.611929 4.75 0.5 4.86193 0.5 5V13C0.5 14.1046 1.39543 15 2.5 15H10.225C10.3311 15.0001 10.4258 14.9331 10.461 14.833C11.5908 11.638 14.6111 9.50142 18 9.5ZM3.5 7.25H10C10.4142 7.25 10.75 7.58579 10.75 8C10.75 8.41421 10.4142 8.75 10 8.75H3.5C3.08579 8.75 2.75 8.41421 2.75 8C2.75 7.58579 3.08579 7.25 3.5 7.25ZM3.5 12.25H6.5C6.91421 12.25 7.25 11.9142 7.25 11.5C7.25 11.0858 6.91421 10.75 6.5 10.75H3.5C3.08579 10.75 2.75 11.0858 2.75 11.5C2.75 11.9142 3.08579 12.25 3.5 12.25Z" fill="#000C40"/>
<path fill-rule="evenodd" clip-rule="evenodd" d="M11.5 17.5C11.5 13.9101 14.4101 11 18 11C19.7239 11 21.3772 11.6848 22.5962 12.9038C23.8152 14.1228 24.5 15.7761 24.5 17.5C24.5 21.0899 21.5899 24 18 24C14.4101 24 11.5 21.0899 11.5 17.5ZM19.626 17.309L16.916 16.294C16.7944 16.1453 16.735 15.9555 16.75 15.764C16.75 15.485 17.094 15.25 17.5 15.25H20C20.4142 15.25 20.75 14.9142 20.75 14.5C20.75 14.0858 20.4142 13.75 20 13.75H19C18.8619 13.75 18.75 13.6381 18.75 13.5V13C18.75 12.5858 18.4142 12.25 18 12.25C17.5858 12.25 17.25 12.5858 17.25 13V13.544C17.25 13.6651 17.1632 13.7687 17.044 13.79C16.0426 13.9186 15.2825 14.7549 15.25 15.764C15.1956 16.5757 15.6407 17.3388 16.374 17.691L19.084 18.706C19.2056 18.8547 19.265 19.0445 19.25 19.236C19.25 19.577 19 19.75 18.5 19.75H16C15.5858 19.75 15.25 20.0858 15.25 20.5C15.25 20.9142 15.5858 21.25 16 21.25H17C17.1381 21.25 17.25 21.3619 17.25 21.5V22C17.25 22.4142 17.5858 22.75 18 22.75C18.4142 22.75 18.75 22.4142 18.75 22V21.462C18.7495 21.3388 18.8392 21.2338 18.961 21.215C19.8575 21.0891 20.5696 20.3976 20.7215 19.5051C20.8734 18.6126 20.4304 17.7244 19.626 17.309Z" fill="#000C40"/>
</svg>
