<svg width="23" height="24" viewBox="0 0 23 24" fill="none" xmlns="http://www.w3.org/2000/svg">
<path d="M22.312 7.88374L19.28 4.85074C19.2301 4.80167 19.1916 4.74228 19.167 4.67674L17.627 0.676736C17.4468 0.210344 16.9514 -0.0529049 16.464 0.0587359C14.9426 0.402879 13.5425 1.15198 12.412 2.22674C11.3879 3.24751 10.728 4.57683 10.534 6.00974C10.4757 6.46669 10.7371 6.90438 11.167 7.06974L15.216 8.62774C15.2817 8.65251 15.3414 8.69103 15.391 8.74074L18.422 11.7727C18.7034 12.0542 19.085 12.2124 19.483 12.2124C19.881 12.2124 20.2627 12.0542 20.544 11.7727L22.312 10.0047C22.8976 9.41899 22.8976 8.46949 22.312 7.88374Z" fill="#000C40"/>
<path d="M5.15403 17.9367C4.94335 18.1479 4.65731 18.2666 4.35903 18.2666C4.06074 18.2666 3.7747 18.1479 3.56403 17.9367L2.62403 17.0067C2.41286 16.7961 2.29419 16.51 2.29419 16.2117C2.29419 15.9134 2.41286 15.6274 2.62403 15.4167C2.83441 15.2021 3.12347 15.0828 3.42403 15.0867C3.72174 15.0824 4.00788 15.2019 4.21403 15.4167L5.15403 16.3467C5.36519 16.5574 5.48386 16.8434 5.48386 17.1417C5.48386 17.44 5.36519 17.7261 5.15403 17.9367Z" fill="#000C40"/>
<path d="M4.04403 14.1767C3.60496 13.7377 3.60496 13.0258 4.04403 12.5867C4.48309 12.1477 5.19496 12.1477 5.63403 12.5867L7.27403 14.2267C7.48505 14.4355 7.60387 14.7199 7.60403 15.0167C7.60388 15.3165 7.48527 15.6041 7.27403 15.8167C6.82718 16.2366 6.13087 16.2366 5.68403 15.8167L4.04403 14.1767Z" fill="#000C40"/>
<path d="M9.39403 13.6997C9.18335 13.9109 8.89731 14.0296 8.59903 14.0296C8.30074 14.0296 8.0147 13.9109 7.80403 13.6997L6.16403 12.0597C5.95286 11.8491 5.83419 11.563 5.83419 11.2647C5.83419 10.9664 5.95286 10.6804 6.16403 10.4697C6.37231 10.258 6.65705 10.1391 6.95403 10.1397C7.25396 10.139 7.54184 10.2578 7.75403 10.4697L9.39403 12.1097C9.60519 12.3204 9.72386 12.6064 9.72386 12.9047C9.72386 13.203 9.60519 13.4891 9.39403 13.6997Z" fill="#000C40"/>
<path d="M11.484 11.1997C11.484 11.2387 11.484 11.2787 11.484 11.3177C11.4946 11.5258 11.3751 11.7187 11.184 11.8017C10.7575 11.9844 10.2634 11.8972 9.92503 11.5797L8.99503 10.6397C8.78018 10.4336 8.66065 10.1474 8.66503 9.84974C8.6611 9.54918 8.78034 9.26012 8.99503 9.04974C9.44188 8.62988 10.1382 8.62988 10.585 9.04974L11.476 9.94974C11.6075 10.0823 11.6541 10.277 11.597 10.4547C11.521 10.6957 11.4829 10.947 11.484 11.1997Z" fill="#000C40"/>
<path d="M13.269 14.7497C13.3629 14.6562 13.4157 14.5292 13.416 14.3967C13.4163 14.264 13.3637 14.1367 13.27 14.0427L12.214 12.9867C12.1272 12.8996 12.0477 12.8057 11.976 12.7057C11.8431 12.5216 11.6029 12.4502 11.391 12.5317C11.2355 12.5912 11.0727 12.6299 10.907 12.6467C10.7913 12.658 10.6831 12.7093 10.601 12.7917L10.593 12.7997C10.5129 12.8807 10.4628 12.9865 10.451 13.0997C10.4106 13.5249 10.2244 13.9231 9.92403 14.2267C9.62065 14.5235 9.22748 14.7112 8.80603 14.7607C8.69252 14.7731 8.58665 14.8239 8.50603 14.9047L8.47703 14.9347C8.39793 15.0143 8.34791 15.1183 8.33503 15.2297C8.28828 15.6519 8.09967 16.0457 7.80003 16.3467C7.50131 16.6391 7.11485 16.8253 6.70003 16.8767C6.58864 16.8904 6.48509 16.9411 6.40603 17.0207L6.34403 17.0827C6.26646 17.1616 6.21722 17.2639 6.20403 17.3737C6.10861 18.2183 5.44738 18.8878 4.60403 18.9937C4.49371 19.008 4.39131 19.0587 4.31303 19.1377L0.394026 23.0997C0.255809 23.2432 0.212946 23.4536 0.284026 23.6397C0.360727 23.8264 0.542175 23.9487 0.744026 23.9497L3.80403 23.9697C3.93449 23.9705 4.06009 23.9203 4.15403 23.8297L13.269 14.7497Z" fill="#000C40"/>
<path d="M16.813 22.5257L18.103 23.9657H9.26003C9.12733 23.966 8.99998 23.9135 8.90603 23.8197L7.61603 22.5297C7.52198 22.4359 7.46913 22.3086 7.46913 22.1757C7.46913 22.0429 7.52198 21.9155 7.61603 21.8217L14.336 15.1027C14.7264 14.7122 14.7264 14.0792 14.336 13.6887L12.923 12.2757C12.3723 11.6847 12.3886 10.7637 12.9598 10.1925C13.531 9.62127 14.452 9.60502 15.043 10.1557L17.163 12.2757C17.9144 13.026 18.3367 14.0444 18.3367 15.1062C18.3367 16.1681 17.9144 17.1864 17.163 17.9367L16.815 18.2847C15.644 19.4556 15.6431 21.3538 16.813 22.5257Z" fill="#000C40"/>
</svg>
