<svg width="23" height="24" viewBox="0 0 23 24" fill="none" xmlns="http://www.w3.org/2000/svg">
<path d="M22.3118 7.88374L19.2798 4.85074C19.2299 4.80167 19.1914 4.74228 19.1668 4.67674L17.6268 0.676736C17.4466 0.210344 16.9512 -0.0529049 16.4638 0.0587359C14.9424 0.402879 13.5424 1.15198 12.4118 2.22674C11.3877 3.24751 10.7278 4.57683 10.5338 6.00974C10.4755 6.46669 10.7369 6.90438 11.1668 7.06974L15.2158 8.62774C15.2816 8.65251 15.3412 8.69103 15.3908 8.74074L18.4218 11.7727C18.7032 12.0542 19.0849 12.2124 19.4828 12.2124C19.8808 12.2124 20.2625 12.0542 20.5438 11.7727L22.3118 10.0047C22.8974 9.41899 22.8974 8.46949 22.3118 7.88374Z" fill="#2066DA"/>
<path d="M5.15384 17.9367C4.94316 18.1479 4.65713 18.2666 4.35884 18.2666C4.06055 18.2666 3.77452 18.1479 3.56384 17.9367L2.62384 17.0067C2.41268 16.7961 2.294 16.51 2.294 16.2117C2.294 15.9134 2.41268 15.6274 2.62384 15.4167C2.83422 15.2021 3.12329 15.0828 3.42384 15.0867C3.72156 15.0824 4.0077 15.2019 4.21384 15.4167L5.15384 16.3467C5.36501 16.5574 5.48368 16.8434 5.48368 17.1417C5.48368 17.44 5.36501 17.7261 5.15384 17.9367Z" fill="#2066DA"/>
<path d="M4.04384 14.1767C3.60478 13.7377 3.60478 13.0258 4.04384 12.5867C4.48291 12.1477 5.19478 12.1477 5.63384 12.5867L7.27384 14.2267C7.48487 14.4355 7.60369 14.7199 7.60384 15.0167C7.6037 15.3165 7.48508 15.6041 7.27384 15.8167C6.82699 16.2366 6.13069 16.2366 5.68384 15.8167L4.04384 14.1767Z" fill="#2066DA"/>
<path d="M9.39384 13.6997C9.18317 13.9109 8.89713 14.0296 8.59884 14.0296C8.30055 14.0296 8.01452 13.9109 7.80384 13.6997L6.16384 12.0597C5.95268 11.8491 5.834 11.563 5.834 11.2647C5.834 10.9664 5.95268 10.6804 6.16384 10.4697C6.37213 10.258 6.65686 10.1391 6.95384 10.1397C7.25378 10.139 7.54166 10.2578 7.75384 10.4697L9.39384 12.1097C9.60501 12.3204 9.72368 12.6064 9.72368 12.9047C9.72368 13.203 9.60501 13.4891 9.39384 13.6997Z" fill="#2066DA"/>
<path d="M11.4838 11.1997C11.4838 11.2387 11.4838 11.2787 11.4838 11.3177C11.4945 11.5258 11.3749 11.7187 11.1838 11.8017C10.7573 11.9844 10.2632 11.8972 9.92484 11.5797L8.99484 10.6397C8.78 10.4336 8.66047 10.1474 8.66484 9.84974C8.66092 9.54918 8.78016 9.26012 8.99484 9.04974C9.44169 8.62988 10.138 8.62988 10.5848 9.04974L11.4758 9.94974C11.6073 10.0823 11.6539 10.277 11.5968 10.4547C11.5208 10.6957 11.4827 10.947 11.4838 11.1997Z" fill="#2066DA"/>
<path d="M13.2688 14.7497C13.3627 14.6562 13.4155 14.5292 13.4158 14.3967C13.4161 14.264 13.3636 14.1367 13.2698 14.0427L12.2138 12.9867C12.1271 12.8996 12.0475 12.8057 11.9758 12.7057C11.843 12.5216 11.6027 12.4502 11.3908 12.5317C11.2353 12.5912 11.0725 12.6299 10.9068 12.6467C10.7911 12.658 10.6829 12.7093 10.6008 12.7917L10.5928 12.7997C10.5127 12.8807 10.4626 12.9865 10.4508 13.0997C10.4104 13.5249 10.2242 13.9231 9.92384 14.2267C9.62047 14.5235 9.2273 14.7112 8.80584 14.7607C8.69233 14.7731 8.58647 14.8239 8.50584 14.9047L8.47684 14.9347C8.39774 15.0143 8.34773 15.1183 8.33484 15.2297C8.2881 15.6519 8.09948 16.0457 7.79984 16.3467C7.50113 16.6391 7.11467 16.8253 6.69984 16.8767C6.58846 16.8904 6.48491 16.9411 6.40584 17.0207L6.34384 17.0827C6.26627 17.1616 6.21704 17.2639 6.20384 17.3737C6.10843 18.2183 5.4472 18.8878 4.60384 18.9937C4.49352 19.008 4.39112 19.0587 4.31284 19.1377L0.393842 23.0997C0.255626 23.2432 0.212763 23.4536 0.283842 23.6397C0.360544 23.8264 0.541992 23.9487 0.743842 23.9497L3.80384 23.9697C3.93431 23.9705 4.05991 23.9203 4.15384 23.8297L13.2688 14.7497Z" fill="#2066DA"/>
<path d="M16.8128 22.5257L18.1028 23.9657H9.25984C9.12714 23.966 8.99979 23.9135 8.90584 23.8197L7.61584 22.5297C7.5218 22.4359 7.46895 22.3086 7.46895 22.1757C7.46895 22.0429 7.5218 21.9155 7.61584 21.8217L14.3358 15.1027C14.7262 14.7122 14.7262 14.0792 14.3358 13.6887L12.9228 12.2757C12.3721 11.6847 12.3884 10.7637 12.9596 10.1925C13.5308 9.62127 14.4518 9.60502 15.0428 10.1557L17.1628 12.2757C17.9143 13.026 18.3365 14.0444 18.3365 15.1062C18.3365 16.1681 17.9143 17.1864 17.1628 17.9367L16.8148 18.2847C15.6438 19.4556 15.6429 21.3538 16.8128 22.5257Z" fill="#2066DA"/>
</svg>
