<svg width="25" height="24" viewBox="0 0 25 24" fill="none" xmlns="http://www.w3.org/2000/svg">
<path d="M0.5 4C0.5 1.79086 2.29086 0 4.5 0H7.16666C9.3758 0 11.1667 1.79086 11.1667 4V6.66666C11.1667 8.8758 9.3758 10.6667 7.16667 10.6667H4.5C2.29086 10.6667 0.5 8.8758 0.5 6.66667V4Z" fill="#000C40"/>
<path d="M0.5 17.333C0.5 15.1239 2.29086 13.333 4.5 13.333H7.16666C9.3758 13.333 11.1667 15.1239 11.1667 17.333V19.9997C11.1667 22.2088 9.3758 23.9997 7.16667 23.9997H4.5C2.29086 23.9997 0.5 22.2088 0.5 19.9997V17.333Z" fill="#000C40"/>
<path d="M13.8333 4C13.8333 1.79086 15.6242 0 17.8333 0H20.5C22.7091 0 24.5 1.79086 24.5 4V6.66666C24.5 8.8758 22.7091 10.6667 20.5 10.6667H17.8333C15.6242 10.6667 13.8333 8.8758 13.8333 6.66667V4Z" fill="#000C40"/>
<path d="M13.8333 17.333C13.8333 15.1239 15.6242 13.333 17.8333 13.333H20.5C22.7091 13.333 24.5 15.1239 24.5 17.333V19.9997C24.5 22.2088 22.7091 23.9997 20.5 23.9997H17.8333C15.6242 23.9997 13.8333 22.2088 13.8333 19.9997V17.333Z" fill="#000C40"/>
</svg>
