<svg width="25" height="20" viewBox="0 0 25 20" fill="none" xmlns="http://www.w3.org/2000/svg">
<path d="M23.5974 11.9296H21.5798C21.0226 11.9296 20.571 12.3813 20.571 12.9384V18.9914C20.571 19.5485 20.1193 20.0002 19.5621 20.0002H15.5269C14.9697 20.0002 14.518 19.5485 14.518 18.9914V15.9649C14.518 14.8506 13.6147 13.9472 12.5004 13.9472C11.3861 13.9472 10.4828 14.8506 10.4828 15.9649V18.9914C10.4828 19.5485 10.0311 20.0002 9.47393 20.0002H5.43865C4.88149 20.0002 4.42982 19.5485 4.42982 18.9914V12.9384C4.42982 12.3813 3.97816 11.9296 3.421 11.9296H1.40336C0.986674 11.9293 0.613018 11.6729 0.462897 11.2842C0.312776 10.8955 0.417085 10.4545 0.725433 10.1743L11.1425 0.703439C11.9101 -0.00270879 13.0907 -0.00270879 13.8583 0.703439L24.2754 10.1743C24.5837 10.4545 24.688 10.8955 24.5379 11.2842C24.3878 11.6729 24.0141 11.9293 23.5974 11.9296Z" fill="#000C40"/>
</svg>
