<svg width="25" height="20" viewBox="0 0 25 20" fill="none" xmlns="http://www.w3.org/2000/svg">
<path d="M23.5968 11.9296H21.5792C21.022 11.9296 20.5704 12.3813 20.5704 12.9384V18.9914C20.5704 19.5485 20.1187 20.0002 19.5616 20.0002H15.5263C14.9691 20.0002 14.5175 19.5485 14.5175 18.9914V15.9649C14.5175 14.8506 13.6141 13.9472 12.4998 13.9472C11.3855 13.9472 10.4822 14.8506 10.4822 15.9649V18.9914C10.4822 19.5485 10.0305 20.0002 9.47335 20.0002H5.43807C4.88091 20.0002 4.42924 19.5485 4.42924 18.9914V12.9384C4.42924 12.3813 3.97758 11.9296 3.42042 11.9296H1.40278C0.986094 11.9293 0.612438 11.6729 0.462317 11.2842C0.312196 10.8955 0.416505 10.4545 0.724853 10.1743L11.1419 0.703439C11.9095 -0.00270879 13.0901 -0.00270879 13.8577 0.703439L24.2748 10.1743C24.5831 10.4545 24.6874 10.8955 24.5373 11.2842C24.3872 11.6729 24.0135 11.9293 23.5968 11.9296Z" fill="#2066DA"/>
</svg>
