<svg width="25" height="20" viewBox="0 0 25 20" fill="none" xmlns="http://www.w3.org/2000/svg">
<path fill-rule="evenodd" clip-rule="evenodd" d="M1.7 7.60039C1.03726 7.60039 0.5 8.13765 0.5 8.80039V16.0004C0.5 17.9886 2.11177 19.6004 4.1 19.6004H20.9C22.8882 19.6004 24.5 17.9886 24.5 16.0004V8.80039C24.5 8.13765 23.9627 7.60039 23.3 7.60039H1.7ZM4.1 12.4004C3.43726 12.4004 2.9 12.9376 2.9 13.6004C2.9 14.2631 3.43726 14.8004 4.1 14.8004H11.3C11.9627 14.8004 12.5 14.2631 12.5 13.6004C12.5 12.9376 11.9627 12.4004 11.3 12.4004H4.1Z" fill="#000C40"/>
<path d="M0.5 4.00039C0.5 2.01217 2.11178 0.400391 4.1 0.400391H20.9C22.8882 0.400391 24.5 2.01217 24.5 4.00039C24.5 4.66313 23.9627 5.20039 23.3 5.20039H1.7C1.03726 5.20039 0.5 4.66313 0.5 4.00039Z" fill="#000C40"/>
</svg>
