<svg width="208" height="33" viewBox="0 0 208 33" fill="none" xmlns="http://www.w3.org/2000/svg">
<path fill-rule="evenodd" clip-rule="evenodd" d="M0.46316 0.321289L0.463656 8.65843L10.0537 13.1836L18.8873 9.01517L0.46316 0.321289V0.321289ZM127.911 11.0731V27.6954H125.022V16.3108L119.65 27.6954H117.648L112.25 16.3108V27.6954H109.361V11.0731H112.478L118.661 24.108L124.819 11.0731H127.911H127.911ZM203.176 16.4304C203.599 15.7609 204.16 15.2387 204.862 14.864C205.563 14.4891 206.395 14.3019 207.358 14.3019V17.1241H206.623C205.491 17.1241 204.634 17.3953 204.051 17.9373C203.468 18.4793 203.176 19.42 203.176 20.7594V27.6955H200.288V14.5173H203.176V16.4304H203.176ZM189.564 27.9107C188.246 27.9107 187.055 27.6277 185.991 27.0616C184.926 26.4955 184.09 25.6984 183.482 24.6698C182.873 23.6416 182.569 22.4495 182.569 21.0943C182.569 19.7548 182.882 18.5671 183.507 17.5306C184.132 16.4941 184.985 15.697 186.067 15.1389C187.148 14.5809 188.356 14.3018 189.69 14.3018C191.025 14.3018 192.233 14.5809 193.315 15.1389C194.396 15.697 195.249 16.4941 195.874 17.5306C196.499 18.5671 196.812 19.7548 196.812 21.0943C196.812 22.4336 196.491 23.6214 195.849 24.6579C195.207 25.6944 194.332 26.4954 193.226 27.0616C192.119 27.6277 190.899 27.9107 189.564 27.9107H189.564ZM189.564 25.5429C190.307 25.5429 191.004 25.3754 191.654 25.0408C192.305 24.7059 192.833 24.2036 193.238 23.534C193.644 22.8642 193.847 22.0509 193.847 21.0944C193.847 20.1378 193.652 19.3285 193.264 18.6669C192.875 18.005 192.36 17.5068 191.718 17.172C191.076 16.8371 190.383 16.6696 189.64 16.6696C188.896 16.6696 188.208 16.8371 187.574 17.172C186.941 17.507 186.438 18.0051 186.067 18.6669C185.695 19.3285 185.509 20.1378 185.509 21.0944C185.509 22.5134 185.893 23.6096 186.662 24.3829C187.431 25.1564 188.398 25.543 189.564 25.543L189.564 25.5429ZM176.838 16.7415V24.036C176.838 24.5304 176.96 24.8852 177.205 25.1005C177.45 25.3156 177.869 25.4233 178.46 25.4233H180.234V27.6954H177.953C176.652 27.6954 175.655 27.4084 174.963 26.8343C174.27 26.2602 173.924 25.3277 173.924 24.036V16.7415H172.276V14.5173H173.924V11.2407H176.838V14.5173H180.234V16.7415H176.838ZM167.635 12.7712C167.111 12.7712 166.672 12.6038 166.317 12.2688C165.962 11.9339 165.785 11.5194 165.785 11.0252C165.785 10.5308 165.962 10.1163 166.317 9.7816C166.672 9.44665 167.111 9.27924 167.635 9.27924C168.142 9.27924 168.572 9.44665 168.927 9.7816C169.282 10.1163 169.459 10.5308 169.459 11.0252C169.459 11.5195 169.282 11.934 168.927 12.2688C168.572 12.6038 168.142 12.7712 167.635 12.7712ZM169.054 14.5171V27.6954H166.165V14.5171H169.054ZM156.151 14.3018C157.249 14.3018 158.233 14.5171 159.103 14.9476C159.973 15.378 160.653 16.0158 161.143 16.861C161.633 17.7059 161.878 18.7265 161.878 19.9222V27.6953H159.014V20.3288C159.014 19.1489 158.702 18.2439 158.076 17.6143C157.451 16.9844 156.598 16.6694 155.517 16.6694C154.436 16.6694 153.578 16.9844 152.945 17.6143C152.311 18.2439 151.994 19.1489 151.994 20.3288V27.6953H149.105V14.517H151.994V16.0236C152.467 15.4816 153.072 15.0591 153.806 14.7561C154.541 14.4532 155.323 14.3016 156.15 14.3016L156.151 14.3018ZM138.382 27.9107C137.064 27.9107 135.873 27.6277 134.809 27.0616C133.744 26.4955 132.908 25.6984 132.3 24.6698C131.691 23.6416 131.387 22.4495 131.387 21.0943C131.387 19.7548 131.7 18.5671 132.325 17.5306C132.95 16.4941 133.803 15.697 134.885 15.1389C135.966 14.5809 137.174 14.3018 138.508 14.3018C139.843 14.3018 141.051 14.5809 142.133 15.1389C143.214 15.697 144.067 16.4941 144.692 17.5306C145.317 18.5671 145.63 19.7548 145.63 21.0943C145.63 22.4336 145.309 23.6214 144.667 24.6579C144.025 25.6944 143.15 26.4954 142.044 27.0616C140.937 27.6277 139.717 27.9107 138.382 27.9107ZM138.382 25.5429C139.125 25.5429 139.822 25.3754 140.473 25.0408C141.123 24.7059 141.651 24.2036 142.057 23.534C142.462 22.8642 142.665 22.0509 142.665 21.0944C142.665 20.1378 142.47 19.3285 142.082 18.6669C141.693 18.005 141.178 17.5068 140.536 17.172C139.894 16.8371 139.201 16.6696 138.458 16.6696C137.715 16.6696 137.026 16.8371 136.393 17.172C135.759 17.507 135.256 18.0051 134.885 18.6669C134.513 19.3285 134.327 20.1378 134.327 21.0944C134.327 22.5134 134.712 23.6096 135.48 24.3829C136.249 25.1564 137.216 25.543 138.382 25.543L138.382 25.5429ZM56.1766 27.8629C54.994 27.8629 53.9296 27.6676 52.9836 27.2769C52.0376 26.8862 51.2942 26.3323 50.7535 25.6146C50.2127 24.8971 49.9425 24.06 49.9425 23.1034H53.0342C53.1018 23.8211 53.4017 24.4109 53.9337 24.8733C54.466 25.3358 55.2136 25.5669 56.1765 25.5669C57.1733 25.5669 57.9506 25.3397 58.5082 24.8852C59.0657 24.4307 59.3444 23.8447 59.3444 23.1273C59.3444 22.5691 59.1713 22.1148 58.825 21.764C58.4785 21.4133 58.0479 21.1422 57.5325 20.9509C57.0172 20.7593 56.3033 20.5522 55.3911 20.3289C54.2421 20.0418 53.3087 19.7508 52.5906 19.4558C51.8727 19.1608 51.2602 18.7024 50.7535 18.0808C50.2466 17.4588 49.9933 16.6298 49.9933 15.5933C49.9933 14.6368 50.2466 13.7994 50.7535 13.082C51.2602 12.3645 51.9698 11.8144 52.8822 11.4319C53.7946 11.0491 54.8505 10.8578 56.05 10.8578C57.7565 10.8578 59.1544 11.2605 60.2442 12.0657C61.334 12.8706 61.9378 13.9748 62.0561 15.378H58.8631C58.8123 14.7722 58.5083 14.254 57.9507 13.8235C57.3932 13.3928 56.6582 13.1777 55.7458 13.1777C54.918 13.1777 54.2421 13.377 53.7185 13.7757C53.1946 14.1743 52.9328 14.7484 52.9328 15.4976C52.9328 16.0079 53.0977 16.4264 53.427 16.7534C53.7564 17.0802 54.1746 17.3394 54.6814 17.5306C55.1883 17.7219 55.8811 17.9293 56.7596 18.1525C57.9254 18.4554 58.8756 18.7583 59.6106 19.0613C60.3455 19.3643 60.9707 19.8309 61.4858 20.4604C62.0011 21.0903 62.2587 21.9313 62.2587 22.9836C62.2587 23.8289 62.0181 24.6261 61.5366 25.3754C61.0551 26.1248 60.354 26.7266 59.4332 27.1811C58.5124 27.6356 57.4271 27.8628 56.1766 27.8628V27.8629ZM105.91 20.7834C105.91 21.2776 105.876 21.7242 105.809 22.1229H95.1396C95.2242 23.1752 95.638 24.0202 96.3814 24.658C97.1247 25.2958 98.0371 25.6146 99.1186 25.6146C100.673 25.6146 101.771 25.0008 102.413 23.7731H105.53C105.108 24.985 104.343 25.9775 103.237 26.7509C102.13 27.5241 100.757 27.9108 99.1186 27.9108C97.7837 27.9108 96.5886 27.6278 95.5326 27.0617C94.4767 26.4956 93.6488 25.6985 93.0492 24.67C92.4493 23.6417 92.1494 22.4496 92.1494 21.0944C92.1494 19.7391 92.4409 18.5473 93.0237 17.5188C93.6068 16.4903 94.4261 15.6971 95.482 15.139C96.5379 14.581 97.7502 14.3019 99.1187 14.3019C100.436 14.3019 101.611 14.5731 102.641 15.1151C103.672 15.6572 104.474 16.4186 105.049 17.3992C105.623 18.3798 105.91 19.5079 105.91 20.7834H105.91ZM102.894 19.9223C102.877 18.9179 102.497 18.1126 101.754 17.5067C101.011 16.9007 100.09 16.5978 98.9917 16.5978C97.9948 16.5978 97.1417 16.8968 96.432 17.4949C95.7226 18.0927 95.3001 18.902 95.165 19.9223H102.894ZM89.9403 16.7415H87.3553V27.6954H84.4409V16.7415H82.7937V14.5173H84.4409V13.5845C84.4409 12.0696 84.8676 10.9655 85.7208 10.2719C86.5741 9.57833 87.9128 9.23144 89.7376 9.23144V11.5036C88.8591 11.5036 88.2425 11.6591 87.8876 11.9699C87.5327 12.2808 87.3553 12.8191 87.3553 13.5845V14.5173H89.9403V16.7415ZM65.3292 21.0465C65.3292 19.7232 65.6207 18.5513 66.2035 17.5307C66.7865 16.5104 67.5803 15.7171 68.5858 15.151C69.591 14.5851 70.7019 14.302 71.9182 14.302C73.0164 14.302 73.9753 14.5053 74.7946 14.9118C75.6139 15.3184 76.2688 15.8248 76.7587 16.4305V14.5174H79.6731V27.6956H76.7587V25.7343C76.2688 26.3563 75.6013 26.8745 74.7565 27.289C73.9119 27.7035 72.9489 27.9108 71.8676 27.9108C70.668 27.9108 69.57 27.6198 68.5729 27.0378C67.5761 26.4559 66.7865 25.6426 66.2035 24.5981C65.6207 23.5537 65.3292 22.37 65.3292 21.0465ZM76.7587 21.0944C76.7587 20.1856 76.56 19.3963 76.1631 18.7267C75.7663 18.0569 75.2466 17.5466 74.6046 17.1958C73.9624 16.845 73.2698 16.6696 72.5264 16.6696C71.783 16.6696 71.0904 16.841 70.4485 17.184C69.8063 17.5268 69.2869 18.0291 68.89 18.6907C68.4927 19.3524 68.2944 20.1378 68.2944 21.0465C68.2944 21.9553 68.4929 22.7525 68.89 23.4382C69.2869 24.1239 69.8106 24.6461 70.461 25.0048C71.1114 25.3635 71.8001 25.5429 72.5264 25.5429C73.2698 25.5429 73.9624 25.3675 74.6046 25.0167C75.2465 24.666 75.7661 24.1517 76.1631 23.4742C76.5601 22.7964 76.7587 22.0033 76.7587 21.0944ZM19.6434 9.9496L10.6653 14.1861V23.1008L19.6434 27.3374V9.94948V9.9496ZM29.8449 14.1861L20.8669 9.9496V27.3375L29.8449 23.1009V14.1862V14.1861ZM9.44159 14.1861L0.463532 9.94972L0.463036 18.2865L9.44159 22.5232V14.1861ZM10.6653 24.3918V32.1512L18.8871 28.2716L10.6653 24.3917V24.3918ZM31.0687 14.1861V22.5232L40.0472 18.2865L40.0467 9.94972L31.0687 14.1861ZM29.8449 24.3918L21.6232 28.2717L29.8449 32.1513V24.392V24.3918ZM40.0472 0.321289L21.6232 9.01517L30.4568 13.1836L40.0468 8.65843L40.0473 0.321289L40.0472 0.321289Z" fill="white"/>
</svg>
