<svg width="18" height="20" viewBox="0 0 18 20" fill="none" xmlns="http://www.w3.org/2000/svg">
<path fill-rule="evenodd" clip-rule="evenodd" d="M4.97334 2.64052C6.04125 1.5726 7.48966 0.972656 8.99992 0.972656C10.5102 0.972656 11.9586 1.5726 13.0265 2.64052C14.0944 3.70844 14.6944 5.15684 14.6944 6.6671C14.6944 9.48145 15.2965 11.2398 15.8596 12.2721C16.1421 12.79 16.4185 13.1322 16.6134 13.3379C16.7111 13.441 16.7887 13.5103 16.8371 13.5506C16.8613 13.5708 16.8781 13.5837 16.8865 13.5899C16.8903 13.5927 16.8926 13.5944 16.8926 13.5944L16.8906 13.593L16.8883 13.5914L16.8865 13.5899C16.8865 13.5899 16.8851 13.5893 16.4999 14.1671L16.8851 13.5893C17.1397 13.759 17.2532 14.0755 17.1646 14.3683C17.0759 14.6612 16.8059 14.8615 16.4999 14.8615H1.49992C1.1939 14.8615 0.923951 14.6612 0.835271 14.3683C0.746592 14.0755 0.860087 13.759 1.11471 13.5893L1.49992 14.1671C1.11471 13.5893 1.11383 13.5899 1.11383 13.5899L1.113 13.5904L1.11151 13.5914L1.10921 13.593L1.10721 13.5944C1.10721 13.5944 1.10963 13.593 1.11383 13.5899C1.12223 13.5836 1.13858 13.5708 1.16277 13.5506C1.21112 13.5103 1.28877 13.441 1.38641 13.3379C1.58133 13.1322 1.85777 12.79 2.14027 12.2721C2.70334 11.2398 3.30547 9.48145 3.30547 6.6671C3.30547 5.15684 3.90542 3.70844 4.97334 2.64052ZM3.03851 13.4727C3.14447 13.3119 3.25231 13.1338 3.35957 12.9371C4.04649 11.6778 4.69436 9.68609 4.69436 6.6671C4.69436 5.5252 5.14798 4.43006 5.95543 3.62261C6.76288 2.81516 7.85801 2.36155 8.99992 2.36155C10.1418 2.36155 11.237 2.81516 12.0444 3.62261C12.8519 4.43006 13.3055 5.5252 13.3055 6.6671C13.3055 9.68609 13.9533 11.6778 14.6403 12.9371C14.7475 13.1338 14.8554 13.3119 14.9613 13.4727H3.03851Z" fill="white"/>
<path fill-rule="evenodd" clip-rule="evenodd" d="M7.20988 16.8997C7.54163 16.7073 7.96658 16.8202 8.15902 17.152C8.24449 17.2993 8.36716 17.4216 8.51475 17.5066C8.66234 17.5916 8.82967 17.6364 8.99999 17.6364C9.17032 17.6364 9.33765 17.5916 9.48524 17.5066C9.63283 17.4216 9.7555 17.2993 9.84097 17.152C10.0334 16.8202 10.4584 16.7073 10.7901 16.8997C11.1219 17.0922 11.2348 17.5171 11.0424 17.8489C10.8348 18.2067 10.5369 18.5037 10.1785 18.7101C9.82002 18.9166 9.41364 19.0253 8.99999 19.0253C8.58635 19.0253 8.17997 18.9166 7.82153 18.7101C7.4631 18.5037 7.16519 18.2067 6.95763 17.8489C6.76519 17.5171 6.87812 17.0922 7.20988 16.8997Z" fill="white"/>
</svg>
