<svg width="21" height="24" viewBox="0 0 21 24" fill="none" xmlns="http://www.w3.org/2000/svg">
<path fill-rule="evenodd" clip-rule="evenodd" d="M10.2238 0C10.2688 0 10.3138 0 10.3588 0C12.9458 1.68964 12.7747 6.13882 14.6804 8.50821C15.3512 7.4173 13.0508 2.89009 15.0856 2.56597C15.8299 2.44742 16.3596 3.58335 16.4361 3.78143C17.1189 5.51008 17.5465 8.18409 18.0567 9.72517C18.957 12.4457 20.6617 15.0687 20.4876 18.0968C20.273 21.8077 17.3334 22.7786 14.2738 23.769C13.9587 23.769 13.6435 23.769 13.3284 23.769C9.88012 22.9317 6.35979 20.9839 3.2011 19.5824C2.46733 19.2568 0.485079 18.8066 0.500085 17.5566C0.530096 15.1092 3.86435 16.8799 5.09332 17.285C6.18123 17.6452 7.35617 18.0113 8.33454 18.3669C10.6619 19.2102 12.6232 20.3162 14.8155 20.3927C14.6654 19.0122 12.8527 19.2958 12.3846 18.2334C14.0277 18.3909 15.6813 19.827 17.2464 19.1787C16.8503 17.4591 14.2453 17.9483 13.1949 16.8829C14.0847 16.6563 18.2068 18.478 18.3268 17.153C18.4484 15.8115 13.4875 16.2046 13.1949 15.2623C14.5109 15.1542 17.0723 16.0365 17.5165 14.7221C16.1 13.4826 12.4161 14.509 10.899 13.37C11.2741 11.964 13.8551 12.1261 13.4665 10.3989C10.8825 10.5655 8.96928 12.5612 6.71393 13.5051C6.04468 12.5267 5.23137 11.4118 4.28151 9.99377C3.34366 8.59374 0.641138 4.95787 3.47121 4.99688C4.71067 5.01489 5.52248 6.93862 6.17222 7.83446C7.08607 9.09193 7.75982 10.1078 8.73819 10.9391C8.26101 9.45957 7.61277 8.00102 6.71243 6.21384C5.98015 4.75829 3.08556 0.430662 6.03567 0.540204C7.30215 0.586721 8.34654 3.40628 8.87324 4.45818C9.75558 6.21084 10.1622 7.6754 11.3042 8.77831C11.3792 6.3744 7.27064 1.08041 10.2238 0Z" fill="#2066DA"/>
</svg>
