<svg width="20" height="20" viewBox="0 0 20 20" fill="none" xmlns="http://www.w3.org/2000/svg">
<path fill-rule="evenodd" clip-rule="evenodd" d="M3.88887 0C2.20133 0 0.833313 1.34315 0.833313 3V17C0.833313 18.6569 2.20133 20 3.88887 20H16.1111C17.7986 20 19.1666 18.6569 19.1666 17V5.74264C19.1666 4.94699 18.8447 4.18393 18.2717 3.62132L15.4783 0.87868C14.9052 0.316071 14.128 0 13.3177 0H3.88887ZM13.0555 2.2071V4C13.0555 5.10457 13.9675 6 15.0926 6H16.9187C17.3724 6 17.5996 5.46143 17.2788 5.14644L13.9249 1.85355C13.6041 1.53857 13.0555 1.76165 13.0555 2.2071ZM4.90739 9C4.90739 8.44771 5.36339 8 5.92591 8H14.0741C14.6366 8 15.0926 8.44771 15.0926 9C15.0926 9.55229 14.6366 10 14.0741 10H5.92591C5.36339 10 4.90739 9.55229 4.90739 9ZM5.92591 12C5.36339 12 4.90739 12.4477 4.90739 13C4.90739 13.5523 5.36339 14 5.92591 14H9.99998C10.5625 14 11.0185 13.5523 11.0185 13C11.0185 12.4477 10.5625 12 9.99998 12H5.92591Z" fill="white"/>
</svg>
