<svg width="25" height="24" viewBox="0 0 25 24" fill="none" xmlns="http://www.w3.org/2000/svg">
<path fill-rule="evenodd" clip-rule="evenodd" d="M18.8612 15.4764L23.9232 20.6004C24.6993 21.3861 24.6917 22.6521 23.9062 23.4284C23.1146 24.1903 21.8602 24.1832 21.0772 23.4124L16.0482 18.3204C11.7851 21.1705 6.05635 20.3299 2.79175 16.3752C-0.472848 12.4205 -0.212887 6.63622 3.39331 2.99028C6.9995 -0.655652 12.7805 -0.97899 16.7708 2.24207C20.7611 5.46313 21.6644 11.1823 18.8612 15.4764ZM18.7502 10.0054C18.7502 5.44906 15.0566 1.75541 10.5002 1.75541C5.94614 1.76092 2.25571 5.45134 2.2502 10.0054C2.2502 14.5618 5.94385 18.2554 10.5002 18.2554C15.0566 18.2554 18.7502 14.5618 18.7502 10.0054Z" fill="#2066DA"/>
<path fill-rule="evenodd" clip-rule="evenodd" d="M16.926 11.0769C16.926 12.5058 15.9875 13.7649 14.6182 14.1731C14.3897 14.2413 14.2333 14.4516 14.2337 14.69V15.3846C14.2339 16.1524 13.6936 16.8141 12.9414 16.9677C12.8622 16.9835 12.7802 16.963 12.7177 16.9119C12.6551 16.8609 12.6187 16.7846 12.6183 16.7038V14.8462C12.6183 14.5488 12.3773 14.3077 12.0799 14.3077C11.7825 14.3077 11.5414 14.5488 11.5414 14.8462V16.7308C11.5414 16.8795 11.4209 17 11.2722 17H9.65679C9.5081 17 9.38756 16.8795 9.38756 16.7308V14.8462C9.38756 14.5488 9.14649 14.3077 8.8491 14.3077C8.55172 14.3077 8.31064 14.5488 8.31064 14.8462V16.7038C8.31026 16.7846 8.27383 16.8609 8.21131 16.9119C8.14879 16.963 8.06673 16.9835 7.98756 16.9677C7.23533 16.8141 6.6951 16.1524 6.69526 15.3846V14.69C6.69568 14.4516 6.53926 14.2413 6.31079 14.1731C4.9415 13.7649 4.00294 12.5058 4.00295 11.0769V9.46154C4.00295 5.89293 6.89588 3 10.4645 3C14.0331 3 16.926 5.89293 16.926 9.46154V11.0769ZM7.23369 11.6155C8.12584 11.6155 8.84907 10.8923 8.84907 10.0002C8.84907 9.108 8.12584 8.38477 7.23369 8.38477C6.34154 8.38477 5.6183 9.108 5.6183 10.0002C5.6183 10.8923 6.34154 11.6155 7.23369 11.6155ZM15.3106 10.0002C15.3106 10.8923 14.5874 11.6155 13.6952 11.6155C12.8031 11.6155 12.0799 10.8923 12.0799 10.0002C12.0799 9.108 12.8031 8.38477 13.6952 8.38477C14.5874 8.38477 15.3106 9.108 15.3106 10.0002Z" fill="#2066DA"/>
</svg>
