<svg width="25" height="24" viewBox="0 0 25 24" fill="none" xmlns="http://www.w3.org/2000/svg">
<path fill-rule="evenodd" clip-rule="evenodd" d="M18.861 15.4764L23.923 20.6004C24.6991 21.3861 24.6915 22.6521 23.906 23.4284C23.1144 24.1903 21.86 24.1832 21.077 23.4124L16.048 18.3204C11.7849 21.1705 6.05616 20.3299 2.79157 16.3752C-0.473031 12.4205 -0.21307 6.63622 3.39312 2.99028C6.99932 -0.655652 12.7804 -0.97899 16.7706 2.24207C20.7609 5.46313 21.6643 11.1823 18.861 15.4764ZM18.75 10.0054C18.75 5.44906 15.0564 1.75541 10.5 1.75541C5.94596 1.76092 2.25553 5.45134 2.25002 10.0054C2.25002 14.5618 5.94367 18.2554 10.5 18.2554C15.0564 18.2554 18.75 14.5618 18.75 10.0054Z" fill="#000C40"/>
<path fill-rule="evenodd" clip-rule="evenodd" d="M16.9258 11.0769C16.9258 12.5058 15.9873 13.7649 14.618 14.1731C14.3895 14.2413 14.2331 14.4516 14.2335 14.69V15.3846C14.2337 16.1524 13.6935 16.8141 12.9412 16.9677C12.8621 16.9835 12.78 16.963 12.7175 16.9119C12.655 16.8609 12.6185 16.7846 12.6181 16.7038V14.8462C12.6181 14.5488 12.3771 14.3077 12.0797 14.3077C11.7823 14.3077 11.5412 14.5488 11.5412 14.8462V16.7308C11.5412 16.8795 11.4207 17 11.272 17H9.65661C9.50792 17 9.38738 16.8795 9.38738 16.7308V14.8462C9.38738 14.5488 9.1463 14.3077 8.84892 14.3077C8.55153 14.3077 8.31046 14.5488 8.31046 14.8462V16.7038C8.31008 16.7846 8.27365 16.8609 8.21113 16.9119C8.14861 16.963 8.06655 16.9835 7.98738 16.9677C7.23515 16.8141 6.69492 16.1524 6.69507 15.3846V14.69C6.69549 14.4516 6.53907 14.2413 6.31061 14.1731C4.94131 13.7649 4.00276 12.5058 4.00276 11.0769V9.46154C4.00276 5.89293 6.89569 3 10.4643 3C14.0329 3 16.9258 5.89293 16.9258 9.46154V11.0769ZM7.23351 11.6155C8.12566 11.6155 8.84889 10.8923 8.84889 10.0002C8.84889 9.108 8.12566 8.38477 7.23351 8.38477C6.34135 8.38477 5.61812 9.108 5.61812 10.0002C5.61812 10.8923 6.34135 11.6155 7.23351 11.6155ZM15.3104 10.0002C15.3104 10.8923 14.5872 11.6155 13.6951 11.6155C12.8029 11.6155 12.0797 10.8923 12.0797 10.0002C12.0797 9.108 12.8029 8.38477 13.6951 8.38477C14.5872 8.38477 15.3104 9.108 15.3104 10.0002Z" fill="#000C40"/>
</svg>
