<svg width="46" height="24" viewBox="0 0 46 24" fill="none" xmlns="http://www.w3.org/2000/svg">
<rect width="46" height="24" rx="12" fill="#F4F7FD"/>
<path d="M11.1326 16V7.27273H14.4735C15.1042 7.27273 15.6283 7.37216 16.0459 7.57102C16.4664 7.76705 16.7803 8.03551 16.9877 8.37642C17.1979 8.71733 17.303 9.10369 17.303 9.53551C17.303 9.89062 17.2349 10.1946 17.0985 10.4474C16.9621 10.6974 16.7789 10.9006 16.5488 11.0568C16.3187 11.2131 16.0616 11.3253 15.7775 11.3935V11.4787C16.0871 11.4957 16.384 11.5909 16.6681 11.7642C16.955 11.9347 17.1894 12.1761 17.3712 12.4886C17.553 12.8011 17.644 13.179 17.644 13.6222C17.644 14.0739 17.5346 14.4801 17.3158 14.8409C17.0971 15.1989 16.7675 15.4815 16.3272 15.6889C15.8869 15.8963 15.3329 16 14.6653 16H11.1326ZM12.7136 14.679H14.4138C14.9877 14.679 15.4011 14.5696 15.6539 14.3509C15.9096 14.1293 16.0374 13.8452 16.0374 13.4986C16.0374 13.2401 15.9735 13.0071 15.8457 12.7997C15.7178 12.5895 15.536 12.4247 15.3002 12.3054C15.0644 12.1832 14.7832 12.1222 14.4565 12.1222H12.7136V14.679ZM12.7136 10.9844H14.2775C14.5502 10.9844 14.7959 10.9347 15.0147 10.8352C15.2334 10.733 15.4053 10.5895 15.5303 10.4048C15.6582 10.2173 15.7221 9.99574 15.7221 9.74006C15.7221 9.40199 15.6028 9.12358 15.3641 8.90483C15.1283 8.68608 14.7775 8.5767 14.3116 8.5767H12.7136V10.9844ZM20.3737 7.27273V16H18.8311V7.27273H20.3737ZM24.6951 16.1278C24.0559 16.1278 23.502 15.9872 23.0332 15.706C22.5645 15.4247 22.2008 15.0312 21.9423 14.5256C21.6866 14.0199 21.5588 13.429 21.5588 12.7528C21.5588 12.0767 21.6866 11.4844 21.9423 10.9759C22.2008 10.4673 22.5645 10.0724 23.0332 9.79119C23.502 9.50994 24.0559 9.36932 24.6951 9.36932C25.3344 9.36932 25.8883 9.50994 26.3571 9.79119C26.8258 10.0724 27.188 10.4673 27.4437 10.9759C27.7023 11.4844 27.8315 12.0767 27.8315 12.7528C27.8315 13.429 27.7023 14.0199 27.4437 14.5256C27.188 15.0312 26.8258 15.4247 26.3571 15.706C25.8883 15.9872 25.3344 16.1278 24.6951 16.1278ZM24.7037 14.892C25.0503 14.892 25.34 14.7969 25.573 14.6065C25.8059 14.4134 25.9792 14.1548 26.0929 13.831C26.2094 13.5071 26.2676 13.1463 26.2676 12.7486C26.2676 12.348 26.2094 11.9858 26.0929 11.6619C25.9792 11.3352 25.8059 11.0753 25.573 10.8821C25.34 10.6889 25.0503 10.5923 24.7037 10.5923C24.3486 10.5923 24.0531 10.6889 23.8173 10.8821C23.5844 11.0753 23.4096 11.3352 23.2932 11.6619C23.1795 11.9858 23.1227 12.348 23.1227 12.7486C23.1227 13.1463 23.1795 13.5071 23.2932 13.831C23.4096 14.1548 23.5844 14.4134 23.8173 14.6065C24.0531 14.7969 24.3486 14.892 24.7037 14.892ZM31.8674 18.5909C31.3134 18.5909 30.8376 18.5156 30.4399 18.3651C30.0421 18.2173 29.7225 18.0185 29.481 17.7685C29.2396 17.5185 29.072 17.2415 28.9782 16.9375L30.3674 16.6009C30.4299 16.7287 30.5208 16.8551 30.6401 16.9801C30.7595 17.108 30.92 17.2131 31.1217 17.2955C31.3262 17.3807 31.5833 17.4233 31.893 17.4233C32.3305 17.4233 32.6927 17.3168 32.9796 17.1037C33.2666 16.8935 33.41 16.5469 33.41 16.0639V14.8239H33.3333C33.2538 14.983 33.1373 15.1463 32.9839 15.3139C32.8333 15.4815 32.633 15.6222 32.383 15.7358C32.1359 15.8494 31.8248 15.9062 31.4498 15.9062C30.947 15.9062 30.491 15.7884 30.0819 15.5526C29.6756 15.3139 29.3518 14.9588 29.1103 14.4872C28.8717 14.0128 28.7524 13.419 28.7524 12.706C28.7524 11.9872 28.8717 11.3807 29.1103 10.8864C29.3518 10.3892 29.6771 10.0128 30.0862 9.7571C30.4952 9.49858 30.9512 9.36932 31.4541 9.36932C31.8376 9.36932 32.1529 9.43466 32.4001 9.56534C32.6501 9.69318 32.8489 9.84801 32.9967 10.0298C33.1444 10.2088 33.2566 10.3778 33.3333 10.5369H33.4185V9.45455H34.9399V16.1065C34.9399 16.6662 34.8063 17.1293 34.5393 17.4957C34.2722 17.8622 33.9072 18.1364 33.4441 18.3182C32.981 18.5 32.4555 18.5909 31.8674 18.5909ZM31.8802 14.696C32.2069 14.696 32.4853 14.6165 32.7154 14.4574C32.9455 14.2983 33.1202 14.0696 33.2396 13.7713C33.3589 13.473 33.4185 13.1151 33.4185 12.6974C33.4185 12.2855 33.3589 11.9247 33.2396 11.6151C33.1231 11.3054 32.9498 11.0653 32.7197 10.8949C32.4924 10.7216 32.2126 10.6349 31.8802 10.6349C31.5364 10.6349 31.2495 10.7244 31.0194 10.9034C30.7893 11.0824 30.616 11.3281 30.4995 11.6406C30.383 11.9503 30.3248 12.3026 30.3248 12.6974C30.3248 13.098 30.383 13.4489 30.4995 13.75C30.6188 14.0483 30.7935 14.2812 31.0237 14.4489C31.2566 14.6136 31.5421 14.696 31.8802 14.696Z" fill="#2066DA"/>
</svg>
