<svg width="49" height="48" viewBox="0 0 49 48" fill="none" xmlns="http://www.w3.org/2000/svg">
<rect x="0.599976" width="48" height="48" rx="24" fill="#EBECF0"/>
<path d="M32.6 14C32.6 12.8954 31.7045 12 30.6 12H14.6C13.4954 12 12.6 12.8954 12.6 14V15C12.6 15.1381 12.7119 15.25 12.85 15.25H32.35C32.488 15.25 32.6 15.1381 32.6 15V14Z" fill="#000C40"/>
<path fill-rule="evenodd" clip-rule="evenodd" d="M30.1 21.5C30.838 21.5006 31.5723 21.6035 32.282 21.806C32.3572 21.8273 32.4381 21.8121 32.5006 21.765C32.563 21.7179 32.5998 21.6442 32.6 21.566V17C32.6 16.8619 32.488 16.75 32.35 16.75H12.85C12.7119 16.75 12.6 16.8619 12.6 17V25C12.6 26.1046 13.4954 27 14.6 27H22.325C22.4311 27.0001 22.5257 26.9331 22.561 26.833C23.6908 23.638 26.7111 21.5014 30.1 21.5ZM15.6 19.25H22.1C22.5142 19.25 22.85 19.5858 22.85 20C22.85 20.4142 22.5142 20.75 22.1 20.75H15.6C15.1858 20.75 14.85 20.4142 14.85 20C14.85 19.5858 15.1858 19.25 15.6 19.25ZM15.6 24.25H18.6C19.0142 24.25 19.35 23.9142 19.35 23.5C19.35 23.0858 19.0142 22.75 18.6 22.75H15.6C15.1858 22.75 14.85 23.0858 14.85 23.5C14.85 23.9142 15.1858 24.25 15.6 24.25Z" fill="#000C40"/>
<path fill-rule="evenodd" clip-rule="evenodd" d="M23.6 29.5C23.6 25.9101 26.5101 23 30.1 23C31.8239 23 33.4772 23.6848 34.6962 24.9038C35.9152 26.1228 36.6 27.7761 36.6 29.5C36.6 33.0899 33.6898 36 30.1 36C26.5101 36 23.6 33.0899 23.6 29.5ZM31.726 29.309L29.016 28.294C28.8944 28.1453 28.8349 27.9555 28.85 27.764C28.85 27.485 29.194 27.25 29.6 27.25H32.1C32.5142 27.25 32.85 26.9142 32.85 26.5C32.85 26.0858 32.5142 25.75 32.1 25.75H31.1C30.9619 25.75 30.85 25.6381 30.85 25.5V25C30.85 24.5858 30.5142 24.25 30.1 24.25C29.6858 24.25 29.35 24.5858 29.35 25V25.544C29.3499 25.6651 29.2631 25.7687 29.144 25.79C28.1426 25.9186 27.3825 26.7549 27.35 27.764C27.2955 28.5757 27.7406 29.3388 28.474 29.691L31.184 30.706C31.3056 30.8547 31.365 31.0445 31.35 31.236C31.35 31.577 31.1 31.75 30.6 31.75H28.1C27.6858 31.75 27.35 32.0858 27.35 32.5C27.35 32.9142 27.6858 33.25 28.1 33.25H29.1C29.238 33.25 29.35 33.3619 29.35 33.5V34C29.35 34.4142 29.6858 34.75 30.1 34.75C30.5142 34.75 30.85 34.4142 30.85 34V33.462C30.8495 33.3388 30.9392 33.2338 31.061 33.215C31.9575 33.0891 32.6695 32.3976 32.8215 31.5051C32.9734 30.6126 32.5304 29.7244 31.726 29.309Z" fill="#000C40"/>
</svg>
