<svg width="49" height="48" viewBox="0 0 49 48" fill="none" xmlns="http://www.w3.org/2000/svg">
<rect x="0.399963" width="48" height="48" rx="24" fill="#EBECF0"/>
<g clip-path="url(#clip0_1370_21617)">
<path fill-rule="evenodd" clip-rule="evenodd" d="M16.3304 14.5014C14.9077 14.9756 13.9481 16.307 13.9481 17.8066V24.0054C13.9481 30.395 20.4053 34.2735 23.1689 35.6408C23.95 36.0273 24.85 36.0273 25.6311 35.6408C28.3947 34.2735 34.8519 30.395 34.8519 24.0054V17.8066C34.8519 16.307 33.8923 14.9756 32.4696 14.5014L25.5017 12.1788C24.7866 11.9404 24.0134 11.9404 23.2983 12.1788L16.3304 14.5014ZM28.7051 22.5041C29.1587 22.0506 29.1587 21.3153 28.7051 20.8618C28.2516 20.4083 27.5163 20.4083 27.0628 20.8618L23.2387 24.6859L21.7372 23.1844C21.2837 22.7309 20.5484 22.7309 20.0949 23.1844C19.6413 23.6379 19.6413 24.3732 20.0949 24.8268L21.7606 26.4925C22.5769 27.3088 23.9005 27.3088 24.7168 26.4925L28.7051 22.5041Z" fill="#000C40"/>
</g>
<defs>
<clipPath id="clip0_1370_21617">
<rect width="24" height="24" fill="white" transform="translate(12.4 12)"/>
</clipPath>
</defs>
</svg>
