<svg width="28" height="28" viewBox="0 0 28 28" fill="none" xmlns="http://www.w3.org/2000/svg">
<rect width="28" height="28" rx="6" fill="#EBECF0"/>
<path fill-rule="evenodd" clip-rule="evenodd" d="M10.7999 4.83399H17.1975C17.6368 4.83397 18.0157 4.83396 18.3279 4.85946C18.6573 4.88638 18.985 4.94581 19.3003 5.10647C19.7707 5.34615 20.1532 5.7286 20.3929 6.19901C20.5535 6.51433 20.613 6.84201 20.6399 7.17146C20.6654 7.48361 20.6654 7.86259 20.6654 8.30188V19.6994C20.6654 20.1387 20.6654 20.5177 20.6399 20.8298C20.613 21.1593 20.5535 21.487 20.3929 21.8023C20.1532 22.2727 19.7707 22.6552 19.3003 22.8948C18.985 23.0555 18.6573 23.1149 18.3279 23.1418C18.0157 23.1673 17.6368 23.1673 17.1975 23.1673H10.7999C10.3606 23.1673 9.98165 23.1673 9.66951 23.1418C9.34005 23.1149 9.01237 23.0555 8.69706 22.8948C8.22665 22.6552 7.8442 22.2727 7.60452 21.8023C7.44385 21.487 7.38442 21.1593 7.35751 20.8298C7.332 20.5177 7.33202 20.1387 7.33203 19.6994V8.30187C7.33202 7.86258 7.332 7.48361 7.35751 7.17146C7.38442 6.84201 7.44385 6.51433 7.60452 6.19901C7.8442 5.7286 8.22665 5.34615 8.69706 5.10647C9.01237 4.94581 9.34005 4.88638 9.66951 4.85946C9.98165 4.83396 10.3606 4.83397 10.7999 4.83399ZM15.6654 6.50065H12.332V6.83399C12.332 7.08109 12.3327 7.2163 12.3406 7.31346C12.3409 7.31733 12.3413 7.32099 12.3416 7.32445C12.345 7.32476 12.3487 7.32508 12.3526 7.3254C12.4497 7.33334 12.5849 7.33399 12.832 7.33399H15.1654C15.4125 7.33399 15.5477 7.33334 15.6448 7.3254C15.6487 7.32508 15.6524 7.32476 15.6558 7.32445C15.6561 7.32099 15.6565 7.31733 15.6568 7.31346C15.6647 7.2163 15.6654 7.08109 15.6654 6.83399V6.50065ZM10.6654 6.50071V6.83399C10.6654 6.84285 10.6654 6.85172 10.6654 6.86057C10.6653 7.07089 10.6653 7.27571 10.6795 7.44918C10.6951 7.63967 10.7318 7.86445 10.847 8.09064C11.0068 8.40424 11.2618 8.65921 11.5754 8.819C11.8016 8.93424 12.0263 8.97097 12.2168 8.98653C12.3903 9.0007 12.5951 9.00068 12.8055 9.00065C12.8143 9.00065 12.8232 9.00065 12.832 9.00065L15.1919 9.00065C15.4023 9.00068 15.6071 9.0007 15.7806 8.98653C15.9711 8.97097 16.1958 8.93424 16.422 8.819C16.7356 8.65921 16.9906 8.40424 17.1504 8.09064C17.2656 7.86445 17.3023 7.63967 17.3179 7.44918C17.3321 7.27571 17.3321 7.07088 17.332 6.86055L17.332 6.50071C17.7196 6.50108 17.9845 6.50363 18.1922 6.52059C18.4186 6.53909 18.5025 6.57049 18.5437 6.59148C18.7005 6.67138 18.828 6.79886 18.9079 6.95566C18.9289 6.99686 18.9603 7.0808 18.9788 7.30718C18.998 7.5433 18.9987 7.85352 18.9987 8.33399V19.6673C18.9987 20.1478 18.998 20.458 18.9788 20.6941C18.9603 20.9205 18.9289 21.0044 18.9079 21.0456C18.828 21.2024 18.7005 21.3299 18.5437 21.4098C18.5025 21.4308 18.4186 21.4622 18.1922 21.4807C17.9561 21.5 17.6458 21.5007 17.1654 21.5007H10.832C10.3516 21.5007 10.0413 21.5 9.80523 21.4807C9.57884 21.4622 9.49491 21.4308 9.45371 21.4098C9.2969 21.3299 9.16942 21.2024 9.08953 21.0456C9.06853 21.0044 9.03714 20.9205 9.01864 20.6941C8.99935 20.458 8.9987 20.1478 8.9987 19.6673V8.33399C8.9987 7.85352 8.99935 7.5433 9.01864 7.30718C9.03714 7.0808 9.06853 6.99686 9.08953 6.95566C9.16942 6.79886 9.29691 6.67138 9.45371 6.59148C9.49491 6.57049 9.57884 6.53909 9.80523 6.52059C10.0129 6.50363 10.2778 6.50108 10.6654 6.50071Z" fill="#080808"/>
</svg>
