<svg width="41" height="41" viewBox="0 0 41 41" fill="none" xmlns="http://www.w3.org/2000/svg">
<rect x="0.5" y="0.5" width="40" height="40" rx="20" fill="white"/>
<path fill-rule="evenodd" clip-rule="evenodd" d="M10.5 20.5C10.5 14.9772 14.9772 10.5 20.5 10.5C23.1522 10.5 25.6957 11.5536 27.5711 13.4289C29.4464 15.3043 30.5 17.8478 30.5 20.5C30.5 26.0228 26.0228 30.5 20.5 30.5C14.9772 30.5 10.5 26.0228 10.5 20.5ZM21.5417 26.1958C21.5418 26.0923 21.6176 26.0044 21.72 25.9892C23.0685 25.7969 24.1189 24.7221 24.2792 23.3694C24.4395 22.0167 23.6696 20.7255 22.4033 20.2233L19.37 19.0092C18.9546 18.8441 18.7153 18.407 18.7998 17.9681C18.8843 17.5292 19.2689 17.2124 19.7158 17.2133H22.7058C23.2811 17.2133 23.7475 16.747 23.7475 16.1717C23.7475 15.5964 23.2811 15.13 22.7058 15.13H21.75C21.6349 15.13 21.5417 15.0367 21.5417 14.9217V14.3333C21.5417 13.758 21.0753 13.2917 20.5 13.2917C19.9247 13.2917 19.4583 13.758 19.4583 14.3333V14.9708C19.4582 15.0742 19.3823 15.1618 19.28 15.1767C17.9315 15.369 16.8811 16.4445 16.7208 17.7972C16.5605 19.1499 17.3304 20.4412 18.5967 20.9433L21.63 22.1575C22.0446 22.3234 22.2832 22.7601 22.1988 23.1986C22.1144 23.6371 21.7307 23.954 21.2842 23.9542H18.2942C17.7189 23.9542 17.2525 24.4205 17.2525 24.9958C17.2525 25.5711 17.7189 26.0375 18.2942 26.0375H19.25C19.3053 26.0373 19.3584 26.0592 19.3976 26.0983C19.4367 26.1374 19.4586 26.1905 19.4583 26.2458V26.8333C19.4583 27.4086 19.9247 27.875 20.5 27.875C21.0753 27.875 21.5417 27.4086 21.5417 26.8333V26.1958Z" fill="#000C40"/>
</svg>
