<svg width="41" height="41" viewBox="0 0 41 41" fill="none" xmlns="http://www.w3.org/2000/svg">
<rect x="0.25" y="0.5" width="40" height="40" rx="20" fill="white"/>
<path fill-rule="evenodd" clip-rule="evenodd" d="M20.8525 10.7445L30.0182 20.3337C30.2493 20.5749 30.3142 20.9308 30.1831 21.238C30.0521 21.5453 29.7504 21.7446 29.4165 21.7446H28.1664C27.9363 21.7446 27.7497 21.9313 27.7497 22.1615V29.2492C27.7497 29.94 27.19 30.5 26.4996 30.5H13.9987C13.3083 30.5 12.7486 29.94 12.7486 29.2492V22.1615C12.7486 21.9313 12.5621 21.7446 12.3319 21.7446H11.0818C10.7482 21.744 10.4472 21.5444 10.3166 21.2373C10.1859 20.9301 10.2509 20.5747 10.4818 20.3337L19.6475 10.7445C19.9831 10.4185 20.5169 10.4185 20.8525 10.7445ZM20.2491 17.999C17.4875 17.999 15.2487 20.2389 15.2487 23.002C15.2487 25.7652 17.4875 28.0051 20.2491 28.0051C23.0107 28.0051 25.2495 25.7652 25.2495 23.002C25.2463 20.2402 23.0094 18.0021 20.2491 17.999ZM21.0463 24.5974C21.0461 24.2746 21.2403 23.9835 21.5383 23.8599C21.8362 23.7363 22.1793 23.8044 22.4075 24.0326C22.6356 24.2607 22.7039 24.604 22.5805 24.9022C22.4571 25.2004 22.1663 25.3948 21.8437 25.3948C21.4036 25.3946 21.0468 25.0378 21.0463 24.5974ZM18.4309 25.4383L22.6843 21.1826C22.7944 21.0724 22.8374 20.9118 22.7971 20.7613C22.7568 20.6108 22.6393 20.4932 22.4888 20.4528C22.3384 20.4125 22.1778 20.4555 22.0677 20.5657L17.8144 24.8214C17.6441 24.9918 17.6441 25.268 17.8144 25.4383C17.9846 25.6087 18.2607 25.6087 18.4309 25.4383ZM19.4537 21.4067C19.4539 21.8472 19.0974 22.2045 18.6571 22.205C18.2169 22.2055 17.8595 21.8489 17.8588 21.4084C17.8581 20.9679 18.2143 20.6102 18.6545 20.6093C19.0947 20.6093 19.4517 20.9662 19.4519 21.4067H19.4537Z" fill="#000C40"/>
</svg>
