<svg width="50" height="50" viewBox="0 0 50 50" fill="none" xmlns="http://www.w3.org/2000/svg">
<rect width="48" height="48" rx="24" fill="#EBECF0"/>
<path d="M34.812 19.8837L31.78 16.8507C31.7301 16.8017 31.6915 16.7423 31.667 16.6767L30.127 12.6767C29.9468 12.2103 29.4514 11.9471 28.964 12.0587C27.4426 12.4029 26.0425 13.152 24.912 14.2267C23.8879 15.2475 23.2279 16.5768 23.034 18.0097C22.9757 18.4667 23.237 18.9044 23.667 19.0697L27.716 20.6277C27.7817 20.6525 27.8414 20.691 27.891 20.7407L30.922 23.7727C31.2033 24.0542 31.585 24.2124 31.983 24.2124C32.381 24.2124 32.7627 24.0542 33.044 23.7727L34.812 22.0047C35.3976 21.419 35.3976 20.4695 34.812 19.8837Z" fill="#000C40"/>
<path d="M17.654 29.9367C17.4433 30.1479 17.1573 30.2666 16.859 30.2666C16.5607 30.2666 16.2747 30.1479 16.064 29.9367L15.124 29.0067C14.9128 28.7961 14.7942 28.51 14.7942 28.2117C14.7942 27.9134 14.9128 27.6274 15.124 27.4167C15.3344 27.2021 15.6234 27.0828 15.924 27.0867C16.2217 27.0824 16.5079 27.2019 16.714 27.4167L17.654 28.3467C17.8652 28.5574 17.9838 28.8434 17.9838 29.1417C17.9838 29.44 17.8652 29.7261 17.654 29.9367Z" fill="#000C40"/>
<path d="M16.544 26.1767C16.1049 25.7377 16.1049 25.0258 16.544 24.5867C16.9831 24.1477 17.6949 24.1477 18.134 24.5867L19.774 26.2267C19.985 26.4355 20.1038 26.7199 20.104 27.0167C20.1039 27.3165 19.9852 27.6041 19.774 27.8167C19.3272 28.2366 18.6309 28.2366 18.184 27.8167L16.544 26.1767Z" fill="#000C40"/>
<path d="M21.894 25.6997C21.6833 25.9109 21.3973 26.0296 21.099 26.0296C20.8007 26.0296 20.5147 25.9109 20.304 25.6997L18.664 24.0597C18.4528 23.8491 18.3342 23.563 18.3342 23.2647C18.3342 22.9664 18.4528 22.6804 18.664 22.4697C18.8723 22.258 19.157 22.1391 19.454 22.1397C19.7539 22.139 20.0418 22.2578 20.254 22.4697L21.894 24.1097C22.1052 24.3204 22.2238 24.6064 22.2238 24.9047C22.2238 25.203 22.1052 25.4891 21.894 25.6997Z" fill="#000C40"/>
<path d="M23.984 23.1997C23.984 23.2387 23.984 23.2787 23.984 23.3177C23.9946 23.5258 23.8751 23.7187 23.684 23.8017C23.2575 23.9844 22.7633 23.8972 22.425 23.5797L21.495 22.6397C21.2802 22.4336 21.1606 22.1474 21.165 21.8497C21.1611 21.5492 21.2803 21.2601 21.495 21.0497C21.9419 20.6299 22.6382 20.6299 23.085 21.0497L23.976 21.9497C24.1074 22.0823 24.1541 22.277 24.097 22.4547C24.021 22.6957 23.9828 22.947 23.984 23.1997Z" fill="#000C40"/>
<path d="M25.769 26.7497C25.8628 26.6562 25.9157 26.5292 25.916 26.3967C25.9162 26.264 25.8637 26.1367 25.77 26.0427L24.714 24.9867C24.6272 24.8996 24.5476 24.8057 24.476 24.7057C24.3431 24.5216 24.1029 24.4502 23.891 24.5317C23.7354 24.5912 23.5727 24.6299 23.407 24.6467C23.2912 24.658 23.183 24.7093 23.101 24.7917L23.093 24.7997C23.0129 24.8807 22.9628 24.9865 22.951 25.0997C22.9105 25.5249 22.7244 25.9231 22.424 26.2267C22.1206 26.5235 21.7275 26.7112 21.306 26.7607C21.1925 26.7731 21.0866 26.8239 21.006 26.9047L20.977 26.9347C20.8979 27.0143 20.8479 27.1183 20.835 27.2297C20.7883 27.6519 20.5996 28.0457 20.3 28.3467C20.0013 28.6391 19.6148 28.8253 19.2 28.8767C19.0886 28.8904 18.9851 28.9411 18.906 29.0207L18.844 29.0827C18.7664 29.1616 18.7172 29.2639 18.704 29.3737C18.6086 30.2183 17.9474 30.8878 17.104 30.9937C16.9937 31.008 16.8913 31.0587 16.813 31.1377L12.894 35.0997C12.7558 35.2432 12.7129 35.4536 12.784 35.6397C12.8607 35.8264 13.0422 35.9487 13.244 35.9497L16.304 35.9697C16.4345 35.9705 16.5601 35.9203 16.654 35.8297L25.769 26.7497Z" fill="#000C40"/>
<path d="M29.313 34.5257L30.603 35.9657H21.76C21.6273 35.966 21.5 35.9135 21.406 35.8197L20.116 34.5297C20.022 34.4359 19.9691 34.3086 19.9691 34.1757C19.9691 34.0429 20.022 33.9155 20.116 33.8217L26.836 27.1027C27.2264 26.7122 27.2264 26.0792 26.836 25.6887L25.423 24.2757C24.8723 23.6847 24.8885 22.7637 25.4598 22.1925C26.031 21.6213 26.952 21.605 27.543 22.1557L29.663 24.2757C30.4144 25.026 30.8367 26.0444 30.8367 27.1062C30.8367 28.1681 30.4144 29.1864 29.663 29.9367L29.315 30.2847C28.144 31.4556 28.1431 33.3538 29.313 34.5257Z" fill="#000C40"/>
<rect x="27" y="27" width="22" height="22" rx="11" fill="#F63D68"/>
<path d="M33.7203 42.2837C33.7203 42.7571 34.104 43.1408 34.5774 43.1408C35.0508 43.1408 35.4346 42.7571 35.4346 42.2837V39.2109C35.4345 39.1189 35.4931 39.0371 35.5803 39.0077L35.6506 38.9837C36.3708 38.7363 37.1657 38.8447 37.7934 39.276C38.4061 39.6893 39.1286 39.9094 39.8677 39.9077C40.2974 39.9071 40.724 39.8353 41.1302 39.6951L41.9291 39.3274C42.157 39.2226 42.303 38.9946 42.3028 38.7437V34.0295C42.3029 33.8101 42.1911 33.6058 42.0063 33.4876C41.8214 33.3694 41.5891 33.3536 41.3899 33.4458L40.6545 33.7886C39.9343 34.0368 39.1391 33.9283 38.5117 33.4963C37.5494 32.8461 36.3391 32.6816 35.2383 33.0515L34.1514 33.42C33.8903 33.5082 33.7145 33.753 33.7143 34.0286L33.7203 42.2837Z" fill="white"/>
<rect x="27" y="27" width="22" height="22" rx="11" stroke="white" stroke-width="2"/>
</svg>
