<svg width="32" height="32" viewBox="0 0 32 32" fill="none" xmlns="http://www.w3.org/2000/svg">
<rect width="32" height="32" rx="16" fill="#EBECF0"/>
<path d="M23.3979 16.6204H22.0528C21.6814 16.6204 21.3803 16.9215 21.3803 17.2929V21.3282C21.3803 21.6997 21.0791 22.0008 20.7077 22.0008H18.0175C17.6461 22.0008 17.345 21.6997 17.345 21.3282V19.3106C17.345 18.5677 16.7428 17.9655 15.9999 17.9655C15.257 17.9655 14.6548 18.5677 14.6548 19.3106V21.3282C14.6548 21.6997 14.3537 22.0008 13.9822 22.0008H11.292C10.9206 22.0008 10.6195 21.6997 10.6195 21.3282V17.2929C10.6195 16.9215 10.3184 16.6204 9.94695 16.6204H8.60185C8.32406 16.6202 8.07496 16.4493 7.97488 16.1901C7.8748 15.931 7.94434 15.637 8.1499 15.4502L15.0946 9.13628C15.6063 8.66551 16.3934 8.66551 16.9051 9.13628L23.8499 15.4502C24.0554 15.637 24.125 15.931 24.0249 16.1901C23.9248 16.4493 23.6757 16.6202 23.3979 16.6204Z" fill="#080808"/>
</svg>
