<svg width="48" height="48" viewBox="0 0 48 48" fill="none" xmlns="http://www.w3.org/2000/svg">
<rect width="48" height="48" rx="24" fill="#EBECF0"/>
<path d="M25 31.6H23C22.7239 31.6 22.5 31.8239 22.5 32.1V34.5C22.5 35.3284 23.1716 36 24 36C24.8284 36 25.5 35.3284 25.5 34.5V32.1C25.5 31.8239 25.2761 31.6 25 31.6Z" fill="#000C40"/>
<path d="M31.3 28.471L28.4 24.98C28.338 24.9059 28.3247 24.8024 28.366 24.715C28.4076 24.6273 28.4959 24.5713 28.593 24.571H29.062C29.4302 24.5706 29.7684 24.3678 29.9423 24.0433C30.1162 23.7187 30.0976 23.3248 29.894 23.018L27.163 18.918C27.1171 18.8495 27.108 18.7628 27.1386 18.6862C27.1692 18.6096 27.2355 18.5531 27.316 18.535C27.5897 18.4753 27.8209 18.2932 27.943 18.041C28.1189 17.7183 28.1024 17.3248 27.9 17.018L24.832 12.418C24.6363 12.155 24.3278 12 24 12C23.6722 12 23.3637 12.155 23.168 12.418L20.1 17.018C19.8949 17.3242 19.8761 17.7187 20.051 18.043C20.1731 18.2952 20.4043 18.4773 20.678 18.537C20.7584 18.5551 20.8248 18.6116 20.8554 18.6882C20.886 18.7648 20.8769 18.8515 20.831 18.92L18.1 23.018C17.8964 23.3248 17.8778 23.7187 18.0517 24.0433C18.2256 24.3678 18.5638 24.5706 18.932 24.571H19.4C19.4971 24.5713 19.5854 24.6273 19.627 24.715C19.6683 24.8024 19.655 24.9059 19.593 24.98L16.7 28.471C16.4727 28.774 16.4362 29.1794 16.6056 29.5182C16.775 29.857 17.1212 30.071 17.5 30.071H30.5C30.8788 30.071 31.225 29.857 31.3944 29.5182C31.5638 29.1794 31.5273 28.774 31.3 28.471Z" fill="#000C40"/>
</svg>
