<svg width="48" height="48" viewBox="0 0 48 48" fill="none" xmlns="http://www.w3.org/2000/svg">
<rect width="48" height="48" rx="24" fill="#EBECF0"/>
<path d="M35.0974 24.9296H33.0798C32.5226 24.9296 32.071 25.3813 32.071 25.9384V31.9914C32.071 32.5485 31.6193 33.0002 31.0621 33.0002H27.0269C26.4697 33.0002 26.018 32.5485 26.018 31.9914V28.9649C26.018 27.8506 25.1147 26.9472 24.0004 26.9472C22.8861 26.9472 21.9828 27.8506 21.9828 28.9649V31.9914C21.9828 32.5485 21.5311 33.0002 20.9739 33.0002H16.9386C16.3815 33.0002 15.9298 32.5485 15.9298 31.9914V25.9384C15.9298 25.3813 15.4782 24.9296 14.921 24.9296H12.9034C12.4867 24.9293 12.113 24.6729 11.9629 24.2842C11.8128 23.8955 11.9171 23.4545 12.2254 23.1743L22.6425 13.7034C23.4101 12.9973 24.5907 12.9973 25.3583 13.7034L35.7754 23.1743C36.0837 23.4545 36.188 23.8955 36.0379 24.2842C35.8878 24.6729 35.5141 24.9293 35.0974 24.9296Z" fill="#000C40"/>
</svg>
