<svg width="41" height="41" viewBox="0 0 41 41" fill="none" xmlns="http://www.w3.org/2000/svg">
<rect x="0.5" y="0.5" width="40" height="40" rx="20" fill="white"/>
<path d="M17.9117 23.387C17.9117 23.6171 18.0982 23.8037 18.3284 23.8037H23.09C23.3201 23.8037 23.5067 23.6171 23.5067 23.387V20.887C23.5067 20.6569 23.6932 20.4703 23.9234 20.4703H24.0425C24.217 20.4703 24.373 20.3617 24.4334 20.198C24.4939 20.0344 24.446 19.8504 24.3134 19.737L20.98 16.8803C20.8241 16.7469 20.5943 16.7469 20.4384 16.8803L17.105 19.737C16.9724 19.8504 16.9245 20.0344 16.985 20.198C17.0454 20.3617 17.2014 20.4703 17.3759 20.4703H17.495C17.7251 20.4703 17.9117 20.6569 17.9117 20.887V23.387Z" fill="#000C40"/>
<path d="M14.99 21.0395C15.1101 20.847 15.1165 20.6045 15.0066 20.4059C14.8967 20.2074 14.6878 20.0841 14.4609 20.0837H14.105C13.9845 20.0847 13.8694 20.0334 13.7895 19.9431C13.7096 19.8528 13.6727 19.7324 13.6884 19.6128C14.0413 16.8707 16.004 14.6076 18.6685 13.8702C21.3331 13.1328 24.18 14.0649 25.8925 16.2353C26.1783 16.5961 26.7025 16.657 27.0634 16.3712C27.4242 16.0853 27.485 15.5611 27.1992 15.2003C25.0356 12.463 21.4236 11.3186 18.0785 12.3106C14.7333 13.3026 12.3291 16.2311 12.0075 19.7053C11.9877 19.9204 11.8068 20.0846 11.5909 20.0837H11.1267C10.8996 20.0837 10.6905 20.207 10.5804 20.4056C10.4702 20.6042 10.4765 20.8468 10.5967 21.0395L12.2634 23.7062C12.3779 23.8885 12.5781 23.9992 12.7934 23.9992C13.0087 23.9992 13.2089 23.8885 13.3234 23.7062L14.99 21.0395Z" fill="#000C40"/>
<path d="M29.875 20.917C30.1021 20.9169 30.3113 20.7937 30.4214 20.5951C30.5315 20.3965 30.5252 20.1538 30.405 19.9612L28.7384 17.2945C28.6167 17.1225 28.4191 17.0202 28.2084 17.0202C27.9976 17.0202 27.8 17.1225 27.6784 17.2945L26.0117 19.9612C25.8916 20.1537 25.8852 20.3962 25.9952 20.5947C26.1051 20.7932 26.3139 20.9166 26.5409 20.917H26.8967C27.0173 20.916 27.1324 20.9672 27.2123 21.0575C27.2922 21.1478 27.329 21.2683 27.3134 21.3878C26.9604 24.1299 24.9977 26.393 22.3332 27.1304C19.6686 27.8678 16.8217 26.9358 15.1092 24.7653C14.9243 24.5319 14.6289 24.4149 14.3344 24.4583C14.0398 24.5017 13.7907 24.6989 13.681 24.9758C13.5713 25.2526 13.6176 25.5669 13.8025 25.8003C15.9661 28.5376 19.5781 29.682 22.9233 28.6901C26.2684 27.6981 28.6726 24.7696 28.9942 21.2953C29.0141 21.0803 29.1949 20.9161 29.4109 20.917H29.875Z" fill="#000C40"/>
</svg>
