<svg width="41" height="40" viewBox="0 0 41 40" fill="none" xmlns="http://www.w3.org/2000/svg">
<rect x="0.666992" width="40" height="40" rx="20" fill="#EBECF0"/>
<path fill-rule="evenodd" clip-rule="evenodd" d="M20.4371 10C20.4746 10 20.5121 10 20.5497 10C22.7055 11.408 22.5629 15.1157 24.151 17.0902C24.71 16.1811 22.793 12.4084 24.4886 12.1383C25.1089 12.0395 25.5503 12.9861 25.6141 13.1512C26.183 14.5917 26.5394 16.8201 26.9646 18.1043C27.7149 20.3714 29.1354 22.5572 28.9903 25.0807C28.8115 28.1731 26.3618 28.9822 23.8121 29.8075C23.5495 29.8075 23.2869 29.8075 23.0243 29.8075C20.1508 29.1097 17.2171 27.4866 14.5849 26.3187C13.9734 26.0473 12.3216 25.6722 12.3341 24.6305C12.3591 22.591 15.1376 24.0666 16.1617 24.4042C17.0683 24.7043 18.0475 25.0094 18.8628 25.3058C20.8022 26.0085 22.4366 26.9301 24.2636 26.9939C24.1385 25.8435 22.6279 26.0798 22.2378 25.1945C23.6071 25.3258 24.9851 26.5225 26.2893 25.9823C25.9592 24.5492 23.7884 24.9569 22.913 24.0691C23.6546 23.8802 27.0896 25.3983 27.1897 24.2941C27.2909 23.1762 23.1569 23.5038 22.913 22.7185C24.0097 22.6285 26.1443 23.3638 26.5144 22.2684C25.334 21.2355 22.2641 22.0908 20.9998 21.1417C21.3124 19.97 23.4633 20.1051 23.1394 18.6658C20.9861 18.8046 19.3917 20.4677 17.5123 21.2542C16.9545 20.4389 16.2768 19.5098 15.4852 18.3281C14.7037 17.1615 12.4516 14.1316 14.81 14.1641C15.8429 14.1791 16.5194 15.7822 17.0608 16.5287C17.8224 17.5766 18.3838 18.4232 19.1991 19.1159C18.8015 17.883 18.2613 16.6675 17.511 15.1782C16.9008 13.9652 14.4886 10.3589 16.947 10.4502C18.0024 10.4889 18.8728 12.8386 19.3117 13.7152C20.047 15.1757 20.3858 16.3962 21.3375 17.3153C21.4 15.312 17.9762 10.9003 20.4371 10Z" fill="#000C40"/>
</svg>
