<svg width="40" height="41" viewBox="0 0 40 41" fill="none" xmlns="http://www.w3.org/2000/svg">
<rect y="0.5" width="40" height="40" rx="20" fill="white"/>
<path d="M10.4167 25.3936H11.925C12.0332 25.3937 12.1234 25.4784 12.1325 25.5885L12.5 30.1102C12.5182 30.3312 12.6996 30.5008 12.9167 30.5H16.25C16.4671 30.5008 16.6484 30.3312 16.6667 30.1102L17.0358 25.5885C17.0449 25.4784 17.1351 25.3937 17.2433 25.3936H17.71C17.8251 25.3936 17.9183 25.2984 17.9183 25.1809V20.7128C17.9182 20.2592 18.0374 19.8139 18.2633 19.4234C18.3057 19.3493 18.3008 19.2566 18.2508 19.1877C17.0681 17.5761 15.0086 16.9178 13.1372 17.5533C11.2659 18.1887 10.0024 19.9754 10 21.9894V24.9681C10 25.2031 10.1865 25.3936 10.4167 25.3936Z" fill="#000C40"/>
<path d="M14.5833 16.4574C16.1942 16.4574 17.5 15.1238 17.5 13.4787C17.5 11.8336 16.1942 10.5 14.5833 10.5C12.9725 10.5 11.6667 11.8336 11.6667 13.4787C11.6667 15.1238 12.9725 16.4574 14.5833 16.4574Z" fill="#000C40"/>
<path fill-rule="evenodd" clip-rule="evenodd" d="M20.8333 30.5C19.9129 30.5 19.1667 29.7379 19.1667 28.7979V21.1383C19.1667 20.1982 19.9129 19.4362 20.8333 19.4362H28.3333C29.2538 19.4362 30 20.1982 30 21.1383V28.7979C30 29.7379 29.2538 30.5 28.3333 30.5H20.8333ZM20.8332 28.5851C20.8332 28.7026 20.9265 28.7979 21.0415 28.7979H28.1249C28.1802 28.7981 28.2333 28.7758 28.2724 28.7358C28.3115 28.6959 28.3334 28.6416 28.3332 28.5851V21.3511C28.3332 21.2336 28.2399 21.1383 28.1249 21.1383H21.0415C20.9265 21.1383 20.8332 21.2336 20.8332 21.3511V28.5851Z" fill="#000C40"/>
<path d="M26.6667 22.8404H22.7083C22.3632 22.8404 22.0833 23.1262 22.0833 23.4787C22.0833 23.8312 22.3632 24.117 22.7083 24.117H26.6667C27.0118 24.117 27.2917 23.8312 27.2917 23.4787C27.2917 23.1262 27.0118 22.8404 26.6667 22.8404Z" fill="#000C40"/>
<path d="M24.5833 26.6702C24.9285 26.6702 25.2083 26.3844 25.2083 26.0319C25.2083 25.6794 24.9285 25.3936 24.5833 25.3936H22.7083C22.3632 25.3936 22.0833 25.6794 22.0833 26.0319C22.0833 26.3844 22.3632 26.6702 22.7083 26.6702H24.5833Z" fill="#000C40"/>
<path d="M10.4167 25.3936H11.925C12.0332 25.3937 12.1234 25.4784 12.1325 25.5885L12.5 30.1102C12.5182 30.3312 12.6996 30.5008 12.9167 30.5H16.25C16.4671 30.5008 16.6484 30.3312 16.6667 30.1102L17.0358 25.5885C17.0449 25.4784 17.1351 25.3937 17.2433 25.3936H17.71C17.8251 25.3936 17.9183 25.2984 17.9183 25.1809V20.7128C17.9182 20.2592 18.0374 19.8139 18.2633 19.4234C18.3057 19.3493 18.3008 19.2566 18.2508 19.1877C17.0681 17.5761 15.0086 16.9178 13.1372 17.5533C11.2659 18.1887 10.0024 19.9754 10 21.9894V24.9681C10 25.2031 10.1865 25.3936 10.4167 25.3936Z" fill="#000C40"/>
<path d="M14.5833 16.4574C16.1942 16.4574 17.5 15.1238 17.5 13.4787C17.5 11.8336 16.1942 10.5 14.5833 10.5C12.9725 10.5 11.6667 11.8336 11.6667 13.4787C11.6667 15.1238 12.9725 16.4574 14.5833 16.4574Z" fill="#000C40"/>
<path fill-rule="evenodd" clip-rule="evenodd" d="M20.8333 30.5C19.9129 30.5 19.1667 29.7379 19.1667 28.7979V21.1383C19.1667 20.1982 19.9129 19.4362 20.8333 19.4362H28.3333C29.2538 19.4362 30 20.1982 30 21.1383V28.7979C30 29.7379 29.2538 30.5 28.3333 30.5H20.8333ZM20.8332 28.5851C20.8332 28.7026 20.9265 28.7979 21.0415 28.7979H28.1249C28.1802 28.7981 28.2333 28.7758 28.2724 28.7358C28.3115 28.6959 28.3334 28.6416 28.3332 28.5851V21.3511C28.3332 21.2336 28.2399 21.1383 28.1249 21.1383H21.0415C20.9265 21.1383 20.8332 21.2336 20.8332 21.3511V28.5851Z" fill="#000C40"/>
<path d="M26.6667 22.8404H22.7083C22.3632 22.8404 22.0833 23.1262 22.0833 23.4787C22.0833 23.8312 22.3632 24.117 22.7083 24.117H26.6667C27.0118 24.117 27.2917 23.8312 27.2917 23.4787C27.2917 23.1262 27.0118 22.8404 26.6667 22.8404Z" fill="#000C40"/>
<path d="M24.5833 26.6702C24.9285 26.6702 25.2083 26.3844 25.2083 26.0319C25.2083 25.6794 24.9285 25.3936 24.5833 25.3936H22.7083C22.3632 25.3936 22.0833 25.6794 22.0833 26.0319C22.0833 26.3844 22.3632 26.6702 22.7083 26.6702H24.5833Z" fill="#000C40"/>
</svg>
