<svg width="48" height="48" viewBox="0 0 48 48" fill="none" xmlns="http://www.w3.org/2000/svg">
<rect width="48" height="48" rx="24" fill="#EBECF0"/>
<path fill-rule="evenodd" clip-rule="evenodd" d="M23.7238 12C23.7688 12 23.8138 12 23.8588 12C26.4458 13.6896 26.2747 18.1388 28.1804 20.5082C28.8512 19.4173 26.5508 14.8901 28.5856 14.566C29.3299 14.4474 29.8596 15.5834 29.9361 15.7814C30.6189 17.5101 31.0465 20.1841 31.5567 21.7252C32.457 24.4457 34.1617 27.0687 33.9876 30.0968C33.773 33.8077 30.8334 34.7786 27.7738 35.769C27.4587 35.769 27.1435 35.769 26.8284 35.769C23.3801 34.9317 19.8598 32.9839 16.7011 31.5824C15.9673 31.2568 13.9851 30.8066 14.0001 29.5566C14.0301 27.1092 17.3644 28.8799 18.5933 29.285C19.6812 29.6452 20.8562 30.0113 21.8345 30.3669C24.1619 31.2102 26.1232 32.3162 28.3155 32.3927C28.1654 31.0122 26.3527 31.2958 25.8846 30.2334C27.5277 30.3909 29.1813 31.827 30.7464 31.1787C30.3503 29.4591 27.7453 29.9483 26.6949 28.8829C27.5847 28.6563 31.7068 30.478 31.8268 29.153C31.9484 27.8115 26.9875 28.2046 26.6949 27.2623C28.0109 27.1542 30.5723 28.0365 31.0165 26.7221C29.6 25.4826 25.9161 26.509 24.399 25.37C24.7741 23.964 27.3551 24.1261 26.9665 22.3989C24.3825 22.5655 22.4693 24.5612 20.2139 25.5051C19.5447 24.5267 18.7314 23.4118 17.7815 21.9938C16.8437 20.5937 14.1411 16.9579 16.9712 16.9969C18.2107 17.0149 19.0225 18.9386 19.6722 19.8345C20.5861 21.0919 21.2598 22.1078 22.2382 22.9391C21.761 21.4596 21.1128 20.001 20.2124 18.2138C19.4802 16.7583 16.5856 12.4307 19.5357 12.5402C20.8022 12.5867 21.8465 15.4063 22.3732 16.4582C23.2556 18.2108 23.6622 19.6754 24.8042 20.7783C24.8792 18.3744 20.7706 13.0804 23.7238 12Z" fill="#000C40"/>
</svg>
