<svg width="48" height="48" viewBox="0 0 48 48" fill="none" xmlns="http://www.w3.org/2000/svg">
<rect width="48" height="48" rx="24" fill="#EBECF0"/>
<path fill-rule="evenodd" clip-rule="evenodd" d="M13.2 21.6004C12.5373 21.6004 12 22.1376 12 22.8004V30.0004C12 31.9886 13.6118 33.6004 15.6 33.6004H32.4C34.3882 33.6004 36 31.9886 36 30.0004V22.8004C36 22.1376 35.4627 21.6004 34.8 21.6004H13.2ZM15.6 26.4004C14.9373 26.4004 14.4 26.9376 14.4 27.6004C14.4 28.2631 14.9373 28.8004 15.6 28.8004H22.8C23.4627 28.8004 24 28.2631 24 27.6004C24 26.9376 23.4627 26.4004 22.8 26.4004H15.6Z" fill="#000C40"/>
<path d="M12 18.0004C12 16.0122 13.6118 14.4004 15.6 14.4004H32.4C34.3882 14.4004 36 16.0122 36 18.0004C36 18.6631 35.4627 19.2004 34.8 19.2004H13.2C12.5373 19.2004 12 18.6631 12 18.0004Z" fill="#000C40"/>
</svg>
