<svg width="49" height="48" viewBox="0 0 49 48" fill="none" xmlns="http://www.w3.org/2000/svg">
<rect x="0.799988" width="48" height="48" rx="24" fill="#EBECF0"/>
<g clip-path="url(#clip0_1370_21581)">
<path fill-rule="evenodd" clip-rule="evenodd" d="M14 21.6004C13.3372 21.6004 12.8 22.1376 12.8 22.8004V30.0004C12.8 31.9886 14.4118 33.6004 16.4 33.6004H33.2C35.1882 33.6004 36.8 31.9886 36.8 30.0004V22.8004C36.8 22.1376 36.2627 21.6004 35.6 21.6004H14ZM16.4 26.4004C15.7372 26.4004 15.2 26.9376 15.2 27.6004C15.2 28.2631 15.7372 28.8004 16.4 28.8004H23.6C24.2627 28.8004 24.8 28.2631 24.8 27.6004C24.8 26.9376 24.2627 26.4004 23.6 26.4004H16.4Z" fill="#000C40"/>
<path d="M12.8 18.0004C12.8 16.0122 14.4118 14.4004 16.4 14.4004H33.2C35.1882 14.4004 36.8 16.0122 36.8 18.0004C36.8 18.6631 36.2627 19.2004 35.6 19.2004H14C13.3372 19.2004 12.8 18.6631 12.8 18.0004Z" fill="#000C40"/>
</g>
<defs>
<clipPath id="clip0_1370_21581">
<rect width="24" height="24" fill="white" transform="translate(12.8 12)"/>
</clipPath>
</defs>
</svg>
