<svg width="40" height="41" viewBox="0 0 40 41" fill="none" xmlns="http://www.w3.org/2000/svg">
<rect y="0.5" width="40" height="40" rx="20" fill="white"/>
<path d="M10.4576 13.6323C10.325 13.8523 10.4115 14.1339 10.6236 14.2706L19.4735 19.9775C19.796 20.1854 20.2037 20.1854 20.5262 19.9775L29.3764 14.2705C29.5884 14.1338 29.675 13.8522 29.5423 13.6322C29.0117 12.7521 28.0714 12.167 27 12.167H13C11.9285 12.167 10.9883 12.7521 10.4576 13.6323Z" fill="#000C40"/>
<path d="M30 17.2536C30 16.8455 29.5699 16.5959 29.2368 16.8107L21.579 21.7488C20.6114 22.3727 19.3883 22.3727 18.4208 21.7488L10.7632 16.8109C10.4301 16.5961 10 16.8456 10 17.2537V25.7087C10 27.4346 11.3431 28.8337 13 28.8337H27C28.6569 28.8337 30 27.4346 30 25.7087V17.2536Z" fill="#000C40"/>
</svg>
