<svg width="47" height="24" viewBox="0 0 47 24" fill="none" xmlns="http://www.w3.org/2000/svg">
<rect x="0.333008" width="46" height="24" rx="12" fill="#05BF90"/>
<path d="M18.4779 7.27273V16H17.0716L12.9594 10.0554H12.887V16H11.306V7.27273H12.7208L16.8287 13.2216H16.9054V7.27273H18.4779ZM22.9101 16.1278C22.2538 16.1278 21.6871 15.9915 21.2098 15.7188C20.7354 15.4432 20.3703 15.054 20.1146 14.5511C19.8589 14.0455 19.7311 13.4503 19.7311 12.7656C19.7311 12.0923 19.8589 11.5014 20.1146 10.9929C20.3731 10.4815 20.7339 10.0838 21.197 9.79972C21.6601 9.51278 22.2041 9.36932 22.8291 9.36932C23.2325 9.36932 23.6132 9.43466 23.9711 9.56534C24.3319 9.69318 24.6501 9.89205 24.9257 10.1619C25.2041 10.4318 25.4229 10.7756 25.5819 11.1932C25.741 11.608 25.8206 12.1023 25.8206 12.6761V13.1491H20.4555V12.1094H24.3419C24.339 11.8139 24.2751 11.5511 24.1501 11.321C24.0251 11.0881 23.8504 10.9048 23.626 10.7713C23.4044 10.6378 23.1459 10.571 22.8504 10.571C22.5351 10.571 22.2581 10.6477 22.0194 10.8011C21.7808 10.9517 21.5947 11.1506 21.4612 11.3977C21.3305 11.642 21.2638 11.9105 21.2609 12.2031V13.1108C21.2609 13.4915 21.3305 13.8182 21.4697 14.0909C21.6089 14.3608 21.8035 14.5682 22.0535 14.7131C22.3035 14.8551 22.5961 14.9261 22.9314 14.9261C23.1558 14.9261 23.3589 14.8949 23.5407 14.8324C23.7226 14.767 23.8802 14.6719 24.0138 14.5469C24.1473 14.4219 24.2481 14.267 24.3163 14.0824L25.7567 14.2443C25.6657 14.625 25.4925 14.9574 25.2368 15.2415C24.9839 15.5227 24.6601 15.7415 24.2652 15.8977C23.8703 16.0511 23.4186 16.1278 22.9101 16.1278ZM28.3213 16L26.4719 9.45455H28.0443L29.1949 14.0568H29.2546L30.4307 9.45455H31.9861L33.1622 14.0312H33.2261L34.3597 9.45455H35.9364L34.0827 16H32.4761L31.2489 11.5767H31.1594L29.9321 16H28.3213Z" fill="white"/>
</svg>
