<svg width="53" height="24" viewBox="0 0 53 24" fill="none" xmlns="http://www.w3.org/2000/svg">
<rect width="53" height="24" rx="12" fill="#38A3A5" fill-opacity="0.1"/>
<path d="M18.4119 7.27273V16H17.0056L12.8934 10.0554H12.821V16H11.24V7.27273H12.6548L16.7627 13.2216H16.8394V7.27273H18.4119ZM22.8441 16.1278C22.1878 16.1278 21.6211 15.9915 21.1438 15.7188C20.6694 15.4432 20.3043 15.054 20.0486 14.5511C19.793 14.0455 19.6651 13.4503 19.6651 12.7656C19.6651 12.0923 19.793 11.5014 20.0486 10.9929C20.3072 10.4815 20.668 10.0838 21.131 9.79972C21.5941 9.51278 22.1381 9.36932 22.7631 9.36932C23.1665 9.36932 23.5472 9.43466 23.9052 9.56534C24.266 9.69318 24.5841 9.89205 24.8597 10.1619C25.1381 10.4318 25.3569 10.7756 25.516 11.1932C25.6751 11.608 25.7546 12.1023 25.7546 12.6761V13.1491H20.3895V12.1094H24.2759C24.2731 11.8139 24.2091 11.5511 24.0841 11.321C23.9591 11.0881 23.7844 10.9048 23.56 10.7713C23.3384 10.6378 23.0799 10.571 22.7844 10.571C22.4691 10.571 22.1921 10.6477 21.9535 10.8011C21.7148 10.9517 21.5288 11.1506 21.3952 11.3977C21.2645 11.642 21.1978 11.9105 21.1949 12.2031V13.1108C21.1949 13.4915 21.2645 13.8182 21.4038 14.0909C21.543 14.3608 21.7376 14.5682 21.9876 14.7131C22.2376 14.8551 22.5302 14.9261 22.8654 14.9261C23.0898 14.9261 23.293 14.8949 23.4748 14.8324C23.6566 14.767 23.8143 14.6719 23.9478 14.5469C24.0813 14.4219 24.1822 14.267 24.2503 14.0824L25.6907 14.2443C25.5998 14.625 25.4265 14.9574 25.1708 15.2415C24.918 15.5227 24.5941 15.7415 24.1992 15.8977C23.8043 16.0511 23.3526 16.1278 22.8441 16.1278ZM28.2553 16L26.4059 9.45455H27.9784L29.1289 14.0568H29.1886L30.3647 9.45455H31.9201L33.0963 14.0312H33.1602L34.2937 9.45455H35.8704L34.0167 16H32.4102L31.1829 11.5767H31.0934L29.8661 16H28.2553ZM42.0008 11.1847L40.5945 11.3381C40.5547 11.196 40.4851 11.0625 40.3857 10.9375C40.2891 10.8125 40.1584 10.7116 39.9937 10.6349C39.8289 10.5582 39.6272 10.5199 39.3885 10.5199C39.0675 10.5199 38.7976 10.5895 38.5789 10.7287C38.363 10.8679 38.2564 11.0483 38.2593 11.2699C38.2564 11.4602 38.326 11.6151 38.4681 11.7344C38.613 11.8537 38.8516 11.9517 39.184 12.0284L40.3005 12.267C40.9198 12.4006 41.38 12.6122 41.6812 12.902C41.9851 13.1918 42.1385 13.571 42.1414 14.0398C42.1385 14.4517 42.0178 14.8153 41.7792 15.1307C41.5434 15.4432 41.2152 15.6875 40.7948 15.8636C40.3743 16.0398 39.8914 16.1278 39.3459 16.1278C38.5448 16.1278 37.8999 15.9602 37.4113 15.625C36.9226 15.2869 36.6314 14.8168 36.5377 14.2145L38.0419 14.0696C38.1101 14.3651 38.255 14.5881 38.4766 14.7386C38.6982 14.8892 38.9865 14.9645 39.3417 14.9645C39.7081 14.9645 40.0022 14.8892 40.2238 14.7386C40.4482 14.5881 40.5604 14.402 40.5604 14.1804C40.5604 13.9929 40.488 13.8381 40.3431 13.7159C40.201 13.5937 39.9794 13.5 39.6783 13.4347L38.5618 13.2003C37.934 13.0696 37.4695 12.8494 37.1684 12.5398C36.8672 12.2273 36.7181 11.8324 36.7209 11.3551C36.7181 10.9517 36.8275 10.6023 37.049 10.3068C37.2735 10.0085 37.5846 9.77841 37.9823 9.61648C38.3829 9.4517 38.8445 9.36932 39.3672 9.36932C40.1343 9.36932 40.738 9.53267 41.1783 9.85938C41.6215 10.1861 41.8956 10.6278 42.0008 11.1847Z" fill="#38A3A5"/>
</svg>
