<svg width="24" height="24" viewBox="0 0 24 24" fill="none" xmlns="http://www.w3.org/2000/svg">
<g clip-path="url(#clip0_480_25920)">
<rect width="24" height="24" rx="6" fill="#B6DCFF"/>
<path d="M12.006 17.1491C11.2141 17.1491 10.511 17.016 9.89662 16.7496C9.28582 16.4833 8.80642 16.1193 8.45841 15.6577C8.11395 15.1925 7.94349 14.6651 7.94704 14.0756C7.94349 13.6175 8.04292 13.1967 8.24534 12.8132C8.44775 12.4297 8.72119 12.1101 9.06565 11.8544C9.41366 11.5952 9.80074 11.43 10.2269 11.359V11.2844C9.66579 11.1602 9.21125 10.8743 8.86324 10.4268C8.51878 9.97585 8.34832 9.45561 8.35187 8.86612C8.34832 8.30504 8.50457 7.80433 8.82062 7.36399C9.13667 6.92365 9.56991 6.57741 10.1203 6.32528C10.6708 6.0696 11.2993 5.94176 12.006 5.94176C12.7056 5.94176 13.3288 6.0696 13.8757 6.32528C14.4261 6.57741 14.8593 6.92365 15.1754 7.36399C15.495 7.80433 15.6548 8.30504 15.6548 8.86612C15.6548 9.45561 15.479 9.97585 15.1274 10.4268C14.7794 10.8743 14.3302 11.1602 13.7798 11.2844V11.359C14.2059 11.43 14.5894 11.5952 14.9304 11.8544C15.2748 12.1101 15.5483 12.4297 15.7507 12.8132C15.9566 13.1967 16.0596 13.6175 16.0596 14.0756C16.0596 14.6651 15.8856 15.1925 15.5376 15.6577C15.1896 16.1193 14.7102 16.4833 14.0994 16.7496C13.4921 17.016 12.7943 17.1491 12.006 17.1491ZM12.006 15.6257C12.4144 15.6257 12.7695 15.5565 13.0713 15.418C13.3732 15.2759 13.6076 15.0771 13.7745 14.8214C13.9414 14.5657 14.0266 14.271 14.0301 13.9371C14.0266 13.5891 13.936 13.282 13.7585 13.0156C13.5845 12.7457 13.3448 12.5344 13.0394 12.3817C12.7375 12.229 12.3931 12.1527 12.006 12.1527C11.6154 12.1527 11.2674 12.229 10.962 12.3817C10.6566 12.5344 10.4151 12.7457 10.2375 13.0156C10.0635 13.282 9.97829 13.5891 9.98184 13.9371C9.97829 14.271 10.06 14.5657 10.2269 14.8214C10.3938 15.0735 10.6282 15.2706 10.93 15.4126C11.2354 15.5547 11.5941 15.6257 12.006 15.6257ZM12.006 10.6559C12.3398 10.6559 12.6345 10.5884 12.8902 10.4535C13.1495 10.3185 13.3536 10.1303 13.5028 9.88885C13.6519 9.64737 13.7283 9.36861 13.7318 9.05256C13.7283 8.74006 13.6537 8.46662 13.5081 8.23224C13.3625 7.99432 13.1601 7.81143 12.9009 7.68359C12.6416 7.5522 12.3434 7.48651 12.006 7.48651C11.6615 7.48651 11.3579 7.5522 11.0951 7.68359C10.8359 7.81143 10.6335 7.99432 10.4879 8.23224C10.3458 8.46662 10.2766 8.74006 10.2801 9.05256C10.2766 9.36861 10.3476 9.64737 10.4932 9.88885C10.6424 10.1268 10.8465 10.315 11.1058 10.4535C11.3686 10.5884 11.6686 10.6559 12.006 10.6559Z" fill="#000C40"/>
</g>
<defs>
<clipPath id="clip0_480_25920">
<rect width="24" height="24" rx="6" fill="white"/>
</clipPath>
</defs>
</svg>
