<svg width="49" height="48" viewBox="0 0 49 48" fill="none" xmlns="http://www.w3.org/2000/svg">
<rect x="0.199951" width="48" height="48" rx="24" fill="#EBECF0"/>
<path fill-rule="evenodd" clip-rule="evenodd" d="M23.9237 12C23.9687 12 24.0137 12 24.0588 12C26.6457 13.6896 26.4747 18.1388 28.3804 20.5082C29.0511 19.4173 26.7508 14.8901 28.7855 14.566C29.5298 14.4474 30.0595 15.5834 30.136 15.7814C30.8188 17.5101 31.2465 20.1841 31.7567 21.7252C32.657 24.4457 34.3616 27.0687 34.1876 30.0968C33.973 33.8077 31.0334 34.7786 27.9737 35.769C27.6586 35.769 27.3435 35.769 27.0284 35.769C23.5801 34.9317 20.0597 32.9839 16.9011 31.5824C16.1673 31.2568 14.185 30.8066 14.2 29.5566C14.23 27.1092 17.5643 28.8799 18.7933 29.285C19.8812 29.6452 21.0561 30.0113 22.0345 30.3669C24.3619 31.2102 26.3231 32.3162 28.5154 32.3927C28.3654 31.0122 26.5527 31.2958 26.0845 30.2334C27.7276 30.3909 29.3813 31.827 30.9464 31.1787C30.5502 29.4591 27.9452 29.9483 26.8948 28.8829C27.7847 28.6563 31.9067 30.478 32.0268 29.153C32.1483 27.8115 27.1874 28.2046 26.8948 27.2623C28.2108 27.1542 30.7723 28.0365 31.2165 26.7221C29.7999 25.4826 26.116 26.509 24.599 25.37C24.9741 23.964 27.5551 24.1261 27.1664 22.3989C24.5825 22.5655 22.6692 24.5612 20.4139 25.5051C19.7446 24.5267 18.9313 23.4118 17.9815 21.9938C17.0436 20.5937 14.3411 16.9579 17.1712 16.9969C18.4106 17.0149 19.2224 18.9386 19.8722 19.8345C20.786 21.0919 21.4598 22.1078 22.4381 22.9391C21.961 21.4596 21.3127 20.001 20.4124 18.2138C19.6801 16.7583 16.7855 12.4307 19.7356 12.5402C21.0021 12.5867 22.0465 15.4063 22.5732 16.4582C23.4555 18.2108 23.8622 19.6754 25.0041 20.7783C25.0791 18.3744 20.9706 13.0804 23.9237 12Z" fill="#000C40"/>
</svg>
