<svg width="28" height="28" viewBox="0 0 28 28" fill="none" xmlns="http://www.w3.org/2000/svg">
<rect width="28" height="28" rx="14" fill="#EBECF0"/>
<path fill-rule="evenodd" clip-rule="evenodd" d="M13.8382 7C13.8645 7 13.8907 7 13.917 7C15.4261 7.98562 15.3263 10.581 16.4379 11.9631C16.8292 11.3268 15.4873 8.68589 16.6743 8.49681C17.1084 8.42766 17.4174 9.09029 17.4621 9.20583C17.8603 10.2142 18.1098 11.7741 18.4074 12.673C18.9326 14.26 19.927 15.7901 19.8255 17.5565C19.7003 19.7212 17.9855 20.2875 16.2007 20.8652C16.0169 20.8652 15.8331 20.8652 15.6493 20.8652C13.6378 20.3768 11.5842 19.2406 9.74166 18.4231C9.31362 18.2331 8.15731 17.9705 8.16607 17.2414C8.18357 15.8137 10.1286 16.8466 10.8455 17.0829C11.4801 17.293 12.1654 17.5066 12.7362 17.714C14.0938 18.206 15.2379 18.8511 16.5167 18.8957C16.4292 18.0904 15.3718 18.2559 15.0987 17.6361C16.0572 17.728 17.0218 18.5657 17.9348 18.1876C17.7037 17.1845 16.1841 17.4698 15.5714 16.8483C16.0904 16.7162 18.495 17.7788 18.565 17.0059C18.6359 16.2234 15.742 16.4527 15.5714 15.903C16.339 15.84 17.8332 16.3547 18.0923 15.5879C17.266 14.8648 15.1171 15.4636 14.2321 14.7992C14.4509 13.979 15.9565 14.0735 15.7298 13.066C14.2225 13.1632 13.1064 14.3274 11.7908 14.878C11.4004 14.3073 10.926 13.6569 10.3719 12.8297C9.82482 12.013 8.24835 9.89209 9.89922 9.91485C10.6222 9.92535 11.0958 11.0475 11.4748 11.5701C12.0079 12.3036 12.4009 12.8962 12.9716 13.3812C12.6933 12.5181 12.3151 11.6673 11.7899 10.6247C11.3628 9.77567 9.67426 7.25122 11.3952 7.31512C12.1339 7.34225 12.7432 8.987 13.0504 9.60061C13.5651 10.623 13.8023 11.4773 14.4684 12.1207C14.5122 10.7184 12.1156 7.63024 13.8382 7Z" fill="#000C40"/>
</svg>
