<svg width="41" height="41" viewBox="0 0 41 41" fill="none" xmlns="http://www.w3.org/2000/svg">
<rect x="0.75" y="0.5" width="40" height="40" rx="20" fill="white"/>
<path d="M29.9163 27.167C29.9163 26.2465 29.1701 25.5003 28.2497 25.5003H13.2497C12.3292 25.5003 11.583 26.2465 11.583 27.167C11.583 28.0875 12.3292 28.8337 13.2497 28.8337H28.2497C29.1701 28.8337 29.9163 28.0875 29.9163 27.167Z" fill="#000C40"/>
<path d="M11.583 20.5003C11.583 19.5799 12.3292 18.8337 13.2497 18.8337H28.2497C29.1701 18.8337 29.9163 19.5799 29.9163 20.5003C29.9163 21.4208 29.1701 22.167 28.2497 22.167H13.2497C12.3292 22.167 11.583 21.4208 11.583 20.5003Z" fill="#000C40"/>
<path d="M13.2497 15.5003H28.2497C29.1701 15.5003 29.9163 14.7541 29.9163 13.8337C29.9163 12.9132 29.1701 12.167 28.2497 12.167H13.2497C12.3292 12.167 11.583 12.9132 11.583 13.8337C11.583 14.7541 12.3292 15.5003 13.2497 15.5003Z" fill="#000C40"/>
</svg>
