<svg width="48" height="48" viewBox="0 0 48 48" fill="none" xmlns="http://www.w3.org/2000/svg">
<rect width="48" height="48" rx="24" fill="#EBECF0"/>
<path d="M12 27.0583C12 26.506 12.4477 26.0583 13 26.0583H15C15.5523 26.0583 16 26.506 16 27.0583V34.0583C16 34.6106 15.5523 35.0583 15 35.0583H13C12.4477 35.0583 12 34.6106 12 34.0583V27.0583Z" fill="#000C40"/>
<path d="M35.724 31.0673C35.8673 30.9951 35.9673 30.8586 35.9929 30.7002C36.0184 30.5418 35.9664 30.3808 35.853 30.2673C35.0374 29.2072 33.6537 28.7581 32.371 29.1373C32.313 29.1543 30.404 29.7653 30.347 29.7833C30.1366 29.8504 29.9952 30.0475 29.999 30.2683C30.0097 30.8717 29.7776 31.4542 29.3547 31.8848C28.9317 32.3154 28.3536 32.5581 27.75 32.5583H22.5C22.2239 32.5583 22 32.3344 22 32.0583C22 31.7821 22.2239 31.5583 22.5 31.5583H27.75C28.4404 31.5583 29 30.9986 29 30.3083C29 29.6179 28.4404 29.0583 27.75 29.0583L24.193 29.0653C24.0965 29.0658 24.0019 29.0379 23.921 28.9853C23.799 28.9073 23.635 28.7853 23.493 28.6853C22.3724 27.7264 20.9717 27.1557 19.5 27.0583H17.5C17.2239 27.0583 17 27.2821 17 27.5583V33.4583C16.9997 33.6726 17.1361 33.8633 17.339 33.9323C18.045 34.1713 18.68 34.3923 19.256 34.5923C21.88 35.5003 23.344 36.0003 24.674 36.0003C26.298 36.0003 27.723 35.2583 30.813 33.6143C32.094 32.9333 33.689 32.0853 35.724 31.0673Z" fill="#000C40"/>
<path d="M30.168 14.9193C30.3152 15.05 30.5254 15.0822 30.705 15.0014C30.8846 14.9207 31.0001 14.7421 31 14.5453V13.0003C31 12.448 30.5523 12.0003 30 12.0003H28.2C27.9923 12.0002 27.8062 12.1286 27.7324 12.3227C27.6587 12.5169 27.7126 12.7364 27.868 12.8743L30.168 14.9193Z" fill="#000C40"/>
<path d="M17.5 19.5003H19.5C19.7761 19.5003 20 19.7241 20 20.0003V25.0003C20 25.5526 20.4477 26.0003 21 26.0003H22.5C23.0523 26.0003 23.5 25.5526 23.5 25.0003V22.5003C23.5 22.2241 23.7239 22.0003 24 22.0003H26C26.2761 22.0003 26.5 22.2241 26.5 22.5003V25.0003C26.5 25.5526 26.9477 26.0003 27.5 26.0003H29C29.5523 26.0003 30 25.5526 30 25.0003V20.0003C30 19.7241 30.2239 19.5003 30.5 19.5003H32.5C32.7077 19.5003 32.8938 19.372 32.9676 19.1778C33.0413 18.9837 32.9874 18.7641 32.832 18.6263L25.664 12.2523C25.2852 11.9159 24.7148 11.9159 24.336 12.2523L17.168 18.6263C17.0126 18.7641 16.9587 18.9837 17.0324 19.1778C17.1062 19.372 17.2923 19.5003 17.5 19.5003Z" fill="#000C40"/>
</svg>
