<svg width="41" height="41" viewBox="0 0 41 41" fill="none" xmlns="http://www.w3.org/2000/svg">
<rect x="0.25" y="0.5" width="40" height="40" rx="20" fill="white"/>
<g clip-path="url(#clip0_511_28804)">
<path d="M11.083 26.5V28.5C11.083 29.6046 11.995 30.5 13.12 30.5H27.3793C28.5043 30.5 29.4163 29.6046 29.4163 28.5V26.5C29.4163 23.7386 27.1363 21.5 24.3237 21.5H16.1756C13.363 21.5 11.083 23.7386 11.083 26.5Z" fill="#000C40"/>
<path d="M24.833 15C24.833 17.4853 22.781 19.5 20.2497 19.5C17.7184 19.5 15.6663 17.4853 15.6663 15C15.6663 12.5147 17.7184 10.5 20.2497 10.5C22.781 10.5 24.833 12.5147 24.833 15Z" fill="#000C40"/>
</g>
<defs>
<clipPath id="clip0_511_28804">
<rect width="20" height="20" fill="white" transform="translate(10.25 10.5)"/>
</clipPath>
</defs>
</svg>
